<?xml version="1.0" encoding="UTF-8"?>
<svg xmlns="http://www.w3.org/2000/svg" xmlns:xlink="http://www.w3.org/1999/xlink" version="1.2" >
<font id="Acacio Bold">
<font-face  font-family="Acacio" units-per-em="1024" ascent="975" descent="-413" font-style="normal" font-weight="700" font-stretch="normal" cap-height="750" x-height="500" underline-position="-125" underline-thickness="50" />
<missing-glyph  horiz-adv-x="650" d="" />
<glyph glyph-name="NULL" d="" />
<glyph glyph-name="CR" unicode="&#xd;" horiz-adv-x="256" d="" />
<glyph glyph-name="space" unicode="&#x20;" horiz-adv-x="210" d="" />
<glyph glyph-name="exclam" unicode="&#x21;" horiz-adv-x="280" d="M140 -5 C148 -5 220 67 220 75 C220 83 148 155 140 155 C132 155 60 83 60 75 C60 67 132 -5 140 -5 L140 -5 Z M140 755 C129 755 68 645 70 632 L130 210 L151 210 L211 632 C212 645 152 755 140 755 L140 755 Z " />
<glyph glyph-name="quotedbl" unicode="&#x22;" horiz-adv-x="429" d="M299 755 C291 755 247 660 249 649 L294 489 L310 489 L355 649 C358 660 313 755 306 755 L299 755 L299 755 Z M124 755 C116 755 72 660 74 649 L119 489 L135 489 L180 649 C183 660 138 755 131 755 L124 755 L124 755 Z " />
<glyph glyph-name="numbersign" unicode="&#x23;" horiz-adv-x="500" d="M369 656 L346 504 L215 504 L238 656 L232 656 L209 504 L71 504 L59 416 L195 416 L169 244 L28 244 L16 156 L155 156 L131 0 L138 0 L162 156 L292 156 L268 0 L275 0 L299 156 L420 156 L432 244 L312 244 L338 416 L468 416 L481 504 L352 504 L375 656 L369 656 L369 656 Z M201 416 L332 416 L306 244 L176 244 L201 416 L201 416 Z " />
<glyph glyph-name="dollar" unicode="&#x24;" horiz-adv-x="522" d="M277 825 L277 749 C263 756 253 760 250 760 C248 760 243 757 237 752 L237 824 L196 824 L196 714 C139 658 58 567 58 553 C58 539 148 402 196 339 L196 51 C176 69 154 89 135 107 L135 107 C130 112 84 161 84 161 C83 161 80 160 77 158 C81 160 84 161 84 161 L47 144 C52 134 135 72 197 29 L197 -77 L238 -77 L238 2 C252 -7 262 -12 265 -12 C267 -12 271 -10 277 -6 L277 -77 L318 -77 L318 28 C383 86 483 188 483 204 C483 219 363 380 318 428 L318 706 C324 702 330 697 336 692 L335 692 C342 687 408 627 409 626 L446 643 C445 646 435 653 420 663 C416 666 413 668 412 669 L411 669 C385 686 349 708 318 726 L318 825 L277 825 L277 825 Z M88 111 L88 111 L88 111 Z M238 299 C248 292 262 280 277 267 L277 8 C271 1 266 -3 264 -3 C262 -3 252 5 238 17 L238 299 L238 299 Z M318 232 C351 202 380 174 380 170 C380 160 348 109 318 65 L318 232 L318 232 Z M238 508 L238 743 C244 752 249 757 251 757 C253 757 263 750 277 740 L277 466 C266 477 252 491 238 506 L238 508 L238 508 Z M197 552 C175 577 159 598 159 602 C159 609 177 643 197 677 L197 552 L197 552 Z " />
<glyph glyph-name="ampersand" unicode="&#x26;" horiz-adv-x="849" d="M344 474 C394 510 508 603 508 610 C508 625 334 760 315 760 C297 760 139 611 139 595 C139 587 195 491 232 432 C184 388 33 212 33 196 C33 176 225 -10 246 -10 C259 -10 347 74 445 174 L523 83 C530 74 691 -9 701 -9 C713 -9 838 130 840 146 L820 153 C819 146 755 85 749 85 C741 85 628 137 623 143 L525 257 C631 368 728 477 736 500 L709 500 C702 479 605 374 509 276 L363 447 C361 450 355 460 346 474 L344 474 L344 474 Z M332 497 C296 557 242 649 242 656 C242 664 310 734 317 734 C327 734 415 629 415 618 C415 609 363 535 332 497 L332 497 Z M427 196 C369 139 323 97 315 97 C299 97 156 218 156 231 C156 244 216 358 248 410 C256 398 262 390 264 387 L427 196 L427 196 Z " />
<glyph glyph-name="quotesingle" unicode="&#x27;" horiz-adv-x="254" d="M124 755 C116 755 72 660 74 649 L119 489 L135 489 L180 649 C183 660 138 755 131 755 L124 755 L124 755 Z " />
<glyph glyph-name="parenleft" unicode="&#x28;" horiz-adv-x="307" d="M317 760 C294 740 90 257 90 224 C90 191 294 -291 317 -312 L328 -300 C312 -286 171 186 171 224 C171 262 312 734 328 748 L317 760 L317 760 Z " />
<glyph glyph-name="parenright" unicode="&#x29;" horiz-adv-x="302" d="M-31 748 C-15 733 131 261 131 224 C131 185 -15 -297 -31 -312 L-20 -324 C3 -303 212 190 212 224 C212 256 3 738 -20 760 L-31 748 L-31 748 Z " />
<glyph glyph-name="asterisk" unicode="&#x2a;" horiz-adv-x="300" d="M150 630 L185 750 C186 754 155 785 150 785 C146 785 114 754 115 750 L150 630 L150 630 Z M150 630 L236 540 C239 537 282 549 284 552 C286 556 275 600 271 600 L150 630 L150 630 Z M150 630 L64 720 C61 723 18 711 16 707 C14 704 25 660 29 660 L150 630 L150 630 Z M150 630 L271 660 C275 660 286 704 284 707 C282 711 239 723 236 720 L150 630 L150 630 Z M150 630 L29 600 C25 600 14 556 16 552 C18 549 61 537 64 540 L150 630 L150 630 Z M150 630 L115 510 C114 507 146 475 150 475 C155 475 186 507 185 510 L150 630 L150 630 Z " />
<glyph glyph-name="plus" unicode="&#x2b;" horiz-adv-x="588" d="M249 444 L249 291 L100 291 L100 209 L249 209 L249 56 L339 56 L339 209 L488 209 L488 291 L339 291 L339 444 L249 444 L249 444 Z " />
<glyph glyph-name="comma" unicode="&#x2c;" horiz-adv-x="270" d="M125 -5 C129 -5 150 14 169 33 C175 22 179 13 179 11 C179 -1 53 -139 39 -143 L44 -160 C63 -155 229 7 229 19 C229 24 216 44 199 67 C202 71 204 74 204 75 C204 83 132 155 124 155 C116 155 44 83 44 75 C44 67 116 -5 124 -5 L125 -5 L125 -5 Z " />
<glyph glyph-name="hyphen" unicode="&#x2d;" horiz-adv-x="398" d="M80 237 L318 237 L318 327 L80 327 L80 237 L80 237 Z " />
<glyph glyph-name="period" unicode="&#x2e;" horiz-adv-x="270" d="M125 -5 C133 -5 205 67 205 75 C205 83 133 155 125 155 C117 155 45 83 45 75 C45 67 117 -5 125 -5 L125 -5 Z " />
<glyph glyph-name="slash" unicode="&#x2f;" horiz-adv-x="397" d="M300 770 L18 -80 L86 -80 L368 770 L300 770 L300 770 Z " />
<glyph glyph-name="zero" unicode="0" horiz-adv-x="613" d="M305 37 C286 37 96 229 96 250 C96 269 284 463 305 463 C324 463 514 271 514 250 C514 231 326 37 305 37 L305 37 Z M41 250 C41 224 281 -10 305 -10 C331 -10 569 227 569 250 C569 276 329 510 305 510 C279 510 41 273 41 250 L41 250 Z " />
<glyph glyph-name="one" unicode="1" horiz-adv-x="198" d="M157 27 L157 473 C157 474 158 480 158 480 L158 490 L158 500 L99 500 L40 500 L40 490 L40 480 C40 480 42 474 42 473 L42 27 C42 26 40 20 40 20 L40 10 L40 0 L99 0 L158 0 L158 10 L158 20 C158 20 157 26 157 27 L157 27 Z " />
<glyph glyph-name="two" unicode="2" horiz-adv-x="521" d="M66 289 C68 303 192 423 203 423 C213 423 307 330 307 320 C307 303 55 35 30 20 L30 0 L293 0 L339 0 L403 0 C404 2 415 20 424 34 L467 102 L467 102 L467 102 L457 102 L447 102 C447 102 406 101 399 101 L176 101 L39 5 C104 53 423 332 423 346 C423 362 279 509 263 509 C245 509 47 315 43 293 L66 289 L66 289 Z " />
<glyph glyph-name="three" unicode="3" horiz-adv-x="425" d="M16 -315 L20 -338 C57 -334 385 -59 385 -33 C385 -11 203 206 180 212 C254 279 355 377 355 387 C355 400 218 510 203 510 C188 510 22 368 19 352 L44 345 C45 353 147 429 156 429 C164 429 232 356 232 348 C232 333 116 178 104 173 L104 150 C120 147 264 -46 264 -65 C264 -88 41 -312 16 -315 L16 -315 Z " />
<glyph glyph-name="four" unicode="4" horiz-adv-x="559" d="M479 88 L383 88 L383 314 L383 530 L368 530 L15 20 L15 0 L55 0 L268 0 L268 -320 L383 -320 L383 0 L488 0 C492 0 514 -1 514 -1 L524 -1 L534 -1 C535 1 540 42 541 44 C541 46 547 87 547 89 L537 89 L527 89 C527 89 486 88 479 88 L479 88 Z M115 88 L268 315 L268 314 L268 88 L115 88 L115 88 Z " />
<glyph glyph-name="five" unicode="5" horiz-adv-x="410" d="M61 -235 C93 -231 380 28 380 53 C380 76 124 285 95 285 L73 285 L88 397 L313 400 L320 442 C321 447 322 450 322 451 C322 453 330 499 331 501 L321 501 L311 501 C311 501 273 500 267 500 L66 500 L20 182 L40 164 L82 164 C102 164 279 29 279 14 C279 -6 80 -211 58 -214 L61 -235 L61 -235 Z " />
<glyph glyph-name="six" unicode="6" horiz-adv-x="544" d="M526 750 C478 740 50 331 50 295 C50 265 255 -10 277 -10 C299 -10 491 214 491 238 C491 259 345 428 304 457 C398 588 509 729 530 733 L526 750 L526 750 Z M299 449 C318 415 376 263 376 244 C376 219 286 -6 276 -6 C265 -6 164 209 164 233 C164 251 226 346 299 448 L299 449 L299 449 Z " />
<glyph glyph-name="seven" unicode="7" horiz-adv-x="407" d="M120 500 L80 500 L77 500 L77 501 L67 501 L57 501 C56 498 37 454 36 452 C34 449 15 405 14 403 L24 403 L34 403 C34 403 48 404 50 404 L367 404 L373 418 L100 -320 L188 -320 L403 485 L403 500 L400 500 L120 500 L120 500 Z " />
<glyph glyph-name="eight" unicode="8" horiz-adv-x="509" d="M208 357 C214 350 218 346 220 345 C236 338 381 161 381 143 C381 128 264 -7 251 -7 C239 -7 133 155 133 173 C133 187 180 298 209 357 L208 357 L208 357 Z M199 370 C143 313 35 186 35 174 C35 156 231 -10 253 -10 C275 -10 471 174 471 195 C471 214 348 368 293 428 C348 481 448 589 448 599 C448 615 271 760 252 760 C233 760 62 596 62 577 C62 563 156 427 201 370 L199 370 L199 370 Z M282 439 C276 445 271 449 269 450 C257 455 154 606 154 619 C154 633 242 755 252 755 C261 755 349 604 349 587 C349 576 309 489 282 438 L282 439 L282 439 Z " />
<glyph glyph-name="nine" unicode="9" horiz-adv-x="544" d="M19 -250 C67 -240 495 169 495 205 C495 235 290 510 268 510 C246 510 54 286 54 262 C54 241 199 73 240 43 C146 -88 35 -229 14 -233 L19 -250 L19 -250 Z M245 51 C226 86 169 237 169 256 C169 281 259 506 269 506 C280 506 380 291 380 267 C380 249 318 154 245 52 L245 51 L245 51 Z " />
<glyph glyph-name="colon" unicode="&#x3a;" horiz-adv-x="270" d="M125 345 C133 345 205 417 205 425 C205 433 133 505 125 505 C117 505 45 433 45 425 C45 417 117 345 125 345 L125 345 Z M125 -5 C133 -5 205 67 205 75 C205 83 133 155 125 155 C117 155 45 83 45 75 C45 67 117 -5 125 -5 L125 -5 Z " />
<glyph glyph-name="semicolon" unicode="&#x3b;" horiz-adv-x="290" d="M125 385 C133 385 205 457 205 465 C205 473 133 545 125 545 C117 545 45 473 45 465 C45 457 117 385 125 385 L125 385 Z M140 -5 C144 -5 165 14 184 33 C190 22 194 13 194 11 C194 -1 68 -139 54 -143 L59 -160 C78 -155 244 7 244 19 C244 24 231 44 214 67 C217 71 219 74 219 75 C219 83 147 155 139 155 C131 155 59 83 59 75 C59 67 131 -5 139 -5 L140 -5 L140 -5 Z " />
<glyph glyph-name="equal" unicode="&#x3d;" horiz-adv-x="506" d="M88 226 L88 174 L436 174 L436 226 L88 226 L88 226 Z M88 326 L88 274 L436 274 L436 326 L88 326 L88 326 Z " />
<glyph glyph-name="question" unicode="&#x3f;" horiz-adv-x="295" d="M125 -5 C133 -5 205 67 205 75 C205 83 133 155 125 155 C117 155 45 83 45 75 C45 67 117 -5 125 -5 L125 -5 Z M127 240 L125 360 C142 360 283 429 288 437 C291 441 319 549 319 557 C319 577 162 760 145 760 C134 760 37 683 37 675 C37 669 93 618 99 618 C104 618 182 638 187 638 C197 638 285 553 285 543 C285 541 265 495 263 492 C259 487 117 440 97 440 L107 240 L127 240 L127 240 Z " />
<glyph glyph-name="at" unicode="&#x40;" horiz-adv-x="1129" d="M991 0 C980 -23 617 -234 587 -234 C543 -234 145 210 145 259 C145 308 523 752 565 752 C607 752 986 384 986 343 C986 310 833 10 816 10 C804 10 740 181 745 200 L815 480 L706 480 L682 386 C649 424 579 491 568 491 C539 491 269 219 269 189 C269 170 420 5 437 5 C453 5 614 124 651 162 C688 95 777 -28 793 -28 C821 -28 1073 308 1073 345 C1073 389 614 786 563 786 C512 786 54 314 54 261 C54 209 532 -264 585 -264 C617 -264 1015 -25 1028 2 L991 0 L991 0 Z M673 358 L634 202 C631 189 506 70 496 70 C485 70 394 198 394 212 C394 237 548 460 565 460 C576 460 670 370 673 357 L673 358 L673 358 Z " />
<glyph glyph-name="A" unicode="A" horiz-adv-x="659" d="M35 0 L36 0 L39 0 C39 0 40 9 41 10 C41 11 42 17 42 19 L50 44 C55 60 61 80 63 85 L63 85 L127 291 L392 291 L469 70 C473 59 487 20 487 20 C487 20 489 11 490 10 C490 9 492 0 492 0 L494 0 L561 0 L629 0 C629 0 626 9 626 10 C626 11 623 20 623 20 L622 20 C622 20 614 43 608 59 L376 709 L354 770 L341 770 C335 765 251 710 247 709 L251 698 L50 60 C44 41 37 19 37 19 L36 19 C36 19 34 10 33 9 C33 8 31 -1 31 -1 L35 0 L35 0 Z M129 295 L253 691 L391 295 L129 295 L129 295 Z " />
<glyph glyph-name="B" unicode="B" horiz-adv-x="611" d="M202 746 L266 746 C285 746 408 576 408 557 C408 540 312 387 301 387 L202 387 L202 702 L202 746 L202 746 Z M314 387 C364 413 537 554 537 571 C537 589 310 750 275 750 L203 750 L138 750 L73 750 L73 740 L73 730 C74 730 75 706 75 702 L75 48 C75 44 74 20 73 20 L73 10 L73 0 L138 0 L203 0 L323 0 C348 0 572 167 572 193 C572 213 371 387 348 387 L314 387 L314 387 Z M304 383 L336 383 C345 383 431 212 431 193 C431 168 330 4 319 4 L269 4 C262 4 203 55 203 61 L203 383 L304 383 L304 383 Z " />
<glyph glyph-name="C" unicode="C" horiz-adv-x="723" d="M637 658 C636 659 635 659 635 659 L635 659 C564 697 434 760 418 760 C380 760 43 414 43 375 C43 337 372 -10 408 -10 C424 -10 562 54 636 92 L637 92 C637 92 638 93 640 94 C663 106 679 115 682 118 C681 119 679 121 676 124 L651 145 C650 144 649 143 648 142 C639 136 610 115 600 107 C532 62 421 -6 410 -6 C387 -6 184 337 184 375 C184 413 396 755 419 755 C430 755 530 691 595 646 C615 631 650 605 651 604 L682 631 C679 634 662 644 638 657 L637 658 L637 658 Z " />
<glyph glyph-name="D" unicode="D" horiz-adv-x="786" d="M83 702 L83 48 C83 44 81 20 81 20 L81 10 L81 0 L83 0 L146 0 L211 0 L278 0 C324 0 732 334 732 375 C732 413 358 750 312 750 L211 750 L146 750 L83 750 L81 750 L81 740 L81 730 C81 730 83 706 83 702 L83 702 Z M211 746 L297 746 C329 746 590 412 590 375 C590 334 304 4 273 4 C263 4 211 55 211 61 L211 702 L211 746 L211 746 Z " />
<glyph glyph-name="E" unicode="E" horiz-adv-x="577" d="M474 0 L537 0 L538 3 L538 6 L528 6 L518 6 C518 6 480 4 474 4 L263 4 C254 4 202 55 202 61 L202 380 L386 380 C392 380 429 379 429 378 L439 378 L449 378 L449 380 L449 383 L449 385 L449 387 L439 387 L429 387 C429 387 392 385 386 385 L202 385 L202 702 L202 746 L452 746 C459 746 496 744 496 744 L506 744 L516 744 L516 747 L515 750 L452 750 L202 750 L137 750 L74 750 L72 750 L72 740 L72 730 C73 730 74 706 74 702 L74 48 C74 44 73 20 72 20 L72 10 L72 0 L74 0 L137 0 L202 0 L474 0 L474 0 Z " />
<glyph glyph-name="F" unicode="F" horiz-adv-x="555" d="M437 378 L433 377 C435 378 395 380 386 380 C391 380 433 379 433 379 L437 378 L437 378 Z M515 750 L452 750 L202 750 L137 750 L74 750 L72 750 L72 740 L72 730 C73 730 74 706 74 702 L74 48 C74 44 73 20 72 20 L72 10 L72 0 L74 0 L138 0 L202 0 L204 0 L204 10 L204 20 C204 20 202 44 202 48 L202 376 L449 376 L449 378 L449 380 L386 380 L202 380 L202 702 L202 747 L417 747 L515 750 L515 750 Z " />
<glyph glyph-name="G" unicode="G" horiz-adv-x="743" d="M537 279 L540 34 L540 34 L538 158 C538 145 441 21 431 21 C406 21 183 340 183 375 C183 413 395 755 418 755 C429 755 529 691 594 646 C614 631 649 605 650 604 L681 631 C678 634 661 644 637 657 C636 658 635 658 635 658 L635 658 C564 696 434 759 418 759 C380 759 43 413 43 374 C43 336 382 -11 420 -11 C441 -11 719 54 735 61 L733 64 C730 63 703 58 666 52 L666 278 C666 282 667 304 667 304 L667 314 L667 324 L602 324 L536 324 L536 314 L536 304 C536 304 538 282 538 278 L537 279 L537 279 Z " />
<glyph glyph-name="H" unicode="H" horiz-adv-x="673" d="M593 46 L593 704 C593 708 594 730 594 730 L595 730 L595 740 L595 750 L529 750 L463 750 L463 740 L463 730 C463 730 464 708 464 704 L464 386 L211 386 L211 704 C211 708 212 730 213 730 L213 740 L213 750 L147 750 L81 750 L81 740 L81 730 C81 730 83 708 83 704 L83 46 C83 42 81 20 81 20 L81 10 L81 0 L147 0 L213 0 L213 10 L213 20 C212 20 211 42 211 46 L211 380 L464 380 L464 46 C464 42 463 20 463 20 L463 10 L463 0 L529 0 L595 0 L595 10 L595 20 L594 20 C594 20 593 42 593 46 L593 46 Z " />
<glyph glyph-name="I" unicode="I" horiz-adv-x="271" d="M190 46 L190 704 C190 708 192 730 192 730 L192 740 L192 750 L126 750 L60 750 L60 740 L60 730 C60 730 62 708 62 704 L62 46 C62 42 60 20 60 20 L60 10 L60 0 L126 0 L192 0 L192 10 L192 20 C192 20 190 42 190 46 L190 46 Z " />
<glyph glyph-name="J" unicode="J" horiz-adv-x="271" d="M-39 -205 C-17 -181 22 -131 62 -75 L62 -99 C62 -112 -9 -182 -38 -205 L-39 -205 L-39 -205 Z M-38 -205 C-44 -210 -48 -213 -49 -213 C-60 -213 -140 -105 -151 -105 C-157 -105 -212 -160 -212 -166 C-212 -171 -70 -220 -54 -220 C-52 -220 -46 -215 -37 -206 L-38 -205 L-38 -205 Z M63 -76 C127 13 193 115 193 142 L192 703 C192 707 194 729 194 729 L194 739 L194 749 L128 749 L62 749 L62 739 L62 729 C62 729 64 707 64 703 L63 -76 L63 -76 Z " />
<glyph glyph-name="K" unicode="K" horiz-adv-x="644" d="M589 48 L589 48 L295 459 L469 691 L469 691 C473 696 498 730 499 730 L500 730 C500 730 506 739 507 740 C507 741 513 750 513 750 L488 750 L464 750 L462 750 C462 750 456 741 456 740 C455 739 450 730 450 730 C450 730 449 729 448 727 L427 697 C421 688 415 680 413 677 L414 677 L202 374 L202 723 C202 724 204 729 204 729 L204 739 L204 749 L202 749 L138 749 L74 749 L72 749 L72 739 L72 729 C73 729 74 724 74 723 L74 25 C74 24 73 19 72 19 L72 9 L72 -1 L74 -1 L138 -1 L202 -1 L204 -1 L204 9 L204 19 C204 19 202 24 202 25 L202 374 L462 -1 L543 -1 L623 -1 C623 -1 617 8 617 9 C616 10 610 19 610 19 L609 19 C609 19 590 45 589 47 L589 48 L589 48 Z " />
<glyph glyph-name="L" unicode="L" horiz-adv-x="536" d="M525 3 C525 3 526 4 526 5 L526 6 L516 6 L506 6 C506 5 443 3 433 3 L251 3 C242 3 190 55 190 61 L190 702 C190 706 192 730 192 730 L192 740 L192 750 L190 750 L126 750 L62 750 L60 750 L60 740 L60 730 C60 730 62 706 62 702 L62 48 C62 44 60 20 60 20 L60 10 L60 0 L62 0 L125 0 L190 0 L525 0 L525 3 L525 3 Z " />
<glyph glyph-name="M" unicode="M" horiz-adv-x="757" d="M83 702 L86 695 L67 77 L67 77 C67 69 65 20 65 20 L63 20 L63 10 L63 0 L65 0 L88 0 L110 0 L112 0 L112 10 L112 20 L110 20 L111 72 L111 72 L111 72 L118 612 L288 171 L354 0 L386 0 L583 619 L597 45 C597 37 596 20 596 20 L595 20 L595 10 L595 0 L598 0 L661 0 L727 0 L727 10 L727 20 C727 20 727 22 727 25 L706 665 L706 665 C706 666 706 667 706 669 L705 702 C705 717 705 730 705 730 L705 740 L705 750 L704 750 L644 750 L627 750 L582 750 L407 168 L407 171 L221 750 L144 750 L122 750 L90 750 L67 750 C67 750 70 741 70 740 C70 739 73 730 73 730 L74 730 C74 730 84 706 85 702 L83 702 L83 702 Z " />
<glyph glyph-name="N" unicode="N" horiz-adv-x="630" d="M135 750 L105 750 L73 750 L55 750 L-24 750 C-24 750 -18 741 -18 740 C-17 739 -11 730 -11 730 L-10 730 C-10 730 -1 717 1 715 L1 715 L73 615 L71 45 C71 32 71 20 71 20 L69 20 L69 10 L69 0 L71 0 L91 0 L110 0 L112 0 L112 10 L112 20 L110 20 C110 20 110 24 110 29 L106 569 L383 183 L514 0 L539 0 L548 695 C549 708 550 730 550 730 L550 740 L550 750 L549 750 L529 750 L510 750 L509 750 L509 740 L509 730 C509 730 510 718 511 706 L514 222 L490 256 L135 750 L135 750 Z " />
<glyph glyph-name="O" unicode="O" horiz-adv-x="830" d="M398 -5 C378 -5 195 337 195 375 C195 413 385 755 406 755 C428 755 629 413 629 375 C629 337 421 -5 398 -5 L398 -5 Z M48 375 C48 337 362 -10 397 -10 C435 -10 776 337 776 375 C776 414 444 760 407 760 C371 760 48 414 48 375 L48 375 Z " />
<glyph glyph-name="P" unicode="P" horiz-adv-x="639" d="M170 0 L235 0 L236 0 L236 10 L236 20 C236 20 235 44 235 48 L235 338 L332 338 C361 338 620 515 620 538 C620 559 390 750 365 750 L235 750 L169 750 L106 750 L104 750 L104 740 L104 730 L105 730 C105 730 106 706 106 702 L106 48 C106 44 105 20 105 20 L104 20 L104 10 L104 0 L106 0 L170 0 L170 0 Z M235 365 L235 702 L235 728 L332 728 C349 728 499 576 499 559 C499 537 349 365 332 365 L235 365 L235 365 Z " />
<glyph glyph-name="Q" unicode="Q" horiz-adv-x="818" d="M1078 -53 L1077 -51 C1072 -56 817 -93 793 -93 C768 -93 557 -25 435 20 C539 105 768 344 768 375 C768 414 436 760 399 760 C363 760 40 414 40 375 C40 354 144 235 239 135 L238 136 C239 135 240 134 241 133 C315 55 382 -11 389 -11 C395 -11 410 -1 430 15 C580 -73 764 -175 779 -175 C795 -175 1064 -66 1078 -54 L1078 -53 L1078 -53 Z M272 111 C290 99 314 84 342 67 C282 170 186 348 186 375 C186 413 376 755 397 755 C420 755 620 413 620 375 C620 344 482 111 418 26 C412 28 406 30 400 32 C405 29 410 26 415 23 C402 5 392 -6 388 -6 C385 -6 369 18 347 55 L272 111 L272 111 Z M399 32 C369 44 349 53 347 56 L347 56 C345 60 343 64 341 68 C359 57 379 45 400 33 L399 32 L399 32 Z " />
<glyph glyph-name="R" unicode="R" horiz-adv-x="685" d="M676 0 L676 26 C668 26 599 71 594 80 C575 111 406 387 406 387 L367 379 C455 428 594 520 594 536 C594 557 364 749 339 749 L203 749 L138 749 L73 749 L73 739 L73 729 C74 729 75 705 75 701 L75 47 C75 43 74 19 73 19 L73 9 L73 -1 L139 -1 L205 -1 L205 9 L205 19 C205 19 203 43 203 47 L203 347 L295 347 C326 290 431 100 444 79 C452 66 648 -1 677 -1 L676 0 L676 0 Z M203 723 L300 723 C316 723 452 577 452 561 C452 540 316 379 300 379 L203 379 L203 701 L203 723 L203 723 Z " />
<glyph glyph-name="S" unicode="S" horiz-adv-x="522" d="M78 160 C82 162 85 163 85 163 C84 163 81 162 78 160 L78 160 Z M88 111 L88 111 L88 111 Z M419 664 C415 667 412 669 411 670 L410 670 C357 705 260 761 250 761 C231 761 58 575 58 554 C58 536 206 316 224 309 C241 303 379 177 379 169 C379 151 275 -3 263 -3 C256 -3 185 61 134 110 L134 110 C129 115 83 164 83 164 L46 147 C53 131 248 -9 262 -9 C284 -9 481 184 481 206 C481 223 320 436 301 443 C285 449 157 592 157 603 C157 619 240 756 249 756 C254 756 294 725 332 694 L331 694 C338 689 404 629 405 628 L442 645 C441 648 431 655 416 665 L419 664 L419 664 Z " />
<glyph glyph-name="T" unicode="T" horiz-adv-x="743" d="M688 718 L688 750 L676 750 C676 751 676 751 676 751 L666 751 L656 751 C656 751 619 750 613 750 L436 750 L307 750 L130 750 C124 750 87 751 87 751 L77 751 L67 751 C67 751 67 751 67 750 L55 750 L55 718 C55 717 55 716 55 716 L65 716 L75 716 C76 717 113 718 120 718 L308 718 L308 46 C308 42 307 20 307 20 L307 10 L307 0 L373 0 L438 0 L438 10 L438 20 C438 20 437 42 437 46 L437 718 L626 718 C632 718 670 717 670 716 L680 716 L690 716 C690 716 690 717 690 718 L688 718 L688 718 Z " />
<glyph glyph-name="U" unicode="U" horiz-adv-x="673" d="M622 702 L622 750 L557 750 L492 750 L492 740 L492 730 C492 730 494 706 494 702 L494 193 C488 181 309 73 295 73 C283 73 176 200 176 214 L176 702 L176 750 L111 750 L46 750 L46 740 L46 730 C46 730 48 706 48 702 L48 214 C48 191 223 -10 243 -10 C261 -10 487 121 494 135 L494 110 L494 0 L514 0 L624 80 L624 90 C624 90 622 107 622 110 L622 702 L622 702 Z " />
<glyph glyph-name="V" unicode="V" horiz-adv-x="671" d="M10 723 L235 185 L316 -10 L341 -10 L623 730 L624 730 C624 730 627 739 628 740 C628 741 631 750 631 750 L604 750 L579 750 L577 750 C577 750 575 741 574 740 C574 739 572 730 572 730 C572 730 571 727 570 723 L555 679 C555 678 555 678 555 678 L555 678 L317 -10 L384 185 L156 732 C155 735 154 740 153 741 C153 742 150 751 150 751 L148 751 L75 751 L0 751 C0 751 3 742 4 741 C4 740 7 731 7 731 L8 731 C8 731 10 728 12 724 L10 723 L10 723 Z " />
<glyph glyph-name="W" unicode="W" horiz-adv-x="950" d="M363 722 L456 500 L356 159 L356 162 L149 732 C148 735 147 740 147 741 C147 742 144 751 144 751 L142 751 L72 751 L1 751 C1 751 4 742 4 741 C5 740 8 731 8 731 C8 731 20 703 26 688 L236 163 L306 -9 L339 -9 L482 440 L587 188 L669 -9 L703 -9 L897 704 C901 718 905 732 905 732 L906 732 C906 732 908 741 908 742 C908 743 910 752 910 752 L882 752 L857 752 L855 752 C855 752 854 743 853 742 C853 741 852 732 852 732 C852 732 841 687 839 680 L839 680 L718 189 L523 693 L523 693 C521 698 508 732 508 732 C508 732 505 741 505 742 C505 743 502 752 502 752 L500 752 L427 752 L351 752 C351 752 354 743 355 742 C355 741 358 732 358 732 L359 732 C359 732 361 728 363 724 L363 722 L363 722 Z " />
<glyph glyph-name="X" unicode="X" horiz-adv-x="649" d="M55 0 L79 0 L82 0 C82 0 86 9 87 10 C87 11 92 20 92 20 L92 20 L280 313 L427 71 L427 71 C430 66 443 45 452 31 L460 18 C461 16 464 10 465 9 C465 8 470 -1 470 -1 L472 -1 L547 -1 L625 -1 C625 -1 620 8 619 9 C619 10 614 19 614 19 L613 19 C613 19 607 29 600 41 L363 430 L605 728 C606 729 606 729 606 729 L607 729 C607 729 614 738 614 739 C615 740 622 749 622 749 L592 749 L564 749 L562 749 C562 749 557 740 556 739 C556 738 554 734 553 731 L358 438 L213 676 L213 676 C211 680 202 694 194 707 L180 730 C179 733 177 738 176 739 C176 740 171 749 171 749 L169 749 L94 749 L18 749 C18 749 23 740 23 739 C24 738 29 729 29 729 C29 729 52 693 60 681 L267 341 L44 20 L43 20 C43 20 37 11 37 10 L37 10 C36 8 31 0 31 0 L55 0 L55 0 Z " />
<glyph glyph-name="Y" unicode="Y" horiz-adv-x="590" d="M159 724 C157 728 156 730 156 730 C156 730 152 739 151 740 C151 741 146 750 146 750 L145 750 L70 750 L-7 750 C-7 750 -2 741 -2 740 C-1 739 3 730 3 730 L4 730 C4 730 24 696 32 683 L241 317 L241 47 C241 43 240 21 240 21 L239 21 L239 11 L239 1 L305 1 L371 1 L371 11 L371 21 C371 21 370 43 370 47 L370 338 L540 698 C547 713 556 731 556 731 L557 731 C557 731 561 740 561 741 C561 742 565 751 565 751 L560 751 L556 751 L554 751 C554 751 550 742 550 741 C550 740 546 731 546 731 C546 731 527 690 524 683 L524 683 L367 345 L159 724 L159 724 Z " />
<glyph glyph-name="Z" unicode="Z" horiz-adv-x="588" d="M164 0 L493 0 L574 0 C574 1 579 19 579 20 C580 22 584 40 584 41 L574 41 L564 41 L562 41 L182 31 L578 723 L578 750 L453 750 L155 750 L70 750 C70 749 67 732 67 731 C67 730 65 712 65 711 L78 711 L91 711 L93 712 C94 712 110 713 125 714 L436 721 L26 28 L26 1 L164 0 L164 0 Z " />
<glyph glyph-name="bracketleft" unicode="&#x5b;" horiz-adv-x="302" d="M142 716 L352 716 L352 750 L142 750 L102 750 L102 -195 L142 -195 L352 -195 L352 -161 L142 -161 L142 716 L142 716 Z " />
<glyph glyph-name="backslash" unicode="&#x5c;" horiz-adv-x="355" d="M18 770 L278 -80 L346 -80 L86 770 L18 770 L18 770 Z " />
<glyph glyph-name="bracketright" unicode="&#x5d;" horiz-adv-x="305" d="M155 716 L155 -161 L-55 -161 L-55 -195 L155 -195 L195 -195 L195 750 L155 750 L-55 750 L-55 716 L155 716 L155 716 Z " />
<glyph glyph-name="underscore" unicode="&#x5f;" horiz-adv-x="383" d="M5 -50 L5 -114 L378 -114 L378 -50 L5 -50 L5 -50 Z " />
<glyph glyph-name="a" unicode="a" horiz-adv-x="489" d="M500 123 L482 131 C481 126 432 77 427 77 C422 77 375 115 375 120 L375 353 C375 371 258 510 245 510 C227 510 64 369 64 360 C64 352 129 280 137 280 C142 280 193 333 193 337 C193 341 173 395 173 399 C173 406 234 503 241 503 C243 503 261 407 261 394 L261 259 C212 226 44 100 44 95 C44 85 135 -9 145 -9 C150 -9 265 81 278 96 C309 59 371 -3 380 -3 C390 -3 497 112 500 125 L500 123 L500 123 Z M260 253 L260 122 C260 119 266 110 275 99 C267 91 210 53 206 53 C202 53 160 103 160 108 C160 120 232 220 261 254 L260 253 L260 253 Z " />
<glyph glyph-name="b" unicode="b" horiz-adv-x="549" d="M83 0 L90 0 L134 65 L134 65 C137 58 268 -10 280 -10 C303 -10 505 227 505 253 C505 279 332 505 313 505 C306 505 229 453 198 429 L198 674 L198 751 L178 751 L82 723 L82 713 L82 704 C82 704 83 654 83 646 L83 196 L83 0 L83 0 Z M198 413 C222 433 273 470 277 470 C287 470 376 263 376 240 C376 216 293 5 284 5 C278 5 201 64 198 70 L198 195 L198 413 L198 413 Z " />
<glyph glyph-name="c" unicode="c" horiz-adv-x="474" d="M444 128 L428 135 C422 122 272 1 262 1 C252 1 163 250 163 277 C163 300 272 506 285 506 C286 506 332 415 336 405 C338 399 390 348 394 348 C402 348 453 399 451 405 C447 416 298 510 286 510 C261 510 40 262 40 234 C40 210 234 -10 255 -10 C268 -10 438 114 444 128 L444 128 Z " />
<glyph glyph-name="d" unicode="d" horiz-adv-x="497" d="M365 703 C366 703 367 669 367 663 L367 460 C317 484 255 511 246 511 C223 511 39 276 39 250 C39 225 207 -4 226 -4 C235 -4 340 49 367 66 L367 -9 L387 -9 L483 15 L483 25 L483 35 C483 35 482 121 482 135 L482 691 L482 751 L461 751 L365 723 L365 713 L365 703 L365 703 Z M367 106 C346 90 278 45 274 45 C262 45 156 259 156 283 C156 302 248 479 260 479 C266 479 344 415 367 393 L367 111 L367 106 L367 106 Z " />
<glyph glyph-name="e" unicode="e" horiz-adv-x="498" d="M183 336 L341 336 L436 336 L468 336 C468 357 297 510 278 510 C254 510 39 257 39 228 C39 205 233 -10 255 -10 C270 -10 450 117 455 131 L441 136 C436 123 272 1 259 1 C249 1 160 248 160 275 C160 282 170 306 184 336 L183 336 L183 336 Z M341 341 L186 340 C218 409 270 506 278 506 C285 506 336 373 342 341 L341 341 L341 341 Z " />
<glyph glyph-name="f" unicode="f" horiz-adv-x="307" d="M171 439 L298 439 L298 500 L171 500 C171 522 235 719 243 719 C254 719 344 635 353 635 C357 635 398 676 398 680 C398 688 296 755 284 755 C259 755 56 526 56 500 L-59 453 L-59 439 L56 439 L56 27 C56 26 55 20 55 20 L54 20 L54 10 L54 0 L113 0 L172 0 L172 10 L172 20 C172 20 171 26 171 27 L171 439 L171 439 Z " />
<glyph glyph-name="g" unicode="g" horiz-adv-x="488" d="M190 350 C190 363 237 483 243 483 C248 483 296 363 296 350 C296 337 248 215 243 215 C237 215 190 337 190 350 L190 350 Z M164 -15 L268 -15 C279 -15 358 -126 358 -138 C358 -155 263 -308 253 -308 C241 -308 134 -132 134 -113 C134 -105 153 -42 163 -14 L164 -15 L164 -15 Z M144 -1 L139 -1 C129 -3 39 -127 39 -139 C39 -159 225 -334 246 -334 C267 -334 453 -132 453 -110 C453 -89 301 100 280 100 L168 100 C164 100 122 134 122 138 C122 143 231 189 243 189 C259 189 411 335 411 351 C411 367 259 511 243 511 C226 511 75 367 75 351 C75 338 169 245 217 206 C169 183 54 112 54 103 C54 94 113 27 144 -2 L144 -1 L144 -1 Z M460 426 C460 422 508 386 514 386 C518 386 561 435 561 440 C561 446 511 495 506 495 C497 495 387 423 384 415 L391 385 C394 391 454 447 458 447 C458 447 460 428 460 426 L460 426 Z " />
<glyph glyph-name="h" unicode="h" horiz-adv-x="507" d="M43 703 C43 703 44 653 44 645 L44 27 C44 26 43 20 43 20 L43 10 L43 0 L102 0 L161 0 L161 10 L161 20 L160 20 C160 20 159 26 159 27 L159 386 C183 402 281 456 288 456 C294 456 336 347 336 335 L336 27 C336 26 335 20 335 20 L335 10 L335 0 L394 0 L452 0 L452 10 L452 20 C452 20 451 26 451 27 L451 335 C451 353 334 510 320 510 C311 510 186 426 159 403 L159 673 L159 750 L139 750 L43 722 L43 712 L43 703 L43 703 Z " />
<glyph glyph-name="i" unicode="i" horiz-adv-x="214" d="M111 615 C118 615 185 682 185 689 C185 697 118 764 111 764 C103 764 36 697 36 689 C36 682 103 615 111 615 L111 615 Z M52 453 C52 453 53 403 53 395 L53 27 C53 26 52 20 52 20 L52 10 L52 0 L111 0 L169 0 L169 10 L169 20 C169 20 168 26 168 27 L168 423 L168 500 L148 500 L52 472 L52 462 L52 453 L52 453 Z " />
<glyph glyph-name="j" unicode="j" horiz-adv-x="248" d="M101 615 C108 615 175 682 175 689 C175 697 108 764 101 764 C93 764 26 697 26 689 C26 682 93 615 101 615 L101 615 Z M42 453 C42 453 43 403 43 395 L43 68 C43 53 -8 -112 -14 -115 C-19 -115 -107 -100 -112 -100 C-116 -100 -157 -136 -157 -140 C-157 -145 -103 -185 -97 -185 C-96 -185 -1 -135 8 -130 C23 -121 158 57 158 68 L158 423 L158 500 L138 500 L42 472 L42 462 L42 453 L42 453 Z " />
<glyph glyph-name="k" unicode="k" horiz-adv-x="525" d="M503 27 L502 27 L271 330 L452 473 C454 474 461 480 461 480 L462 480 C462 480 473 489 474 490 C475 491 486 500 486 500 L464 500 L445 500 L442 500 C442 500 432 491 431 490 C430 489 424 483 421 481 L397 462 C375 445 344 420 336 414 L339 415 L167 279 L167 672 L167 749 L147 749 L51 721 L51 711 L51 702 C51 702 52 652 52 644 L52 26 C52 25 51 19 51 19 L51 9 L51 -1 L110 -1 L168 -1 L168 9 L168 19 C168 19 167 25 167 26 L167 279 L359 25 C360 24 362 22 363 21 L364 19 C365 17 369 11 369 10 C370 9 376 0 376 0 L378 0 L449 0 L522 0 C522 0 516 9 515 10 C514 11 508 20 508 20 L507 20 C507 20 503 26 502 27 L503 27 L503 27 Z " />
<glyph glyph-name="l" unicode="l" horiz-adv-x="204" d="M42 703 C42 703 43 653 43 645 L43 27 C43 26 42 20 42 20 L42 10 L42 0 L101 0 L159 0 L159 10 L159 20 C159 20 158 26 158 27 L158 673 L158 750 L138 750 L42 722 L42 712 L42 703 L42 703 Z " />
<glyph glyph-name="m" unicode="m" horiz-adv-x="749" d="M426 398 L426 385 C403 419 318 510 306 510 C298 510 179 426 152 403 L152 423 L152 500 L132 500 L36 465 L36 455 L36 445 C36 445 37 396 37 388 L37 35 C37 33 36 20 36 20 L36 10 L36 0 L95 0 L153 0 L153 10 L153 20 C153 20 152 33 152 35 L152 386 C175 403 267 456 275 456 C279 456 317 382 317 374 L317 35 C317 33 316 20 316 20 L315 20 L315 10 L315 0 L374 0 L433 0 L433 10 L433 20 L432 20 L432 27 L432 35 L432 374 C432 376 430 379 427 384 C440 396 539 457 547 457 C552 457 588 348 588 336 L588 36 L588 28 L588 21 L587 21 L587 11 L587 1 L646 1 L705 1 L705 11 L705 21 C704 21 703 34 703 36 L703 336 C703 354 592 511 579 511 C570 511 433 410 426 399 L426 398 L426 398 Z " />
<glyph glyph-name="n" unicode="n" horiz-adv-x="490" d="M329 27 C329 26 328 20 328 20 L328 10 L328 0 L387 0 L445 0 L445 10 L445 20 C445 20 444 26 444 27 L444 335 C444 353 327 510 313 510 C304 510 179 426 152 403 L152 423 L152 500 L132 500 L36 465 L36 455 L36 445 C36 445 37 396 37 388 L37 27 C37 26 36 20 36 20 L36 10 L36 0 L95 0 L153 0 L153 10 L153 20 C153 20 152 26 152 27 L152 386 C176 402 274 456 281 456 C287 456 329 347 329 335 L329 27 L329 27 Z " />
<glyph glyph-name="o" unicode="o" horiz-adv-x="560" d="M277 -5 C266 -5 166 225 166 250 C166 276 266 505 277 505 C289 505 389 276 389 250 C389 225 289 -5 277 -5 L277 -5 Z M39 250 C39 224 254 -10 277 -10 C301 -10 516 224 516 250 C516 276 301 510 277 510 C254 510 39 276 39 250 L39 250 Z " />
<glyph glyph-name="p" unicode="p" horiz-adv-x="522" d="M159 435 L159 500 L139 500 L43 465 L43 455 L43 445 C43 445 44 396 44 388 L44 -267 C44 -272 43 -300 43 -300 L43 -310 L43 -320 L101 -320 L160 -320 L160 -310 L160 -300 C160 -300 159 -272 159 -267 L159 93 C193 58 259 -5 264 -5 C286 -5 479 235 479 259 C479 284 318 510 300 510 C292 510 197 459 160 436 L159 435 L159 435 Z M160 103 L160 392 C187 416 243 462 247 462 C258 462 352 247 352 223 C352 203 272 -1 263 -1 C258 -1 190 69 160 103 L160 103 Z " />
<glyph glyph-name="q" unicode="q" horiz-adv-x="537" d="M471 -294 L471 390 L471 440 L471 500 L464 500 L426 440 C421 447 283 510 273 510 C248 510 44 275 44 249 C44 224 214 -5 232 -5 C235 -5 322 46 356 67 L356 -294 C356 -295 355 -300 354 -300 L354 -310 L354 -320 L413 -320 L472 -320 L472 -310 L472 -300 C472 -300 471 -295 471 -294 L471 -294 Z M356 390 L356 105 C330 84 279 42 280 42 C269 42 163 256 163 280 C163 300 255 483 266 483 C270 483 351 398 356 389 L356 390 L356 390 Z " />
<glyph glyph-name="r" unicode="r" horiz-adv-x="396" d="M158 389 L158 423 L158 500 L138 500 L42 465 L42 455 L42 445 C42 445 43 396 43 388 L43 27 C43 26 42 20 42 20 L42 10 L42 0 L101 0 L160 0 L160 10 L160 20 L159 20 C159 20 158 26 158 27 L158 380 C176 405 222 457 228 457 C230 457 252 426 252 422 C252 416 313 355 320 355 C327 355 388 416 388 422 C388 431 292 511 281 511 C271 511 185 424 160 390 L158 389 L158 389 Z " />
<glyph glyph-name="s" unicode="s" horiz-adv-x="411" d="M77 97 C86 101 100 107 100 107 C98 106 86 101 77 97 L77 97 Z M154 43 C138 62 100 107 100 107 L69 93 C71 88 94 68 120 47 L120 47 L121 47 C156 20 196 -9 201 -9 C217 -9 362 124 362 139 C362 151 242 291 227 295 C218 297 146 403 146 413 C146 422 205 507 212 507 C213 507 220 501 230 492 L229 492 C236 485 306 414 307 413 L337 428 C334 436 219 511 211 511 C196 511 64 387 64 373 C64 359 163 210 175 207 C186 204 272 114 272 106 C272 95 208 -5 200 -5 C198 -5 176 18 153 44 L154 43 L154 43 Z " />
<glyph glyph-name="t" unicode="t" horiz-adv-x="391" d="M342 500 L206 500 L206 620 L198 620 L26 449 L26 439 L91 439 L91 186 C91 163 222 -10 236 -10 C249 -10 380 109 382 122 L367 125 C366 117 280 44 272 44 C265 44 203 147 203 161 L206 439 L342 439 L342 500 L342 500 Z " />
<glyph glyph-name="u" unicode="u" horiz-adv-x="435" d="M280 90 L280 -10 L300 -10 L396 14 L396 24 L396 34 C396 34 395 102 395 114 L395 473 L395 500 L337 500 L279 500 L279 490 L279 480 C279 480 280 474 280 473 L280 137 C261 118 206 70 203 70 C197 70 144 147 144 155 L144 473 L144 500 L86 500 L28 500 L28 490 L28 480 C28 480 29 474 29 473 L29 155 C29 139 137 -10 149 -10 C154 -10 253 97 279 130 L280 90 L280 90 Z " />
<glyph glyph-name="v" unicode="v" horiz-adv-x="422" d="M7 468 L193 -10 L226 -10 L383 460 L383 460 C384 463 390 480 390 480 L391 480 C391 480 393 489 393 490 C394 491 396 500 396 500 L369 500 L343 500 L342 500 C342 500 340 491 340 490 C339 489 337 480 337 480 C337 480 337 478 336 476 L239 146 L131 468 L131 468 C130 470 127 480 127 480 C127 480 125 489 124 490 C124 491 122 500 122 500 L120 500 L58 500 L-5 500 C-5 500 -2 491 -2 490 C-2 489 1 480 1 480 L2 480 C2 480 6 470 7 468 L7 468 Z " />
<glyph glyph-name="w" unicode="w" horiz-adv-x="727" d="M282 480 L335 350 L267 145 L144 472 L144 472 C143 474 141 481 141 481 C141 481 138 490 137 491 C137 492 134 501 134 501 L133 501 L69 501 L5 501 C5 501 8 492 8 491 C9 490 12 481 12 481 L13 481 C13 481 16 474 16 472 L17 472 L216 -9 L249 -9 L358 292 L480 -9 L514 -9 L691 472 C693 477 695 482 695 482 L696 482 C696 482 699 491 699 492 C699 493 702 502 702 502 L674 502 L648 502 L646 502 C646 502 644 493 644 492 C644 491 641 482 641 482 C641 482 638 472 637 470 L637 470 L530 146 L407 487 C406 489 405 491 405 491 C405 492 402 501 402 501 L401 501 L337 501 L272 501 L276 491 L276 491 C276 490 280 481 280 481 L280 481 L282 480 L282 480 Z " />
<glyph glyph-name="x" unicode="x" horiz-adv-x="437" d="M72 39 L71 39 L160 202 L268 12 C268 11 268 10 268 10 C269 9 273 0 273 0 L274 0 L344 0 L415 0 C415 0 410 9 410 10 C409 11 405 20 405 20 L404 20 C404 20 395 36 394 38 L394 38 L251 291 L379 480 L380 480 C380 480 385 487 386 489 L389 493 C391 496 393 500 393 500 L365 500 L340 500 L338 500 C338 500 334 491 333 490 C333 489 328 480 328 480 C328 480 323 471 320 466 L235 320 L140 488 C140 489 140 490 140 490 C139 491 135 500 135 500 L134 500 L64 500 L-7 500 C-7 500 -2 491 -2 490 C-1 489 3 480 3 480 L4 480 C4 480 6 477 8 473 L147 227 L15 26 C13 23 11 20 11 20 L10 20 C10 20 5 11 4 10 C4 9 1 4 -1 1 L-2 -1 L26 -1 L51 -1 L53 -1 C53 -1 57 8 57 9 C58 10 62 19 62 19 C62 19 71 35 73 38 L72 39 L72 39 Z " />
<glyph glyph-name="y" unicode="y" horiz-adv-x="442" d="M8 468 L206 -10 L146 -204 C145 -206 118 -229 116 -229 C111 -229 55 -188 50 -188 C43 -188 -16 -240 -16 -245 C-16 -252 45 -316 52 -316 C61 -316 164 -243 167 -235 L239 -10 L406 470 C408 475 410 480 411 480 L412 480 C412 480 414 489 414 490 C415 491 417 500 417 500 L390 500 L364 500 L363 500 C363 500 361 492 361 490 L361 489 C360 488 359 484 358 481 L254 144 L130 472 C129 475 128 479 128 479 C128 479 125 488 125 489 C124 490 122 499 122 499 L120 499 L58 499 L-5 499 C-5 499 -2 490 -2 489 C-1 488 2 479 2 479 L3 479 C3 479 7 469 8 467 L8 468 L8 468 Z " />
<glyph glyph-name="z" unicode="z" horiz-adv-x="443" d="M161 0 L286 0 L398 0 C398 1 401 19 401 20 C401 20 403 38 404 39 L399 39 L398 39 L398 41 L178 32 L403 473 L403 500 L286 500 L115 500 L110 500 L110 501 L100 501 L90 501 C90 501 90 501 90 500 L87 500 L87 489 C86 485 85 481 85 481 C85 480 80 462 80 461 L86 461 L87 461 L87 459 L269 467 L40 27 L40 0 L161 0 L161 0 Z " />
<glyph glyph-name="bar" unicode="&#x7c;" horiz-adv-x="209" d="M60 800 L60 -341 L149 -341 L149 800 L60 800 L60 800 Z " />
<glyph glyph-name="exclamdown" unicode="&#xa1;" horiz-adv-x="280" d="M140 505 C132 505 60 433 60 425 C60 417 132 345 140 345 C148 345 220 417 220 425 C220 433 148 505 140 505 L140 505 Z M140 -255 C152 -255 212 -145 211 -132 L151 290 L130 290 L70 -132 C68 -145 129 -255 140 -255 L140 -255 Z " />
<glyph glyph-name="cent" unicode="&#xa2;" horiz-adv-x="474" d="M250 575 L250 483 C180 418 40 256 40 234 C40 211 213 13 250 -9 L250 -76 L291 -76 L291 10 C345 46 440 117 444 127 L428 134 C423 124 337 53 290 18 L290 493 C303 469 332 411 335 403 C337 397 389 346 393 346 C401 346 452 397 450 403 C446 413 319 494 290 506 L290 573 L250 575 L250 575 Z M249 20 C222 81 162 253 162 275 C162 291 213 392 249 455 L249 20 L249 20 Z " />
<glyph glyph-name="questiondown" unicode="&#xbf;" horiz-adv-x="295" d="M170 505 C162 505 90 433 90 425 C90 417 162 345 170 345 C178 345 250 417 250 425 C250 433 178 505 170 505 L170 505 Z M168 260 L170 140 C153 140 12 71 7 63 C4 59 -24 -49 -24 -57 C-24 -77 133 -260 150 -260 C161 -260 258 -183 258 -175 C258 -169 202 -118 196 -118 C192 -118 113 -138 108 -138 C98 -138 10 -53 10 -43 C10 -41 30 5 32 8 C36 13 178 60 198 60 L188 260 L168 260 L168 260 Z " />
<glyph glyph-name="Agrave" unicode="&#xc0;" horiz-adv-x="583" d="M530 72 L530 72 L335 709 L316 770 L303 770 C297 765 211 710 206 709 L209 699 L38 31 C36 24 35 20 35 20 L33 20 C33 20 32 11 32 10 C32 9 30 0 30 0 L35 0 L36 0 L39 0 C39 0 40 9 40 10 C40 11 41 18 41 20 L52 63 C55 73 57 82 58 85 L58 85 L110 291 L331 291 L412 20 L412 20 C412 20 414 11 414 10 C415 9 416 0 416 0 L418 0 L485 0 L553 0 C553 0 551 9 551 10 C551 11 549 20 549 20 L548 20 C548 20 533 65 531 72 L530 72 L530 72 Z M181 981 C177 988 128 1046 126 1046 C121 1046 69 993 69 988 C69 987 122 934 128 929 L273 811 L287 826 L181 981 L181 981 Z M112 296 L212 692 L330 296 L112 296 L112 296 Z " />
<glyph glyph-name="Aacute" unicode="&#xc1;" horiz-adv-x="583" d="M279 811 L424 929 C429 934 483 987 483 988 C483 993 431 1046 425 1046 C424 1046 375 988 371 981 L265 826 L279 811 L279 811 Z M530 72 L530 72 L335 709 L316 770 L303 770 C297 765 211 710 206 709 L209 699 L38 31 C36 24 35 20 35 20 L33 20 C33 20 32 11 32 10 C32 9 30 0 30 0 L35 0 L36 0 L39 0 C39 0 40 9 40 10 C40 11 41 18 41 20 L52 63 C55 73 57 82 58 85 L58 85 L110 291 L331 291 L412 20 L412 20 C412 20 414 11 414 10 C415 9 416 0 416 0 L418 0 L485 0 L553 0 C553 0 551 9 551 10 C551 11 549 20 549 20 L548 20 C548 20 533 65 531 72 L530 72 L530 72 Z M112 296 L212 692 L330 296 L112 296 L112 296 Z " />
<glyph glyph-name="Acircumflex" unicode="&#xc2;" horiz-adv-x="583" d="M530 72 L530 72 L335 709 L316 770 L303 770 C297 765 211 710 206 709 L209 699 L38 31 C36 24 35 20 35 20 L33 20 C33 20 32 11 32 10 C32 9 30 0 30 0 L35 0 L36 0 L39 0 C39 0 40 9 40 10 C40 11 41 18 41 20 L52 63 C55 73 57 82 58 85 L58 85 L110 291 L331 291 L412 20 L412 20 C412 20 414 11 414 10 C415 9 416 0 416 0 L418 0 L485 0 L553 0 C553 0 551 9 551 10 C551 11 549 20 549 20 L548 20 C548 20 533 65 531 72 L530 72 L530 72 Z M272 921 L410 805 L426 818 L312 996 C311 998 274 1037 271 1037 C269 1037 232 998 231 996 L117 818 L133 805 L272 921 L272 921 Z M112 296 L212 692 L330 296 L112 296 L112 296 Z " />
<glyph glyph-name="Atilde" unicode="&#xc3;" horiz-adv-x="583" d="M149 870 C149 876 181 925 184 925 C193 925 315 860 324 860 C331 860 394 987 394 1001 L391 1001 C391 995 354 941 350 941 C342 941 219 1006 210 1006 C204 1006 146 884 146 870 L149 870 L149 870 Z M530 72 L530 72 L335 709 L316 770 L303 770 C297 765 211 710 206 709 L209 699 L38 31 C36 24 35 20 35 20 L33 20 C33 20 32 11 32 10 C32 9 30 0 30 0 L35 0 L36 0 L39 0 C39 0 40 9 40 10 C40 11 41 18 41 20 L52 63 C55 73 57 82 58 85 L58 85 L110 291 L331 291 L412 20 L412 20 C412 20 414 11 414 10 C415 9 416 0 416 0 L418 0 L485 0 L553 0 C553 0 551 9 551 10 C551 11 549 20 549 20 L548 20 C548 20 533 65 531 72 L530 72 L530 72 Z M112 296 L212 692 L330 296 L112 296 L112 296 Z " />
<glyph glyph-name="Adieresis" unicode="&#xc4;" horiz-adv-x="583" d="M347 865 C355 865 422 932 422 939 C422 947 355 1014 347 1014 C340 1014 273 947 273 939 C273 932 340 865 347 865 L347 865 Z M193 865 C201 865 268 932 268 939 C268 947 201 1014 193 1014 C186 1014 119 947 119 939 C119 932 186 865 193 865 L193 865 Z M530 72 L530 72 L335 709 L316 770 L303 770 C297 765 211 710 206 709 L209 699 L38 31 C36 24 35 20 35 20 L33 20 C33 20 32 11 32 10 C32 9 30 0 30 0 L35 0 L36 0 L39 0 C39 0 40 9 40 10 C40 11 41 18 41 20 L52 63 C55 73 57 82 58 85 L58 85 L110 291 L331 291 L412 20 L412 20 C412 20 414 11 414 10 C415 9 416 0 416 0 L418 0 L485 0 L553 0 C553 0 551 9 551 10 C551 11 549 20 549 20 L548 20 C548 20 533 65 531 72 L530 72 L530 72 Z M112 296 L212 692 L330 296 L112 296 L112 296 Z " />
<glyph glyph-name="Aring" unicode="&#xc5;" horiz-adv-x="583" d="M270 837 C265 837 206 899 206 905 C206 912 264 973 270 973 C277 973 335 912 335 905 C335 899 276 837 270 837 L270 837 Z M172 905 C172 896 262 810 270 810 C279 810 369 896 369 905 C369 915 280 1000 270 1000 C261 1000 172 915 172 905 L172 905 Z M530 72 L530 72 L335 709 L316 770 L303 770 C297 765 211 710 206 709 L209 699 L38 31 C36 24 35 20 35 20 L33 20 C33 20 32 11 32 10 C32 9 30 0 30 0 L35 0 L36 0 L39 0 C39 0 40 9 40 10 C40 11 41 18 41 20 L52 63 C55 73 57 82 58 85 L58 85 L110 291 L331 291 L412 20 L412 20 C412 20 414 11 414 10 C415 9 416 0 416 0 L418 0 L485 0 L553 0 C553 0 551 9 551 10 C551 11 549 20 549 20 L548 20 C548 20 533 65 531 72 L530 72 L530 72 Z M112 296 L212 692 L330 296 L112 296 L112 296 Z " />
<glyph glyph-name="Ccedilla" unicode="&#xc7;" horiz-adv-x="723" d="M367 -79 L410 -10 C436 -5 565 55 635 91 L636 91 C636 91 637 92 639 93 C662 105 678 114 681 117 C680 118 678 120 675 123 L650 144 C649 143 648 142 647 141 C638 135 609 114 599 106 C531 61 420 -7 409 -7 C386 -7 183 336 183 374 C183 412 395 754 418 754 C429 754 529 690 594 645 C614 630 649 604 650 603 L681 630 C678 633 661 643 637 656 C636 657 635 657 635 657 L635 657 C564 695 434 758 418 758 C380 758 43 412 43 373 C43 336 361 0 406 -11 L352 -102 L354 -103 C356 -101 390 -88 392 -88 C396 -88 430 -139 430 -145 C430 -152 394 -217 390 -217 C387 -217 334 -197 331 -195 L330 -196 C333 -199 388 -221 392 -221 C402 -221 497 -147 497 -139 C497 -133 406 -84 396 -84 C392 -84 370 -80 368 -80 L367 -79 L367 -79 Z " />
<glyph glyph-name="Egrave" unicode="&#xc8;" horiz-adv-x="577" d="M204 981 C200 988 151 1046 150 1046 C144 1046 92 993 92 988 C92 987 146 934 151 929 L296 811 L310 826 L204 981 L204 981 Z M474 0 L537 0 L538 3 L538 6 L528 6 L518 6 C518 6 480 4 474 4 L263 4 C254 4 202 55 202 61 L202 380 L386 380 C392 380 429 379 429 378 L439 378 L449 378 L449 380 L449 383 L449 385 L449 387 L439 387 L429 387 C429 387 392 385 386 385 L202 385 L202 702 L202 746 L452 746 C459 746 496 744 496 744 L506 744 L516 744 L516 747 L515 750 L452 750 L202 750 L137 750 L74 750 L72 750 L72 740 L72 730 C73 730 74 706 74 702 L74 48 C74 44 73 20 72 20 L72 10 L72 0 L74 0 L137 0 L202 0 L474 0 L474 0 Z " />
<glyph glyph-name="Eacute" unicode="&#xc9;" horiz-adv-x="577" d="M303 811 L448 929 C454 934 507 987 507 988 C507 993 455 1046 450 1046 C448 1046 400 988 395 981 L289 826 L303 811 L303 811 Z M474 0 L537 0 L538 3 L538 6 L528 6 L518 6 C518 6 480 4 474 4 L263 4 C254 4 202 55 202 61 L202 380 L386 380 C392 380 429 379 429 378 L439 378 L449 378 L449 380 L449 383 L449 385 L449 387 L439 387 L429 387 C429 387 392 385 386 385 L202 385 L202 702 L202 746 L452 746 C459 746 496 744 496 744 L506 744 L516 744 L516 747 L515 750 L452 750 L202 750 L137 750 L74 750 L72 750 L72 740 L72 730 C73 730 74 706 74 702 L74 48 C74 44 73 20 72 20 L72 10 L72 0 L74 0 L137 0 L202 0 L474 0 L474 0 Z " />
<glyph glyph-name="Ecircumflex" unicode="&#xca;" horiz-adv-x="577" d="M295 921 L433 805 L449 818 L335 996 C334 998 297 1037 295 1037 C292 1037 256 998 254 996 L140 818 L156 805 L295 921 L295 921 Z M474 0 L537 0 L538 3 L538 6 L528 6 L518 6 C518 6 480 4 474 4 L263 4 C254 4 202 55 202 61 L202 380 L386 380 C392 380 429 379 429 378 L439 378 L449 378 L449 380 L449 383 L449 385 L449 387 L439 387 L429 387 C429 387 392 385 386 385 L202 385 L202 702 L202 746 L452 746 C459 746 496 744 496 744 L506 744 L516 744 L516 747 L515 750 L452 750 L202 750 L137 750 L74 750 L72 750 L72 740 L72 730 C73 730 74 706 74 702 L74 48 C74 44 73 20 72 20 L72 10 L72 0 L74 0 L137 0 L202 0 L474 0 L474 0 Z " />
<glyph glyph-name="Edieresis" unicode="&#xcb;" horiz-adv-x="577" d="M372 865 C379 865 446 932 446 939 C446 947 379 1014 372 1014 C364 1014 297 947 297 939 C297 932 364 865 372 865 L372 865 Z M218 865 C225 865 292 932 292 939 C292 947 225 1014 218 1014 C210 1014 143 947 143 939 C143 932 210 865 218 865 L218 865 Z M474 0 L537 0 L538 3 L538 6 L528 6 L518 6 C518 6 480 4 474 4 L263 4 C254 4 202 55 202 61 L202 380 L386 380 C392 380 429 379 429 378 L439 378 L449 378 L449 380 L449 383 L449 385 L449 387 L439 387 L429 387 C429 387 392 385 386 385 L202 385 L202 702 L202 746 L452 746 C459 746 496 744 496 744 L506 744 L516 744 L516 747 L515 750 L452 750 L202 750 L137 750 L74 750 L72 750 L72 740 L72 730 C73 730 74 706 74 702 L74 48 C74 44 73 20 72 20 L72 10 L72 0 L74 0 L137 0 L202 0 L474 0 L474 0 Z " />
<glyph glyph-name="Igrave" unicode="&#xcc;" horiz-adv-x="271" d="M35 981 C31 988 -18 1046 -19 1046 C-24 1046 -76 993 -76 988 C-76 987 -23 934 -17 929 L127 811 L142 826 L35 981 L35 981 Z M190 46 L190 704 C190 708 192 730 192 730 L192 740 L192 750 L126 750 L60 750 L60 740 L60 730 C60 730 62 708 62 704 L62 46 C62 42 60 20 60 20 L60 10 L60 0 L126 0 L192 0 L192 10 L192 20 C192 20 190 42 190 46 L190 46 Z " />
<glyph glyph-name="Iacute" unicode="&#xcd;" horiz-adv-x="271" d="M135 811 L279 929 C285 934 338 987 338 988 C338 993 286 1046 281 1046 C280 1046 231 988 227 981 L120 826 L135 811 L135 811 Z M190 46 L190 704 C190 708 192 730 192 730 L192 740 L192 750 L126 750 L60 750 L60 740 L60 730 C60 730 62 708 62 704 L62 46 C62 42 60 20 60 20 L60 10 L60 0 L126 0 L192 0 L192 10 L192 20 C192 20 190 42 190 46 L190 46 Z " />
<glyph glyph-name="Icircumflex" unicode="&#xce;" horiz-adv-x="271" d="M126 922 L265 805 L280 818 L167 996 C165 998 128 1037 126 1037 C124 1037 87 998 86 996 L-28 818 L-13 805 L126 922 L126 922 Z M190 46 L190 704 C190 708 192 730 192 730 L192 740 L192 750 L126 750 L60 750 L60 740 L60 730 C60 730 62 708 62 704 L62 46 C62 42 60 20 60 20 L60 10 L60 0 L126 0 L192 0 L192 10 L192 20 C192 20 190 42 190 46 L190 46 Z " />
<glyph glyph-name="Idieresis" unicode="&#xcf;" horiz-adv-x="271" d="M203 865 C210 865 277 932 277 939 C277 947 210 1014 203 1014 C196 1014 129 947 129 939 C129 932 196 865 203 865 L203 865 Z M49 865 C56 865 123 932 123 939 C123 947 56 1014 49 1014 C42 1014 -25 947 -25 939 C-25 932 42 865 49 865 L49 865 Z M190 46 L190 704 C190 708 192 730 192 730 L192 740 L192 750 L126 750 L60 750 L60 740 L60 730 C60 730 62 708 62 704 L62 46 C62 42 60 20 60 20 L60 10 L60 0 L126 0 L192 0 L192 10 L192 20 C192 20 190 42 190 46 L190 46 Z " />
<glyph glyph-name="Ntilde" unicode="&#xd1;" horiz-adv-x="630" d="M189 870 C189 876 220 925 224 925 C232 925 355 860 364 860 C371 860 434 987 434 1001 L431 1001 C431 995 394 941 390 941 C381 941 259 1006 250 1006 C244 1006 186 884 186 870 L189 870 L189 870 Z M135 750 L105 750 L73 750 L55 750 L-24 750 C-24 750 -18 741 -18 740 C-17 739 -11 730 -11 730 L-10 730 C-10 730 -1 717 1 715 L1 715 L73 615 L71 45 C71 32 71 20 71 20 L69 20 L69 10 L69 0 L71 0 L91 0 L110 0 L112 0 L112 10 L112 20 L110 20 C110 20 110 24 110 29 L106 569 L383 183 L514 0 L539 0 L548 695 C549 708 550 730 550 730 L550 740 L550 750 L549 750 L529 750 L510 750 L509 750 L509 740 L509 730 C509 730 510 718 511 706 L514 222 L490 256 L135 750 L135 750 Z " />
<glyph glyph-name="Ograve" unicode="&#xd2;" horiz-adv-x="830" d="M398 -5 C378 -5 195 337 195 375 C195 413 385 755 406 755 C428 755 629 413 629 375 C629 337 421 -5 398 -5 L398 -5 Z M48 375 C48 337 362 -10 397 -10 C435 -10 776 337 776 375 C776 414 444 760 407 760 C371 760 48 414 48 375 L48 375 Z M316 981 C312 988 263 1046 262 1046 C257 1046 205 993 205 988 C205 987 258 934 264 929 L408 811 L423 826 L316 981 L316 981 Z " />
<glyph glyph-name="Oacute" unicode="&#xd3;" horiz-adv-x="830" d="M416 811 L560 929 C566 934 619 987 619 988 C619 993 567 1046 562 1046 C561 1046 512 988 507 981 L401 826 L416 811 L416 811 Z M398 -5 C378 -5 195 337 195 375 C195 413 385 755 406 755 C428 755 629 413 629 375 C629 337 421 -5 398 -5 L398 -5 Z M48 375 C48 337 362 -10 397 -10 C435 -10 776 337 776 375 C776 414 444 760 407 760 C371 760 48 414 48 375 L48 375 Z " />
<glyph glyph-name="Ocircumflex" unicode="&#xd4;" horiz-adv-x="830" d="M398 -5 C378 -5 195 337 195 375 C195 413 385 755 406 755 C428 755 629 413 629 375 C629 337 421 -5 398 -5 L398 -5 Z M48 375 C48 337 362 -10 397 -10 C435 -10 776 337 776 375 C776 414 444 760 407 760 C371 760 48 414 48 375 L48 375 Z M407 922 L546 805 L561 818 L448 996 C446 998 409 1037 407 1037 C405 1037 368 998 367 996 L253 818 L268 805 L407 922 L407 922 Z " />
<glyph glyph-name="Otilde" unicode="&#xd5;" horiz-adv-x="830" d="M286 870 C286 876 317 925 321 925 C329 925 452 860 460 860 C467 860 531 987 531 1001 L528 1001 C528 995 491 941 487 941 C478 941 356 1006 347 1006 C341 1006 283 884 283 870 L286 870 L286 870 Z M398 -5 C378 -5 195 337 195 375 C195 413 385 755 406 755 C428 755 629 413 629 375 C629 337 421 -5 398 -5 L398 -5 Z M48 375 C48 337 362 -10 397 -10 C435 -10 776 337 776 375 C776 414 444 760 407 760 C371 760 48 414 48 375 L48 375 Z " />
<glyph glyph-name="Odieresis" unicode="&#xd6;" horiz-adv-x="830" d="M484 865 C491 865 558 932 558 939 C558 947 491 1014 484 1014 C477 1014 410 947 410 939 C410 932 477 865 484 865 L484 865 Z M330 865 C337 865 404 932 404 939 C404 947 337 1014 330 1014 C322 1014 255 947 255 939 C255 932 322 865 330 865 L330 865 Z M398 -5 C378 -5 195 337 195 375 C195 413 385 755 406 755 C428 755 629 413 629 375 C629 337 421 -5 398 -5 L398 -5 Z M48 375 C48 337 362 -10 397 -10 C435 -10 776 337 776 375 C776 414 444 760 407 760 C371 760 48 414 48 375 L48 375 Z " />
<glyph glyph-name="Oslash" unicode="&#xd8;" horiz-adv-x="830" d="M51 -13 L216 161 C297 72 380 -10 397 -10 C435 -10 776 337 776 375 C776 394 696 488 610 578 L779 757 L773 763 L604 584 C517 675 426 760 408 760 C372 760 49 414 49 375 C49 356 128 259 211 167 L46 -8 L51 -13 L51 -13 Z M399 -6 C387 -6 320 109 266 213 L558 522 C597 452 629 389 629 374 C629 336 421 -6 398 -6 L399 -6 L399 -6 Z M262 221 C225 293 195 358 195 373 C195 411 385 753 406 753 C419 753 494 634 554 529 L262 221 L262 221 Z " />
<glyph glyph-name="Ugrave" unicode="&#xd9;" horiz-adv-x="673" d="M244 981 C240 988 191 1046 190 1046 C185 1046 133 993 133 988 C133 987 186 934 192 929 L336 811 L351 826 L244 981 L244 981 Z M622 702 L622 750 L557 750 L492 750 L492 740 L492 730 C492 730 494 706 494 702 L494 193 C488 181 309 73 295 73 C283 73 176 200 176 214 L176 702 L176 750 L111 750 L46 750 L46 740 L46 730 C46 730 48 706 48 702 L48 214 C48 191 223 -10 243 -10 C261 -10 487 121 494 135 L494 110 L494 0 L514 0 L624 80 L624 90 C624 90 622 107 622 110 L622 702 L622 702 Z " />
<glyph glyph-name="Uacute" unicode="&#xda;" horiz-adv-x="673" d="M344 811 L488 929 C494 934 547 987 547 988 C547 993 495 1046 490 1046 C489 1046 440 988 436 981 L329 826 L344 811 L344 811 Z M622 702 L622 750 L557 750 L492 750 L492 740 L492 730 C492 730 494 706 494 702 L494 193 C488 181 309 73 295 73 C283 73 176 200 176 214 L176 702 L176 750 L111 750 L46 750 L46 740 L46 730 C46 730 48 706 48 702 L48 214 C48 191 223 -10 243 -10 C261 -10 487 121 494 135 L494 110 L494 0 L514 0 L624 80 L624 90 C624 90 622 107 622 110 L622 702 L622 702 Z " />
<glyph glyph-name="Ucircumflex" unicode="&#xdb;" horiz-adv-x="673" d="M335 922 L474 805 L489 818 L376 996 C374 998 337 1037 335 1037 C333 1037 296 998 295 996 L181 818 L196 805 L335 922 L335 922 Z M622 702 L622 750 L557 750 L492 750 L492 740 L492 730 C492 730 494 706 494 702 L494 193 C488 181 309 73 295 73 C283 73 176 200 176 214 L176 702 L176 750 L111 750 L46 750 L46 740 L46 730 C46 730 48 706 48 702 L48 214 C48 191 223 -10 243 -10 C261 -10 487 121 494 135 L494 110 L494 0 L514 0 L624 80 L624 90 C624 90 622 107 622 110 L622 702 L622 702 Z " />
<glyph glyph-name="Udieresis" unicode="&#xdc;" horiz-adv-x="673" d="M412 865 C419 865 486 932 486 939 C486 947 419 1014 412 1014 C405 1014 338 947 338 939 C338 932 405 865 412 865 L412 865 Z M258 865 C265 865 332 932 332 939 C332 947 265 1014 258 1014 C250 1014 183 947 183 939 C183 932 250 865 258 865 L258 865 Z M622 702 L622 750 L557 750 L492 750 L492 740 L492 730 C492 730 494 706 494 702 L494 193 C488 181 309 73 295 73 C283 73 176 200 176 214 L176 702 L176 750 L111 750 L46 750 L46 740 L46 730 C46 730 48 706 48 702 L48 214 C48 191 223 -10 243 -10 C261 -10 487 121 494 135 L494 110 L494 0 L514 0 L624 80 L624 90 C624 90 622 107 622 110 L622 702 L622 702 Z " />
<glyph glyph-name="Yacute" unicode="&#xdd;" horiz-adv-x="590" d="M313 811 L457 929 C463 934 517 987 517 988 C517 993 464 1046 459 1046 C458 1046 409 988 405 981 L299 826 L313 811 L313 811 Z M159 724 C157 728 156 730 156 730 C156 730 152 739 151 740 C151 741 146 750 146 750 L145 750 L70 750 L-7 750 C-7 750 -2 741 -2 740 C-1 739 3 730 3 730 L4 730 C4 730 24 696 32 683 L241 317 L241 47 C241 43 240 21 240 21 L239 21 L239 11 L239 1 L305 1 L371 1 L371 11 L371 21 C371 21 370 43 370 47 L370 338 L540 698 C547 713 556 731 556 731 L557 731 C557 731 561 740 561 741 C561 742 565 751 565 751 L560 751 L556 751 L554 751 C554 751 550 742 550 741 C550 740 546 731 546 731 C546 731 527 690 524 683 L524 683 L367 345 L159 724 L159 724 Z " />
<glyph glyph-name="agrave" unicode="&#xe0;" horiz-adv-x="489" d="M500 123 L482 131 C481 126 432 77 427 77 C422 77 375 115 375 120 L375 353 C375 371 258 510 245 510 C227 510 64 369 64 360 C64 352 129 280 137 280 C142 280 193 333 193 337 C193 341 173 395 173 399 C173 406 234 503 241 503 C243 503 261 407 261 394 L261 259 C212 226 44 100 44 95 C44 85 135 -9 145 -9 C150 -9 265 81 278 96 C309 59 371 -3 380 -3 C390 -3 497 112 500 125 L500 123 L500 123 Z M154 733 C150 740 101 798 100 798 C95 798 42 745 42 740 C42 739 96 686 102 681 L246 563 L261 578 L154 733 L154 733 Z M260 253 L260 122 C260 119 266 110 275 99 C267 91 210 53 206 53 C202 53 160 103 160 108 C160 120 232 220 261 254 L260 253 L260 253 Z " />
<glyph glyph-name="aacute" unicode="&#xe1;" horiz-adv-x="489" d="M253 561 L398 679 C404 684 457 737 457 738 C457 743 405 796 400 796 C399 796 350 738 345 731 L239 576 L253 561 L253 561 Z M500 123 L482 131 C481 126 432 77 427 77 C422 77 375 115 375 120 L375 353 C375 371 258 510 245 510 C227 510 64 369 64 360 C64 352 129 280 137 280 C142 280 193 333 193 337 C193 341 173 395 173 399 C173 406 234 503 241 503 C243 503 261 407 261 394 L261 259 C212 226 44 100 44 95 C44 85 135 -9 145 -9 C150 -9 265 81 278 96 C309 59 371 -3 380 -3 C390 -3 497 112 500 125 L500 123 L500 123 Z M260 253 L260 122 C260 119 266 110 275 99 C267 91 210 53 206 53 C202 53 160 103 160 108 C160 120 232 220 261 254 L260 253 L260 253 Z " />
<glyph glyph-name="acircumflex" unicode="&#xe2;" horiz-adv-x="489" d="M500 123 L482 131 C481 126 432 77 427 77 C422 77 375 115 375 120 L375 353 C375 371 258 510 245 510 C227 510 64 369 64 360 C64 352 129 280 137 280 C142 280 193 333 193 337 C193 341 173 395 173 399 C173 406 234 503 241 503 C243 503 261 407 261 394 L261 259 C212 226 44 100 44 95 C44 85 135 -9 145 -9 C150 -9 265 81 278 96 C309 59 371 -3 380 -3 C390 -3 497 112 500 125 L500 123 L500 123 Z M245 674 L384 557 L399 570 L286 748 C284 750 247 789 245 789 C243 789 206 750 204 748 L90 570 L106 557 L245 674 L245 674 Z M260 253 L260 122 C260 119 266 110 275 99 C267 91 210 53 206 53 C202 53 160 103 160 108 C160 120 232 220 261 254 L260 253 L260 253 Z " />
<glyph glyph-name="atilde" unicode="&#xe3;" horiz-adv-x="489" d="M124 620 C124 626 155 675 159 675 C167 675 290 610 298 610 C305 610 369 737 369 751 L366 751 C366 745 329 691 324 691 C316 691 193 756 185 756 C179 756 121 634 121 620 L124 620 L124 620 Z M500 123 L482 131 C481 126 432 77 427 77 C422 77 375 115 375 120 L375 353 C375 371 258 510 245 510 C227 510 64 369 64 360 C64 352 129 280 137 280 C142 280 193 333 193 337 C193 341 173 395 173 399 C173 406 234 503 241 503 C243 503 261 407 261 394 L261 259 C212 226 44 100 44 95 C44 85 135 -9 145 -9 C150 -9 265 81 278 96 C309 59 371 -3 380 -3 C390 -3 497 112 500 125 L500 123 L500 123 Z M260 253 L260 122 C260 119 266 110 275 99 C267 91 210 53 206 53 C202 53 160 103 160 108 C160 120 232 220 261 254 L260 253 L260 253 Z " />
<glyph glyph-name="adieresis" unicode="&#xe4;" horiz-adv-x="489" d="M322 615 C329 615 396 682 396 689 C396 697 329 764 322 764 C314 764 247 697 247 689 C247 682 314 615 322 615 L322 615 Z M168 615 C175 615 242 682 242 689 C242 697 175 764 168 764 C160 764 93 697 93 689 C93 682 160 615 168 615 L168 615 Z M500 123 L482 131 C481 126 432 77 427 77 C422 77 375 115 375 120 L375 353 C375 371 258 510 245 510 C227 510 64 369 64 360 C64 352 129 280 137 280 C142 280 193 333 193 337 C193 341 173 395 173 399 C173 406 234 503 241 503 C243 503 261 407 261 394 L261 259 C212 226 44 100 44 95 C44 85 135 -9 145 -9 C150 -9 265 81 278 96 C309 59 371 -3 380 -3 C390 -3 497 112 500 125 L500 123 L500 123 Z M260 253 L260 122 C260 119 266 110 275 99 C267 91 210 53 206 53 C202 53 160 103 160 108 C160 120 232 220 261 254 L260 253 L260 253 Z " />
<glyph glyph-name="aring" unicode="&#xe5;" horiz-adv-x="489" d="M245 587 C239 587 180 649 180 655 C180 662 238 723 245 723 C251 723 309 662 309 655 C309 649 251 587 245 587 L245 587 Z M146 655 C146 646 236 560 245 560 C254 560 343 646 343 655 C343 665 255 750 245 750 C235 750 146 665 146 655 L146 655 Z M500 123 L482 131 C481 126 432 77 427 77 C422 77 375 115 375 120 L375 353 C375 371 258 510 245 510 C227 510 64 369 64 360 C64 352 129 280 137 280 C142 280 193 333 193 337 C193 341 173 395 173 399 C173 406 234 503 241 503 C243 503 261 407 261 394 L261 259 C212 226 44 100 44 95 C44 85 135 -9 145 -9 C150 -9 265 81 278 96 C309 59 371 -3 380 -3 C390 -3 497 112 500 125 L500 123 L500 123 Z M260 253 L260 122 C260 119 266 110 275 99 C267 91 210 53 206 53 C202 53 160 103 160 108 C160 120 232 220 261 254 L260 253 L260 253 Z " />
<glyph glyph-name="ccedilla" unicode="&#xe7;" horiz-adv-x="474" d="M215 -79 L258 -9 C285 3 438 115 444 128 L428 135 C422 122 272 1 262 1 C252 1 163 250 163 277 C163 300 272 506 285 506 C286 506 332 415 336 405 C338 399 390 348 394 348 C402 348 453 399 451 405 C447 416 298 510 286 510 C261 510 40 262 40 234 C40 211 224 1 253 -10 L200 -101 L201 -102 C204 -100 238 -87 239 -87 C243 -87 277 -138 277 -144 C277 -151 242 -216 238 -216 C234 -216 181 -196 178 -194 L177 -195 C180 -198 236 -220 239 -220 C250 -220 344 -146 344 -138 C344 -132 253 -83 243 -83 C240 -83 217 -79 215 -79 L215 -79 Z " />
<glyph glyph-name="egrave" unicode="&#xe8;" horiz-adv-x="498" d="M188 731 C183 738 135 796 133 796 C128 796 76 743 76 738 C76 737 129 684 135 679 L280 561 L294 576 L188 731 L188 731 Z M183 336 L341 336 L436 336 L468 336 C468 357 297 510 278 510 C254 510 39 257 39 228 C39 205 233 -10 255 -10 C270 -10 450 117 455 131 L441 136 C436 123 272 1 259 1 C249 1 160 248 160 275 C160 282 170 306 184 336 L183 336 L183 336 Z M341 341 L186 340 C218 409 270 506 278 506 C285 506 336 373 342 341 L341 341 L341 341 Z " />
<glyph glyph-name="eacute" unicode="&#xe9;" horiz-adv-x="498" d="M287 561 L431 679 C437 684 491 737 491 738 C491 743 438 796 433 796 C432 796 383 738 379 731 L272 576 L287 561 L287 561 Z M183 336 L341 336 L436 336 L468 336 C468 357 297 510 278 510 C254 510 39 257 39 228 C39 205 233 -10 255 -10 C270 -10 450 117 455 131 L441 136 C436 123 272 1 259 1 C249 1 160 248 160 275 C160 282 170 306 184 336 L183 336 L183 336 Z M341 341 L186 340 C218 409 270 506 278 506 C285 506 336 373 342 341 L341 341 L341 341 Z " />
<glyph glyph-name="ecircumflex" unicode="&#xea;" horiz-adv-x="498" d="M278 671 L417 555 L432 568 L319 746 C318 748 280 787 278 787 C276 787 239 748 238 746 L124 568 L139 555 L278 671 L278 671 Z M183 336 L341 336 L436 336 L468 336 C468 357 297 510 278 510 C254 510 39 257 39 228 C39 205 233 -10 255 -10 C270 -10 450 117 455 131 L441 136 C436 123 272 1 259 1 C249 1 160 248 160 275 C160 282 170 306 184 336 L183 336 L183 336 Z M341 341 L186 340 C218 409 270 506 278 506 C285 506 336 373 342 341 L341 341 L341 341 Z " />
<glyph glyph-name="edieresis" unicode="&#xeb;" horiz-adv-x="498" d="M355 615 C363 615 430 682 430 689 C430 697 363 764 355 764 C348 764 281 697 281 689 C281 682 348 615 355 615 L355 615 Z M201 615 C209 615 276 682 276 689 C276 697 209 764 201 764 C194 764 127 697 127 689 C127 682 194 615 201 615 L201 615 Z M183 336 L341 336 L436 336 L468 336 C468 357 297 510 278 510 C254 510 39 257 39 228 C39 205 233 -10 255 -10 C270 -10 450 117 455 131 L441 136 C436 123 272 1 259 1 C249 1 160 248 160 275 C160 282 170 306 184 336 L183 336 L183 336 Z M341 341 L186 340 C218 409 270 506 278 506 C285 506 336 373 342 341 L341 341 L341 341 Z " />
<glyph glyph-name="igrave" unicode="&#xec;" horiz-adv-x="268" d="M74 731 C70 738 21 796 20 796 C15 796 -38 743 -38 738 C-38 737 16 684 22 679 L166 561 L181 576 L74 731 L74 731 Z M222 27 L222 413 L222 500 L202 500 L106 442 L106 432 C106 432 107 415 107 413 L107 27 C107 26 106 20 106 20 L106 10 L106 0 L165 0 L224 0 L224 10 L224 20 L223 20 C223 20 222 26 222 27 L222 27 Z " />
<glyph glyph-name="iacute" unicode="&#xed;" horiz-adv-x="268" d="M74 731 C70 738 21 796 20 796 C15 796 -38 743 -38 738 C-38 737 16 684 22 679 L166 561 L181 576 L74 731 L74 731 Z M222 27 L222 413 L222 500 L202 500 L106 442 L106 432 C106 432 107 415 107 413 L107 27 C107 26 106 20 106 20 L106 10 L106 0 L165 0 L224 0 L224 10 L224 20 L223 20 C223 20 222 26 222 27 L222 27 Z " />
<glyph glyph-name="icircumflex" unicode="&#xee;" horiz-adv-x="268" d="M165 672 L304 555 L319 568 L205 746 C204 748 167 787 165 787 C163 787 126 748 124 746 L10 568 L26 555 L165 672 L165 672 Z M222 27 L222 413 L222 500 L202 500 L106 442 L106 432 C106 432 107 415 107 413 L107 27 C107 26 106 20 106 20 L106 10 L106 0 L165 0 L224 0 L224 10 L224 20 L223 20 C223 20 222 26 222 27 L222 27 Z " />
<glyph glyph-name="idieresis" unicode="&#xef;" horiz-adv-x="268" d="M242 615 C249 615 316 682 316 689 C316 697 249 764 242 764 C234 764 167 697 167 689 C167 682 234 615 242 615 L242 615 Z M88 615 C95 615 162 682 162 689 C162 697 95 764 88 764 C80 764 13 697 13 689 C13 682 80 615 88 615 L88 615 Z M222 27 L222 413 L222 500 L202 500 L106 442 L106 432 C106 432 107 415 107 413 L107 27 C107 26 106 20 106 20 L106 10 L106 0 L165 0 L224 0 L224 10 L224 20 L223 20 C223 20 222 26 222 27 L222 27 Z " />
<glyph glyph-name="ntilde" unicode="&#xf1;" horiz-adv-x="490" d="M120 620 C120 626 151 675 154 675 C163 675 286 610 294 610 C301 610 365 737 365 751 L362 751 C362 745 325 691 320 691 C312 691 189 756 181 756 C174 756 117 634 117 620 L120 620 L120 620 Z M329 27 C329 26 328 20 328 20 L328 10 L328 0 L387 0 L445 0 L445 10 L445 20 C445 20 444 26 444 27 L444 335 C444 353 327 510 313 510 C304 510 179 426 152 403 L152 423 L152 500 L132 500 L36 465 L36 455 L36 445 C36 445 37 396 37 388 L37 27 C37 26 36 20 36 20 L36 10 L36 0 L95 0 L153 0 L153 10 L153 20 C153 20 152 26 152 27 L152 386 C176 402 274 456 281 456 C287 456 329 347 329 335 L329 27 L329 27 Z " />
<glyph glyph-name="ograve" unicode="&#xf2;" horiz-adv-x="560" d="M277 -5 C266 -5 166 225 166 250 C166 276 266 505 277 505 C289 505 389 276 389 250 C389 225 289 -5 277 -5 L277 -5 Z M39 250 C39 224 254 -10 277 -10 C301 -10 516 224 516 250 C516 276 301 510 277 510 C254 510 39 276 39 250 L39 250 Z M187 731 C183 738 134 796 132 796 C127 796 75 743 75 738 C75 737 128 684 134 679 L279 561 L293 576 L187 731 L187 731 Z " />
<glyph glyph-name="oacute" unicode="&#xf3;" horiz-adv-x="560" d="M286 561 L431 679 C437 684 490 737 490 738 C490 743 438 796 432 796 C431 796 382 738 378 731 L272 576 L286 561 L286 561 Z M277 -5 C266 -5 166 225 166 250 C166 276 266 505 277 505 C289 505 389 276 389 250 C389 225 289 -5 277 -5 L277 -5 Z M39 250 C39 224 254 -10 277 -10 C301 -10 516 224 516 250 C516 276 301 510 277 510 C254 510 39 276 39 250 L39 250 Z " />
<glyph glyph-name="ocircumflex" unicode="&#xf4;" horiz-adv-x="560" d="M277 -5 C266 -5 166 225 166 250 C166 276 266 505 277 505 C289 505 389 276 389 250 C389 225 289 -5 277 -5 L277 -5 Z M39 250 C39 224 254 -10 277 -10 C301 -10 516 224 516 250 C516 276 301 510 277 510 C254 510 39 276 39 250 L39 250 Z M278 671 L416 555 L432 568 L318 746 C317 748 280 787 277 787 C275 787 238 748 237 746 L123 568 L139 555 L278 671 L278 671 Z " />
<glyph glyph-name="otilde" unicode="&#xf5;" horiz-adv-x="560" d="M156 620 C156 626 188 675 191 675 C200 675 322 610 331 610 C338 610 401 737 401 751 L398 751 C398 745 361 691 357 691 C349 691 226 756 217 756 C211 756 153 634 153 620 L156 620 L156 620 Z M277 -5 C266 -5 166 225 166 250 C166 276 266 505 277 505 C289 505 389 276 389 250 C389 225 289 -5 277 -5 L277 -5 Z M39 250 C39 224 254 -10 277 -10 C301 -10 516 224 516 250 C516 276 301 510 277 510 C254 510 39 276 39 250 L39 250 Z " />
<glyph glyph-name="odieresis" unicode="&#xf6;" horiz-adv-x="560" d="M354 615 C362 615 429 682 429 689 C429 697 362 764 354 764 C347 764 280 697 280 689 C280 682 347 615 354 615 L354 615 Z M200 615 C208 615 275 682 275 689 C275 697 208 764 200 764 C193 764 126 697 126 689 C126 682 193 615 200 615 L200 615 Z M277 -5 C266 -5 166 225 166 250 C166 276 266 505 277 505 C289 505 389 276 389 250 C389 225 289 -5 277 -5 L277 -5 Z M39 250 C39 224 254 -10 277 -10 C301 -10 516 224 516 250 C516 276 301 510 277 510 C254 510 39 276 39 250 L39 250 Z " />
<glyph glyph-name="oslash" unicode="&#xf8;" horiz-adv-x="560" d="M41 -12 L151 108 C207 47 265 -10 276 -10 C300 -10 515 224 515 250 C515 263 463 327 407 388 L517 508 L513 512 L403 392 C347 453 288 510 276 510 C253 510 38 276 38 250 C38 237 91 173 147 112 L37 -8 L41 -12 L41 -12 Z M277 -5 C270 -5 228 85 198 159 L360 335 C377 294 390 259 390 250 C390 225 290 -5 278 -5 L277 -5 L277 -5 Z M197 165 C180 206 167 241 167 250 C167 276 267 505 278 505 C286 505 328 415 358 341 L197 165 L197 165 Z " />
<glyph glyph-name="ugrave" unicode="&#xf9;" horiz-adv-x="435" d="M121 731 C117 738 68 796 67 796 C61 796 9 743 9 738 C9 737 63 684 68 679 L213 561 L227 576 L121 731 L121 731 Z M280 90 L280 -10 L300 -10 L396 14 L396 24 L396 34 C396 34 395 102 395 114 L395 473 L395 500 L337 500 L279 500 L279 490 L279 480 C279 480 280 474 280 473 L280 137 C261 118 206 70 203 70 C197 70 144 147 144 155 L144 473 L144 500 L86 500 L28 500 L28 490 L28 480 C28 480 29 474 29 473 L29 155 C29 139 137 -10 149 -10 C154 -10 253 97 279 130 L280 90 L280 90 Z " />
<glyph glyph-name="uacute" unicode="&#xfa;" horiz-adv-x="435" d="M220 561 L365 679 C371 684 424 737 424 738 C424 743 372 796 367 796 C365 796 317 738 312 731 L206 576 L220 561 L220 561 Z M280 90 L280 -10 L300 -10 L396 14 L396 24 L396 34 C396 34 395 102 395 114 L395 473 L395 500 L337 500 L279 500 L279 490 L279 480 C279 480 280 474 280 473 L280 137 C261 118 206 70 203 70 C197 70 144 147 144 155 L144 473 L144 500 L86 500 L28 500 L28 490 L28 480 C28 480 29 474 29 473 L29 155 C29 139 137 -10 149 -10 C154 -10 253 97 279 130 L280 90 L280 90 Z " />
<glyph glyph-name="ucircumflex" unicode="&#xfb;" horiz-adv-x="435" d="M212 671 L350 555 L366 568 L252 746 C251 748 214 787 212 787 C209 787 173 748 171 746 L57 568 L73 555 L212 671 L212 671 Z M280 90 L280 -10 L300 -10 L396 14 L396 24 L396 34 C396 34 395 102 395 114 L395 473 L395 500 L337 500 L279 500 L279 490 L279 480 C279 480 280 474 280 473 L280 137 C261 118 206 70 203 70 C197 70 144 147 144 155 L144 473 L144 500 L86 500 L28 500 L28 490 L28 480 C28 480 29 474 29 473 L29 155 C29 139 137 -10 149 -10 C154 -10 253 97 279 130 L280 90 L280 90 Z " />
<glyph glyph-name="udieresis" unicode="&#xfc;" horiz-adv-x="435" d="M289 615 C296 615 363 682 363 689 C363 697 296 764 289 764 C281 764 214 697 214 689 C214 682 281 615 289 615 L289 615 Z M135 615 C142 615 209 682 209 689 C209 697 142 764 135 764 C127 764 60 697 60 689 C60 682 127 615 135 615 L135 615 Z M280 90 L280 -10 L300 -10 L396 14 L396 24 L396 34 C396 34 395 102 395 114 L395 473 L395 500 L337 500 L279 500 L279 490 L279 480 C279 480 280 474 280 473 L280 137 C261 118 206 70 203 70 C197 70 144 147 144 155 L144 473 L144 500 L86 500 L28 500 L28 490 L28 480 C28 480 29 474 29 473 L29 155 C29 139 137 -10 149 -10 C154 -10 253 97 279 130 L280 90 L280 90 Z " />
<glyph glyph-name="ydieresis" unicode="&#xff;" horiz-adv-x="442" d="M319 615 C326 615 393 682 393 689 C393 697 326 764 319 764 C312 764 245 697 245 689 C245 682 312 615 319 615 L319 615 Z M165 615 C172 615 239 682 239 689 C239 697 172 764 165 764 C157 764 90 697 90 689 C90 682 157 615 165 615 L165 615 Z M8 468 L206 -10 L146 -204 C145 -206 118 -229 116 -229 C111 -229 55 -188 50 -188 C43 -188 -16 -240 -16 -245 C-16 -252 45 -316 52 -316 C61 -316 164 -243 167 -235 L239 -10 L406 470 C408 475 410 480 411 480 L412 480 C412 480 414 489 414 490 C415 491 417 500 417 500 L390 500 L364 500 L363 500 C363 500 361 492 361 490 L361 489 C360 488 359 484 358 481 L254 144 L130 472 C129 475 128 479 128 479 C128 479 125 488 125 489 C124 490 122 499 122 499 L120 499 L58 499 L-5 499 C-5 499 -2 490 -2 489 C-1 488 2 479 2 479 L3 479 C3 479 7 469 8 467 L8 468 L8 468 Z " />
<glyph glyph-name="Amacron" unicode="&#x100;" horiz-adv-x="583" d="M144 890 L396 890 L396 970 L144 970 L144 890 L144 890 Z M530 72 L530 72 L335 709 L316 770 L303 770 C297 765 211 710 206 709 L209 699 L38 31 C36 24 35 20 35 20 L33 20 C33 20 32 11 32 10 C32 9 30 0 30 0 L35 0 L36 0 L39 0 C39 0 40 9 40 10 C40 11 41 18 41 20 L52 63 C55 73 57 82 58 85 L58 85 L110 291 L331 291 L412 20 L412 20 C412 20 414 11 414 10 C415 9 416 0 416 0 L418 0 L485 0 L553 0 C553 0 551 9 551 10 C551 11 549 20 549 20 L548 20 C548 20 533 65 531 72 L530 72 L530 72 Z M112 296 L212 692 L330 296 L112 296 L112 296 Z " />
<glyph glyph-name="amacron" unicode="&#x101;" horiz-adv-x="489" d="M119 640 L371 640 L371 720 L119 720 L119 640 L119 640 Z M500 123 L482 131 C481 126 432 77 427 77 C422 77 375 115 375 120 L375 353 C375 371 258 510 245 510 C227 510 64 369 64 360 C64 352 129 280 137 280 C142 280 193 333 193 337 C193 341 173 395 173 399 C173 406 234 503 241 503 C243 503 261 407 261 394 L261 259 C212 226 44 100 44 95 C44 85 135 -9 145 -9 C150 -9 265 81 278 96 C309 59 371 -3 380 -3 C390 -3 497 112 500 125 L500 123 L500 123 Z M260 253 L260 122 C260 119 266 110 275 99 C267 91 210 53 206 53 C202 53 160 103 160 108 C160 120 232 220 261 254 L260 253 L260 253 Z " />
<glyph glyph-name="Abreve" unicode="&#x102;" horiz-adv-x="583" d="M145 994 C146 980 259 854 270 854 C281 854 394 978 396 992 L372 995 C371 989 280 935 270 935 C261 935 170 991 169 998 L145 994 L145 994 Z M530 72 L530 72 L335 709 L316 770 L303 770 C297 765 211 710 206 709 L209 699 L38 31 C36 24 35 20 35 20 L33 20 C33 20 32 11 32 10 C32 9 30 0 30 0 L35 0 L36 0 L39 0 C39 0 40 9 40 10 C40 11 41 18 41 20 L52 63 C55 73 57 82 58 85 L58 85 L110 291 L331 291 L412 20 L412 20 C412 20 414 11 414 10 C415 9 416 0 416 0 L418 0 L485 0 L553 0 C553 0 551 9 551 10 C551 11 549 20 549 20 L548 20 C548 20 533 65 531 72 L530 72 L530 72 Z M112 296 L212 692 L330 296 L112 296 L112 296 Z " />
<glyph glyph-name="abreve" unicode="&#x103;" horiz-adv-x="489" d="M119 744 C121 730 234 604 245 604 C256 604 369 728 370 742 L346 745 C346 739 254 685 245 685 C235 685 144 741 143 748 L119 744 L119 744 Z M500 123 L482 131 C481 126 432 77 427 77 C422 77 375 115 375 120 L375 353 C375 371 258 510 245 510 C227 510 64 369 64 360 C64 352 129 280 137 280 C142 280 193 333 193 337 C193 341 173 395 173 399 C173 406 234 503 241 503 C243 503 261 407 261 394 L261 259 C212 226 44 100 44 95 C44 85 135 -9 145 -9 C150 -9 265 81 278 96 C309 59 371 -3 380 -3 C390 -3 497 112 500 125 L500 123 L500 123 Z M260 253 L260 122 C260 119 266 110 275 99 C267 91 210 53 206 53 C202 53 160 103 160 108 C160 120 232 220 261 254 L260 253 L260 253 Z " />
<glyph glyph-name="Cacute" unicode="&#x106;" horiz-adv-x="723" d="M425 811 L570 929 C576 934 629 987 629 988 C629 993 577 1046 571 1046 C570 1046 522 988 517 981 L411 826 L425 811 L425 811 Z M637 658 C636 659 635 659 635 659 L635 659 C564 697 434 760 418 760 C380 760 43 414 43 375 C43 337 372 -10 408 -10 C424 -10 562 54 636 92 L637 92 C637 92 638 93 640 94 C663 106 679 115 682 118 C681 119 679 121 676 124 L651 145 C650 144 649 143 648 142 C639 136 610 115 600 107 C532 62 421 -6 410 -6 C387 -6 184 337 184 375 C184 413 396 755 419 755 C430 755 530 691 595 646 C615 631 650 605 651 604 L682 631 C679 634 662 644 638 657 L637 658 L637 658 Z " />
<glyph glyph-name="Ccircumflex" unicode="&#x108;" horiz-adv-x="723" d="M417 921 L555 805 L571 818 L457 996 C456 998 419 1037 417 1037 C414 1037 377 998 376 996 L262 818 L278 805 L417 921 L417 921 Z M637 658 C636 659 635 659 635 659 L635 659 C564 697 434 760 418 760 C380 760 43 414 43 375 C43 337 372 -10 408 -10 C424 -10 562 54 636 92 L637 92 C637 92 638 93 640 94 C663 106 679 115 682 118 C681 119 679 121 676 124 L651 145 C650 144 649 143 648 142 C639 136 610 115 600 107 C532 62 421 -6 410 -6 C387 -6 184 337 184 375 C184 413 396 755 419 755 C430 755 530 691 595 646 C615 631 650 605 651 604 L682 631 C679 634 662 644 638 657 L637 658 L637 658 Z " />
<glyph glyph-name="Cdot" unicode="&#x10a;" horiz-adv-x="723" d="M417 865 C424 865 491 932 491 939 C491 947 424 1014 417 1014 C409 1014 342 947 342 939 C342 932 409 865 417 865 L417 865 Z M637 658 C636 659 635 659 635 659 L635 659 C564 697 434 760 418 760 C380 760 43 414 43 375 C43 337 372 -10 408 -10 C424 -10 562 54 636 92 L637 92 C637 92 638 93 640 94 C663 106 679 115 682 118 C681 119 679 121 676 124 L651 145 C650 144 649 143 648 142 C639 136 610 115 600 107 C532 62 421 -6 410 -6 C387 -6 184 337 184 375 C184 413 396 755 419 755 C430 755 530 691 595 646 C615 631 650 605 651 604 L682 631 C679 634 662 644 638 657 L637 658 L637 658 Z " />
<glyph glyph-name="cdot" unicode="&#x10b;" horiz-adv-x="474" d="M286 615 C293 615 360 682 360 689 C360 697 293 764 286 764 C278 764 211 697 211 689 C211 682 278 615 286 615 L286 615 Z M444 128 L428 135 C422 122 272 1 262 1 C252 1 163 250 163 277 C163 300 272 506 285 506 C286 506 332 415 336 405 C338 399 390 348 394 348 C402 348 453 399 451 405 C447 416 298 510 286 510 C261 510 40 262 40 234 C40 210 234 -10 255 -10 C268 -10 438 114 444 128 L444 128 Z " />
<glyph glyph-name="Ccaron" unicode="&#x10c;" horiz-adv-x="723" d="M417 929 L555 1045 L571 1032 L457 854 C456 852 419 813 417 813 C414 813 377 852 376 854 L262 1032 L278 1045 L417 929 L417 929 Z M637 658 C636 659 635 659 635 659 L635 659 C564 697 434 760 418 760 C380 760 43 414 43 375 C43 337 372 -10 408 -10 C424 -10 562 54 636 92 L637 92 C637 92 638 93 640 94 C663 106 679 115 682 118 C681 119 679 121 676 124 L651 145 C650 144 649 143 648 142 C639 136 610 115 600 107 C532 62 421 -6 410 -6 C387 -6 184 337 184 375 C184 413 396 755 419 755 C430 755 530 691 595 646 C615 631 650 605 651 604 L682 631 C679 634 662 644 638 657 L637 658 L637 658 Z " />
<glyph glyph-name="ccaron" unicode="&#x10d;" horiz-adv-x="474" d="M444 128 L428 135 C422 122 272 1 262 1 C252 1 163 250 163 277 C163 300 272 506 285 506 C286 506 332 415 336 405 C338 399 390 348 394 348 C402 348 453 399 451 405 C447 416 298 510 286 510 C261 510 40 262 40 234 C40 210 234 -10 255 -10 C268 -10 438 114 444 128 L444 128 Z M286 679 L424 795 L440 782 L326 604 C325 602 288 563 286 563 C283 563 247 602 245 604 L131 782 L147 795 L286 679 L286 679 Z " />
<glyph glyph-name="Dcaron" unicode="&#x10e;" horiz-adv-x="786" d="M337 929 L475 1045 L491 1032 L377 854 C376 852 339 813 337 813 C334 813 297 852 296 854 L182 1032 L198 1045 L337 929 L337 929 Z M83 702 L83 48 C83 44 81 20 81 20 L81 10 L81 0 L83 0 L146 0 L211 0 L278 0 C324 0 732 334 732 375 C732 413 358 750 312 750 L211 750 L146 750 L83 750 L81 750 L81 740 L81 730 C81 730 83 706 83 702 L83 702 Z M211 746 L297 746 C329 746 590 412 590 375 C590 334 304 4 273 4 C263 4 211 55 211 61 L211 702 L211 746 L211 746 Z " />
<glyph glyph-name="dcaron" unicode="&#x10f;" horiz-adv-x="497" d="M592 636 C594 642 618 736 618 740 C618 742 572 757 567 757 C563 757 532 656 532 649 L527 536 L546 533 L592 636 L592 636 Z M365 703 C366 703 367 669 367 663 L367 460 C317 484 255 511 246 511 C223 511 39 276 39 250 C39 225 207 -4 226 -4 C235 -4 340 49 367 66 L367 -9 L387 -9 L483 15 L483 25 L483 35 C483 35 482 121 482 135 L482 691 L482 751 L461 751 L365 723 L365 713 L365 703 L365 703 Z M367 106 C346 90 278 45 274 45 C262 45 156 259 156 283 C156 302 248 479 260 479 C266 479 344 415 367 393 L367 111 L367 106 L367 106 Z " />
<glyph glyph-name="Emacron" unicode="&#x112;" horiz-adv-x="577" d="M169 890 L421 890 L421 970 L169 970 L169 890 L169 890 Z M474 0 L537 0 L538 3 L538 6 L528 6 L518 6 C518 6 480 4 474 4 L263 4 C254 4 202 55 202 61 L202 380 L386 380 C392 380 429 379 429 378 L439 378 L449 378 L449 380 L449 383 L449 385 L449 387 L439 387 L429 387 C429 387 392 385 386 385 L202 385 L202 702 L202 746 L452 746 C459 746 496 744 496 744 L506 744 L516 744 L516 747 L515 750 L452 750 L202 750 L137 750 L74 750 L72 750 L72 740 L72 730 C73 730 74 706 74 702 L74 48 C74 44 73 20 72 20 L72 10 L72 0 L74 0 L137 0 L202 0 L474 0 L474 0 Z " />
<glyph glyph-name="emacron" unicode="&#x113;" horiz-adv-x="498" d="M152 640 L404 640 L404 720 L152 720 L152 640 L152 640 Z M183 336 L341 336 L436 336 L468 336 C468 357 297 510 278 510 C254 510 39 257 39 228 C39 205 233 -10 255 -10 C270 -10 450 117 455 131 L441 136 C436 123 272 1 259 1 C249 1 160 248 160 275 C160 282 170 306 184 336 L183 336 L183 336 Z M341 341 L186 340 C218 409 270 506 278 506 C285 506 336 373 342 341 L341 341 L341 341 Z " />
<glyph glyph-name="Ebreve" unicode="&#x114;" horiz-adv-x="577" d="M169 994 C171 980 284 854 295 854 C306 854 419 978 420 992 L396 995 C395 989 304 935 295 935 C285 935 194 991 193 998 L169 994 L169 994 Z M474 0 L537 0 L538 3 L538 6 L528 6 L518 6 C518 6 480 4 474 4 L263 4 C254 4 202 55 202 61 L202 380 L386 380 C392 380 429 379 429 378 L439 378 L449 378 L449 380 L449 383 L449 385 L449 387 L439 387 L429 387 C429 387 392 385 386 385 L202 385 L202 702 L202 746 L452 746 C459 746 496 744 496 744 L506 744 L516 744 L516 747 L515 750 L452 750 L202 750 L137 750 L74 750 L72 750 L72 740 L72 730 C73 730 74 706 74 702 L74 48 C74 44 73 20 72 20 L72 10 L72 0 L74 0 L137 0 L202 0 L474 0 L474 0 Z " />
<glyph glyph-name="ebreve" unicode="&#x115;" horiz-adv-x="498" d="M153 744 C154 730 267 604 278 604 C289 604 402 728 404 742 L380 745 C379 739 288 685 278 685 C269 685 177 741 177 748 L153 744 L153 744 Z M183 336 L341 336 L436 336 L468 336 C468 357 297 510 278 510 C254 510 39 257 39 228 C39 205 233 -10 255 -10 C270 -10 450 117 455 131 L441 136 C436 123 272 1 259 1 C249 1 160 248 160 275 C160 282 170 306 184 336 L183 336 L183 336 Z M341 341 L186 340 C218 409 270 506 278 506 C285 506 336 373 342 341 L341 341 L341 341 Z " />
<glyph glyph-name="Edot" unicode="&#x116;" horiz-adv-x="577" d="M295 865 C302 865 369 932 369 939 C369 947 302 1014 295 1014 C287 1014 220 947 220 939 C220 932 287 865 295 865 L295 865 Z M474 0 L537 0 L538 3 L538 6 L528 6 L518 6 C518 6 480 4 474 4 L263 4 C254 4 202 55 202 61 L202 380 L386 380 C392 380 429 379 429 378 L439 378 L449 378 L449 380 L449 383 L449 385 L449 387 L439 387 L429 387 C429 387 392 385 386 385 L202 385 L202 702 L202 746 L452 746 C459 746 496 744 496 744 L506 744 L516 744 L516 747 L515 750 L452 750 L202 750 L137 750 L74 750 L72 750 L72 740 L72 730 C73 730 74 706 74 702 L74 48 C74 44 73 20 72 20 L72 10 L72 0 L74 0 L137 0 L202 0 L474 0 L474 0 Z " />
<glyph glyph-name="edot" unicode="&#x117;" horiz-adv-x="498" d="M278 615 C286 615 353 682 353 689 C353 697 286 764 278 764 C271 764 204 697 204 689 C204 682 271 615 278 615 L278 615 Z M183 336 L341 336 L436 336 L468 336 C468 357 297 510 278 510 C254 510 39 257 39 228 C39 205 233 -10 255 -10 C270 -10 450 117 455 131 L441 136 C436 123 272 1 259 1 C249 1 160 248 160 275 C160 282 170 306 184 336 L183 336 L183 336 Z M341 341 L186 340 C218 409 270 506 278 506 C285 506 336 373 342 341 L341 341 L341 341 Z " />
<glyph glyph-name="Ecaron" unicode="&#x11a;" horiz-adv-x="577" d="M295 929 L433 1045 L449 1032 L335 854 C334 852 297 813 295 813 C292 813 256 852 254 854 L140 1032 L156 1045 L295 929 L295 929 Z M474 0 L537 0 L538 3 L538 6 L528 6 L518 6 C518 6 480 4 474 4 L263 4 C254 4 202 55 202 61 L202 380 L386 380 C392 380 429 379 429 378 L439 378 L449 378 L449 380 L449 383 L449 385 L449 387 L439 387 L429 387 C429 387 392 385 386 385 L202 385 L202 702 L202 746 L452 746 C459 746 496 744 496 744 L506 744 L516 744 L516 747 L515 750 L452 750 L202 750 L137 750 L74 750 L72 750 L72 740 L72 730 C73 730 74 706 74 702 L74 48 C74 44 73 20 72 20 L72 10 L72 0 L74 0 L137 0 L202 0 L474 0 L474 0 Z " />
<glyph glyph-name="ecaron" unicode="&#x11b;" horiz-adv-x="498" d="M278 679 L417 795 L432 782 L319 604 C318 602 280 563 278 563 C276 563 239 602 238 604 L124 782 L139 795 L278 679 L278 679 Z M183 336 L341 336 L436 336 L468 336 C468 357 297 510 278 510 C254 510 39 257 39 228 C39 205 233 -10 255 -10 C270 -10 450 117 455 131 L441 136 C436 123 272 1 259 1 C249 1 160 248 160 275 C160 282 170 306 184 336 L183 336 L183 336 Z M341 341 L186 340 C218 409 270 506 278 506 C285 506 336 373 342 341 L341 341 L341 341 Z " />
<glyph glyph-name="Gcircumflex" unicode="&#x11c;" horiz-adv-x="743" d="M417 921 L555 805 L571 818 L457 996 C456 998 419 1037 417 1037 C414 1037 377 998 376 996 L262 818 L278 805 L417 921 L417 921 Z M537 279 L540 34 L540 34 L538 159 C538 145 441 21 431 21 C406 21 183 340 183 375 C183 413 395 755 418 755 C429 755 529 691 594 646 C614 631 649 605 650 604 L681 631 C678 634 661 644 637 657 C636 658 635 658 635 658 L635 658 C564 696 434 759 418 759 C380 759 43 413 43 374 C43 336 382 -11 420 -11 C441 -11 719 54 735 61 L733 64 C730 63 703 58 666 52 L666 278 C666 282 667 304 667 304 L667 314 L667 324 L602 324 L536 324 L536 314 L536 304 C536 304 538 282 538 278 L537 279 L537 279 Z " />
<glyph glyph-name="Gbreve" unicode="&#x11e;" horiz-adv-x="743" d="M291 994 C293 980 406 854 417 854 C427 854 540 978 542 992 L518 995 C517 989 426 935 417 935 C407 935 316 991 315 998 L291 994 L291 994 Z M537 279 L540 34 L540 34 L538 159 C538 145 441 21 431 21 C406 21 183 340 183 375 C183 413 395 755 418 755 C429 755 529 691 594 646 C614 631 649 605 650 604 L681 631 C678 634 661 644 637 657 C636 658 635 658 635 658 L635 658 C564 696 434 759 418 759 C380 759 43 413 43 374 C43 336 382 -11 420 -11 C441 -11 719 54 735 61 L733 64 C730 63 703 58 666 52 L666 278 C666 282 667 304 667 304 L667 314 L667 324 L602 324 L536 324 L536 314 L536 304 C536 304 538 282 538 278 L537 279 L537 279 Z " />
<glyph glyph-name="gbreve" unicode="&#x11f;" horiz-adv-x="488" d="M117 744 C119 730 232 604 243 604 C254 604 367 728 368 742 L344 745 C343 739 252 685 243 685 C233 685 142 741 141 748 L117 744 L117 744 Z M190 350 C190 363 237 483 243 483 C248 483 296 363 296 350 C296 337 248 215 243 215 C237 215 190 337 190 350 L190 350 Z M164 -15 L268 -15 C279 -15 358 -126 358 -138 C358 -155 263 -308 253 -308 C241 -308 134 -132 134 -113 C134 -105 153 -42 163 -14 L164 -15 L164 -15 Z M144 -1 L139 -1 C129 -3 39 -127 39 -139 C39 -159 225 -334 246 -334 C267 -334 453 -132 453 -110 C453 -89 301 100 280 100 L168 100 C164 100 122 134 122 138 C122 143 231 189 243 189 C259 189 411 335 411 351 C411 367 259 511 243 511 C226 511 75 367 75 351 C75 338 169 245 217 206 C169 183 54 112 54 103 C54 94 113 27 144 -2 L144 -1 L144 -1 Z M460 426 C460 422 508 386 514 386 C518 386 561 435 561 440 C561 446 511 495 506 495 C497 495 387 423 384 415 L391 385 C394 391 454 447 458 447 C458 447 460 428 460 426 L460 426 Z " />
<glyph glyph-name="Gdot" unicode="&#x120;" horiz-adv-x="743" d="M417 865 C424 865 491 932 491 939 C491 947 424 1014 417 1014 C409 1014 342 947 342 939 C342 932 409 865 417 865 L417 865 Z M537 279 L540 34 L540 34 L538 159 C538 145 441 21 431 21 C406 21 183 340 183 375 C183 413 395 755 418 755 C429 755 529 691 594 646 C614 631 649 605 650 604 L681 631 C678 634 661 644 637 657 C636 658 635 658 635 658 L635 658 C564 696 434 759 418 759 C380 759 43 413 43 374 C43 336 382 -11 420 -11 C441 -11 719 54 735 61 L733 64 C730 63 703 58 666 52 L666 278 C666 282 667 304 667 304 L667 314 L667 324 L602 324 L536 324 L536 314 L536 304 C536 304 538 282 538 278 L537 279 L537 279 Z " />
<glyph glyph-name="gdot" unicode="&#x121;" horiz-adv-x="488" d="M243 615 C250 615 317 682 317 689 C317 697 250 764 243 764 C235 764 168 697 168 689 C168 682 235 615 243 615 L243 615 Z M190 350 C190 363 237 483 243 483 C248 483 296 363 296 350 C296 337 248 215 243 215 C237 215 190 337 190 350 L190 350 Z M164 -15 L268 -15 C279 -15 358 -126 358 -138 C358 -155 263 -308 253 -308 C241 -308 134 -132 134 -113 C134 -105 153 -42 163 -14 L164 -15 L164 -15 Z M144 -1 L139 -1 C129 -3 39 -127 39 -139 C39 -159 225 -334 246 -334 C267 -334 453 -132 453 -110 C453 -89 301 100 280 100 L168 100 C164 100 122 134 122 138 C122 143 231 189 243 189 C259 189 411 335 411 351 C411 367 259 511 243 511 C226 511 75 367 75 351 C75 338 169 245 217 206 C169 183 54 112 54 103 C54 94 113 27 144 -2 L144 -1 L144 -1 Z M460 426 C460 422 508 386 514 386 C518 386 561 435 561 440 C561 446 511 495 506 495 C497 495 387 423 384 415 L391 385 C394 391 454 447 458 447 C458 447 460 428 460 426 L460 426 Z " />
<glyph glyph-name="Hcircumflex" unicode="&#x124;" horiz-adv-x="673" d="M338 922 L477 805 L492 818 L379 996 C377 998 340 1037 338 1037 C336 1037 299 998 297 996 L184 818 L199 805 L338 922 L338 922 Z M593 46 L593 704 C593 708 594 730 594 730 L595 730 L595 740 L595 750 L529 750 L463 750 L463 740 L463 730 C463 730 464 708 464 704 L464 386 L211 386 L211 704 C211 708 212 730 213 730 L213 740 L213 750 L147 750 L81 750 L81 740 L81 730 C81 730 83 708 83 704 L83 46 C83 42 81 20 81 20 L81 10 L81 0 L147 0 L213 0 L213 10 L213 20 C212 20 211 42 211 46 L211 380 L464 380 L464 46 C464 42 463 20 463 20 L463 10 L463 0 L529 0 L595 0 L595 10 L595 20 L594 20 C594 20 593 42 593 46 L593 46 Z " />
<glyph glyph-name="Itilde" unicode="&#x128;" horiz-adv-x="271" d="M5 870 C5 876 36 925 40 925 C48 925 171 860 179 860 C186 860 250 987 250 1001 L247 1001 C247 995 210 941 206 941 C197 941 75 1006 66 1006 C60 1006 2 884 2 870 L5 870 L5 870 Z M190 46 L190 704 C190 708 192 730 192 730 L192 740 L192 750 L126 750 L60 750 L60 740 L60 730 C60 730 62 708 62 704 L62 46 C62 42 60 20 60 20 L60 10 L60 0 L126 0 L192 0 L192 10 L192 20 C192 20 190 42 190 46 L190 46 Z " />
<glyph glyph-name="itilde" unicode="&#x129;" horiz-adv-x="268" d="M44 620 C44 626 75 675 78 675 C87 675 210 610 218 610 C225 610 289 737 289 751 L286 751 C286 745 249 691 244 691 C236 691 113 756 105 756 C98 756 41 634 41 620 L44 620 L44 620 Z M222 27 L222 413 L222 500 L202 500 L106 442 L106 432 C106 432 107 415 107 413 L107 27 C107 26 106 20 106 20 L106 10 L106 0 L165 0 L224 0 L224 10 L224 20 L223 20 C223 20 222 26 222 27 L222 27 Z " />
<glyph glyph-name="Imacron" unicode="&#x12a;" horiz-adv-x="271" d="M0 890 L252 890 L252 970 L0 970 L0 890 L0 890 Z M190 46 L190 704 C190 708 192 730 192 730 L192 740 L192 750 L126 750 L60 750 L60 740 L60 730 C60 730 62 708 62 704 L62 46 C62 42 60 20 60 20 L60 10 L60 0 L126 0 L192 0 L192 10 L192 20 C192 20 190 42 190 46 L190 46 Z " />
<glyph glyph-name="imacron" unicode="&#x12b;" horiz-adv-x="268" d="M39 640 L291 640 L291 720 L39 720 L39 640 L39 640 Z M222 27 L222 413 L222 500 L202 500 L106 442 L106 432 C106 432 107 415 107 413 L107 27 C107 26 106 20 106 20 L106 10 L106 0 L165 0 L224 0 L224 10 L224 20 L223 20 C223 20 222 26 222 27 L222 27 Z " />
<glyph glyph-name="Ibreve" unicode="&#x12c;" horiz-adv-x="271" d="M0 994 C2 980 115 854 126 854 C137 854 250 978 252 992 L227 995 C227 989 135 935 126 935 C117 935 25 991 25 998 L0 994 L0 994 Z M190 46 L190 704 C190 708 192 730 192 730 L192 740 L192 750 L126 750 L60 750 L60 740 L60 730 C60 730 62 708 62 704 L62 46 C62 42 60 20 60 20 L60 10 L60 0 L126 0 L192 0 L192 10 L192 20 C192 20 190 42 190 46 L190 46 Z " />
<glyph glyph-name="ibreve" unicode="&#x12d;" horiz-adv-x="268" d="M39 744 C41 730 154 604 165 604 C176 604 289 728 290 742 L266 745 C265 739 174 685 165 685 C155 685 64 741 63 748 L39 744 L39 744 Z M222 27 L222 413 L222 500 L202 500 L106 442 L106 432 C106 432 107 415 107 413 L107 27 C107 26 106 20 106 20 L106 10 L106 0 L165 0 L224 0 L224 10 L224 20 L223 20 C223 20 222 26 222 27 L222 27 Z " />
<glyph glyph-name="Idot" unicode="&#x130;" horiz-adv-x="271" d="M126 865 C133 865 200 932 200 939 C200 947 133 1014 126 1014 C119 1014 52 947 52 939 C52 932 119 865 126 865 L126 865 Z M190 46 L190 704 C190 708 192 730 192 730 L192 740 L192 750 L126 750 L60 750 L60 740 L60 730 C60 730 62 708 62 704 L62 46 C62 42 60 20 60 20 L60 10 L60 0 L126 0 L192 0 L192 10 L192 20 C192 20 190 42 190 46 L190 46 Z " />
<glyph glyph-name="dotlessi" unicode="&#x131;" horiz-adv-x="268" d="M222 27 L222 413 L222 500 L202 500 L106 442 L106 432 C106 432 107 415 107 413 L107 27 C107 26 106 20 106 20 L106 10 L106 0 L165 0 L224 0 L224 10 L224 20 L223 20 C223 20 222 26 222 27 L222 27 Z " />
<glyph glyph-name="Jcircumflex" unicode="&#x134;" horiz-adv-x="271" d="M126 922 L265 805 L280 818 L167 996 C165 998 128 1037 126 1037 C124 1037 87 998 86 996 L-28 818 L-13 805 L126 922 L126 922 Z M-39 -205 C-17 -181 22 -131 62 -75 L62 -99 C62 -112 -9 -182 -38 -205 L-39 -205 L-39 -205 Z M-38 -205 C-44 -210 -48 -213 -49 -213 C-60 -213 -140 -105 -151 -105 C-157 -105 -212 -160 -212 -166 C-212 -171 -70 -220 -54 -220 C-52 -220 -46 -215 -37 -206 L-38 -205 L-38 -205 Z M63 -76 C127 13 193 115 193 142 L192 703 C192 707 194 729 194 729 L194 739 L194 749 L128 749 L62 749 L62 739 L62 729 C62 729 64 707 64 703 L63 -76 L63 -76 Z " />
<glyph glyph-name="Lacute" unicode="&#x139;" horiz-adv-x="536" d="M135 811 L279 929 C285 934 338 987 338 988 C338 993 286 1046 281 1046 C280 1046 231 988 227 981 L120 826 L135 811 L135 811 Z M525 3 C525 3 526 4 526 5 L526 6 L516 6 L506 6 C506 5 443 3 433 3 L251 3 C242 3 190 55 190 61 L190 702 C190 706 192 730 192 730 L192 740 L192 750 L190 750 L126 750 L62 750 L60 750 L60 740 L60 730 C60 730 62 706 62 702 L62 48 C62 44 60 20 60 20 L60 10 L60 0 L62 0 L125 0 L190 0 L525 0 L525 3 L525 3 Z " />
<glyph glyph-name="Lcaron" unicode="&#x13d;" horiz-adv-x="536" d="M336 686 C339 692 363 786 363 790 C363 792 317 807 311 807 C307 807 277 706 277 699 L271 586 L291 583 L336 686 L336 686 Z M525 3 C525 3 526 4 526 5 L526 6 L516 6 L506 6 C506 5 443 3 433 3 L251 3 C242 3 190 55 190 61 L190 702 C190 706 192 730 192 730 L192 740 L192 750 L190 750 L126 750 L62 750 L60 750 L60 740 L60 730 C60 730 62 706 62 702 L62 48 C62 44 60 20 60 20 L60 10 L60 0 L62 0 L125 0 L190 0 L525 0 L525 3 L525 3 Z " />
<glyph glyph-name="lcaron" unicode="&#x13e;" horiz-adv-x="204" d="M268 636 C271 642 295 736 295 740 C295 742 249 757 243 757 C239 757 209 656 209 649 L203 536 L223 533 L268 636 L268 636 Z M42 703 C42 703 43 653 43 645 L43 27 C43 26 42 20 42 20 L42 10 L42 0 L101 0 L159 0 L159 10 L159 20 C159 20 158 26 158 27 L158 673 L158 750 L138 750 L42 722 L42 712 L42 703 L42 703 Z " />
<glyph glyph-name="Nacute" unicode="&#x143;" horiz-adv-x="630" d="M219 811 L363 929 C369 934 423 987 423 988 C423 993 370 1046 365 1046 C364 1046 315 988 311 981 L204 826 L219 811 L219 811 Z M135 750 L105 750 L73 750 L55 750 L-24 750 C-24 750 -18 741 -18 740 C-17 739 -11 730 -11 730 L-10 730 C-10 730 -1 717 1 715 L1 715 L73 615 L71 45 C71 32 71 20 71 20 L69 20 L69 10 L69 0 L71 0 L91 0 L110 0 L112 0 L112 10 L112 20 L110 20 C110 20 110 24 110 29 L106 569 L383 183 L514 0 L539 0 L548 695 C549 708 550 730 550 730 L550 740 L550 750 L549 750 L529 750 L510 750 L509 750 L509 740 L509 730 C509 730 510 718 511 706 L514 222 L490 256 L135 750 L135 750 Z " />
<glyph glyph-name="Ncaron" unicode="&#x147;" horiz-adv-x="630" d="M310 929 L449 1045 L465 1032 L351 854 C350 852 312 813 310 813 C308 813 271 852 270 854 L156 1032 L171 1045 L310 929 L310 929 Z M135 750 L105 750 L73 750 L55 750 L-24 750 C-24 750 -18 741 -18 740 C-17 739 -11 730 -11 730 L-10 730 C-10 730 -1 717 1 715 L1 715 L73 615 L71 45 C71 32 71 20 71 20 L69 20 L69 10 L69 0 L71 0 L91 0 L110 0 L112 0 L112 10 L112 20 L110 20 C110 20 110 24 110 29 L106 569 L383 183 L514 0 L539 0 L548 695 C549 708 550 730 550 730 L550 740 L550 750 L549 750 L529 750 L510 750 L509 750 L509 740 L509 730 C509 730 510 718 511 706 L514 222 L490 256 L135 750 L135 750 Z " />
<glyph glyph-name="ncaron" unicode="&#x148;" horiz-adv-x="490" d="M241 679 L379 795 L395 782 L281 604 C280 602 243 563 241 563 C238 563 202 602 200 604 L86 782 L102 795 L241 679 L241 679 Z M329 27 C329 26 328 20 328 20 L328 10 L328 0 L387 0 L445 0 L445 10 L445 20 C445 20 444 26 444 27 L444 335 C444 353 327 510 313 510 C304 510 179 426 152 403 L152 423 L152 500 L132 500 L36 465 L36 455 L36 445 C36 445 37 396 37 388 L37 27 C37 26 36 20 36 20 L36 10 L36 0 L95 0 L153 0 L153 10 L153 20 C153 20 152 26 152 27 L152 386 C176 402 274 456 281 456 C287 456 329 347 329 335 L329 27 L329 27 Z " />
<glyph glyph-name="Omacron" unicode="&#x14c;" horiz-adv-x="830" d="M281 890 L533 890 L533 970 L281 970 L281 890 L281 890 Z M398 -5 C378 -5 195 337 195 375 C195 413 385 755 406 755 C428 755 629 413 629 375 C629 337 421 -5 398 -5 L398 -5 Z M48 375 C48 337 362 -10 397 -10 C435 -10 776 337 776 375 C776 414 444 760 407 760 C371 760 48 414 48 375 L48 375 Z " />
<glyph glyph-name="omacron" unicode="&#x14d;" horiz-adv-x="560" d="M151 640 L404 640 L404 720 L151 720 L151 640 L151 640 Z M277 -5 C266 -5 166 225 166 250 C166 276 266 505 277 505 C289 505 389 276 389 250 C389 225 289 -5 277 -5 L277 -5 Z M39 250 C39 224 254 -10 277 -10 C301 -10 516 224 516 250 C516 276 301 510 277 510 C254 510 39 276 39 250 L39 250 Z " />
<glyph glyph-name="Obreve" unicode="&#x14e;" horiz-adv-x="830" d="M281 994 C283 980 396 854 407 854 C418 854 531 978 533 992 L508 995 C508 989 416 935 407 935 C398 935 306 991 305 998 L281 994 L281 994 Z M398 -5 C378 -5 195 337 195 375 C195 413 385 755 406 755 C428 755 629 413 629 375 C629 337 421 -5 398 -5 L398 -5 Z M48 375 C48 337 362 -10 397 -10 C435 -10 776 337 776 375 C776 414 444 760 407 760 C371 760 48 414 48 375 L48 375 Z " />
<glyph glyph-name="obreve" unicode="&#x14f;" horiz-adv-x="560" d="M152 744 C153 730 266 604 277 604 C288 604 401 728 403 742 L379 745 C378 739 287 685 277 685 C268 685 177 741 176 748 L152 744 L152 744 Z M277 -5 C266 -5 166 225 166 250 C166 276 266 505 277 505 C289 505 389 276 389 250 C389 225 289 -5 277 -5 L277 -5 Z M39 250 C39 224 254 -10 277 -10 C301 -10 516 224 516 250 C516 276 301 510 277 510 C254 510 39 276 39 250 L39 250 Z " />
<glyph glyph-name="Racute" unicode="&#x154;" horiz-adv-x="685" d="M271 811 L416 929 C422 934 475 987 475 988 C475 993 423 1046 417 1046 C416 1046 368 988 363 981 L257 826 L271 811 L271 811 Z M676 0 L676 26 C668 26 599 71 594 80 C575 111 406 387 406 387 L367 379 C455 428 594 520 594 536 C594 557 364 749 339 749 L203 749 L138 749 L73 749 L73 739 L73 729 C74 729 75 705 75 701 L75 47 C75 43 74 19 73 19 L73 9 L73 -1 L139 -1 L205 -1 L205 9 L205 19 C205 19 203 43 203 47 L203 347 L295 347 C326 290 431 100 444 79 C452 66 648 -1 677 -1 L676 0 L676 0 Z M203 723 L300 723 C316 723 452 577 452 561 C452 540 316 379 300 379 L203 379 L203 701 L203 723 L203 723 Z " />
<glyph glyph-name="Rcaron" unicode="&#x158;" horiz-adv-x="685" d="M676 0 L676 26 C668 26 599 71 594 80 C575 111 406 387 406 387 L367 379 C455 428 594 520 594 536 C594 557 364 749 339 749 L203 749 L138 749 L73 749 L73 739 L73 729 C74 729 75 705 75 701 L75 47 C75 43 74 19 73 19 L73 9 L73 -1 L139 -1 L205 -1 L205 9 L205 19 C205 19 203 43 203 47 L203 347 L295 347 C326 290 431 100 444 79 C452 66 648 -1 677 -1 L676 0 L676 0 Z M264 928 L402 1044 L418 1031 L304 853 C303 851 266 812 263 812 C261 812 224 851 223 853 L109 1031 L125 1044 L264 928 L264 928 Z M203 723 L300 723 C316 723 452 577 452 561 C452 540 316 379 300 379 L203 379 L203 701 L203 723 L203 723 Z " />
<glyph glyph-name="rcaron" unicode="&#x159;" horiz-adv-x="396" d="M205 678 L344 795 L359 782 L245 604 C244 602 207 563 205 563 C203 563 166 602 164 604 L50 782 L66 795 L205 678 L205 678 Z M158 389 L158 423 L158 500 L138 500 L42 465 L42 455 L42 445 C42 445 43 396 43 388 L43 27 C43 26 42 20 42 20 L42 10 L42 0 L101 0 L160 0 L160 10 L160 20 L159 20 C159 20 158 26 158 27 L158 380 C176 405 222 457 228 457 C230 457 252 426 252 422 C252 416 313 355 320 355 C327 355 388 416 388 422 C388 431 292 511 281 511 C271 511 185 424 160 390 L158 389 L158 389 Z " />
<glyph glyph-name="Sacute" unicode="&#x15a;" horiz-adv-x="522" d="M266 811 L411 929 C417 934 470 987 470 988 C470 993 418 1046 413 1046 C411 1046 363 988 358 981 L252 826 L266 811 L266 811 Z M78 160 C82 162 85 163 85 163 C84 163 81 162 78 160 L78 160 Z M88 111 L88 111 L88 111 Z M419 664 C415 667 412 669 411 670 L410 670 C357 705 260 761 250 761 C231 761 58 575 58 554 C58 536 206 316 224 309 C241 303 379 177 379 169 C379 151 275 -3 263 -3 C256 -3 185 61 134 110 L134 110 C129 115 83 164 83 164 L46 147 C53 131 248 -9 262 -9 C284 -9 481 184 481 206 C481 223 320 436 301 443 C285 449 157 592 157 603 C157 619 240 756 249 756 C254 756 294 725 332 694 L331 694 C338 689 404 629 405 628 L442 645 C441 648 431 655 416 665 L419 664 L419 664 Z " />
<glyph glyph-name="Scircumflex" unicode="&#x15c;" horiz-adv-x="522" d="M258 921 L396 805 L412 818 L298 996 C297 998 260 1037 258 1037 C255 1037 219 998 217 996 L103 818 L119 805 L258 921 L258 921 Z M78 160 C82 162 85 163 85 163 C84 163 81 162 78 160 L78 160 Z M88 111 L88 111 L88 111 Z M419 664 C415 667 412 669 411 670 L410 670 C357 705 260 761 250 761 C231 761 58 575 58 554 C58 536 206 316 224 309 C241 303 379 177 379 169 C379 151 275 -3 263 -3 C256 -3 185 61 134 110 L134 110 C129 115 83 164 83 164 L46 147 C53 131 248 -9 262 -9 C284 -9 481 184 481 206 C481 223 320 436 301 443 C285 449 157 592 157 603 C157 619 240 756 249 756 C254 756 294 725 332 694 L331 694 C338 689 404 629 405 628 L442 645 C441 648 431 655 416 665 L419 664 L419 664 Z " />
<glyph glyph-name="Scaron" unicode="&#x160;" horiz-adv-x="522" d="M258 929 L396 1045 L412 1032 L298 854 C297 852 260 813 258 813 C255 813 219 852 217 854 L103 1032 L119 1045 L258 929 L258 929 Z M78 160 C82 162 85 163 85 163 C84 163 81 162 78 160 L78 160 Z M88 111 L88 111 L88 111 Z M419 664 C415 667 412 669 411 670 L410 670 C357 705 260 761 250 761 C231 761 58 575 58 554 C58 536 206 316 224 309 C241 303 379 177 379 169 C379 151 275 -3 263 -3 C256 -3 185 61 134 110 L134 110 C129 115 83 164 83 164 L46 147 C53 131 248 -9 262 -9 C284 -9 481 184 481 206 C481 223 320 436 301 443 C285 449 157 592 157 603 C157 619 240 756 249 756 C254 756 294 725 332 694 L331 694 C338 689 404 629 405 628 L442 645 C441 648 431 655 416 665 L419 664 L419 664 Z " />
<glyph glyph-name="scaron" unicode="&#x161;" horiz-adv-x="411" d="M202 679 L340 795 L356 782 L242 604 C241 602 204 563 201 563 C199 563 162 602 161 604 L47 782 L63 795 L202 679 L202 679 Z M77 97 C86 101 100 107 100 107 C98 106 86 101 77 97 L77 97 Z M154 43 C138 62 100 107 100 107 L69 93 C71 88 94 68 120 47 L120 47 L121 47 C156 20 196 -9 201 -9 C217 -9 362 124 362 139 C362 151 242 291 227 295 C218 297 146 403 146 413 C146 422 205 507 212 507 C213 507 220 501 230 492 L229 492 C236 485 306 414 307 413 L337 428 C334 436 219 511 211 511 C196 511 64 387 64 373 C64 359 163 210 175 207 C186 204 272 114 272 106 C272 95 208 -5 200 -5 C198 -5 176 18 153 44 L154 43 L154 43 Z " />
<glyph glyph-name="Tcaron" unicode="&#x164;" horiz-adv-x="743" d="M372 929 L510 1045 L526 1032 L412 854 C411 852 374 813 372 813 C369 813 332 852 331 854 L217 1032 L233 1045 L372 929 L372 929 Z M688 718 L688 750 L676 750 C676 751 676 751 676 751 L666 751 L656 751 C656 751 619 750 613 750 L436 750 L307 750 L130 750 C124 750 87 751 87 751 L77 751 L67 751 C67 751 67 751 67 750 L55 750 L55 718 C55 717 55 716 55 716 L65 716 L75 716 C76 717 113 718 120 718 L308 718 L308 46 C308 42 307 20 307 20 L307 10 L307 0 L373 0 L438 0 L438 10 L438 20 C438 20 437 42 437 46 L437 718 L626 718 C632 718 670 717 670 716 L680 716 L690 716 C690 716 690 717 690 718 L688 718 L688 718 Z " />
<glyph glyph-name="tcaron" unicode="&#x165;" horiz-adv-x="391" d="M342 500 L206 500 L206 620 L198 620 L26 449 L26 439 L91 439 L91 186 C91 163 222 -10 236 -10 C249 -10 380 109 382 122 L367 125 C366 117 280 44 272 44 C265 44 203 147 203 161 L206 439 L342 439 L342 500 L342 500 Z M462 636 C465 642 488 736 488 740 C488 742 442 757 437 757 C433 757 403 656 402 649 L397 536 L417 533 L462 636 L462 636 Z " />
<glyph glyph-name="Utilde" unicode="&#x168;" horiz-adv-x="673" d="M214 870 C214 876 245 925 249 925 C257 925 380 860 388 860 C395 860 459 987 459 1001 L456 1001 C456 995 419 941 415 941 C406 941 284 1006 275 1006 C269 1006 211 884 211 870 L214 870 L214 870 Z M622 702 L622 750 L557 750 L492 750 L492 740 L492 730 C492 730 494 706 494 702 L494 193 C488 181 309 73 295 73 C283 73 176 200 176 214 L176 702 L176 750 L111 750 L46 750 L46 740 L46 730 C46 730 48 706 48 702 L48 214 C48 191 223 -10 243 -10 C261 -10 487 121 494 135 L494 110 L494 0 L514 0 L624 80 L624 90 C624 90 622 107 622 110 L622 702 L622 702 Z " />
<glyph glyph-name="utilde" unicode="&#x169;" horiz-adv-x="435" d="M91 620 C91 626 122 675 125 675 C134 675 256 610 265 610 C272 610 336 737 336 751 L333 751 C333 745 295 691 291 691 C283 691 160 756 152 756 C145 756 88 634 88 620 L91 620 L91 620 Z M280 90 L280 -10 L300 -10 L396 14 L396 24 L396 34 C396 34 395 102 395 114 L395 473 L395 500 L337 500 L279 500 L279 490 L279 480 C279 480 280 474 280 473 L280 137 C261 118 206 70 203 70 C197 70 144 147 144 155 L144 473 L144 500 L86 500 L28 500 L28 490 L28 480 C28 480 29 474 29 473 L29 155 C29 139 137 -10 149 -10 C154 -10 253 97 279 130 L280 90 L280 90 Z " />
<glyph glyph-name="Umacron" unicode="&#x16a;" horiz-adv-x="673" d="M209 890 L461 890 L461 970 L209 970 L209 890 L209 890 Z M622 702 L622 750 L557 750 L492 750 L492 740 L492 730 C492 730 494 706 494 702 L494 193 C488 181 309 73 295 73 C283 73 176 200 176 214 L176 702 L176 750 L111 750 L46 750 L46 740 L46 730 C46 730 48 706 48 702 L48 214 C48 191 223 -10 243 -10 C261 -10 487 121 494 135 L494 110 L494 0 L514 0 L624 80 L624 90 C624 90 622 107 622 110 L622 702 L622 702 Z " />
<glyph glyph-name="umacron" unicode="&#x16b;" horiz-adv-x="435" d="M85 640 L338 640 L338 720 L85 720 L85 640 L85 640 Z M280 90 L280 -10 L300 -10 L396 14 L396 24 L396 34 C396 34 395 102 395 114 L395 473 L395 500 L337 500 L279 500 L279 490 L279 480 C279 480 280 474 280 473 L280 137 C261 118 206 70 203 70 C197 70 144 147 144 155 L144 473 L144 500 L86 500 L28 500 L28 490 L28 480 C28 480 29 474 29 473 L29 155 C29 139 137 -10 149 -10 C154 -10 253 97 279 130 L280 90 L280 90 Z " />
<glyph glyph-name="Ubreve" unicode="&#x16c;" horiz-adv-x="673" d="M209 994 C211 980 324 854 335 854 C346 854 459 978 461 992 L436 995 C436 989 344 935 335 935 C326 935 234 991 234 998 L209 994 L209 994 Z M622 702 L622 750 L557 750 L492 750 L492 740 L492 730 C492 730 494 706 494 702 L494 193 C488 181 309 73 295 73 C283 73 176 200 176 214 L176 702 L176 750 L111 750 L46 750 L46 740 L46 730 C46 730 48 706 48 702 L48 214 C48 191 223 -10 243 -10 C261 -10 487 121 494 135 L494 110 L494 0 L514 0 L624 80 L624 90 C624 90 622 107 622 110 L622 702 L622 702 Z " />
<glyph glyph-name="ubreve" unicode="&#x16d;" horiz-adv-x="435" d="M86 744 C88 730 201 604 212 604 C223 604 336 728 337 742 L313 745 C312 739 221 685 212 685 C202 685 111 741 110 748 L86 744 L86 744 Z M280 90 L280 -10 L300 -10 L396 14 L396 24 L396 34 C396 34 395 102 395 114 L395 473 L395 500 L337 500 L279 500 L279 490 L279 480 C279 480 280 474 280 473 L280 137 C261 118 206 70 203 70 C197 70 144 147 144 155 L144 473 L144 500 L86 500 L28 500 L28 490 L28 480 C28 480 29 474 29 473 L29 155 C29 139 137 -10 149 -10 C154 -10 253 97 279 130 L280 90 L280 90 Z " />
<glyph glyph-name="Uring" unicode="&#x16e;" horiz-adv-x="673" d="M335 837 C329 837 270 899 270 905 C270 912 328 973 335 973 C341 973 400 912 400 905 C400 899 341 837 335 837 L335 837 Z M237 905 C237 896 326 810 335 810 C344 810 433 896 433 905 C433 915 345 1000 335 1000 C325 1000 237 915 237 905 L237 905 Z M622 702 L622 750 L557 750 L492 750 L492 740 L492 730 C492 730 494 706 494 702 L494 193 C488 181 309 73 295 73 C283 73 176 200 176 214 L176 702 L176 750 L111 750 L46 750 L46 740 L46 730 C46 730 48 706 48 702 L48 214 C48 191 223 -10 243 -10 C261 -10 487 121 494 135 L494 110 L494 0 L514 0 L624 80 L624 90 C624 90 622 107 622 110 L622 702 L622 702 Z " />
<glyph glyph-name="uring" unicode="&#x16f;" horiz-adv-x="435" d="M212 587 C206 587 147 649 147 655 C147 662 205 723 212 723 C218 723 276 662 276 655 C276 649 217 587 212 587 L212 587 Z M113 655 C113 646 203 560 212 560 C220 560 310 646 310 655 C310 665 221 750 212 750 C202 750 113 665 113 655 L113 655 Z M280 90 L280 -10 L300 -10 L396 14 L396 24 L396 34 C396 34 395 102 395 114 L395 473 L395 500 L337 500 L279 500 L279 490 L279 480 C279 480 280 474 280 473 L280 137 C261 118 206 70 203 70 C197 70 144 147 144 155 L144 473 L144 500 L86 500 L28 500 L28 490 L28 480 C28 480 29 474 29 473 L29 155 C29 139 137 -10 149 -10 C154 -10 253 97 279 130 L280 90 L280 90 Z " />
<glyph glyph-name="Wcircumflex" unicode="&#x174;" horiz-adv-x="950" d="M456 921 L594 805 L610 818 L496 996 C495 998 457 1037 455 1037 C453 1037 416 998 415 996 L301 818 L317 805 L456 921 L456 921 Z M363 722 L456 500 L356 159 L356 162 L149 732 C148 735 147 740 147 741 C147 742 144 751 144 751 L142 751 L72 751 L1 751 C1 751 4 742 4 741 C5 740 8 731 8 731 C8 731 20 703 26 688 L236 163 L306 -9 L339 -9 L482 440 L587 188 L669 -9 L703 -9 L897 704 C901 718 905 732 905 732 L906 732 C906 732 908 741 908 742 C908 743 910 752 910 752 L882 752 L857 752 L855 752 C855 752 854 743 853 742 C853 741 852 732 852 732 C852 732 841 687 839 680 L839 680 L718 189 L523 693 L523 693 C521 698 508 732 508 732 C508 732 505 741 505 742 C505 743 502 752 502 752 L500 752 L427 752 L351 752 C351 752 354 743 355 742 C355 741 358 732 358 732 L359 732 C359 732 361 728 363 724 L363 722 L363 722 Z " />
<glyph glyph-name="Ycircumflex" unicode="&#x176;" horiz-adv-x="590" d="M305 921 L443 805 L459 818 L345 996 C344 998 307 1037 304 1037 C302 1037 265 998 264 996 L150 818 L166 805 L305 921 L305 921 Z M159 724 C157 728 156 730 156 730 C156 730 152 739 151 740 C151 741 146 750 146 750 L145 750 L70 750 L-7 750 C-7 750 -2 741 -2 740 C-1 739 3 730 3 730 L4 730 C4 730 24 696 32 683 L241 317 L241 47 C241 43 240 21 240 21 L239 21 L239 11 L239 1 L305 1 L371 1 L371 11 L371 21 C371 21 370 43 370 47 L370 338 L540 698 C547 713 556 731 556 731 L557 731 C557 731 561 740 561 741 C561 742 565 751 565 751 L560 751 L556 751 L554 751 C554 751 550 742 550 741 C550 740 546 731 546 731 C546 731 527 690 524 683 L524 683 L367 345 L159 724 L159 724 Z " />
<glyph glyph-name="Ydieresis" unicode="&#x178;" horiz-adv-x="590" d="M381 865 C389 865 456 932 456 939 C456 947 389 1014 381 1014 C374 1014 307 947 307 939 C307 932 374 865 381 865 L381 865 Z M227 865 C235 865 302 932 302 939 C302 947 235 1014 227 1014 C220 1014 153 947 153 939 C153 932 220 865 227 865 L227 865 Z M159 724 C157 728 156 730 156 730 C156 730 152 739 151 740 C151 741 146 750 146 750 L145 750 L70 750 L-7 750 C-7 750 -2 741 -2 740 C-1 739 3 730 3 730 L4 730 C4 730 24 696 32 683 L241 317 L241 47 C241 43 240 21 240 21 L239 21 L239 11 L239 1 L305 1 L371 1 L371 11 L371 21 C371 21 370 43 370 47 L370 338 L540 698 C547 713 556 731 556 731 L557 731 C557 731 561 740 561 741 C561 742 565 751 565 751 L560 751 L556 751 L554 751 C554 751 550 742 550 741 C550 740 546 731 546 731 C546 731 527 690 524 683 L524 683 L367 345 L159 724 L159 724 Z " />
<glyph glyph-name="Zacute" unicode="&#x179;" horiz-adv-x="588" d="M333 811 L477 929 C483 934 536 987 536 988 C536 993 484 1046 479 1046 C478 1046 429 988 425 981 L318 826 L333 811 L333 811 Z M164 0 L493 0 L574 0 C574 1 579 19 579 20 C580 22 584 40 584 41 L574 41 L564 41 L562 41 L182 31 L578 723 L578 750 L453 750 L155 750 L70 750 C70 749 67 732 67 731 C67 730 65 712 65 711 L78 711 L91 711 L93 712 C94 712 110 713 125 714 L436 721 L26 28 L26 1 L164 0 L164 0 Z " />
<glyph glyph-name="Zdot" unicode="&#x17b;" horiz-adv-x="588" d="M324 865 C331 865 398 932 398 939 C398 947 331 1014 324 1014 C317 1014 250 947 250 939 C250 932 317 865 324 865 L324 865 Z M164 0 L493 0 L574 0 C574 1 579 19 579 20 C580 22 584 40 584 41 L574 41 L564 41 L562 41 L182 31 L578 723 L578 750 L453 750 L155 750 L70 750 C70 749 67 732 67 731 C67 730 65 712 65 711 L78 711 L91 711 L93 712 C94 712 110 713 125 714 L436 721 L26 28 L26 1 L164 0 L164 0 Z " />
<glyph glyph-name="zdot" unicode="&#x17c;" horiz-adv-x="443" d="M245 615 C252 615 319 682 319 689 C319 697 252 764 245 764 C237 764 170 697 170 689 C170 682 237 615 245 615 L245 615 Z M161 0 L286 0 L398 0 C398 1 401 19 401 20 C401 20 403 38 404 39 L399 39 L398 39 L398 41 L178 32 L403 473 L403 500 L286 500 L115 500 L110 500 L110 501 L100 501 L90 501 C90 501 90 501 90 500 L87 500 L87 489 C86 485 85 481 85 481 C85 480 80 462 80 461 L86 461 L87 461 L87 459 L269 467 L40 27 L40 0 L161 0 L161 0 Z " />
<glyph glyph-name="Zcaron" unicode="&#x17d;" horiz-adv-x="588" d="M324 928 L463 1045 L478 1032 L365 854 C363 852 326 813 324 813 C322 813 285 852 284 854 L170 1032 L185 1045 L324 928 L324 928 Z M164 0 L493 0 L574 0 C574 1 579 19 579 20 C580 22 584 40 584 41 L574 41 L564 41 L562 41 L182 31 L578 723 L578 750 L453 750 L155 750 L70 750 C70 749 67 732 67 731 C67 730 65 712 65 711 L78 711 L91 711 L93 712 C94 712 110 713 125 714 L436 721 L26 28 L26 1 L164 0 L164 0 Z " />
<glyph glyph-name="zcaron" unicode="&#x17e;" horiz-adv-x="443" d="M245 678 L384 795 L399 782 L286 604 C284 602 247 563 245 563 C243 563 206 602 204 604 L91 782 L106 795 L245 678 L245 678 Z M161 0 L286 0 L398 0 C398 1 401 19 401 20 C401 20 403 38 404 39 L399 39 L398 39 L398 41 L178 32 L403 473 L403 500 L286 500 L115 500 L110 500 L110 501 L100 501 L90 501 C90 501 90 501 90 500 L87 500 L87 489 C86 485 85 481 85 481 C85 480 80 462 80 461 L86 461 L87 461 L87 459 L269 467 L40 27 L40 0 L161 0 L161 0 Z " />
<glyph glyph-name="oogonek" unicode="&#x1eb;" horiz-adv-x="767" d="M965 -53 L964 -52 C959 -56 734 -93 714 -93 C694 -93 517 -30 408 13 C504 79 719 268 719 293 C719 323 411 594 377 594 C344 594 45 323 45 293 C45 277 132 192 216 116 L216 116 C217 115 218 114 219 113 C292 47 362 -11 369 -11 C374 -11 384 -6 398 3 C532 -76 693 -167 704 -167 C717 -167 954 -65 968 -54 L965 -53 L965 -53 Z M332 42 C350 31 369 20 389 8 C380 -1 374 -6 371 -6 C368 -6 353 13 333 41 L332 42 L332 42 Z M327 49 C270 129 179 269 179 290 C179 319 358 587 378 587 C399 587 588 319 588 290 C588 265 457 81 397 15 C359 30 332 42 327 47 L327 49 L327 49 Z " />
<glyph glyph-name="Adotabove" unicode="&#x226;" horiz-adv-x="583" d="M270 865 C278 865 345 932 345 939 C345 947 278 1014 270 1014 C263 1014 196 947 196 939 C196 932 263 865 270 865 L270 865 Z M530 72 L530 72 L335 709 L316 770 L303 770 C297 765 211 710 206 709 L209 699 L38 31 C36 24 35 20 35 20 L33 20 C33 20 32 11 32 10 C32 9 30 0 30 0 L35 0 L36 0 L39 0 C39 0 40 9 40 10 C40 11 41 18 41 20 L52 63 C55 73 57 82 58 85 L58 85 L110 291 L331 291 L412 20 L412 20 C412 20 414 11 414 10 C415 9 416 0 416 0 L418 0 L485 0 L553 0 C553 0 551 9 551 10 C551 11 549 20 549 20 L548 20 C548 20 533 65 531 72 L530 72 L530 72 Z M112 296 L212 692 L330 296 L112 296 L112 296 Z " />
<glyph glyph-name="G_sc" unicode="&#x262;" horiz-adv-x="668" d="M475 207 L478 31 L478 31 L476 141 C476 128 400 18 392 18 C370 18 172 264 172 292 C172 321 357 589 377 589 C386 589 450 552 504 519 L502 519 C509 515 578 469 579 469 L607 492 C605 495 588 504 565 515 C561 517 558 519 557 519 L556 519 C492 549 391 593 376 593 C342 593 45 322 45 292 C45 262 348 -10 382 -10 C398 -10 644 55 660 62 L659 65 C656 63 628 57 591 50 L591 206 C591 209 592 232 592 232 L593 232 L593 242 L593 252 L533 252 L474 252 L474 242 L474 232 C474 232 476 209 476 206 L475 207 L475 207 Z " />
<glyph glyph-name="I_sc" unicode="&#x26a;" horiz-adv-x="264" d="M184 46 L184 537 C184 541 185 563 185 563 L185 573 L185 583 L126 583 L67 583 L67 573 L67 563 C67 563 68 541 68 537 L68 46 C68 42 67 20 67 20 L67 10 L67 0 L126 0 L185 0 L185 10 L185 20 C185 20 184 42 184 46 L184 46 Z " />
<glyph glyph-name="N_sc" unicode="&#x274;" horiz-adv-x="561" d="M130 583 L103 583 L74 583 L58 583 L-14 583 C-14 583 -9 576 -7 574 L-6 573 C-6 572 1 564 1 564 L2 564 L74 474 L73 51 C73 36 73 21 73 21 L71 21 L71 11 L71 1 L73 1 L91 1 L108 1 L110 1 L110 11 L110 21 L108 21 C108 21 108 25 108 30 L105 435 L348 129 L449 1 L473 1 L480 529 C481 542 482 565 482 565 L482 575 L482 585 L481 585 L464 585 L446 585 L445 585 L445 575 L445 565 C445 565 446 553 447 541 L449 144 L421 184 L130 583 L130 583 Z " />
<glyph glyph-name="R_sc" unicode="&#x280;" horiz-adv-x="628" d="M619 0 L619 23 C612 23 554 56 550 62 C533 86 386 302 386 302 L373 299 C459 339 580 404 580 416 C580 432 350 582 325 582 L193 582 L134 582 L75 582 L75 572 L75 562 L76 562 C76 562 77 538 77 534 L77 47 C77 43 76 19 76 19 L75 19 L75 9 L75 -1 L135 -1 L194 -1 L194 9 L194 19 C194 19 193 43 193 47 L193 266 L286 266 C313 220 403 77 414 61 C421 51 593 -1 619 -1 L619 0 L619 0 Z M193 559 L290 559 C306 559 452 450 452 438 C452 422 306 295 290 295 L193 295 L193 534 L193 559 L193 559 Z " />
<glyph glyph-name="Y_sc" unicode="&#x28f;" horiz-adv-x="515" d="M176 511 L177 511 C172 518 145 563 145 563 C145 563 141 572 140 573 C140 574 135 583 135 583 L133 583 L66 583 L-3 583 C-3 583 2 574 3 573 C3 572 8 563 8 563 L9 563 C9 563 27 534 37 519 L208 243 L208 46 C208 42 207 20 207 20 L207 10 L207 0 L266 0 L326 0 L326 10 L326 20 L325 20 C325 20 324 42 324 46 L324 262 L452 511 L452 511 C456 518 479 563 479 563 L480 563 C480 563 484 572 485 573 C485 574 489 583 489 583 L484 583 L480 583 L479 583 C479 583 475 574 475 573 C474 572 470 563 470 563 C470 563 469 562 468 560 L447 518 C446 517 446 516 446 515 L446 515 L322 267 L176 511 L176 511 Z " />
<glyph glyph-name="B_sc" unicode="&#x299;" horiz-adv-x="523" d="M193 580 L236 580 C249 580 336 447 336 432 C336 419 296 301 292 301 L193 301 L193 535 L193 580 L193 580 Z M301 301 C333 321 451 432 451 445 C451 459 271 584 243 584 L193 584 L134 584 L75 584 L75 574 L75 564 L76 564 C76 564 77 540 77 536 L77 49 C77 45 76 21 76 21 L75 21 L75 11 L75 1 L134 1 L193 1 L313 1 C330 1 483 131 483 151 C483 167 352 302 338 302 L301 301 L301 301 Z M294 299 L327 299 C329 299 356 166 356 151 C356 132 313 4 308 4 L258 4 C252 4 193 56 193 62 L193 299 L294 299 L294 299 Z " />
<glyph glyph-name="H_sc" unicode="&#x29c;" horiz-adv-x="620" d="M539 46 L539 537 C539 541 540 563 541 563 L541 573 L541 583 L481 583 L422 583 L422 573 L422 563 C422 563 423 541 423 537 L423 300 L198 300 L198 537 C198 541 199 563 200 563 L200 573 L200 583 L140 583 L81 583 L81 573 L81 563 C81 563 83 541 83 537 L83 46 C83 42 81 20 81 20 L81 10 L81 0 L140 0 L200 0 L200 10 L200 20 C199 20 198 42 198 46 L198 296 L423 296 L423 46 C423 42 422 20 422 20 L422 10 L422 0 L481 0 L541 0 L541 10 L541 20 C540 20 539 42 539 46 L539 46 Z " />
<glyph glyph-name="L_sc" unicode="&#x29f;" horiz-adv-x="529" d="M519 3 L519 4 L520 5 L510 5 L500 5 L499 5 C499 5 437 3 427 3 L244 3 C235 3 184 55 184 61 L184 535 C184 539 185 563 185 563 L185 573 L185 583 L184 583 L126 583 L68 583 L67 583 L67 573 L67 563 C67 563 68 539 68 535 L68 48 C68 44 67 20 67 20 L67 10 L67 0 L68 0 L125 0 L184 0 L519 0 L519 3 L519 3 Z " />
<glyph glyph-name="A_sc" unicode="&#x1d00;" horiz-adv-x="514" d="M459 72 L459 72 L295 555 L279 603 L267 603 C263 599 184 556 180 555 L183 545 L183 545 L36 20 L34 20 C34 20 32 11 32 10 C32 9 30 0 30 0 L34 0 L36 0 L38 0 C38 0 40 9 40 10 C40 11 40 15 40 18 L98 227 L288 227 L339 73 L339 73 C341 66 356 21 356 21 C356 21 358 12 359 11 C359 10 361 1 361 1 L363 1 L423 1 L484 1 C484 1 482 10 482 11 C481 12 479 21 479 21 L478 21 C478 21 462 66 460 73 L459 72 L459 72 Z M100 231 L185 541 L287 231 L100 231 L100 231 Z " />
<glyph glyph-name="C_sc" unicode="&#x1d04;" horiz-adv-x="649" d="M565 515 C561 517 558 519 557 519 L556 519 C492 549 391 593 376 593 C342 593 45 322 45 292 C45 262 335 -10 367 -10 C387 -10 598 81 607 91 C604 94 579 115 579 115 C578 114 547 94 529 83 C470 47 378 -5 368 -5 C348 -5 171 263 171 293 C171 322 356 590 376 590 C385 590 449 553 503 520 L501 520 C508 516 577 470 578 470 L606 493 C604 496 587 505 564 516 L565 515 L565 515 Z " />
<glyph glyph-name="D_sc" unicode="&#x1d05;" horiz-adv-x="707" d="M83 535 L83 48 C83 44 81 20 81 20 L81 10 L81 0 L83 0 L140 0 L198 0 L245 0 C286 0 652 260 652 292 C652 321 311 583 269 583 L198 583 L140 583 L83 583 L81 583 L81 573 L81 563 C81 563 83 539 83 535 L83 535 Z M198 580 L255 580 C285 580 525 321 525 292 C525 260 269 3 240 3 C234 3 198 55 198 61 L198 535 L198 580 L198 580 Z " />
<glyph glyph-name="E_sc" unicode="&#x1d07;" horiz-adv-x="568" d="M506 583 L442 583 L193 583 L134 583 L77 583 L75 583 L75 573 L75 563 L76 563 C76 563 77 539 77 535 L77 48 C77 44 76 20 76 20 L75 20 L75 10 L75 0 L77 0 L134 0 L193 0 L464 0 L506 583 L506 583 Z M464 0 L528 0 L464 0 L464 0 Z M528 3 C528 3 529 5 529 6 L519 6 L509 6 L509 5 C509 5 471 4 465 4 L253 4 C244 4 193 55 193 61 L193 296 L376 296 C382 296 420 294 420 294 L430 294 L440 294 L440 296 L440 298 L440 300 L440 302 L430 302 L420 302 C420 302 382 300 376 300 L193 300 L193 535 L193 580 L442 580 C450 580 486 578 486 578 L496 578 L506 578 L506 580 L528 3 L528 3 Z " />
<glyph glyph-name="J_sc" unicode="&#x1d0a;" horiz-adv-x="264" d="M-19 -201 C1 -176 34 -129 68 -78 L68 -86 C68 -100 9 -171 -19 -200 L-19 -201 L-19 -201 Z M-19 -200 C-27 -208 -32 -213 -33 -213 C-43 -213 -115 -115 -124 -115 C-130 -115 -179 -165 -179 -170 C-179 -175 -51 -219 -37 -219 C-35 -219 -28 -212 -18 -200 L-19 -200 L-19 -200 Z M69 -78 C126 8 185 106 185 132 L185 538 C185 542 186 564 186 564 L186 574 L186 584 L127 584 L68 584 L68 574 L68 564 C68 564 69 542 69 538 L69 -78 L69 -78 Z " />
<glyph glyph-name="K_sc" unicode="&#x1d0b;" horiz-adv-x="558" d="M381 29 L402 0 L470 0 L538 0 C538 0 532 9 531 10 C531 11 525 20 525 20 L524 20 C524 20 520 26 515 32 L275 368 L419 558 C421 560 422 562 422 562 L423 562 C423 562 429 571 430 572 C431 573 437 582 437 582 L415 582 L395 582 L393 582 C393 582 388 573 387 572 C387 571 381 562 381 562 C381 562 371 547 361 533 L346 511 C346 510 346 509 346 509 L346 509 L194 290 L194 555 C194 556 195 561 195 561 L195 571 L195 581 L194 581 L136 581 L78 581 L76 581 L76 571 L76 561 L77 561 C77 561 78 556 78 555 L78 24 C78 23 77 18 77 18 L76 18 L76 8 L76 -2 L78 -2 L136 -2 L194 -2 L195 -2 L195 8 L195 18 C195 18 194 23 194 24 L194 290 L369 46 L368 46 C370 43 376 35 382 27 L381 29 L381 29 Z " />
<glyph glyph-name="M_sc" unicode="&#x1d0d;" horiz-adv-x="683" d="M108 72 L107 72 L115 469 L250 160 L320 0 L349 0 L519 478 L533 48 L533 48 C533 44 532 20 532 20 L532 10 L532 0 L535 0 L591 0 L650 0 L651 0 L649 46 C649 47 649 48 649 49 L649 49 L630 499 L630 499 C630 508 627 564 627 564 L628 564 L628 574 L628 584 L626 584 L572 584 L557 584 L516 584 L374 161 L204 584 L134 584 L117 584 L88 584 L65 584 C65 584 68 575 68 574 C69 573 72 564 72 564 L73 564 C73 564 84 540 86 536 L86 536 L68 78 L68 78 C68 78 68 77 68 76 L68 68 C67 51 65 21 65 21 L64 21 L64 11 L64 1 L65 1 L86 1 L105 1 L107 1 L107 11 L107 21 L106 21 C106 21 107 66 107 73 L108 72 L108 72 Z " />
<glyph glyph-name="O_sc" unicode="&#x1d0f;" horiz-adv-x="777" d="M371 -5 C352 -5 181 262 181 292 C181 321 360 589 380 589 C401 589 590 321 590 292 C590 262 393 -5 371 -5 L371 -5 Z M49 292 C49 262 338 -10 371 -10 C406 -10 722 262 722 292 C722 322 415 593 381 593 C347 593 49 322 49 292 L49 292 Z " />
<glyph glyph-name="P_sc" unicode="&#x1d18;" horiz-adv-x="623" d="M164 0 L222 0 L223 0 L223 10 L223 20 C223 20 222 44 222 48 L222 259 L319 259 C348 259 604 399 604 418 C604 434 374 583 349 583 L222 583 L163 583 L106 583 L104 583 L104 573 L104 563 L105 563 C105 563 106 539 106 535 L106 48 C106 44 105 20 105 20 L104 20 L104 10 L104 0 L106 0 L164 0 L164 0 Z M222 284 L222 535 L222 564 L319 564 C337 564 495 449 495 437 C495 419 337 284 319 284 L222 284 L222 284 Z " />
<glyph glyph-name="T_sc" unicode="&#x1d1b;" horiz-adv-x="692" d="M627 583 C627 584 627 584 627 584 L617 584 L607 584 C607 584 570 583 564 583 L404 583 L289 583 L129 583 C123 583 86 584 86 584 L76 584 L66 584 C66 584 66 584 66 583 L55 583 L55 555 C55 554 55 553 55 553 L65 553 L75 553 C76 553 113 554 120 554 L290 554 L290 46 C290 42 288 20 288 20 L288 10 L288 0 L347 0 L407 0 L407 10 L407 20 C406 20 405 42 405 46 L405 554 L575 554 C581 554 619 553 619 553 L629 553 L639 553 C639 553 639 553 639 554 L639 554 L639 583 L627 583 L627 583 Z " />
<glyph glyph-name="U_sc" unicode="&#x1d1c;" horiz-adv-x="612" d="M562 535 L562 583 L503 583 L445 583 L445 573 L445 563 C445 563 446 539 446 535 L446 173 C441 163 266 65 251 65 C243 65 163 185 163 198 L163 535 L163 583 L105 583 L46 583 L46 573 L46 563 C46 563 48 539 48 535 L48 198 C48 177 189 -10 205 -10 C223 -10 440 108 446 121 L446 110 L446 0 L465 0 L564 80 L564 90 C563 90 562 107 562 110 L562 535 L562 535 Z " />
<glyph glyph-name="V_sc" unicode="&#x1d20;" horiz-adv-x="593" d="M20 546 L190 182 L279 -10 L303 -10 L543 559 C544 561 545 562 545 562 L546 562 C546 562 549 571 549 572 C550 573 553 582 553 582 L528 582 L506 582 L504 582 C504 582 502 573 501 572 C501 571 500 568 499 565 L352 181 L174 509 L174 509 C171 516 146 561 146 561 C146 561 142 570 141 571 C141 572 137 581 137 581 L135 581 L70 581 L2 581 C2 581 6 572 6 571 C6 570 10 561 10 561 L11 561 C11 561 18 546 19 544 L20 546 L20 546 Z " />
<glyph glyph-name="W_sc" unicode="&#x1d21;" horiz-adv-x="835" d="M316 559 L395 388 L319 146 L161 511 L162 511 C158 518 139 563 139 563 C139 563 136 572 136 573 C136 574 133 583 133 583 L130 583 L68 583 L3 583 C3 583 7 574 7 573 C8 572 11 563 11 563 L12 563 C12 563 20 545 27 530 L200 146 L270 -10 L300 -10 L418 338 L497 168 L580 -10 L611 -10 L771 511 L771 511 C773 518 788 563 788 563 L789 563 C789 563 791 572 791 573 C791 574 793 583 793 583 L768 583 L746 583 L743 583 C743 583 742 574 742 573 C742 572 740 563 740 563 C740 563 735 545 731 530 L630 168 L463 530 C461 535 458 542 455 548 L447 566 C446 569 445 574 445 575 C444 576 441 585 441 585 L439 585 L373 585 L305 585 C305 585 309 576 309 575 C310 574 313 565 313 565 L314 565 C314 565 315 563 316 560 L316 559 L316 559 Z " />
<glyph glyph-name="Z_sc" unicode="&#x1d22;" horiz-adv-x="538" d="M151 0 L443 0 L524 0 C524 1 528 17 528 18 C529 19 533 36 533 37 L524 37 L523 37 L513 37 L511 37 L170 28 L528 559 L528 583 L415 583 L155 583 L70 583 C70 583 68 567 68 566 C67 565 65 549 65 548 L78 548 L91 548 L93 549 C94 549 111 550 126 551 L397 557 L26 25 L26 1 L151 0 L151 0 Z " />
<glyph glyph-name="Wgrave" unicode="&#x1e80;" horiz-adv-x="950" d="M365 981 C360 988 312 1046 310 1046 C305 1046 253 993 253 988 C253 987 306 934 312 929 L457 811 L471 826 L365 981 L365 981 Z M363 722 L456 500 L356 159 L356 162 L149 732 C148 735 147 740 147 741 C147 742 144 751 144 751 L142 751 L72 751 L1 751 C1 751 4 742 4 741 C5 740 8 731 8 731 C8 731 20 703 26 688 L236 163 L306 -9 L339 -9 L482 440 L587 188 L669 -9 L703 -9 L897 704 C901 718 905 732 905 732 L906 732 C906 732 908 741 908 742 C908 743 910 752 910 752 L882 752 L857 752 L855 752 C855 752 854 743 853 742 C853 741 852 732 852 732 C852 732 841 687 839 680 L839 680 L718 189 L523 693 L523 693 C521 698 508 732 508 732 C508 732 505 741 505 742 C505 743 502 752 502 752 L500 752 L427 752 L351 752 C351 752 354 743 355 742 C355 741 358 732 358 732 L359 732 C359 732 361 728 363 724 L363 722 L363 722 Z " />
<glyph glyph-name="Wacute" unicode="&#x1e82;" horiz-adv-x="950" d="M464 811 L608 929 C614 934 668 987 668 988 C668 993 615 1046 610 1046 C609 1046 560 988 556 981 L450 826 L464 811 L464 811 Z M363 722 L456 500 L356 159 L356 162 L149 732 C148 735 147 740 147 741 C147 742 144 751 144 751 L142 751 L72 751 L1 751 C1 751 4 742 4 741 C5 740 8 731 8 731 C8 731 20 703 26 688 L236 163 L306 -9 L339 -9 L482 440 L587 188 L669 -9 L703 -9 L897 704 C901 718 905 732 905 732 L906 732 C906 732 908 741 908 742 C908 743 910 752 910 752 L882 752 L857 752 L855 752 C855 752 854 743 853 742 C853 741 852 732 852 732 C852 732 841 687 839 680 L839 680 L718 189 L523 693 L523 693 C521 698 508 732 508 732 C508 732 505 741 505 742 C505 743 502 752 502 752 L500 752 L427 752 L351 752 C351 752 354 743 355 742 C355 741 358 732 358 732 L359 732 C359 732 361 728 363 724 L363 722 L363 722 Z " />
<glyph glyph-name="Wdieresis" unicode="&#x1e84;" horiz-adv-x="950" d="M532 865 C540 865 607 932 607 939 C607 947 540 1014 532 1014 C525 1014 458 947 458 939 C458 932 525 865 532 865 L532 865 Z M378 865 C386 865 453 932 453 939 C453 947 386 1014 378 1014 C371 1014 304 947 304 939 C304 932 371 865 378 865 L378 865 Z M363 722 L456 500 L356 159 L356 162 L149 732 C148 735 147 740 147 741 C147 742 144 751 144 751 L142 751 L72 751 L1 751 C1 751 4 742 4 741 C5 740 8 731 8 731 C8 731 20 703 26 688 L236 163 L306 -9 L339 -9 L482 440 L587 188 L669 -9 L703 -9 L897 704 C901 718 905 732 905 732 L906 732 C906 732 908 741 908 742 C908 743 910 752 910 752 L882 752 L857 752 L855 752 C855 752 854 743 853 742 C853 741 852 732 852 732 C852 732 841 687 839 680 L839 680 L718 189 L523 693 L523 693 C521 698 508 732 508 732 C508 732 505 741 505 742 C505 743 502 752 502 752 L500 752 L427 752 L351 752 C351 752 354 743 355 742 C355 741 358 732 358 732 L359 732 C359 732 361 728 363 724 L363 722 L363 722 Z " />
<glyph glyph-name="Etilde" unicode="&#x1ebc;" horiz-adv-x="577" d="M174 870 C174 876 205 925 208 925 C217 925 339 860 348 860 C355 860 419 987 419 1001 L416 1001 C416 995 378 941 374 941 C366 941 243 1006 235 1006 C228 1006 171 884 171 870 L174 870 L174 870 Z M474 0 L537 0 L538 3 L538 6 L528 6 L518 6 C518 6 480 4 474 4 L263 4 C254 4 202 55 202 61 L202 380 L386 380 C392 380 429 379 429 378 L439 378 L449 378 L449 380 L449 383 L449 385 L449 387 L439 387 L429 387 C429 387 392 385 386 385 L202 385 L202 702 L202 746 L452 746 C459 746 496 744 496 744 L506 744 L516 744 L516 747 L515 750 L452 750 L202 750 L137 750 L74 750 L72 750 L72 740 L72 730 C73 730 74 706 74 702 L74 48 C74 44 73 20 72 20 L72 10 L72 0 L74 0 L137 0 L202 0 L474 0 L474 0 Z " />
<glyph glyph-name="Ygrave" unicode="&#x1ef2;" horiz-adv-x="590" d="M214 981 C210 988 161 1046 159 1046 C154 1046 102 993 102 988 C102 987 155 934 161 929 L306 811 L320 826 L214 981 L214 981 Z M159 724 C157 728 156 730 156 730 C156 730 152 739 151 740 C151 741 146 750 146 750 L145 750 L70 750 L-7 750 C-7 750 -2 741 -2 740 C-1 739 3 730 3 730 L4 730 C4 730 24 696 32 683 L241 317 L241 47 C241 43 240 21 240 21 L239 21 L239 11 L239 1 L305 1 L371 1 L371 11 L371 21 C371 21 370 43 370 47 L370 338 L540 698 C547 713 556 731 556 731 L557 731 C557 731 561 740 561 741 C561 742 565 751 565 751 L560 751 L556 751 L554 751 C554 751 550 742 550 741 C550 740 546 731 546 731 C546 731 527 690 524 683 L524 683 L367 345 L159 724 L159 724 Z " />
<glyph glyph-name="quoteleft" unicode="&#x2018;" horiz-adv-x="270" d="M145 740 C141 740 120 721 101 702 C95 713 91 722 91 724 C91 736 217 874 231 878 L226 895 C208 890 41 728 41 716 C41 711 54 691 71 668 C68 664 66 661 66 660 C66 652 138 580 146 580 C154 580 226 652 226 660 C226 668 154 740 146 740 L145 740 L145 740 Z " />
<glyph glyph-name="quoteright" unicode="&#x2019;" horiz-adv-x="270" d="M125 600 C129 600 150 619 169 638 C175 627 179 618 179 616 C179 604 53 466 39 462 L44 445 C63 450 229 612 229 624 C229 629 216 649 199 672 C202 676 204 679 204 680 C204 688 132 760 124 760 C116 760 44 688 44 680 C44 672 116 600 124 600 L125 600 L125 600 Z " />
<glyph glyph-name="quotedblleft" unicode="&#x201c;" horiz-adv-x="470" d="M145 740 C141 740 120 721 101 702 C95 713 91 722 91 724 C91 736 217 874 231 878 L226 895 C208 890 41 728 41 716 C41 711 54 691 71 668 C68 664 66 661 66 660 C66 652 138 580 146 580 C154 580 226 652 226 660 C226 668 154 740 146 740 L145 740 L145 740 Z M346 740 C342 740 321 721 302 702 C296 713 292 722 292 724 C292 736 418 874 432 878 L427 895 C409 890 242 728 242 716 C242 711 255 691 272 668 C269 664 267 661 267 660 C267 652 339 580 347 580 C355 580 427 652 427 660 C427 668 355 740 347 740 L346 740 L346 740 Z " />
<glyph glyph-name="quotedblright" unicode="&#x201d;" horiz-adv-x="470" d="M325 600 C329 600 350 619 369 638 C375 627 379 618 379 616 C379 604 253 466 239 462 L244 445 C263 450 429 612 429 624 C429 629 416 649 399 672 C402 676 404 679 404 680 C404 688 332 760 324 760 C316 760 244 688 244 680 C244 672 316 600 324 600 L325 600 L325 600 Z M124 600 C128 600 149 619 168 638 C174 627 178 618 178 616 C178 604 52 466 38 462 L43 445 C62 450 228 612 228 624 C228 629 215 649 198 672 C201 676 203 679 203 680 C203 688 131 760 123 760 C115 760 43 688 43 680 C43 672 115 600 123 600 L124 600 L124 600 Z " />
<glyph glyph-name="Euro" unicode="&#x20ac;" horiz-adv-x="773" d="M43 268 L170 268 C270 153 432 -10 457 -10 C473 -10 611 54 685 92 L686 92 C686 92 687 93 689 94 C712 106 728 115 731 118 C730 119 728 121 725 124 L700 145 C699 144 698 143 697 142 C688 136 659 115 649 107 C581 62 470 -6 459 -6 C443 -6 343 154 281 268 L507 268 L518 350 L240 350 C235 362 232 371 232 375 C232 379 235 388 240 400 L518 400 L530 482 L283 482 C347 595 451 755 467 755 C478 755 578 691 643 646 C663 631 698 605 699 604 L730 631 C727 634 710 644 686 657 C685 658 684 658 684 658 L684 658 C613 696 483 759 467 759 C441 759 274 596 172 481 L67 481 L55 399 L105 399 C97 387 92 378 92 373 C92 369 97 360 105 348 L55 348 L43 268 L43 268 Z " />
<glyph glyph-name="F_sc" unicode="&#xa730;" horiz-adv-x="546" d="M428 294 L424 293 C425 294 385 296 376 296 C382 296 423 295 424 294 L428 294 L428 294 Z M506 583 L442 583 L193 583 L134 583 L77 583 L75 583 L75 573 L75 563 L76 563 C76 563 77 539 77 535 L77 48 C77 44 76 20 76 20 L75 20 L75 10 L75 0 L77 0 L135 0 L193 0 L194 0 L194 10 L194 20 C194 20 193 44 193 48 L193 292 L440 292 L440 294 L440 296 L376 296 L193 296 L193 535 L193 580 L408 580 C419 580 486 579 486 579 L486 578 L496 578 L506 578 L506 580 L506 583 L506 583 Z " />
<glyph glyph-name="S_sc" unicode="&#xa731;" horiz-adv-x="470" d="M94 78 L94 78 L94 78 Z M140 73 L141 73 C134 78 82 128 82 128 C79 127 49 113 49 113 C54 100 225 -10 238 -10 C257 -10 430 144 430 161 C430 174 290 345 272 352 C259 357 152 465 152 472 C152 484 220 589 228 589 C232 589 259 569 287 547 C309 529 358 487 358 486 L392 502 C388 511 240 593 228 593 C211 593 61 445 61 428 C61 414 187 237 203 232 C218 226 338 132 338 127 C338 114 248 -4 238 -4 C232 -4 182 37 140 73 L140 73 Z " />
<glyph glyph-name="X_sc" unicode="&#xf078;" horiz-adv-x="573" d="M56 0 L78 0 L80 0 C80 0 86 9 86 10 C87 11 90 16 92 19 L251 242 L363 73 L363 73 C363 72 364 71 365 70 L400 18 C402 15 404 11 405 10 C405 9 410 0 410 0 L412 0 L480 0 L550 0 C550 0 545 9 544 10 C543 11 538 20 538 20 L537 20 C537 20 531 29 524 39 L502 71 L502 71 L502 71 L325 336 L470 497 L470 497 C470 498 471 499 472 500 L516 549 C523 557 528 562 528 562 L529 562 C529 562 536 571 537 572 C538 573 545 582 545 582 L518 582 L493 582 L491 582 C491 582 486 573 485 572 C484 571 482 568 481 565 L453 527 L437 506 L437 506 L319 344 L171 565 C169 568 167 571 166 572 C166 573 161 582 161 582 L159 582 L91 582 L22 582 L22 582 C22 581 27 573 27 572 C28 571 33 562 33 562 L34 562 C34 562 59 524 67 512 L234 262 L80 63 L79 63 C78 62 76 60 74 57 L58 36 C51 27 45 19 45 19 L44 19 C44 19 38 10 37 9 C37 8 32 1 31 -1 L31 -1 L56 0 L56 0 Z " />
</font>
</svg>
