<?xml version="1.0" encoding="UTF-8"?>
<svg xmlns="http://www.w3.org/2000/svg" xmlns:xlink="http://www.w3.org/1999/xlink" version="1.2" >
<font id="Agenzada">
<font-face  font-family="Agenzada" units-per-em="1000" ascent="870" descent="-229" font-style="normal" font-weight="400" font-stretch="normal" cap-height="729" x-height="610" underline-position="0" underline-thickness="0" />
<missing-glyph  horiz-adv-x="527" d="M50 0 L477 0 L477 700 L50 700 L50 0 Z M71 49 L71 650 L251 350 L71 49 Z M449 21 L79 21 L264 329 L449 21 Z M449 680 L263 371 L78 680 L449 680 Z M457 652 L457 47 L276 350 L457 652 Z " />
<glyph glyph-name=".null" d="" />
<glyph glyph-name="&amp;#x0;" d="" />
<glyph glyph-name="&amp;#xd;" unicode="&#xd;" d="" />
<glyph glyph-name="space" unicode="&#x20;" horiz-adv-x="304" d="" />
<glyph glyph-name="controlLF" unicode="&#xa;" d="" />
<glyph glyph-name="exclam" unicode="&#x21;" horiz-adv-x="170" d="M104 101 L65 93 L60 88 L58 78 L65 54 L73 47 L112 62 L120 70 L120 78 L112 101 L104 101 Z M104 163 L112 170 L112 232 L120 240 L104 587 L96 587 L65 579 L65 572 L58 548 L50 232 L58 163 L65 147 L104 163 Z " />
<glyph glyph-name="&amp;#x22;" unicode="&#x22;" horiz-adv-x="308" d="M96 541 L65 541 L50 518 L58 487 L65 425 L81 417 L127 417 L127 448 L120 518 L112 533 L96 541 Z M243 525 L204 525 L189 502 L197 456 L204 425 L208 418 L212 417 L251 425 L258 471 L251 510 L243 525 Z " />
<glyph glyph-name="&amp;#x201c;" unicode="&#x201c;" horiz-adv-x="308" d="M96 541 L65 541 L50 518 L58 487 L65 425 L81 417 L127 417 L127 448 L120 518 L112 533 L96 541 Z M243 525 L204 525 L189 502 L197 456 L204 425 L208 418 L212 417 L251 425 L258 471 L251 510 L243 525 Z " />
<glyph glyph-name="&amp;#x201d;" unicode="&#x201d;" horiz-adv-x="308" d="M96 541 L65 541 L50 518 L58 487 L65 425 L81 417 L127 417 L127 448 L120 518 L112 533 L96 541 Z M243 525 L204 525 L189 502 L197 456 L204 425 L208 418 L212 417 L251 425 L258 471 L251 510 L243 525 Z " />
<glyph glyph-name="numbersign" unicode="&#x23;" horiz-adv-x="726" d="M669 209 L661 209 L568 201 L499 201 L501 365 L538 364 L554 374 L630 379 L630 386 L622 410 L622 417 L615 417 L491 433 L491 534 L483 542 L476 542 L445 534 L437 526 L437 518 L422 425 L221 440 L229 542 L228 546 L221 549 L213 549 L175 542 L167 534 L167 526 L148 423 L128 425 L50 425 L50 417 L58 363 L167 363 L172 364 L175 355 L159 193 L66 186 L66 178 L73 132 L81 132 L167 139 L175 108 L182 70 L190 47 L205 39 L244 39 L252 47 L244 93 L236 124 L236 139 L375 147 L445 147 L452 124 L460 8 L468 8 L499 16 L507 139 L579 148 L607 150 L669 163 L676 170 L676 178 L669 201 L669 209 Z M229 201 L236 371 L445 363 L429 201 L229 201 Z " />
<glyph glyph-name="dollar" unicode="&#x24;" horiz-adv-x="462" d="M393 250 L380 257 L370 268 L360 276 L334 289 L315 296 L289 309 L274 314 L273 320 L273 334 L270 355 L270 369 L272 384 L269 401 L273 422 L273 481 L321 478 L315 478 L341 471 L360 471 L367 478 L367 504 L360 517 L334 530 L315 536 L271 536 L270 544 L270 558 L276 576 L247 596 L240 597 L221 585 L221 536 L210 536 L171 523 L158 517 L145 504 L132 497 L113 478 L106 465 L100 458 L93 445 L87 426 L87 406 L93 380 L113 341 L132 322 L226 275 L226 239 L223 230 L223 157 L226 137 L226 88 L158 88 L119 101 L106 107 L87 114 L67 114 L50 101 L57 62 L80 62 L93 55 L132 42 L158 36 L229 36 L229 29 L232 9 L232 -6 L252 -32 L270 -28 L276 -18 L281 -2 L281 12 L278 32 L278 44 L328 55 L341 62 L347 68 L367 81 L386 101 L390 107 L403 120 L412 205 L406 224 L393 250 Z M321 107 L315 107 L297 98 L276 94 L276 154 L273 175 L273 204 L272 235 L276 256 L276 260 L295 250 L315 244 L328 237 L338 230 L347 218 L360 211 L360 146 L321 107 Z M224 433 L221 396 L221 352 L223 332 L198 348 L178 354 L165 361 L159 374 L146 387 L139 406 L139 426 L152 439 L159 452 L172 465 L185 471 L191 478 L211 484 L224 484 L224 433 Z " />
<glyph glyph-name="percent" unicode="&#x25;" horiz-adv-x="602" d="M212 332 L235 379 L235 456 L212 502 L181 518 L127 518 L112 510 L96 494 L81 487 L50 456 L58 340 L65 317 L81 309 L89 294 L173 309 L212 332 Z M112 363 L104 417 L104 425 L127 445 L133 452 L143 456 L166 456 L181 448 L177 418 L174 386 L166 371 L143 363 L112 363 Z M372 410 L426 518 L434 542 L441 557 L457 573 L437 609 L429 614 L403 611 L380 565 L372 542 L326 449 L302 410 L279 364 L272 341 L264 325 L256 302 L225 241 L217 233 L179 156 L171 132 L140 71 L133 48 L117 17 L109 -6 L102 -22 L109 -61 L130 -66 L142 -59 L155 -44 L163 -30 L171 -6 L187 24 L194 48 L233 125 L241 148 L272 212 L287 233 L310 279 L318 302 L326 318 L333 341 L341 356 L351 371 L357 391 L372 410 Z M529 240 L521 255 L506 263 L482 271 L444 271 L402 248 L380 228 L374 212 L359 178 L351 155 L359 101 L367 62 L398 47 L490 47 L506 54 L529 78 L544 108 L552 132 L552 217 L544 232 L529 240 Z M474 110 L413 109 L421 163 L428 170 L452 178 L475 201 L490 201 L498 186 L498 155 L474 110 Z " />
<glyph glyph-name="ampersand" unicode="&#x26;" horiz-adv-x="539" d="M468 67 L462 76 L394 128 L387 137 L374 147 L367 156 L381 185 L391 199 L399 245 L396 254 L386 255 L354 253 L341 224 L321 204 L314 205 L300 216 L279 228 L267 239 L253 256 L241 266 L233 276 L205 297 L193 308 L187 324 L188 331 L219 372 L236 416 L250 492 L240 526 L227 536 L196 542 L179 541 L157 538 L127 514 L119 501 L115 486 L103 411 L101 371 L105 347 L119 336 L113 306 L65 221 L50 98 L61 72 L75 62 L96 50 L125 37 L133 35 L172 36 L204 38 L221 42 L248 61 L264 66 L327 109 L355 88 L375 68 L430 26 L442 9 L457 6 L474 10 L483 16 L489 44 L482 56 L468 67 Z M235 118 L200 101 L183 96 L144 96 L136 97 L115 109 L103 127 L116 196 L151 260 L166 257 L186 237 L200 227 L212 213 L281 157 L262 137 L235 118 Z M174 484 L206 484 L174 411 L163 380 L152 422 L161 462 L174 484 Z " />
<glyph glyph-name="&amp;#x27;" unicode="&#x27;" horiz-adv-x="177" d="M119 456 L112 518 L104 533 L78 539 L67 538 L58 533 L58 525 L50 518 L58 471 L65 410 L73 394 L81 386 L127 402 L127 410 L119 448 L119 456 Z " />
<glyph glyph-name="&amp;#x2018;" unicode="&#x2018;" horiz-adv-x="177" d="M119 456 L112 518 L104 533 L78 539 L67 538 L58 533 L58 525 L50 518 L58 471 L65 410 L73 394 L81 386 L127 402 L127 410 L119 448 L119 456 Z " />
<glyph glyph-name="&amp;#x2019;" unicode="&#x2019;" horiz-adv-x="177" d="M119 456 L112 518 L104 533 L78 539 L67 538 L58 533 L58 525 L50 518 L58 471 L65 410 L73 394 L81 386 L127 402 L127 410 L119 448 L119 456 Z " />
<glyph glyph-name="parenleft" unicode="&#x28;" horiz-adv-x="308" d="M237 -13 L230 -6 L215 4 L204 16 L191 26 L181 39 L150 101 L143 124 L135 139 L127 163 L112 232 L112 348 L120 379 L127 417 L135 448 L150 479 L158 502 L166 518 L189 556 L228 595 L220 618 L212 633 L173 633 L158 618 L148 603 L115 541 L84 479 L73 448 L65 417 L50 340 L58 232 L65 155 L73 139 L81 116 L89 101 L96 78 L135 0 L181 -46 L204 -54 L220 -61 L235 -61 L251 -54 L257 -46 L242 -15 L237 -13 Z " />
<glyph glyph-name="parenright" unicode="&#x29;" horiz-adv-x="308" d="M242 417 L234 448 L224 479 L188 548 L165 595 L149 618 L134 633 L95 633 L88 618 L80 595 L119 556 L142 518 L149 502 L157 479 L173 448 L188 379 L196 348 L196 232 L188 193 L173 139 L165 124 L157 101 L126 39 L116 26 L103 16 L92 4 L78 -6 L71 -13 L65 -15 L50 -46 L57 -54 L72 -61 L88 -61 L103 -54 L126 -46 L173 0 L211 78 L219 101 L227 116 L234 139 L242 155 L250 232 L258 340 L242 417 Z " />
<glyph glyph-name="asterisk" unicode="&#x2a;" horiz-adv-x="355" d="M289 518 L267 521 L248 522 L220 533 L220 541 L204 610 L197 610 L181 618 L166 603 L150 525 L65 533 L50 518 L58 479 L81 471 L104 471 L120 464 L81 425 L82 391 L96 386 L120 386 L135 394 L166 425 L181 433 L189 394 L200 381 L212 363 L235 355 L258 379 L251 417 L235 448 L235 456 L297 471 L305 479 L305 487 L297 510 L289 518 Z " />
<glyph glyph-name="plus" unicode="&#x2b;" horiz-adv-x="370" d="M290 303 L206 308 L194 370 L172 379 L148 373 L148 365 L139 343 L136 296 L59 293 L53 288 L50 278 L56 255 L64 246 L140 234 L139 201 L145 169 L168 160 L192 167 L201 190 L199 212 L200 228 L210 246 L311 255 L320 286 L313 294 L290 303 Z " />
<glyph glyph-name="comma" unicode="&#x2c;" horiz-adv-x="185" d="M104 -7 L81 -7 L65 -15 L58 -38 L50 -100 L58 -185 L65 -185 L89 -177 L112 -154 L119 -139 L135 -92 L135 -30 L121 -13 L104 -7 Z " />
<glyph glyph-name="hyphen" unicode="&#x2d;" horiz-adv-x="425" d="M358 318 L319 323 L234 326 L118 327 L64 323 L50 299 L59 277 L67 269 L91 263 L106 264 L238 264 L315 261 L354 264 L369 272 L375 296 L367 303 L358 318 Z " />
<glyph glyph-name="period" unicode="&#x2e;" horiz-adv-x="162" d="M104 89 L96 89 L58 81 L53 76 L50 66 L58 42 L65 35 L104 50 L112 58 L112 66 L104 89 Z " />
<glyph glyph-name="slash" unicode="&#x2f;" horiz-adv-x="456" d="M377 614 L351 611 L328 565 L320 542 L274 449 L251 410 L228 364 L220 341 L212 325 L204 302 L173 241 L166 233 L127 156 L119 132 L89 71 L81 48 L65 17 L58 -6 L50 -22 L58 -61 L79 -66 L90 -59 L104 -44 L112 -30 L119 -6 L135 24 L143 48 L181 125 L189 148 L221 212 L235 233 L258 279 L266 302 L274 318 L282 341 L289 356 L300 371 L306 391 L320 410 L374 518 L382 542 L390 557 L405 573 L385 609 L377 614 Z " />
<glyph glyph-name="zero" unicode="0" horiz-adv-x="563" d="M69 193 L78 177 L87 147 L106 110 L133 73 L170 54 L181 42 L198 36 L217 26 L244 17 L355 17 L392 36 L402 45 L420 54 L476 110 L503 165 L513 193 L513 341 L485 424 L466 461 L448 480 L439 498 L420 517 L405 526 L392 538 L319 567 L298 569 L244 564 L226 554 L170 545 L133 526 L115 508 L106 489 L96 480 L69 424 L50 341 L69 193 Z M346 489 L365 480 L381 462 L392 443 L429 369 L438 341 L438 202 L429 174 L420 165 L401 137 L374 110 L355 100 L337 82 L244 91 L207 110 L198 119 L180 128 L161 165 L143 193 L133 221 L124 267 L124 341 L133 387 L142 415 L152 434 L183 463 L244 480 L272 489 L302 497 L346 489 Z " />
<glyph glyph-name="one" unicode="1" horiz-adv-x="245" d="M136 584 L126 26 L125 20 L135 0 L175 10 L185 20 L195 276 L195 598 L185 658 L175 678 L125 678 L50 650 L60 600 L136 584 Z " />
<glyph glyph-name="two" unicode="2" horiz-adv-x="541" d="M372 536 L369 539 L351 568 L287 600 L222 622 L72 622 L50 590 L63 551 L102 551 L126 553 L251 544 L274 535 L312 501 L330 455 L314 406 L301 391 L269 343 L258 333 L213 267 L183 236 L158 205 L150 193 L118 161 L103 134 L91 118 L70 75 L68 50 L81 32 L93 31 L125 20 L179 9 L448 9 L480 20 L487 30 L491 42 L477 60 L477 71 L466 71 L337 60 L154 81 L146 83 L179 127 L211 160 L243 203 L276 235 L289 255 L308 278 L319 299 L334 317 L378 386 L390 440 L372 536 Z " />
<glyph glyph-name="three" unicode="3" horiz-adv-x="433" d="M104 545 L157 547 L189 555 L304 539 L311 529 L317 509 L312 483 L291 448 L280 440 L258 415 L229 374 L208 358 L193 350 L181 342 L167 330 L147 320 L137 312 L115 298 L98 295 L99 253 L159 253 L239 251 L251 247 L310 223 L325 211 L333 192 L328 162 L320 129 L299 114 L278 105 L219 85 L154 73 L50 67 L52 11 L143 10 L199 12 L256 23 L296 40 L316 52 L347 78 L358 91 L370 110 L374 121 L383 210 L377 230 L366 247 L353 261 L336 272 L310 285 L265 300 L248 312 L279 335 L296 350 L312 368 L335 402 L343 420 L367 518 L362 538 L355 557 L340 577 L306 601 L131 615 L112 608 L91 592 L96 551 L104 545 Z " />
<glyph glyph-name="four" unicode="4" horiz-adv-x="520" d="M288 -53 L312 -65 L330 -59 L339 -52 L345 -10 L343 33 L345 110 L346 118 L423 116 L459 128 L468 135 L470 143 L464 161 L456 171 L424 184 L381 181 L356 187 L354 228 L357 313 L356 364 L354 407 L356 484 L356 544 L342 563 L333 564 L307 559 L296 544 L294 381 L296 364 L293 279 L278 179 L193 183 L126 192 L117 195 L112 271 L114 288 L120 449 L118 458 L120 509 L106 528 L98 529 L71 524 L61 509 L55 407 L57 398 L55 286 L52 271 L50 194 L61 159 L66 148 L72 139 L83 130 L176 117 L244 116 L278 119 L287 118 L284 -18 L288 -53 Z " />
<glyph glyph-name="five" unicode="5" horiz-adv-x="453" d="M236 316 L260 306 L274 297 L289 284 L298 271 L321 246 L331 220 L339 155 L336 107 L317 75 L268 62 L219 58 L154 62 L131 72 L95 82 L59 84 L50 77 L56 20 L62 15 L93 12 L126 7 L248 -1 L297 4 L363 32 L400 94 L403 151 L398 192 L385 241 L371 275 L345 306 L333 318 L322 332 L304 351 L288 361 L262 370 L140 380 L138 389 L139 467 L155 565 L163 572 L302 580 L310 579 L356 582 L365 590 L365 598 L359 622 L356 629 L355 641 L329 637 L224 633 L127 632 L110 625 L92 601 L82 562 L74 475 L71 400 L75 335 L82 318 L89 310 L179 320 L236 316 Z " />
<glyph glyph-name="six" unicode="6" horiz-adv-x="413" d="M144 427 L128 427 L136 529 L144 601 L141 653 L128 671 L121 671 L89 663 L89 656 L81 632 L66 466 L66 459 L50 333 L50 317 L58 192 L73 129 L81 106 L97 74 L120 35 L132 19 L144 12 L191 4 L223 9 L256 25 L289 53 L324 90 L348 121 L356 145 L363 176 L363 302 L356 349 L348 364 L332 388 L324 404 L311 420 L301 427 L269 443 L254 443 L183 435 L144 427 Z M260 380 L275 372 L285 357 L293 325 L301 302 L301 176 L292 156 L269 121 L262 114 L246 90 L231 79 L215 74 L175 74 L160 90 L151 103 L136 129 L120 192 L113 262 L113 325 L120 341 L141 358 L152 364 L199 380 L260 380 Z " />
<glyph glyph-name="seven" unicode="7" horiz-adv-x="658" d="M593 423 L584 422 L557 427 L429 427 L439 543 L439 657 L431 674 L413 683 L124 683 L91 684 L68 675 L50 649 L59 623 L68 614 L159 622 L310 618 L378 622 L360 438 L360 427 L350 427 L337 426 L328 428 L262 423 L239 423 L167 401 L169 393 L182 359 L191 360 L218 355 L342 355 L351 356 L344 296 L335 257 L317 111 L308 59 L308 50 L325 15 L352 6 L378 15 L387 41 L387 111 L400 264 L404 297 L419 358 L437 359 L448 362 L515 364 L540 366 L608 381 L606 389 L593 423 Z " />
<glyph glyph-name="eight" unicode="8" horiz-adv-x="559" d="M58 123 L75 72 L92 46 L110 31 L118 21 L144 2 L160 -13 L211 -22 L203 -22 L237 -30 L364 -30 L386 -23 L441 4 L470 23 L485 40 L492 63 L500 80 L509 106 L509 216 L500 242 L492 276 L458 344 L424 378 L390 395 L390 403 L398 420 L417 449 L432 514 L433 531 L424 607 L398 658 L381 675 L365 687 L339 701 L305 709 L245 709 L217 705 L179 691 L152 675 L135 667 L84 616 L67 590 L58 565 L58 514 L75 454 L84 437 L96 425 L109 403 L143 386 L118 361 L101 335 L92 326 L79 298 L60 238 L56 204 L50 174 L58 123 Z M211 36 L174 60 L143 89 L126 123 L118 157 L118 174 L126 250 L135 284 L144 300 L170 333 L184 343 L203 352 L220 352 L233 353 L243 352 L322 352 L347 344 L381 327 L404 297 L415 276 L425 261 L441 216 L441 114 L432 97 L415 72 L395 52 L373 38 L346 28 L322 21 L245 29 L211 36 Z M228 420 L203 429 L186 437 L160 454 L146 470 L135 488 L129 513 L129 565 L143 582 L177 616 L213 638 L238 651 L287 649 L315 644 L357 615 L364 599 L364 522 L356 480 L331 432 L313 420 L228 420 Z " />
<glyph glyph-name="nine" unicode="9" horiz-adv-x="492" d="M352 693 L336 693 L261 692 L189 677 L164 669 L145 660 L125 647 L99 620 L83 595 L50 530 L51 426 L66 359 L75 343 L86 329 L140 286 L163 276 L173 274 L301 288 L309 291 L333 307 L341 316 L352 334 L368 367 L376 0 L393 -8 L434 -8 L442 0 L436 220 L434 416 L436 652 L433 659 L422 668 L352 693 Z M344 465 L328 432 L319 408 L295 359 L287 351 L254 334 L197 334 L164 351 L131 382 L124 392 L115 408 L107 441 L110 505 L115 522 L126 538 L134 555 L148 571 L181 604 L213 620 L246 628 L272 633 L321 633 L344 628 L368 620 L376 612 L368 547 L344 465 Z " />
<glyph glyph-name="colon" unicode="&#x3a;" horiz-adv-x="186" d="M73 77 L58 62 L50 46 L58 8 L73 0 L120 0 L127 8 L127 69 L120 85 L89 85 L73 77 Z M98 511 L82 503 L67 488 L59 472 L67 434 L82 426 L129 426 L136 434 L136 496 L129 511 L98 511 Z " />
<glyph glyph-name="semicolon" unicode="&#x3b;" horiz-adv-x="185" d="M104 177 L81 177 L65 170 L58 147 L50 85 L58 0 L65 0 L89 8 L112 31 L120 46 L135 93 L135 154 L121 172 L104 177 Z M125 522 L132 530 L132 592 L125 607 L94 607 L78 599 L63 584 L55 568 L63 530 L78 522 L125 522 Z " />
<glyph glyph-name="less" unicode="&#x3c;" horiz-adv-x="316" d="M266 31 L258 46 L251 54 L235 62 L189 108 L173 131 L112 194 L127 208 L143 216 L153 224 L166 232 L197 255 L205 265 L220 278 L230 291 L243 301 L251 324 L228 347 L204 340 L189 332 L175 322 L143 293 L127 286 L112 270 L96 262 L85 253 L65 232 L51 222 L50 178 L58 162 L104 116 L135 77 L212 0 L258 8 L266 31 Z " />
<glyph glyph-name="equal" unicode="&#x3d;" horiz-adv-x="425" d="M91 388 L106 389 L238 390 L315 387 L354 389 L369 398 L375 421 L367 429 L358 443 L319 449 L234 451 L118 452 L64 449 L50 425 L59 402 L67 395 L91 388 Z M319 265 L234 268 L118 269 L64 265 L50 241 L59 219 L67 211 L91 205 L106 206 L238 206 L315 203 L354 206 L369 214 L375 238 L367 245 L358 260 L319 265 Z " />
<glyph glyph-name="greater" unicode="&#x3e;" horiz-adv-x="316" d="M181 77 L212 116 L258 162 L266 178 L265 222 L251 232 L231 253 L220 262 L204 270 L189 286 L173 293 L166 301 L127 332 L112 340 L89 347 L65 324 L73 301 L86 291 L96 278 L111 265 L119 255 L150 232 L174 216 L189 208 L204 194 L143 131 L127 108 L81 62 L65 54 L58 46 L50 31 L58 8 L104 0 L181 77 Z " />
<glyph glyph-name="question" unicode="&#x3f;" horiz-adv-x="386" d="M229 54 L190 46 L185 41 L182 31 L190 8 L198 0 L236 15 L244 23 L244 31 L236 54 L229 54 Z M301 557 L278 577 L224 588 L171 590 L59 560 L50 531 L67 505 L97 513 L114 519 L209 538 L228 537 L263 519 L286 488 L284 449 L278 435 L263 393 L257 383 L237 325 L221 295 L206 257 L189 226 L183 203 L178 189 L170 153 L174 134 L187 123 L197 125 L201 135 L213 154 L217 166 L224 178 L241 214 L258 245 L273 283 L290 314 L296 331 L306 352 L309 371 L317 387 L336 447 L333 489 L301 557 Z " />
<glyph glyph-name="at" unicode="&#x40;" horiz-adv-x="645" d="M587 287 L578 341 L575 374 L562 444 L559 475 L560 547 L543 637 L533 640 L515 641 L505 644 L470 644 L460 648 L408 648 L384 645 L346 635 L256 608 L194 578 L141 526 L131 512 L114 495 L82 454 L78 438 L61 392 L61 375 L50 344 L50 309 L53 285 L53 268 L67 223 L70 199 L83 154 L131 91 L148 74 L189 43 L213 29 L275 7 L310 7 L331 0 L355 3 L386 10 L379 6 L508 33 L525 50 L532 53 L528 60 L529 95 L518 98 L501 98 L418 58 L359 65 L334 62 L317 62 L307 66 L290 66 L228 87 L200 108 L166 143 L142 174 L129 202 L122 250 L115 264 L119 292 L112 305 L116 333 L116 368 L126 381 L127 399 L137 412 L137 430 L148 443 L165 460 L176 474 L193 491 L203 505 L221 522 L290 556 L380 583 L404 586 L439 586 L463 589 L484 582 L501 582 L514 507 L521 428 L527 384 L489 442 L478 461 L476 472 L462 480 L446 498 L436 503 L431 511 L411 523 L392 529 L386 533 L322 516 L311 496 L294 476 L278 448 L272 441 L263 413 L256 402 L242 330 L243 302 L240 296 L251 231 L264 206 L288 178 L295 175 L309 161 L350 138 L362 136 L375 128 L404 124 L427 125 L527 152 L556 171 L569 186 L578 194 L593 203 L595 215 L587 287 Z M525 202 L516 194 L501 185 L438 168 L416 167 L398 168 L374 173 L334 196 L326 206 L313 213 L305 222 L295 237 L284 279 L282 307 L283 324 L290 360 L294 367 L297 379 L301 386 L303 398 L338 460 L364 487 L380 492 L400 480 L421 463 L438 445 L495 358 L521 303 L549 220 L525 202 Z " />
<glyph glyph-name="A" unicode="A" horiz-adv-x="657" d="M58 18 L104 33 L112 41 L112 49 L167 197 L174 205 L182 267 L190 282 L198 344 L406 360 L414 360 L452 352 L476 282 L483 228 L491 221 L506 136 L514 105 L522 82 L530 51 L537 35 L537 12 L545 12 L553 -11 L599 4 L607 12 L607 20 L599 43 L599 51 L584 82 L576 105 L560 166 L553 205 L545 236 L537 259 L522 329 L514 352 L514 360 L545 375 L553 383 L553 414 L530 429 L491 429 L483 452 L468 522 L460 537 L452 560 L445 576 L429 637 L398 699 L391 707 L383 722 L367 730 L329 738 L298 722 L283 707 L283 699 L267 684 L259 668 L252 661 L244 645 L236 622 L221 591 L213 583 L190 522 L182 506 L174 483 L167 468 L159 437 L151 414 L144 398 L136 375 L136 344 L120 259 L120 251 L105 205 L105 197 L97 167 L50 33 L58 18 Z M221 437 L228 452 L244 498 L252 514 L259 537 L290 599 L298 622 L313 637 L329 668 L344 676 L360 630 L375 622 L383 576 L391 553 L398 537 L414 491 L421 452 L421 421 L414 421 L290 414 L213 414 L221 437 Z " />
<glyph glyph-name="&amp;#xc0;" unicode="&#xc0;" horiz-adv-x="657" d="M58 18 L104 33 L112 41 L112 49 L167 197 L174 205 L182 267 L190 282 L198 344 L406 360 L414 360 L452 352 L476 282 L483 228 L491 221 L506 136 L514 105 L522 82 L530 51 L537 35 L537 12 L545 12 L553 -11 L599 4 L607 12 L607 20 L599 43 L599 51 L584 82 L576 105 L560 166 L553 205 L545 236 L537 259 L522 329 L514 352 L514 360 L545 375 L553 383 L553 414 L530 429 L491 429 L483 452 L468 522 L460 537 L452 560 L445 576 L429 637 L398 699 L391 707 L383 722 L367 730 L329 738 L298 722 L283 707 L283 699 L267 684 L259 668 L252 661 L244 645 L236 622 L221 591 L213 583 L190 522 L182 506 L174 483 L167 468 L159 437 L151 414 L144 398 L136 375 L136 344 L120 259 L120 251 L105 205 L105 197 L97 167 L50 33 L58 18 Z M221 437 L228 452 L244 498 L252 514 L259 537 L290 599 L298 622 L313 637 L329 668 L344 676 L360 630 L375 622 L383 576 L391 553 L398 537 L414 491 L421 452 L421 421 L414 421 L290 414 L213 414 L221 437 Z " />
<glyph glyph-name="&amp;#xc1;" unicode="&#xc1;" horiz-adv-x="657" d="M58 18 L104 33 L112 41 L112 49 L167 197 L174 205 L182 267 L190 282 L198 344 L406 360 L414 360 L452 352 L476 282 L483 228 L491 221 L506 136 L514 105 L522 82 L530 51 L537 35 L537 12 L545 12 L553 -11 L599 4 L607 12 L607 20 L599 43 L599 51 L584 82 L576 105 L560 166 L553 205 L545 236 L537 259 L522 329 L514 352 L514 360 L545 375 L553 383 L553 414 L530 429 L491 429 L483 452 L468 522 L460 537 L452 560 L445 576 L429 637 L398 699 L391 707 L383 722 L367 730 L329 738 L298 722 L283 707 L283 699 L267 684 L259 668 L252 661 L244 645 L236 622 L221 591 L213 583 L190 522 L182 506 L174 483 L167 468 L159 437 L151 414 L144 398 L136 375 L136 344 L120 259 L120 251 L105 205 L105 197 L97 167 L50 33 L58 18 Z M221 437 L228 452 L244 498 L252 514 L259 537 L290 599 L298 622 L313 637 L329 668 L344 676 L360 630 L375 622 L383 576 L391 553 L398 537 L414 491 L421 452 L421 421 L414 421 L290 414 L213 414 L221 437 Z " />
<glyph glyph-name="&amp;#xc2;" unicode="&#xc2;" horiz-adv-x="657" d="M58 18 L104 33 L112 41 L112 49 L167 197 L174 205 L182 267 L190 282 L198 344 L406 360 L414 360 L452 352 L476 282 L483 228 L491 221 L506 136 L514 105 L522 82 L530 51 L537 35 L537 12 L545 12 L553 -11 L599 4 L607 12 L607 20 L599 43 L599 51 L584 82 L576 105 L560 166 L553 205 L545 236 L537 259 L522 329 L514 352 L514 360 L545 375 L553 383 L553 414 L530 429 L491 429 L483 452 L468 522 L460 537 L452 560 L445 576 L429 637 L398 699 L391 707 L383 722 L367 730 L329 738 L298 722 L283 707 L283 699 L267 684 L259 668 L252 661 L244 645 L236 622 L221 591 L213 583 L190 522 L182 506 L174 483 L167 468 L159 437 L151 414 L144 398 L136 375 L136 344 L120 259 L120 251 L105 205 L105 197 L97 167 L50 33 L58 18 Z M221 437 L228 452 L244 498 L252 514 L259 537 L290 599 L298 622 L313 637 L329 668 L344 676 L360 630 L375 622 L383 576 L391 553 L398 537 L414 491 L421 452 L421 421 L414 421 L290 414 L213 414 L221 437 Z " />
<glyph glyph-name="&amp;#xc3;" unicode="&#xc3;" horiz-adv-x="657" d="M58 18 L104 33 L112 41 L112 49 L167 197 L174 205 L182 267 L190 282 L198 344 L406 360 L414 360 L452 352 L476 282 L483 228 L491 221 L506 136 L514 105 L522 82 L530 51 L537 35 L537 12 L545 12 L553 -11 L599 4 L607 12 L607 20 L599 43 L599 51 L584 82 L576 105 L560 166 L553 205 L545 236 L537 259 L522 329 L514 352 L514 360 L545 375 L553 383 L553 414 L530 429 L491 429 L483 452 L468 522 L460 537 L452 560 L445 576 L429 637 L398 699 L391 707 L383 722 L367 730 L329 738 L298 722 L283 707 L283 699 L267 684 L259 668 L252 661 L244 645 L236 622 L221 591 L213 583 L190 522 L182 506 L174 483 L167 468 L159 437 L151 414 L144 398 L136 375 L136 344 L120 259 L120 251 L105 205 L105 197 L97 167 L50 33 L58 18 Z M221 437 L228 452 L244 498 L252 514 L259 537 L290 599 L298 622 L313 637 L329 668 L344 676 L360 630 L375 622 L383 576 L391 553 L398 537 L414 491 L421 452 L421 421 L414 421 L290 414 L213 414 L221 437 Z " />
<glyph glyph-name="&amp;#xc4;" unicode="&#xc4;" horiz-adv-x="657" d="M58 18 L104 33 L112 41 L112 49 L167 197 L174 205 L182 267 L190 282 L198 344 L406 360 L414 360 L452 352 L476 282 L483 228 L491 221 L506 136 L514 105 L522 82 L530 51 L537 35 L537 12 L545 12 L553 -11 L599 4 L607 12 L607 20 L599 43 L599 51 L584 82 L576 105 L560 166 L553 205 L545 236 L537 259 L522 329 L514 352 L514 360 L545 375 L553 383 L553 414 L530 429 L491 429 L483 452 L468 522 L460 537 L452 560 L445 576 L429 637 L398 699 L391 707 L383 722 L367 730 L329 738 L298 722 L283 707 L283 699 L267 684 L259 668 L252 661 L244 645 L236 622 L221 591 L213 583 L190 522 L182 506 L174 483 L167 468 L159 437 L151 414 L144 398 L136 375 L136 344 L120 259 L120 251 L105 205 L105 197 L97 167 L50 33 L58 18 Z M221 437 L228 452 L244 498 L252 514 L259 537 L290 599 L298 622 L313 637 L329 668 L344 676 L360 630 L375 622 L383 576 L391 553 L398 537 L414 491 L421 452 L421 421 L414 421 L290 414 L213 414 L221 437 Z " />
<glyph glyph-name="&amp;#xc5;" unicode="&#xc5;" horiz-adv-x="657" d="M58 18 L104 33 L112 41 L112 49 L167 197 L174 205 L182 267 L190 282 L198 344 L406 360 L414 360 L452 352 L476 282 L483 228 L491 221 L506 136 L514 105 L522 82 L530 51 L537 35 L537 12 L545 12 L553 -11 L599 4 L607 12 L607 20 L599 43 L599 51 L584 82 L576 105 L560 166 L553 205 L545 236 L537 259 L522 329 L514 352 L514 360 L545 375 L553 383 L553 414 L530 429 L491 429 L483 452 L468 522 L460 537 L452 560 L445 576 L429 637 L398 699 L391 707 L383 722 L367 730 L329 738 L298 722 L283 707 L283 699 L267 684 L259 668 L252 661 L244 645 L236 622 L221 591 L213 583 L190 522 L182 506 L174 483 L167 468 L159 437 L151 414 L144 398 L136 375 L136 344 L120 259 L120 251 L105 205 L105 197 L97 167 L50 33 L58 18 Z M221 437 L228 452 L244 498 L252 514 L259 537 L290 599 L298 622 L313 637 L329 668 L344 676 L360 630 L375 622 L383 576 L391 553 L398 537 L414 491 L421 452 L421 421 L414 421 L290 414 L213 414 L221 437 Z " />
<glyph glyph-name="B" unicode="B" horiz-adv-x="528" d="M467 293 L453 302 L446 318 L432 327 L418 344 L396 354 L358 366 L328 377 L244 393 L261 399 L370 489 L380 503 L397 517 L408 555 L417 569 L406 609 L394 642 L379 651 L373 667 L344 686 L314 696 L253 710 L169 726 L93 734 L76 720 L57 691 L56 598 L61 574 L60 489 L54 350 L57 303 L50 156 L55 78 L58 71 L57 70 L55 55 L61 39 L123 33 L170 36 L233 45 L280 56 L393 99 L402 106 L426 119 L435 133 L452 147 L453 155 L470 168 L478 253 L473 277 L467 293 Z M402 183 L393 176 L376 155 L352 149 L239 106 L176 97 L116 95 L112 228 L113 243 L129 319 L136 319 L152 325 L268 321 L330 315 L390 293 L396 277 L410 268 L416 252 L411 198 L402 183 Z M116 654 L117 670 L247 649 L308 635 L330 625 L336 609 L351 599 L357 591 L346 553 L328 532 L218 442 L202 436 L185 422 L153 410 L136 396 L121 398 L113 476 L116 654 Z " />
<glyph glyph-name="C" unicode="C" horiz-adv-x="610" d="M67 422 L53 377 L53 360 L50 335 L50 301 L61 287 L61 253 L71 239 L72 222 L82 208 L82 191 L114 150 L131 133 L141 119 L194 68 L256 37 L346 10 L384 0 L408 -3 L460 -3 L470 1 L505 1 L515 4 L532 5 L543 8 L560 43 L560 60 L532 74 L501 63 L484 63 L463 56 L439 59 L404 59 L380 62 L290 89 L221 123 L203 140 L193 154 L176 171 L165 185 L148 202 L137 215 L137 233 L127 246 L126 264 L116 277 L116 312 L112 339 L119 353 L115 381 L122 395 L128 443 L142 471 L166 502 L200 537 L228 558 L290 579 L307 579 L317 583 L334 583 L359 580 L418 587 L501 546 L518 547 L529 550 L528 585 L532 592 L525 595 L507 612 L379 638 L386 635 L355 642 L331 645 L310 638 L275 638 L213 616 L189 602 L148 571 L131 554 L83 491 L70 446 L67 422 Z " />
<glyph glyph-name="&amp;#xc7;" unicode="&#xc7;" horiz-adv-x="610" d="M67 422 L53 377 L53 360 L50 335 L50 301 L61 287 L61 253 L71 239 L72 222 L82 208 L82 191 L114 150 L131 133 L141 119 L194 68 L256 37 L346 10 L384 0 L408 -3 L460 -3 L470 1 L505 1 L515 4 L532 5 L543 8 L560 43 L560 60 L532 74 L501 63 L484 63 L463 56 L439 59 L404 59 L380 62 L290 89 L221 123 L203 140 L193 154 L176 171 L165 185 L148 202 L137 215 L137 233 L127 246 L126 264 L116 277 L116 312 L112 339 L119 353 L115 381 L122 395 L128 443 L142 471 L166 502 L200 537 L228 558 L290 579 L307 579 L317 583 L334 583 L359 580 L418 587 L501 546 L518 547 L529 550 L528 585 L532 592 L525 595 L507 612 L379 638 L386 635 L355 642 L331 645 L310 638 L275 638 L213 616 L189 602 L148 571 L131 554 L83 491 L70 446 L67 422 Z " />
<glyph glyph-name="D" unicode="D" horiz-adv-x="535" d="M266 27 L361 68 L394 97 L402 112 L419 127 L427 142 L443 157 L452 172 L470 217 L479 232 L485 348 L479 379 L473 402 L466 418 L452 434 L438 466 L423 475 L408 491 L393 500 L379 516 L364 524 L357 533 L327 550 L304 559 L243 578 L113 593 L97 586 L81 571 L72 557 L72 417 L75 416 L75 221 L81 169 L75 61 L59 55 L50 32 L56 1 L64 0 L211 15 L235 21 L266 27 Z M131 499 L140 522 L278 506 L255 507 L293 497 L353 463 L360 447 L382 438 L389 422 L404 414 L403 398 L418 390 L417 374 L424 351 L418 243 L400 198 L391 190 L375 168 L366 161 L350 138 L325 117 L262 89 L238 83 L207 77 L184 71 L145 73 L139 104 L135 166 L136 182 L133 398 L130 483 L131 499 Z " />
<glyph glyph-name="E" unicode="E" horiz-adv-x="555" d="M106 566 L69 533 L59 507 L50 498 L51 314 L56 217 L61 206 L76 76 L84 49 L100 13 L108 4 L495 5 L505 40 L497 58 L471 68 L392 62 L155 72 L149 134 L140 143 L126 214 L127 249 L399 256 L443 254 L452 262 L437 307 L428 307 L402 317 L122 328 L122 320 L122 337 L120 487 L147 512 L191 519 L280 524 L429 526 L438 535 L423 579 L414 580 L150 573 L106 566 Z " />
<glyph glyph-name="&amp;#xc8;" unicode="&#xc8;" horiz-adv-x="555" d="M106 566 L69 533 L59 507 L50 498 L51 314 L56 217 L61 206 L76 76 L84 49 L100 13 L108 4 L495 5 L505 40 L497 58 L471 68 L392 62 L155 72 L149 134 L140 143 L126 214 L127 249 L399 256 L443 254 L452 262 L437 307 L428 307 L402 317 L122 328 L122 320 L122 337 L120 487 L147 512 L191 519 L280 524 L429 526 L438 535 L423 579 L414 580 L150 573 L106 566 Z " />
<glyph glyph-name="&amp;#xc9;" unicode="&#xc9;" horiz-adv-x="555" d="M106 566 L69 533 L59 507 L50 498 L51 314 L56 217 L61 206 L76 76 L84 49 L100 13 L108 4 L495 5 L505 40 L497 58 L471 68 L392 62 L155 72 L149 134 L140 143 L126 214 L127 249 L399 256 L443 254 L452 262 L437 307 L428 307 L402 317 L122 328 L122 320 L122 337 L120 487 L147 512 L191 519 L280 524 L429 526 L438 535 L423 579 L414 580 L150 573 L106 566 Z " />
<glyph glyph-name="&amp;#xca;" unicode="&#xca;" horiz-adv-x="555" d="M106 566 L69 533 L59 507 L50 498 L51 314 L56 217 L61 206 L76 76 L84 49 L100 13 L108 4 L495 5 L505 40 L497 58 L471 68 L392 62 L155 72 L149 134 L140 143 L126 214 L127 249 L399 256 L443 254 L452 262 L437 307 L428 307 L402 317 L122 328 L122 320 L122 337 L120 487 L147 512 L191 519 L280 524 L429 526 L438 535 L423 579 L414 580 L150 573 L106 566 Z " />
<glyph glyph-name="&amp;#xcb;" unicode="&#xcb;" horiz-adv-x="555" d="M106 566 L69 533 L59 507 L50 498 L51 314 L56 217 L61 206 L76 76 L84 49 L100 13 L108 4 L495 5 L505 40 L497 58 L471 68 L392 62 L155 72 L149 134 L140 143 L126 214 L127 249 L399 256 L443 254 L452 262 L437 307 L428 307 L402 317 L122 328 L122 320 L122 337 L120 487 L147 512 L191 519 L280 524 L429 526 L438 535 L423 579 L414 580 L150 573 L106 566 Z " />
<glyph glyph-name="F" unicode="F" horiz-adv-x="542" d="M484 359 L476 359 L376 376 L208 376 L142 384 L133 618 L367 626 L384 626 L392 609 L426 618 L434 626 L434 668 L426 684 L409 693 L392 693 L200 684 L92 676 L67 668 L57 635 L58 626 L67 593 L75 467 L58 367 L50 359 L51 334 L54 311 L75 292 L75 100 L83 33 L92 8 L100 0 L142 17 L150 25 L150 33 L142 100 L142 300 L409 309 L417 300 L484 317 L492 326 L492 334 L484 351 L484 359 Z " />
<glyph glyph-name="G" unicode="G" horiz-adv-x="595" d="M221 99 L176 126 L148 159 L142 175 L135 183 L128 199 L121 208 L115 231 L105 294 L112 387 L133 447 L142 469 L169 514 L178 536 L253 600 L269 606 L317 618 L386 612 L392 596 L399 588 L431 601 L441 623 L428 655 L413 664 L368 676 L290 674 L298 674 L243 663 L226 649 L210 642 L135 578 L126 564 L117 541 L90 497 L81 474 L72 460 L50 384 L50 306 L54 244 L59 213 L65 189 L78 157 L88 145 L99 125 L109 113 L119 92 L151 71 L164 65 L193 47 L216 38 L245 20 L268 10 L360 3 L392 8 L400 15 L432 28 L440 35 L456 42 L481 63 L499 92 L516 107 L526 137 L537 175 L545 275 L540 314 L533 330 L518 331 L455 329 L324 331 L308 317 L298 294 L298 287 L304 271 L319 262 L334 260 L350 267 L459 274 L490 271 L475 179 L465 149 L456 135 L448 127 L430 98 L421 91 L389 78 L373 64 L326 60 L258 81 L243 90 L221 99 Z " />
<glyph glyph-name="H" unicode="H" horiz-adv-x="566" d="M72 453 L83 360 L85 228 L90 64 L111 16 L119 8 L158 22 L166 29 L166 37 L159 53 L160 61 L152 69 L147 225 L145 349 L147 395 L155 403 L317 403 L441 397 L439 189 L446 181 L448 57 L454 3 L468 -29 L490 -38 L506 -31 L514 -23 L516 8 L510 54 L506 132 L500 178 L497 287 L498 464 L496 596 L493 704 L486 720 L471 728 L463 729 L447 722 L439 714 L431 699 L430 676 L437 653 L438 513 L436 459 L166 472 L135 481 L129 504 L121 520 L110 613 L104 707 L90 723 L74 724 L58 717 L50 702 L54 569 L72 453 Z " />
<glyph glyph-name="I" unicode="I" horiz-adv-x="497" d="M201 22 L278 16 L288 24 L314 30 L435 38 L445 46 L447 80 L440 98 L358 103 L339 101 L286 119 L284 196 L276 206 L278 343 L275 533 L272 571 L308 572 L417 579 L426 587 L429 621 L422 639 L310 642 L172 653 L104 667 L78 669 L61 662 L50 637 L57 610 L65 601 L141 587 L167 585 L209 573 L206 539 L210 357 L208 219 L210 142 L216 107 L215 89 L145 78 L119 71 L101 64 L90 39 L89 22 L96 4 L104 -6 L157 8 L175 15 L201 22 Z " />
<glyph glyph-name="&amp;#xcc;" unicode="&#xcc;" horiz-adv-x="497" d="M201 22 L278 16 L288 24 L314 30 L435 38 L445 46 L447 80 L440 98 L358 103 L339 101 L286 119 L284 196 L276 206 L278 343 L275 533 L272 571 L308 572 L417 579 L426 587 L429 621 L422 639 L310 642 L172 653 L104 667 L78 669 L61 662 L50 637 L57 610 L65 601 L141 587 L167 585 L209 573 L206 539 L210 357 L208 219 L210 142 L216 107 L215 89 L145 78 L119 71 L101 64 L90 39 L89 22 L96 4 L104 -6 L157 8 L175 15 L201 22 Z " />
<glyph glyph-name="&amp;#xcd;" unicode="&#xcd;" horiz-adv-x="497" d="M201 22 L278 16 L288 24 L314 30 L435 38 L445 46 L447 80 L440 98 L358 103 L339 101 L286 119 L284 196 L276 206 L278 343 L275 533 L272 571 L308 572 L417 579 L426 587 L429 621 L422 639 L310 642 L172 653 L104 667 L78 669 L61 662 L50 637 L57 610 L65 601 L141 587 L167 585 L209 573 L206 539 L210 357 L208 219 L210 142 L216 107 L215 89 L145 78 L119 71 L101 64 L90 39 L89 22 L96 4 L104 -6 L157 8 L175 15 L201 22 Z " />
<glyph glyph-name="&amp;#xce;" unicode="&#xce;" horiz-adv-x="497" d="M201 22 L278 16 L288 24 L314 30 L435 38 L445 46 L447 80 L440 98 L358 103 L339 101 L286 119 L284 196 L276 206 L278 343 L275 533 L272 571 L308 572 L417 579 L426 587 L429 621 L422 639 L310 642 L172 653 L104 667 L78 669 L61 662 L50 637 L57 610 L65 601 L141 587 L167 585 L209 573 L206 539 L210 357 L208 219 L210 142 L216 107 L215 89 L145 78 L119 71 L101 64 L90 39 L89 22 L96 4 L104 -6 L157 8 L175 15 L201 22 Z " />
<glyph glyph-name="&amp;#xcf;" unicode="&#xcf;" horiz-adv-x="497" d="M201 22 L278 16 L288 24 L314 30 L435 38 L445 46 L447 80 L440 98 L358 103 L339 101 L286 119 L284 196 L276 206 L278 343 L275 533 L272 571 L308 572 L417 579 L426 587 L429 621 L422 639 L310 642 L172 653 L104 667 L78 669 L61 662 L50 637 L57 610 L65 601 L141 587 L167 585 L209 573 L206 539 L210 357 L208 219 L210 142 L216 107 L215 89 L145 78 L119 71 L101 64 L90 39 L89 22 L96 4 L104 -6 L157 8 L175 15 L201 22 Z " />
<glyph glyph-name="J" unicode="J" horiz-adv-x="556" d="M65 645 L280 631 L286 562 L299 446 L304 337 L301 198 L291 137 L275 91 L267 76 L243 53 L212 62 L197 70 L185 78 L174 94 L152 117 L139 127 L129 141 L122 164 L115 172 L92 181 L73 173 L68 166 L60 143 L67 119 L74 104 L97 80 L110 72 L120 56 L131 46 L142 33 L173 16 L184 4 L227 -4 L257 -1 L304 21 L336 82 L353 143 L363 205 L366 328 L361 436 L355 506 L348 560 L344 606 L343 638 L497 642 L505 649 L506 680 L491 696 L151 704 L66 699 L58 691 L50 676 L57 652 L65 645 Z " />
<glyph glyph-name="K" unicode="K" horiz-adv-x="637" d="M403 264 L376 266 L403 264 Z M57 399 L55 276 L68 135 L65 3 L72 -13 L94 -23 L110 -16 L119 -9 L127 100 L124 162 L119 201 L122 232 L145 230 L213 217 L506 194 L530 200 L576 204 L585 212 L587 242 L580 258 L527 262 L503 256 L376 266 L170 289 L142 300 L135 308 L145 330 L194 373 L219 387 L252 415 L276 429 L292 435 L317 456 L333 463 L483 585 L499 591 L533 620 L520 652 L520 659 L512 660 L363 553 L346 539 L330 533 L314 519 L282 505 L257 484 L225 471 L184 436 L168 429 L126 394 L119 394 L113 426 L114 534 L120 713 L113 729 L90 730 L74 724 L65 701 L50 408 L57 399 Z " />
<glyph glyph-name="L" unicode="L" horiz-adv-x="617" d="M307 74 L290 66 L203 70 L174 79 L158 96 L151 147 L146 222 L139 264 L133 315 L128 407 L121 441 L115 508 L117 621 L93 639 L84 639 L59 632 L50 615 L54 452 L62 443 L73 284 L81 275 L85 158 L91 99 L98 74 L106 57 L113 31 L121 14 L137 5 L246 1 L297 7 L447 18 L540 23 L557 31 L565 39 L567 72 L559 81 L450 77 L307 74 Z " />
<glyph glyph-name="M" unicode="M" horiz-adv-x="728" d="M86 -13 L100 -2 L107 12 L106 19 L111 191 L110 284 L118 370 L119 447 L135 441 L136 426 L146 411 L155 389 L201 315 L220 271 L232 260 L257 204 L266 189 L298 177 L329 180 L350 205 L388 301 L394 325 L444 453 L465 478 L480 487 L481 472 L490 457 L511 397 L589 133 L602 72 L612 50 L624 -3 L648 -9 L671 -7 L678 1 L675 32 L663 78 L654 100 L640 168 L584 357 L573 403 L552 463 L542 485 L533 500 L521 545 L503 575 L487 581 L479 580 L465 571 L402 496 L388 471 L381 463 L350 383 L344 359 L312 279 L307 255 L298 262 L271 306 L262 328 L207 417 L197 439 L179 468 L170 491 L133 549 L117 556 L109 563 L87 553 L72 536 L73 529 L63 473 L63 466 L57 364 L62 396 L53 318 L54 225 L53 147 L50 38 L62 -8 L86 -13 Z " />
<glyph glyph-name="N" unicode="N" horiz-adv-x="615" d="M67 6 L93 -3 L101 -3 L118 6 L126 31 L118 39 L118 56 L126 444 L129 452 L135 504 L160 495 L168 470 L177 453 L187 444 L194 428 L207 419 L213 404 L223 395 L228 377 L253 326 L258 312 L270 301 L287 267 L299 257 L307 242 L316 232 L322 216 L331 207 L346 174 L362 163 L371 149 L380 132 L391 122 L396 107 L447 82 L464 82 L481 90 L489 107 L506 318 L532 504 L540 546 L549 630 L557 647 L565 681 L565 715 L557 732 L523 732 L506 715 L498 689 L481 622 L472 546 L439 301 L430 200 L422 183 L405 217 L388 233 L371 267 L363 276 L354 293 L337 309 L304 377 L295 385 L261 453 L253 461 L244 478 L227 495 L219 512 L210 521 L202 537 L194 546 L185 563 L172 574 L160 588 L143 596 L109 596 L92 580 L75 529 L67 495 L58 445 L50 385 L59 22 L67 6 Z " />
<glyph glyph-name="&amp;#xd1;" unicode="&#xd1;" horiz-adv-x="615" d="M67 6 L93 -3 L101 -3 L118 6 L126 31 L118 39 L118 56 L126 444 L129 452 L135 504 L160 495 L168 470 L177 453 L187 444 L194 428 L207 419 L213 404 L223 395 L228 377 L253 326 L258 312 L270 301 L287 267 L299 257 L307 242 L316 232 L322 216 L331 207 L346 174 L362 163 L371 149 L380 132 L391 122 L396 107 L447 82 L464 82 L481 90 L489 107 L506 318 L532 504 L540 546 L549 630 L557 647 L565 681 L565 715 L557 732 L523 732 L506 715 L498 689 L481 622 L472 546 L439 301 L430 200 L422 183 L405 217 L388 233 L371 267 L363 276 L354 293 L337 309 L304 377 L295 385 L261 453 L253 461 L244 478 L227 495 L219 512 L210 521 L202 537 L194 546 L185 563 L172 574 L160 588 L143 596 L109 596 L92 580 L75 529 L67 495 L58 445 L50 385 L59 22 L67 6 Z " />
<glyph glyph-name="O" unicode="O" horiz-adv-x="758" d="M68 158 L95 104 L104 93 L113 77 L128 66 L140 50 L157 38 L171 25 L203 14 L221 5 L257 -4 L302 -13 L402 -13 L429 -4 L465 14 L492 23 L528 41 L537 50 L564 68 L573 77 L600 95 L609 104 L623 122 L627 131 L645 149 L654 168 L670 187 L672 195 L690 231 L699 258 L708 321 L708 411 L690 483 L681 510 L663 546 L645 573 L636 591 L618 600 L609 618 L591 627 L573 645 L546 654 L528 663 L441 680 L420 681 L357 672 L338 663 L293 654 L266 645 L249 631 L239 627 L222 613 L212 609 L131 528 L104 474 L95 465 L68 411 L59 366 L50 330 L59 222 L68 158 Z M294 59 L248 68 L194 95 L185 113 L167 122 L149 158 L140 167 L131 195 L122 231 L122 330 L131 375 L140 402 L158 438 L176 456 L185 483 L258 555 L275 564 L285 573 L330 591 L402 609 L429 609 L448 606 L519 591 L546 582 L555 564 L573 555 L582 537 L593 528 L600 510 L609 492 L621 482 L627 447 L636 411 L636 321 L627 267 L618 240 L609 222 L600 213 L582 186 L573 177 L555 149 L546 140 L528 131 L510 113 L438 77 L411 68 L393 59 L294 59 Z " />
<glyph glyph-name="&amp;#xd2;" unicode="&#xd2;" horiz-adv-x="758" d="M68 158 L95 104 L104 93 L113 77 L128 66 L140 50 L157 38 L171 25 L203 14 L221 5 L257 -4 L302 -13 L402 -13 L429 -4 L465 14 L492 23 L528 41 L537 50 L564 68 L573 77 L600 95 L609 104 L623 122 L627 131 L645 149 L654 168 L670 187 L672 195 L690 231 L699 258 L708 321 L708 411 L690 483 L681 510 L663 546 L645 573 L636 591 L618 600 L609 618 L591 627 L573 645 L546 654 L528 663 L441 680 L420 681 L357 672 L338 663 L293 654 L266 645 L249 631 L239 627 L222 613 L212 609 L131 528 L104 474 L95 465 L68 411 L59 366 L50 330 L59 222 L68 158 Z M294 59 L248 68 L194 95 L185 113 L167 122 L149 158 L140 167 L131 195 L122 231 L122 330 L131 375 L140 402 L158 438 L176 456 L185 483 L258 555 L275 564 L285 573 L330 591 L402 609 L429 609 L448 606 L519 591 L546 582 L555 564 L573 555 L582 537 L593 528 L600 510 L609 492 L621 482 L627 447 L636 411 L636 321 L627 267 L618 240 L609 222 L600 213 L582 186 L573 177 L555 149 L546 140 L528 131 L510 113 L438 77 L411 68 L393 59 L294 59 Z " />
<glyph glyph-name="&amp;#xd3;" unicode="&#xd3;" horiz-adv-x="758" d="M68 158 L95 104 L104 93 L113 77 L128 66 L140 50 L157 38 L171 25 L203 14 L221 5 L257 -4 L302 -13 L402 -13 L429 -4 L465 14 L492 23 L528 41 L537 50 L564 68 L573 77 L600 95 L609 104 L623 122 L627 131 L645 149 L654 168 L670 187 L672 195 L690 231 L699 258 L708 321 L708 411 L690 483 L681 510 L663 546 L645 573 L636 591 L618 600 L609 618 L591 627 L573 645 L546 654 L528 663 L441 680 L420 681 L357 672 L338 663 L293 654 L266 645 L249 631 L239 627 L222 613 L212 609 L131 528 L104 474 L95 465 L68 411 L59 366 L50 330 L59 222 L68 158 Z M294 59 L248 68 L194 95 L185 113 L167 122 L149 158 L140 167 L131 195 L122 231 L122 330 L131 375 L140 402 L158 438 L176 456 L185 483 L258 555 L275 564 L285 573 L330 591 L402 609 L429 609 L448 606 L519 591 L546 582 L555 564 L573 555 L582 537 L593 528 L600 510 L609 492 L621 482 L627 447 L636 411 L636 321 L627 267 L618 240 L609 222 L600 213 L582 186 L573 177 L555 149 L546 140 L528 131 L510 113 L438 77 L411 68 L393 59 L294 59 Z " />
<glyph glyph-name="&amp;#xd4;" unicode="&#xd4;" horiz-adv-x="758" d="M68 158 L95 104 L104 93 L113 77 L128 66 L140 50 L157 38 L171 25 L203 14 L221 5 L257 -4 L302 -13 L402 -13 L429 -4 L465 14 L492 23 L528 41 L537 50 L564 68 L573 77 L600 95 L609 104 L623 122 L627 131 L645 149 L654 168 L670 187 L672 195 L690 231 L699 258 L708 321 L708 411 L690 483 L681 510 L663 546 L645 573 L636 591 L618 600 L609 618 L591 627 L573 645 L546 654 L528 663 L441 680 L420 681 L357 672 L338 663 L293 654 L266 645 L249 631 L239 627 L222 613 L212 609 L131 528 L104 474 L95 465 L68 411 L59 366 L50 330 L59 222 L68 158 Z M294 59 L248 68 L194 95 L185 113 L167 122 L149 158 L140 167 L131 195 L122 231 L122 330 L131 375 L140 402 L158 438 L176 456 L185 483 L258 555 L275 564 L285 573 L330 591 L402 609 L429 609 L448 606 L519 591 L546 582 L555 564 L573 555 L582 537 L593 528 L600 510 L609 492 L621 482 L627 447 L636 411 L636 321 L627 267 L618 240 L609 222 L600 213 L582 186 L573 177 L555 149 L546 140 L528 131 L510 113 L438 77 L411 68 L393 59 L294 59 Z " />
<glyph glyph-name="&amp;#xd5;" unicode="&#xd5;" horiz-adv-x="758" d="M68 158 L95 104 L104 93 L113 77 L128 66 L140 50 L157 38 L171 25 L203 14 L221 5 L257 -4 L302 -13 L402 -13 L429 -4 L465 14 L492 23 L528 41 L537 50 L564 68 L573 77 L600 95 L609 104 L623 122 L627 131 L645 149 L654 168 L670 187 L672 195 L690 231 L699 258 L708 321 L708 411 L690 483 L681 510 L663 546 L645 573 L636 591 L618 600 L609 618 L591 627 L573 645 L546 654 L528 663 L441 680 L420 681 L357 672 L338 663 L293 654 L266 645 L249 631 L239 627 L222 613 L212 609 L131 528 L104 474 L95 465 L68 411 L59 366 L50 330 L59 222 L68 158 Z M294 59 L248 68 L194 95 L185 113 L167 122 L149 158 L140 167 L131 195 L122 231 L122 330 L131 375 L140 402 L158 438 L176 456 L185 483 L258 555 L275 564 L285 573 L330 591 L402 609 L429 609 L448 606 L519 591 L546 582 L555 564 L573 555 L582 537 L593 528 L600 510 L609 492 L621 482 L627 447 L636 411 L636 321 L627 267 L618 240 L609 222 L600 213 L582 186 L573 177 L555 149 L546 140 L528 131 L510 113 L438 77 L411 68 L393 59 L294 59 Z " />
<glyph glyph-name="&amp;#xd6;" unicode="&#xd6;" horiz-adv-x="758" d="M68 158 L95 104 L104 93 L113 77 L128 66 L140 50 L157 38 L171 25 L203 14 L221 5 L257 -4 L302 -13 L402 -13 L429 -4 L465 14 L492 23 L528 41 L537 50 L564 68 L573 77 L600 95 L609 104 L623 122 L627 131 L645 149 L654 168 L670 187 L672 195 L690 231 L699 258 L708 321 L708 411 L690 483 L681 510 L663 546 L645 573 L636 591 L618 600 L609 618 L591 627 L573 645 L546 654 L528 663 L441 680 L420 681 L357 672 L338 663 L293 654 L266 645 L249 631 L239 627 L222 613 L212 609 L131 528 L104 474 L95 465 L68 411 L59 366 L50 330 L59 222 L68 158 Z M294 59 L248 68 L194 95 L185 113 L167 122 L149 158 L140 167 L131 195 L122 231 L122 330 L131 375 L140 402 L158 438 L176 456 L185 483 L258 555 L275 564 L285 573 L330 591 L402 609 L429 609 L448 606 L519 591 L546 582 L555 564 L573 555 L582 537 L593 528 L600 510 L609 492 L621 482 L627 447 L636 411 L636 321 L627 267 L618 240 L609 222 L600 213 L582 186 L573 177 L555 149 L546 140 L528 131 L510 113 L438 77 L411 68 L393 59 L294 59 Z " />
<glyph glyph-name="&amp;#xd8;" unicode="&#xd8;" horiz-adv-x="758" d="M68 158 L95 104 L104 93 L113 77 L128 66 L140 50 L157 38 L171 25 L203 14 L221 5 L257 -4 L302 -13 L402 -13 L429 -4 L465 14 L492 23 L528 41 L537 50 L564 68 L573 77 L600 95 L609 104 L623 122 L627 131 L645 149 L654 168 L670 187 L672 195 L690 231 L699 258 L708 321 L708 411 L690 483 L681 510 L663 546 L645 573 L636 591 L618 600 L609 618 L591 627 L573 645 L546 654 L528 663 L441 680 L420 681 L357 672 L338 663 L293 654 L266 645 L249 631 L239 627 L222 613 L212 609 L131 528 L104 474 L95 465 L68 411 L59 366 L50 330 L59 222 L68 158 Z M294 59 L248 68 L194 95 L185 113 L167 122 L149 158 L140 167 L131 195 L122 231 L122 330 L131 375 L140 402 L158 438 L176 456 L185 483 L258 555 L275 564 L285 573 L330 591 L402 609 L429 609 L448 606 L519 591 L546 582 L555 564 L573 555 L582 537 L593 528 L600 510 L609 492 L621 482 L627 447 L636 411 L636 321 L627 267 L618 240 L609 222 L600 213 L582 186 L573 177 L555 149 L546 140 L528 131 L510 113 L438 77 L411 68 L393 59 L294 59 Z " />
<glyph glyph-name="P" unicode="P" horiz-adv-x="455" d="M104 -5 L135 -13 L150 -5 L158 18 L150 42 L143 80 L135 188 L127 281 L127 327 L173 350 L197 358 L227 366 L274 389 L297 397 L305 404 L328 420 L336 427 L359 443 L382 466 L382 474 L397 489 L397 497 L405 520 L405 597 L397 613 L382 628 L374 644 L359 651 L336 659 L305 675 L266 682 L235 690 L119 690 L96 682 L81 675 L65 659 L50 651 L58 505 L66 435 L66 374 L74 328 L72 321 L73 319 L81 157 L89 150 L96 42 L104 -5 Z M120 505 L112 512 L112 528 L120 628 L127 628 L166 636 L189 628 L235 628 L274 621 L297 613 L313 605 L336 597 L343 574 L359 567 L343 528 L328 497 L305 474 L274 458 L259 443 L228 435 L197 420 L166 412 L143 404 L127 404 L120 505 Z " />
<glyph glyph-name="Q" unicode="Q" horiz-adv-x="681" d="M51 276 L63 243 L67 220 L78 209 L87 186 L98 174 L107 160 L117 149 L126 127 L154 100 L168 89 L182 73 L227 60 L264 47 L318 41 L381 48 L389 55 L438 72 L455 86 L477 75 L483 59 L498 49 L508 40 L518 24 L538 -2 L554 -14 L566 -29 L588 -39 L618 -43 L627 -37 L631 -6 L625 10 L599 28 L563 73 L548 82 L542 91 L527 100 L521 117 L515 125 L516 133 L535 162 L548 207 L559 299 L557 338 L552 362 L540 394 L528 419 L516 452 L503 469 L497 485 L477 511 L448 530 L435 547 L406 567 L369 579 L347 589 L332 599 L295 611 L249 617 L225 612 L160 589 L134 569 L116 548 L107 541 L89 520 L80 506 L68 476 L59 462 L50 331 L51 276 Z M347 528 L383 507 L412 488 L418 472 L436 460 L445 445 L456 435 L465 411 L475 402 L479 370 L489 354 L498 344 L503 282 L498 244 L485 199 L474 177 L467 178 L450 201 L431 206 L417 185 L417 130 L414 130 L405 123 L357 106 L325 102 L264 110 L227 122 L212 132 L199 149 L184 158 L157 193 L152 209 L137 219 L132 235 L125 244 L108 292 L104 324 L101 363 L109 432 L119 447 L129 469 L148 497 L166 511 L175 525 L193 538 L225 550 L249 555 L272 552 L347 528 Z " />
<glyph glyph-name="R" unicode="R" horiz-adv-x="560" d="M57 568 L61 527 L68 429 L74 323 L87 200 L93 60 L99 35 L105 18 L120 8 L153 5 L162 13 L165 45 L158 62 L146 227 L138 309 L140 325 L163 315 L178 305 L202 295 L232 276 L264 265 L287 254 L303 245 L334 234 L373 222 L404 203 L451 182 L466 172 L498 169 L507 177 L510 209 L504 226 L457 246 L426 265 L403 276 L332 299 L317 308 L270 329 L255 339 L231 349 L201 368 L201 376 L252 396 L261 403 L278 409 L313 439 L330 445 L382 489 L392 504 L410 519 L420 542 L425 598 L412 632 L398 645 L390 659 L368 677 L344 687 L250 721 L153 730 L120 725 L96 719 L80 709 L69 697 L50 666 L57 568 Z M125 513 L126 529 L116 595 L118 611 L130 659 L137 668 L147 665 L283 644 L315 633 L345 614 L356 605 L367 588 L361 555 L347 541 L294 497 L277 491 L233 454 L199 441 L174 435 L157 429 L140 414 L132 415 L125 513 Z " />
<glyph glyph-name="S" unicode="S" horiz-adv-x="576" d="M98 39 L115 32 L132 23 L152 16 L166 8 L200 -8 L228 -6 L248 -8 L276 -7 L312 -3 L340 -2 L393 9 L442 27 L485 63 L499 77 L504 89 L522 115 L526 154 L522 190 L494 264 L465 291 L435 312 L420 326 L399 334 L383 344 L363 350 L330 366 L309 373 L257 394 L242 405 L220 415 L204 426 L185 431 L142 471 L126 512 L130 551 L157 580 L178 598 L217 622 L241 631 L278 636 L306 637 L325 635 L340 621 L368 623 L392 632 L397 643 L385 676 L370 690 L351 692 L328 702 L308 704 L297 709 L261 705 L216 697 L192 688 L145 661 L115 640 L88 611 L78 588 L65 574 L58 543 L59 515 L93 424 L108 411 L125 389 L141 383 L163 365 L194 346 L211 337 L230 330 L246 321 L288 309 L307 305 L325 293 L343 288 L356 278 L374 273 L405 255 L445 218 L455 193 L459 157 L457 137 L430 108 L409 90 L367 75 L315 64 L287 63 L251 59 L231 61 L192 77 L174 86 L153 94 L114 120 L100 134 L80 136 L63 129 L50 115 L76 68 L98 39 Z " />
<glyph glyph-name="T" unicode="T" horiz-adv-x="616" d="M59 660 L50 644 L57 618 L65 609 L244 616 L269 615 L280 504 L279 309 L287 300 L288 197 L289 189 L292 70 L300 61 L306 19 L313 1 L357 16 L366 24 L366 32 L360 75 L360 84 L354 135 L349 195 L341 535 L345 611 L439 606 L447 597 L542 603 L566 622 L566 630 L559 647 L559 656 L476 664 L459 664 L77 668 L59 660 Z " />
<glyph glyph-name="U" unicode="U" horiz-adv-x="619" d="M79 254 L88 235 L117 148 L127 129 L141 118 L156 100 L170 89 L182 73 L200 60 L223 29 L243 9 L281 -5 L300 -15 L367 -15 L396 -5 L434 14 L463 43 L511 139 L521 177 L559 408 L569 561 L569 705 L550 725 L530 725 L511 705 L502 600 L492 465 L482 398 L444 168 L405 91 L377 62 L309 62 L290 72 L281 81 L271 101 L257 113 L242 129 L227 141 L213 158 L194 168 L175 206 L156 264 L146 283 L136 321 L127 369 L117 465 L117 686 L98 705 L79 705 L50 676 L69 321 L79 254 Z " />
<glyph glyph-name="&amp;#xd9;" unicode="&#xd9;" horiz-adv-x="619" d="M79 254 L88 235 L117 148 L127 129 L141 118 L156 100 L170 89 L182 73 L200 60 L223 29 L243 9 L281 -5 L300 -15 L367 -15 L396 -5 L434 14 L463 43 L511 139 L521 177 L559 408 L569 561 L569 705 L550 725 L530 725 L511 705 L502 600 L492 465 L482 398 L444 168 L405 91 L377 62 L309 62 L290 72 L281 81 L271 101 L257 113 L242 129 L227 141 L213 158 L194 168 L175 206 L156 264 L146 283 L136 321 L127 369 L117 465 L117 686 L98 705 L79 705 L50 676 L69 321 L79 254 Z " />
<glyph glyph-name="&amp;#xda;" unicode="&#xda;" horiz-adv-x="619" d="M79 254 L88 235 L117 148 L127 129 L141 118 L156 100 L170 89 L182 73 L200 60 L223 29 L243 9 L281 -5 L300 -15 L367 -15 L396 -5 L434 14 L463 43 L511 139 L521 177 L559 408 L569 561 L569 705 L550 725 L530 725 L511 705 L502 600 L492 465 L482 398 L444 168 L405 91 L377 62 L309 62 L290 72 L281 81 L271 101 L257 113 L242 129 L227 141 L213 158 L194 168 L175 206 L156 264 L146 283 L136 321 L127 369 L117 465 L117 686 L98 705 L79 705 L50 676 L69 321 L79 254 Z " />
<glyph glyph-name="&amp;#xdb;" unicode="&#xdb;" horiz-adv-x="619" d="M79 254 L88 235 L117 148 L127 129 L141 118 L156 100 L170 89 L182 73 L200 60 L223 29 L243 9 L281 -5 L300 -15 L367 -15 L396 -5 L434 14 L463 43 L511 139 L521 177 L559 408 L569 561 L569 705 L550 725 L530 725 L511 705 L502 600 L492 465 L482 398 L444 168 L405 91 L377 62 L309 62 L290 72 L281 81 L271 101 L257 113 L242 129 L227 141 L213 158 L194 168 L175 206 L156 264 L146 283 L136 321 L127 369 L117 465 L117 686 L98 705 L79 705 L50 676 L69 321 L79 254 Z " />
<glyph glyph-name="&amp;#xdc;" unicode="&#xdc;" horiz-adv-x="619" d="M79 254 L88 235 L117 148 L127 129 L141 118 L156 100 L170 89 L182 73 L200 60 L223 29 L243 9 L281 -5 L300 -15 L367 -15 L396 -5 L434 14 L463 43 L511 139 L521 177 L559 408 L569 561 L569 705 L550 725 L530 725 L511 705 L502 600 L492 465 L482 398 L444 168 L405 91 L377 62 L309 62 L290 72 L281 81 L271 101 L257 113 L242 129 L227 141 L213 158 L194 168 L175 206 L156 264 L146 283 L136 321 L127 369 L117 465 L117 686 L98 705 L79 705 L50 676 L69 321 L79 254 Z " />
<glyph glyph-name="V" unicode="V" horiz-adv-x="626" d="M69 465 L78 438 L87 401 L114 320 L132 283 L150 229 L159 211 L168 183 L177 165 L186 138 L242 26 L259 11 L295 -7 L322 -7 L341 2 L395 56 L395 65 L422 120 L458 229 L468 265 L485 320 L494 338 L530 447 L539 483 L549 538 L576 619 L567 637 L539 637 L522 635 L503 619 L485 565 L476 529 L467 474 L431 365 L422 347 L394 265 L385 229 L358 147 L331 93 L322 84 L311 64 L295 84 L286 102 L277 111 L258 147 L249 174 L240 193 L231 220 L222 238 L204 292 L177 347 L159 401 L141 474 L132 492 L123 519 L114 556 L104 610 L95 628 L68 628 L50 610 L60 510 L69 465 Z " />
<glyph glyph-name="W" unicode="W" horiz-adv-x="846" d="M62 385 L68 353 L75 338 L82 314 L88 283 L101 236 L107 189 L114 173 L120 150 L126 119 L132 80 L160 17 L172 7 L182 -15 L220 -17 L244 -3 L253 12 L269 27 L269 35 L278 50 L287 72 L295 88 L304 110 L312 125 L374 285 L391 315 L407 322 L414 306 L429 298 L435 266 L470 187 L478 179 L505 116 L515 103 L527 84 L549 60 L555 43 L570 28 L586 20 L608 -5 L630 -13 L669 -15 L685 -8 L702 22 L711 68 L723 152 L737 267 L746 313 L755 336 L774 413 L785 474 L795 512 L796 551 L789 566 L766 567 L751 560 L733 515 L732 507 L703 370 L694 339 L685 316 L674 247 L647 45 L626 64 L611 73 L597 104 L568 136 L561 152 L546 168 L518 231 L511 240 L463 350 L453 363 L441 374 L419 399 L388 400 L372 393 L355 371 L347 356 L339 348 L313 288 L304 273 L242 113 L234 98 L225 75 L217 60 L209 68 L195 92 L188 108 L182 147 L176 178 L169 194 L163 233 L157 264 L150 280 L137 342 L130 358 L124 382 L118 413 L112 562 L98 593 L75 594 L59 587 L50 565 L56 431 L62 385 Z " />
<glyph glyph-name="X" unicode="X" horiz-adv-x="651" d="M99 -22 L115 -15 L122 -7 L162 70 L177 140 L185 156 L201 171 L209 194 L224 209 L224 217 L240 232 L240 240 L255 255 L256 263 L271 278 L271 286 L287 301 L294 301 L310 273 L325 255 L340 227 L355 216 L363 203 L378 192 L386 180 L401 169 L409 157 L424 146 L432 133 L447 115 L478 63 L493 52 L523 6 L539 -2 L546 -17 L562 -25 L593 -26 L600 -18 L601 13 L593 28 L578 36 L570 52 L555 67 L540 98 L524 106 L517 122 L501 145 L494 160 L479 176 L471 192 L463 202 L448 215 L440 225 L425 238 L417 249 L402 262 L387 269 L379 285 L372 293 L364 308 L349 324 L341 339 L326 347 L326 355 L341 386 L357 401 L365 416 L381 432 L388 455 L404 485 L420 501 L420 509 L428 524 L443 539 L443 547 L451 562 L467 578 L467 585 L482 601 L482 608 L506 631 L506 670 L491 685 L483 685 L460 678 L444 663 L429 632 L421 624 L413 609 L405 601 L397 586 L389 578 L374 547 L366 540 L327 463 L319 455 L311 440 L303 432 L288 409 L280 394 L256 445 L242 448 L243 460 L226 471 L218 492 L213 499 L196 510 L188 531 L182 538 L165 549 L157 570 L142 572 L135 588 L127 596 L119 611 L97 635 L81 635 L58 627 L50 612 L57 581 L80 557 L88 542 L95 534 L111 511 L118 503 L134 480 L157 456 L164 441 L194 410 L210 387 L226 379 L241 348 L241 340 L233 332 L217 309 L209 302 L194 279 L186 263 L178 256 L162 233 L155 217 L147 210 L131 179 L123 171 L108 148 L81 83 L75 47 L71 35 L72 -8 L99 -22 Z " />
<glyph glyph-name="Y" unicode="Y" horiz-adv-x="625" d="M72 650 L87 619 L96 611 L109 596 L121 591 L143 567 L154 548 L177 524 L189 519 L245 461 L268 452 L275 429 L298 421 L305 390 L310 312 L310 19 L318 3 L325 -5 L364 10 L372 17 L372 311 L366 388 L368 442 L407 480 L415 495 L439 510 L558 622 L574 653 L575 684 L544 692 L528 685 L513 670 L504 655 L402 557 L386 550 L362 527 L354 512 L323 482 L315 490 L300 498 L292 506 L284 517 L270 530 L261 541 L247 553 L232 561 L216 581 L202 593 L187 609 L180 625 L164 633 L149 648 L141 660 L127 672 L112 704 L97 712 L66 712 L50 690 L57 659 L72 650 Z " />
<glyph glyph-name="&amp;#xdd;" unicode="&#xdd;" horiz-adv-x="625" d="M72 650 L87 619 L96 611 L109 596 L121 591 L143 567 L154 548 L177 524 L189 519 L245 461 L268 452 L275 429 L298 421 L305 390 L310 312 L310 19 L318 3 L325 -5 L364 10 L372 17 L372 311 L366 388 L368 442 L407 480 L415 495 L439 510 L558 622 L574 653 L575 684 L544 692 L528 685 L513 670 L504 655 L402 557 L386 550 L362 527 L354 512 L323 482 L315 490 L300 498 L292 506 L284 517 L270 530 L261 541 L247 553 L232 561 L216 581 L202 593 L187 609 L180 625 L164 633 L149 648 L141 660 L127 672 L112 704 L97 712 L66 712 L50 690 L57 659 L72 650 Z " />
<glyph glyph-name="Z" unicode="Z" horiz-adv-x="563" d="M398 579 L389 560 L379 551 L361 515 L325 478 L315 460 L306 451 L288 423 L279 414 L260 387 L196 323 L178 295 L169 277 L114 222 L105 204 L96 194 L77 167 L68 149 L59 121 L50 103 L59 66 L96 48 L141 48 L224 57 L382 57 L504 66 L513 75 L513 112 L504 121 L132 121 L138 128 L160 167 L215 222 L224 240 L242 258 L251 277 L324 350 L343 377 L352 396 L370 414 L391 438 L398 451 L422 476 L439 503 L461 542 L461 551 L480 569 L477 578 L481 622 L480 643 L461 661 L443 670 L379 679 L297 688 L77 688 L59 661 L59 643 L68 624 L96 615 L114 624 L123 624 L343 615 L416 606 L398 579 Z " />
<glyph glyph-name="bracketleft" unicode="&#x5b;" horiz-adv-x="307" d="M250 10 L184 15 L122 24 L118 48 L112 166 L112 213 L110 252 L112 322 L134 467 L150 472 L182 476 L244 474 L253 481 L256 504 L251 520 L167 532 L103 526 L81 522 L77 507 L54 245 L50 167 L54 89 L57 57 L58 10 L62 -14 L69 -33 L82 -40 L121 -38 L206 -43 L236 -48 L253 -43 L257 -12 L250 10 Z " />
<glyph glyph-name="backslash" unicode="&#x5c;" horiz-adv-x="389" d="M334 -23 L323 -1 L312 32 L301 54 L274 136 L263 158 L240 225 L236 250 L219 300 L208 321 L203 338 L192 360 L186 376 L183 393 L174 412 L170 436 L132 551 L121 572 L115 589 L115 611 L75 623 L67 620 L50 600 L66 551 L77 529 L110 431 L121 387 L137 338 L148 316 L154 300 L165 278 L186 212 L186 201 L214 119 L225 98 L247 32 L257 10 L268 -23 L279 -44 L285 -61 L317 -83 L336 -71 L339 -58 L338 -38 L334 -23 Z " />
<glyph glyph-name="bracketright" unicode="&#x5d;" horiz-adv-x="307" d="M230 507 L227 522 L204 526 L141 532 L57 520 L51 504 L55 481 L63 474 L126 476 L157 472 L174 467 L195 322 L198 252 L196 213 L195 166 L189 48 L185 24 L124 15 L57 10 L50 -12 L55 -43 L71 -48 L101 -43 L186 -38 L226 -40 L238 -33 L245 -14 L249 10 L250 57 L253 89 L257 167 L253 245 L230 507 Z " />
<glyph glyph-name="asciicircum" unicode="&#x5e;" horiz-adv-x="447" d="M382 325 L372 338 L343 371 L336 386 L320 402 L312 417 L303 428 L282 448 L272 462 L228 464 L212 456 L166 410 L127 379 L50 301 L58 255 L81 247 L96 255 L104 263 L112 278 L158 325 L181 340 L244 401 L258 386 L266 371 L274 361 L282 348 L305 317 L328 294 L341 283 L351 271 L374 263 L397 286 L390 309 L382 325 Z " />
<glyph glyph-name="underscore" unicode="&#x5f;" horiz-adv-x="787" d="M706 -15 L575 -15 L559 -23 L104 -7 L89 -7 L58 -15 L58 -23 L50 -30 L58 -61 L65 -69 L614 -69 L729 -54 L737 -30 L729 -23 L706 -15 Z " />
<glyph glyph-name="a" unicode="a" horiz-adv-x="628" d="M65 262 L73 223 L119 131 L132 119 L154 83 L166 77 L198 44 L227 22 L251 -1 L343 -1 L351 7 L374 22 L397 46 L401 58 L413 69 L428 100 L444 115 L444 131 L451 161 L482 254 L490 192 L505 100 L513 61 L516 53 L529 39 L536 23 L544 16 L568 20 L578 40 L578 50 L567 92 L552 185 L544 285 L536 331 L529 408 L513 509 L505 524 L482 532 L467 540 L444 555 L397 571 L251 571 L220 563 L197 555 L181 547 L166 532 L150 524 L104 478 L89 455 L81 447 L58 401 L50 362 L58 269 L65 262 Z M297 53 L282 61 L271 70 L252 81 L243 92 L181 154 L174 169 L166 177 L158 192 L150 200 L127 246 L120 269 L112 308 L112 370 L120 393 L127 408 L143 424 L150 439 L197 486 L228 501 L251 509 L282 517 L374 517 L397 509 L413 501 L436 493 L451 486 L444 362 L436 323 L428 277 L382 138 L367 107 L359 100 L343 77 L320 53 L297 53 Z " />
<glyph glyph-name="&amp;#xe0;" unicode="&#xe0;" horiz-adv-x="628" d="M65 262 L73 223 L119 131 L132 119 L154 83 L166 77 L198 44 L227 22 L251 -1 L343 -1 L351 7 L374 22 L397 46 L401 58 L413 69 L428 100 L444 115 L444 131 L451 161 L482 254 L490 192 L505 100 L513 61 L516 53 L529 39 L536 23 L544 16 L568 20 L578 40 L578 50 L567 92 L552 185 L544 285 L536 331 L529 408 L513 509 L505 524 L482 532 L467 540 L444 555 L397 571 L251 571 L220 563 L197 555 L181 547 L166 532 L150 524 L104 478 L89 455 L81 447 L58 401 L50 362 L58 269 L65 262 Z M297 53 L282 61 L271 70 L252 81 L243 92 L181 154 L174 169 L166 177 L158 192 L150 200 L127 246 L120 269 L112 308 L112 370 L120 393 L127 408 L143 424 L150 439 L197 486 L228 501 L251 509 L282 517 L374 517 L397 509 L413 501 L436 493 L451 486 L444 362 L436 323 L428 277 L382 138 L367 107 L359 100 L343 77 L320 53 L297 53 Z " />
<glyph glyph-name="&amp;#xe1;" unicode="&#xe1;" horiz-adv-x="628" d="M65 262 L73 223 L119 131 L132 119 L154 83 L166 77 L198 44 L227 22 L251 -1 L343 -1 L351 7 L374 22 L397 46 L401 58 L413 69 L428 100 L444 115 L444 131 L451 161 L482 254 L490 192 L505 100 L513 61 L516 53 L529 39 L536 23 L544 16 L568 20 L578 40 L578 50 L567 92 L552 185 L544 285 L536 331 L529 408 L513 509 L505 524 L482 532 L467 540 L444 555 L397 571 L251 571 L220 563 L197 555 L181 547 L166 532 L150 524 L104 478 L89 455 L81 447 L58 401 L50 362 L58 269 L65 262 Z M297 53 L282 61 L271 70 L252 81 L243 92 L181 154 L174 169 L166 177 L158 192 L150 200 L127 246 L120 269 L112 308 L112 370 L120 393 L127 408 L143 424 L150 439 L197 486 L228 501 L251 509 L282 517 L374 517 L397 509 L413 501 L436 493 L451 486 L444 362 L436 323 L428 277 L382 138 L367 107 L359 100 L343 77 L320 53 L297 53 Z " />
<glyph glyph-name="&amp;#xe2;" unicode="&#xe2;" horiz-adv-x="628" d="M65 262 L73 223 L119 131 L132 119 L154 83 L166 77 L198 44 L227 22 L251 -1 L343 -1 L351 7 L374 22 L397 46 L401 58 L413 69 L428 100 L444 115 L444 131 L451 161 L482 254 L490 192 L505 100 L513 61 L516 53 L529 39 L536 23 L544 16 L568 20 L578 40 L578 50 L567 92 L552 185 L544 285 L536 331 L529 408 L513 509 L505 524 L482 532 L467 540 L444 555 L397 571 L251 571 L220 563 L197 555 L181 547 L166 532 L150 524 L104 478 L89 455 L81 447 L58 401 L50 362 L58 269 L65 262 Z M297 53 L282 61 L271 70 L252 81 L243 92 L181 154 L174 169 L166 177 L158 192 L150 200 L127 246 L120 269 L112 308 L112 370 L120 393 L127 408 L143 424 L150 439 L197 486 L228 501 L251 509 L282 517 L374 517 L397 509 L413 501 L436 493 L451 486 L444 362 L436 323 L428 277 L382 138 L367 107 L359 100 L343 77 L320 53 L297 53 Z " />
<glyph glyph-name="&amp;#xe3;" unicode="&#xe3;" horiz-adv-x="628" d="M65 262 L73 223 L119 131 L132 119 L154 83 L166 77 L198 44 L227 22 L251 -1 L343 -1 L351 7 L374 22 L397 46 L401 58 L413 69 L428 100 L444 115 L444 131 L451 161 L482 254 L490 192 L505 100 L513 61 L516 53 L529 39 L536 23 L544 16 L568 20 L578 40 L578 50 L567 92 L552 185 L544 285 L536 331 L529 408 L513 509 L505 524 L482 532 L467 540 L444 555 L397 571 L251 571 L220 563 L197 555 L181 547 L166 532 L150 524 L104 478 L89 455 L81 447 L58 401 L50 362 L58 269 L65 262 Z M297 53 L282 61 L271 70 L252 81 L243 92 L181 154 L174 169 L166 177 L158 192 L150 200 L127 246 L120 269 L112 308 L112 370 L120 393 L127 408 L143 424 L150 439 L197 486 L228 501 L251 509 L282 517 L374 517 L397 509 L413 501 L436 493 L451 486 L444 362 L436 323 L428 277 L382 138 L367 107 L359 100 L343 77 L320 53 L297 53 Z " />
<glyph glyph-name="&amp;#xe4;" unicode="&#xe4;" horiz-adv-x="628" d="M65 262 L73 223 L119 131 L132 119 L154 83 L166 77 L198 44 L227 22 L251 -1 L343 -1 L351 7 L374 22 L397 46 L401 58 L413 69 L428 100 L444 115 L444 131 L451 161 L482 254 L490 192 L505 100 L513 61 L516 53 L529 39 L536 23 L544 16 L568 20 L578 40 L578 50 L567 92 L552 185 L544 285 L536 331 L529 408 L513 509 L505 524 L482 532 L467 540 L444 555 L397 571 L251 571 L220 563 L197 555 L181 547 L166 532 L150 524 L104 478 L89 455 L81 447 L58 401 L50 362 L58 269 L65 262 Z M297 53 L282 61 L271 70 L252 81 L243 92 L181 154 L174 169 L166 177 L158 192 L150 200 L127 246 L120 269 L112 308 L112 370 L120 393 L127 408 L143 424 L150 439 L197 486 L228 501 L251 509 L282 517 L374 517 L397 509 L413 501 L436 493 L451 486 L444 362 L436 323 L428 277 L382 138 L367 107 L359 100 L343 77 L320 53 L297 53 Z " />
<glyph glyph-name="&amp;#xe5;" unicode="&#xe5;" horiz-adv-x="628" d="M65 262 L73 223 L119 131 L132 119 L154 83 L166 77 L198 44 L227 22 L251 -1 L343 -1 L351 7 L374 22 L397 46 L401 58 L413 69 L428 100 L444 115 L444 131 L451 161 L482 254 L490 192 L505 100 L513 61 L516 53 L529 39 L536 23 L544 16 L568 20 L578 40 L578 50 L567 92 L552 185 L544 285 L536 331 L529 408 L513 509 L505 524 L482 532 L467 540 L444 555 L397 571 L251 571 L220 563 L197 555 L181 547 L166 532 L150 524 L104 478 L89 455 L81 447 L58 401 L50 362 L58 269 L65 262 Z M297 53 L282 61 L271 70 L252 81 L243 92 L181 154 L174 169 L166 177 L158 192 L150 200 L127 246 L120 269 L112 308 L112 370 L120 393 L127 408 L143 424 L150 439 L197 486 L228 501 L251 509 L282 517 L374 517 L397 509 L413 501 L436 493 L451 486 L444 362 L436 323 L428 277 L382 138 L367 107 L359 100 L343 77 L320 53 L297 53 Z " />
<glyph glyph-name="b" unicode="b" horiz-adv-x="548" d="M490 402 L490 409 L475 448 L398 525 L367 541 L336 548 L236 548 L205 541 L158 525 L158 672 L151 805 L151 813 L112 820 L104 805 L97 680 L73 448 L81 317 L81 263 L73 131 L65 70 L58 39 L58 31 L50 8 L50 0 L58 -8 L96 -23 L104 -15 L112 0 L120 23 L135 108 L143 85 L158 77 L166 70 L181 62 L189 54 L220 39 L297 39 L374 77 L398 85 L412 94 L425 105 L433 120 L444 131 L450 144 L459 155 L475 186 L482 216 L498 378 L490 402 Z M305 494 L336 487 L359 479 L421 417 L429 402 L436 379 L436 263 L429 232 L405 186 L388 167 L375 155 L367 139 L274 93 L251 93 L228 101 L212 108 L189 131 L181 155 L174 170 L158 216 L151 247 L143 456 L158 463 L228 487 L266 494 L305 494 Z " />
<glyph glyph-name="c" unicode="c" horiz-adv-x="526" d="M50 267 L51 250 L56 234 L57 223 L66 197 L74 182 L79 167 L87 152 L165 96 L265 56 L297 52 L321 51 L355 53 L426 83 L451 106 L471 115 L476 146 L467 167 L453 172 L436 171 L397 136 L337 111 L320 109 L288 114 L180 157 L162 172 L127 211 L113 249 L109 268 L113 300 L166 412 L160 397 L179 423 L205 446 L255 468 L272 469 L282 473 L317 476 L341 475 L420 443 L435 453 L442 477 L435 503 L364 532 L339 533 L308 538 L291 536 L271 528 L236 525 L176 499 L112 442 L90 409 L51 291 L50 267 Z " />
<glyph glyph-name="&amp;#xe7;" unicode="&#xe7;" horiz-adv-x="526" d="M50 267 L51 250 L56 234 L57 223 L66 197 L74 182 L79 167 L87 152 L165 96 L265 56 L297 52 L321 51 L355 53 L426 83 L451 106 L471 115 L476 146 L467 167 L453 172 L436 171 L397 136 L337 111 L320 109 L288 114 L180 157 L162 172 L127 211 L113 249 L109 268 L113 300 L166 412 L160 397 L179 423 L205 446 L255 468 L272 469 L282 473 L317 476 L341 475 L420 443 L435 453 L442 477 L435 503 L364 532 L339 533 L308 538 L291 536 L271 528 L236 525 L176 499 L112 442 L90 409 L51 291 L50 267 Z " />
<glyph glyph-name="d" unicode="d" horiz-adv-x="548" d="M73 186 L88 155 L98 144 L104 131 L115 121 L123 105 L150 85 L173 77 L251 39 L328 39 L359 54 L366 62 L382 70 L390 77 L405 85 L413 108 L428 23 L436 0 L444 -15 L451 -23 L490 -8 L498 0 L498 8 L490 31 L490 39 L482 70 L475 131 L467 263 L467 317 L475 448 L451 680 L444 805 L436 820 L397 813 L397 805 L390 672 L390 525 L343 541 L313 548 L212 548 L181 541 L150 525 L73 448 L58 409 L58 402 L50 379 L65 216 L73 186 Z M320 487 L390 463 L405 456 L397 247 L390 216 L374 170 L367 154 L359 131 L336 108 L320 100 L297 93 L274 93 L181 139 L173 155 L143 185 L119 232 L112 263 L112 378 L119 402 L127 417 L189 479 L212 487 L243 494 L282 494 L320 487 Z " />
<glyph glyph-name="e" unicode="e" horiz-adv-x="486" d="M420 87 L403 74 L372 70 L339 58 L232 70 L210 80 L166 108 L139 143 L133 159 L126 167 L121 191 L115 208 L110 231 L116 277 L131 276 L153 265 L183 254 L206 252 L301 264 L333 276 L342 283 L366 296 L375 302 L384 317 L401 331 L402 338 L412 360 L421 437 L417 469 L412 492 L394 541 L374 567 L359 576 L352 585 L307 598 L277 601 L230 599 L181 581 L164 567 L148 561 L130 540 L102 497 L91 467 L74 438 L63 426 L59 415 L52 388 L54 349 L50 246 L53 207 L59 191 L69 143 L75 127 L88 112 L95 93 L118 68 L129 61 L139 52 L152 48 L195 20 L217 10 L340 -4 L364 1 L396 13 L420 18 L436 24 L434 48 L434 56 L430 80 L427 83 L420 87 Z M189 510 L189 518 L214 530 L230 536 L277 539 L308 535 L330 525 L340 514 L357 491 L360 444 L362 437 L343 360 L342 353 L325 339 L276 321 L213 313 L182 316 L160 327 L146 336 L125 362 L140 422 L149 437 L162 482 L171 496 L189 510 Z " />
<glyph glyph-name="&amp;#xe8;" unicode="&#xe8;" horiz-adv-x="486" d="M420 87 L403 74 L372 70 L339 58 L232 70 L210 80 L166 108 L139 143 L133 159 L126 167 L121 191 L115 208 L110 231 L116 277 L131 276 L153 265 L183 254 L206 252 L301 264 L333 276 L342 283 L366 296 L375 302 L384 317 L401 331 L402 338 L412 360 L421 437 L417 469 L412 492 L394 541 L374 567 L359 576 L352 585 L307 598 L277 601 L230 599 L181 581 L164 567 L148 561 L130 540 L102 497 L91 467 L74 438 L63 426 L59 415 L52 388 L54 349 L50 246 L53 207 L59 191 L69 143 L75 127 L88 112 L95 93 L118 68 L129 61 L139 52 L152 48 L195 20 L217 10 L340 -4 L364 1 L396 13 L420 18 L436 24 L434 48 L434 56 L430 80 L427 83 L420 87 Z M189 510 L189 518 L214 530 L230 536 L277 539 L308 535 L330 525 L340 514 L357 491 L360 444 L362 437 L343 360 L342 353 L325 339 L276 321 L213 313 L182 316 L160 327 L146 336 L125 362 L140 422 L149 437 L162 482 L171 496 L189 510 Z " />
<glyph glyph-name="&amp;#xe9;" unicode="&#xe9;" horiz-adv-x="486" d="M420 87 L403 74 L372 70 L339 58 L232 70 L210 80 L166 108 L139 143 L133 159 L126 167 L121 191 L115 208 L110 231 L116 277 L131 276 L153 265 L183 254 L206 252 L301 264 L333 276 L342 283 L366 296 L375 302 L384 317 L401 331 L402 338 L412 360 L421 437 L417 469 L412 492 L394 541 L374 567 L359 576 L352 585 L307 598 L277 601 L230 599 L181 581 L164 567 L148 561 L130 540 L102 497 L91 467 L74 438 L63 426 L59 415 L52 388 L54 349 L50 246 L53 207 L59 191 L69 143 L75 127 L88 112 L95 93 L118 68 L129 61 L139 52 L152 48 L195 20 L217 10 L340 -4 L364 1 L396 13 L420 18 L436 24 L434 48 L434 56 L430 80 L427 83 L420 87 Z M189 510 L189 518 L214 530 L230 536 L277 539 L308 535 L330 525 L340 514 L357 491 L360 444 L362 437 L343 360 L342 353 L325 339 L276 321 L213 313 L182 316 L160 327 L146 336 L125 362 L140 422 L149 437 L162 482 L171 496 L189 510 Z " />
<glyph glyph-name="&amp;#xea;" unicode="&#xea;" horiz-adv-x="486" d="M420 87 L403 74 L372 70 L339 58 L232 70 L210 80 L166 108 L139 143 L133 159 L126 167 L121 191 L115 208 L110 231 L116 277 L131 276 L153 265 L183 254 L206 252 L301 264 L333 276 L342 283 L366 296 L375 302 L384 317 L401 331 L402 338 L412 360 L421 437 L417 469 L412 492 L394 541 L374 567 L359 576 L352 585 L307 598 L277 601 L230 599 L181 581 L164 567 L148 561 L130 540 L102 497 L91 467 L74 438 L63 426 L59 415 L52 388 L54 349 L50 246 L53 207 L59 191 L69 143 L75 127 L88 112 L95 93 L118 68 L129 61 L139 52 L152 48 L195 20 L217 10 L340 -4 L364 1 L396 13 L420 18 L436 24 L434 48 L434 56 L430 80 L427 83 L420 87 Z M189 510 L189 518 L214 530 L230 536 L277 539 L308 535 L330 525 L340 514 L357 491 L360 444 L362 437 L343 360 L342 353 L325 339 L276 321 L213 313 L182 316 L160 327 L146 336 L125 362 L140 422 L149 437 L162 482 L171 496 L189 510 Z " />
<glyph glyph-name="&amp;#xeb;" unicode="&#xeb;" horiz-adv-x="486" d="M420 87 L403 74 L372 70 L339 58 L232 70 L210 80 L166 108 L139 143 L133 159 L126 167 L121 191 L115 208 L110 231 L116 277 L131 276 L153 265 L183 254 L206 252 L301 264 L333 276 L342 283 L366 296 L375 302 L384 317 L401 331 L402 338 L412 360 L421 437 L417 469 L412 492 L394 541 L374 567 L359 576 L352 585 L307 598 L277 601 L230 599 L181 581 L164 567 L148 561 L130 540 L102 497 L91 467 L74 438 L63 426 L59 415 L52 388 L54 349 L50 246 L53 207 L59 191 L69 143 L75 127 L88 112 L95 93 L118 68 L129 61 L139 52 L152 48 L195 20 L217 10 L340 -4 L364 1 L396 13 L420 18 L436 24 L434 48 L434 56 L430 80 L427 83 L420 87 Z M189 510 L189 518 L214 530 L230 536 L277 539 L308 535 L330 525 L340 514 L357 491 L360 444 L362 437 L343 360 L342 353 L325 339 L276 321 L213 313 L182 316 L160 327 L146 336 L125 362 L140 422 L149 437 L162 482 L171 496 L189 510 Z " />
<glyph glyph-name="f" unicode="f" horiz-adv-x="421" d="M55 395 L55 349 L71 78 L78 9 L85 -1 L124 -1 L131 7 L140 9 L132 71 L117 341 L117 395 L140 402 L363 402 L371 410 L371 441 L363 457 L356 464 L117 464 L117 557 L132 626 L156 673 L186 704 L264 696 L256 696 L271 665 L295 657 L318 657 L325 665 L325 696 L302 742 L287 750 L279 758 L186 765 L163 758 L148 750 L109 711 L71 634 L63 596 L55 549 L50 456 L53 447 L50 431 L55 395 Z " />
<glyph glyph-name="g" unicode="g" horiz-adv-x="691" d="M53 229 L59 220 L60 188 L65 172 L76 157 L80 129 L90 115 L90 103 L109 88 L116 75 L134 59 L141 46 L167 28 L184 21 L290 0 L306 4 L330 7 L347 11 L356 18 L382 28 L464 82 L466 90 L484 102 L485 109 L496 123 L508 144 L519 158 L531 179 L563 219 L561 173 L535 44 L504 -29 L462 -83 L437 -99 L427 -102 L409 -111 L392 -116 L375 -125 L334 -128 L318 -132 L278 -132 L224 -129 L207 -133 L197 -147 L194 -162 L198 -179 L204 -188 L287 -193 L330 -190 L346 -185 L378 -184 L412 -175 L421 -169 L446 -159 L455 -153 L481 -142 L490 -136 L501 -122 L519 -110 L521 -103 L553 -62 L567 -33 L597 39 L622 160 L628 230 L639 322 L641 369 L636 386 L614 390 L597 386 L585 404 L572 415 L559 433 L505 476 L484 488 L449 511 L436 521 L399 537 L301 557 L277 554 L244 545 L225 533 L209 528 L190 516 L174 512 L154 492 L133 465 L124 459 L92 418 L79 397 L63 353 L56 284 L53 229 Z M176 102 L164 120 L151 130 L146 147 L133 158 L119 208 L113 217 L110 241 L109 273 L125 349 L138 377 L161 412 L179 424 L192 445 L210 457 L211 465 L237 475 L246 481 L272 492 L289 496 L395 475 L416 462 L429 452 L450 439 L532 376 L536 359 L549 346 L548 335 L538 288 L515 253 L472 199 L460 178 L449 164 L437 143 L428 137 L408 117 L344 75 L328 71 L310 59 L204 80 L176 102 Z " />
<glyph glyph-name="h" unicode="h" horiz-adv-x="532" d="M50 605 L50 550 L52 511 L55 479 L57 440 L61 408 L58 338 L64 220 L68 189 L67 80 L68 33 L74 17 L88 7 L119 2 L127 9 L135 62 L142 162 L146 193 L162 245 L175 282 L187 312 L266 370 L282 376 L291 382 L315 387 L368 379 L383 369 L388 353 L396 340 L404 303 L410 287 L418 239 L419 192 L422 160 L418 21 L423 13 L437 3 L467 -1 L476 6 L480 19 L482 144 L480 183 L482 245 L476 262 L468 310 L457 343 L452 367 L447 383 L438 400 L413 419 L407 428 L391 430 L276 439 L259 437 L244 430 L156 363 L137 342 L126 321 L119 329 L119 431 L121 446 L113 502 L110 533 L109 580 L109 635 L107 674 L112 759 L105 768 L66 766 L65 759 L56 752 L50 605 Z " />
<glyph glyph-name="i" unicode="i" horiz-adv-x="179" d="M60 362 L63 323 L65 276 L63 198 L66 167 L67 57 L72 33 L86 24 L92 7 L116 12 L125 19 L129 49 L124 73 L124 190 L121 230 L123 307 L121 354 L118 393 L120 463 L119 518 L113 534 L106 543 L83 546 L67 540 L62 439 L60 362 Z M66 633 L89 625 L112 648 L104 679 L96 694 L73 694 L58 687 L50 663 L58 640 L66 633 Z " />
<glyph glyph-name="&amp;#xec;" unicode="&#xec;" horiz-adv-x="179" d="M60 362 L63 323 L65 276 L63 198 L66 167 L67 57 L72 33 L86 24 L92 7 L116 12 L125 19 L129 49 L124 73 L124 190 L121 230 L123 307 L121 354 L118 393 L120 463 L119 518 L113 534 L106 543 L83 546 L67 540 L62 439 L60 362 Z M66 633 L89 625 L112 648 L104 679 L96 694 L73 694 L58 687 L50 663 L58 640 L66 633 Z " />
<glyph glyph-name="&amp;#xed;" unicode="&#xed;" horiz-adv-x="179" d="M60 362 L63 323 L65 276 L63 198 L66 167 L67 57 L72 33 L86 24 L92 7 L116 12 L125 19 L129 49 L124 73 L124 190 L121 230 L123 307 L121 354 L118 393 L120 463 L119 518 L113 534 L106 543 L83 546 L67 540 L62 439 L60 362 Z M66 633 L89 625 L112 648 L104 679 L96 694 L73 694 L58 687 L50 663 L58 640 L66 633 Z " />
<glyph glyph-name="&amp;#xee;" unicode="&#xee;" horiz-adv-x="179" d="M60 362 L63 323 L65 276 L63 198 L66 167 L67 57 L72 33 L86 24 L92 7 L116 12 L125 19 L129 49 L124 73 L124 190 L121 230 L123 307 L121 354 L118 393 L120 463 L119 518 L113 534 L106 543 L83 546 L67 540 L62 439 L60 362 Z M66 633 L89 625 L112 648 L104 679 L96 694 L73 694 L58 687 L50 663 L58 640 L66 633 Z " />
<glyph glyph-name="&amp;#xef;" unicode="&#xef;" horiz-adv-x="179" d="M60 362 L63 323 L65 276 L63 198 L66 167 L67 57 L72 33 L86 24 L92 7 L116 12 L125 19 L129 49 L124 73 L124 190 L121 230 L123 307 L121 354 L118 393 L120 463 L119 518 L113 534 L106 543 L83 546 L67 540 L62 439 L60 362 Z M66 633 L89 625 L112 648 L104 679 L96 694 L73 694 L58 687 L50 663 L58 640 L66 633 Z " />
<glyph glyph-name="j" unicode="j" horiz-adv-x="424" d="M65 -77 L89 -108 L112 -115 L189 -154 L289 -154 L313 -146 L320 -139 L343 -123 L351 -108 L367 -61 L374 -30 L374 147 L367 209 L351 271 L343 309 L336 371 L328 386 L297 386 L282 379 L274 356 L274 340 L282 309 L289 270 L297 240 L305 216 L312 155 L312 -31 L297 -77 L289 -92 L197 -92 L150 -69 L127 -46 L114 -37 L104 -23 L89 8 L65 8 L50 0 L58 -61 L65 -77 Z M274 479 L297 471 L320 494 L312 525 L305 541 L282 541 L266 533 L258 510 L266 487 L274 479 Z " />
<glyph glyph-name="k" unicode="k" horiz-adv-x="539" d="M53 293 L50 262 L54 211 L52 192 L55 182 L57 75 L61 29 L67 12 L74 4 L110 10 L124 16 L130 23 L117 55 L118 62 L113 94 L114 109 L127 162 L357 135 L473 132 L489 139 L477 179 L469 179 L447 189 L110 234 L126 248 L135 262 L185 305 L201 311 L235 339 L259 352 L268 367 L394 473 L418 486 L406 526 L398 527 L391 535 L359 522 L234 417 L216 395 L200 389 L159 353 L143 347 L126 333 L115 329 L113 365 L107 389 L108 482 L111 605 L97 622 L89 623 L73 616 L65 609 L58 439 L53 293 Z " />
<glyph glyph-name="l" unicode="l" horiz-adv-x="169" d="M62 738 L54 723 L56 584 L50 236 L57 213 L56 82 L58 51 L64 12 L95 3 L119 25 L113 64 L113 79 L112 443 L113 458 L108 729 L78 745 L62 738 Z " />
<glyph glyph-name="m" unicode="m" horiz-adv-x="733" d="M676 16 L683 178 L676 225 L668 317 L660 364 L652 395 L645 410 L629 456 L621 472 L606 479 L598 487 L552 503 L529 503 L482 487 L467 479 L452 464 L436 456 L421 433 L405 402 L397 395 L390 379 L382 379 L336 472 L320 487 L312 503 L297 510 L289 518 L274 526 L258 526 L189 518 L174 510 L150 495 L135 472 L127 464 L112 441 L104 418 L96 402 L81 357 L80 357 L80 343 L74 330 L69 313 L65 304 L61 290 L57 258 L50 47 L66 1 L104 1 L112 9 L120 194 L135 310 L143 348 L166 418 L205 456 L220 464 L258 460 L274 449 L282 439 L297 426 L313 379 L320 364 L328 341 L336 302 L344 256 L344 55 L351 16 L390 16 L393 21 L398 24 L405 55 L413 63 L421 287 L429 310 L430 318 L444 356 L460 372 L467 395 L483 410 L489 419 L506 433 L514 433 L544 440 L575 433 L591 387 L599 372 L606 333 L614 233 L614 1 L620 3 L629 2 L668 2 L676 1 L676 16 Z " />
<glyph glyph-name="n" unicode="n" horiz-adv-x="583" d="M54 174 L50 163 L55 17 L64 3 L87 -3 L110 6 L116 30 L114 45 L117 107 L129 255 L152 350 L167 367 L177 390 L204 438 L228 465 L259 488 L320 487 L327 485 L352 474 L365 455 L377 445 L391 419 L399 407 L404 393 L413 379 L422 356 L445 273 L472 19 L481 4 L505 -1 L512 -1 L527 8 L533 32 L507 270 L484 361 L474 391 L429 465 L412 487 L403 502 L395 509 L386 524 L306 556 L245 551 L222 542 L203 528 L191 517 L176 506 L160 491 L150 474 L139 459 L137 450 L125 434 L123 425 L110 393 L103 385 L90 353 L78 306 L71 287 L72 282 L56 218 L56 209 L54 204 L56 198 L54 174 Z " />
<glyph glyph-name="&amp;#xf1;" unicode="&#xf1;" horiz-adv-x="583" d="M54 174 L50 163 L55 17 L64 3 L87 -3 L110 6 L116 30 L114 45 L117 107 L129 255 L152 350 L167 367 L177 390 L204 438 L228 465 L259 488 L320 487 L327 485 L352 474 L365 455 L377 445 L391 419 L399 407 L404 393 L413 379 L422 356 L445 273 L472 19 L481 4 L505 -1 L512 -1 L527 8 L533 32 L507 270 L484 361 L474 391 L429 465 L412 487 L403 502 L395 509 L386 524 L306 556 L245 551 L222 542 L203 528 L191 517 L176 506 L160 491 L150 474 L139 459 L137 450 L125 434 L123 425 L110 393 L103 385 L90 353 L78 306 L71 287 L72 282 L56 218 L56 209 L54 204 L56 198 L54 174 Z " />
<glyph glyph-name="o" unicode="o" horiz-adv-x="671" d="M65 185 L104 108 L127 85 L139 75 L150 62 L162 52 L173 39 L197 31 L243 8 L274 0 L359 0 L413 8 L428 15 L475 31 L482 39 L505 54 L513 62 L536 77 L552 85 L575 108 L579 115 L583 131 L590 147 L606 162 L606 170 L614 185 L621 216 L621 332 L606 386 L583 432 L567 448 L544 494 L529 502 L521 509 L505 517 L490 533 L480 549 L451 563 L442 566 L429 573 L412 578 L395 579 L368 586 L323 588 L296 582 L228 571 L212 564 L189 556 L166 533 L158 517 L104 463 L96 448 L89 440 L73 409 L58 347 L50 309 L54 271 L65 185 Z M363 527 L415 513 L428 502 L456 487 L479 468 L498 455 L505 440 L529 409 L538 391 L552 378 L559 324 L559 216 L552 193 L544 185 L521 139 L513 131 L498 123 L482 108 L448 89 L390 62 L328 54 L297 54 L251 70 L235 77 L212 93 L197 100 L185 114 L174 123 L162 137 L150 147 L127 193 L112 247 L112 316 L127 378 L135 401 L150 417 L158 432 L204 479 L212 494 L228 510 L274 525 L359 525 L363 527 Z " />
<glyph glyph-name="&amp;#xf2;" unicode="&#xf2;" horiz-adv-x="671" d="M65 185 L104 108 L127 85 L139 75 L150 62 L162 52 L173 39 L197 31 L243 8 L274 0 L359 0 L413 8 L428 15 L475 31 L482 39 L505 54 L513 62 L536 77 L552 85 L575 108 L579 115 L583 131 L590 147 L606 162 L606 170 L614 185 L621 216 L621 332 L606 386 L583 432 L567 448 L544 494 L529 502 L521 509 L505 517 L490 533 L480 549 L451 563 L442 566 L429 573 L412 578 L395 579 L368 586 L323 588 L296 582 L228 571 L212 564 L189 556 L166 533 L158 517 L104 463 L96 448 L89 440 L73 409 L58 347 L50 309 L54 271 L65 185 Z M363 527 L415 513 L428 502 L456 487 L479 468 L498 455 L505 440 L529 409 L538 391 L552 378 L559 324 L559 216 L552 193 L544 185 L521 139 L513 131 L498 123 L482 108 L448 89 L390 62 L328 54 L297 54 L251 70 L235 77 L212 93 L197 100 L185 114 L174 123 L162 137 L150 147 L127 193 L112 247 L112 316 L127 378 L135 401 L150 417 L158 432 L204 479 L212 494 L228 510 L274 525 L359 525 L363 527 Z " />
<glyph glyph-name="&amp;#xf3;" unicode="&#xf3;" horiz-adv-x="671" d="M65 185 L104 108 L127 85 L139 75 L150 62 L162 52 L173 39 L197 31 L243 8 L274 0 L359 0 L413 8 L428 15 L475 31 L482 39 L505 54 L513 62 L536 77 L552 85 L575 108 L579 115 L583 131 L590 147 L606 162 L606 170 L614 185 L621 216 L621 332 L606 386 L583 432 L567 448 L544 494 L529 502 L521 509 L505 517 L490 533 L480 549 L451 563 L442 566 L429 573 L412 578 L395 579 L368 586 L323 588 L296 582 L228 571 L212 564 L189 556 L166 533 L158 517 L104 463 L96 448 L89 440 L73 409 L58 347 L50 309 L54 271 L65 185 Z M363 527 L415 513 L428 502 L456 487 L479 468 L498 455 L505 440 L529 409 L538 391 L552 378 L559 324 L559 216 L552 193 L544 185 L521 139 L513 131 L498 123 L482 108 L448 89 L390 62 L328 54 L297 54 L251 70 L235 77 L212 93 L197 100 L185 114 L174 123 L162 137 L150 147 L127 193 L112 247 L112 316 L127 378 L135 401 L150 417 L158 432 L204 479 L212 494 L228 510 L274 525 L359 525 L363 527 Z " />
<glyph glyph-name="&amp;#xf4;" unicode="&#xf4;" horiz-adv-x="671" d="M65 185 L104 108 L127 85 L139 75 L150 62 L162 52 L173 39 L197 31 L243 8 L274 0 L359 0 L413 8 L428 15 L475 31 L482 39 L505 54 L513 62 L536 77 L552 85 L575 108 L579 115 L583 131 L590 147 L606 162 L606 170 L614 185 L621 216 L621 332 L606 386 L583 432 L567 448 L544 494 L529 502 L521 509 L505 517 L490 533 L480 549 L451 563 L442 566 L429 573 L412 578 L395 579 L368 586 L323 588 L296 582 L228 571 L212 564 L189 556 L166 533 L158 517 L104 463 L96 448 L89 440 L73 409 L58 347 L50 309 L54 271 L65 185 Z M363 527 L415 513 L428 502 L456 487 L479 468 L498 455 L505 440 L529 409 L538 391 L552 378 L559 324 L559 216 L552 193 L544 185 L521 139 L513 131 L498 123 L482 108 L448 89 L390 62 L328 54 L297 54 L251 70 L235 77 L212 93 L197 100 L185 114 L174 123 L162 137 L150 147 L127 193 L112 247 L112 316 L127 378 L135 401 L150 417 L158 432 L204 479 L212 494 L228 510 L274 525 L359 525 L363 527 Z " />
<glyph glyph-name="&amp;#xf5;" unicode="&#xf5;" horiz-adv-x="671" d="M65 185 L104 108 L127 85 L139 75 L150 62 L162 52 L173 39 L197 31 L243 8 L274 0 L359 0 L413 8 L428 15 L475 31 L482 39 L505 54 L513 62 L536 77 L552 85 L575 108 L579 115 L583 131 L590 147 L606 162 L606 170 L614 185 L621 216 L621 332 L606 386 L583 432 L567 448 L544 494 L529 502 L521 509 L505 517 L490 533 L480 549 L451 563 L442 566 L429 573 L412 578 L395 579 L368 586 L323 588 L296 582 L228 571 L212 564 L189 556 L166 533 L158 517 L104 463 L96 448 L89 440 L73 409 L58 347 L50 309 L54 271 L65 185 Z M363 527 L415 513 L428 502 L456 487 L479 468 L498 455 L505 440 L529 409 L538 391 L552 378 L559 324 L559 216 L552 193 L544 185 L521 139 L513 131 L498 123 L482 108 L448 89 L390 62 L328 54 L297 54 L251 70 L235 77 L212 93 L197 100 L185 114 L174 123 L162 137 L150 147 L127 193 L112 247 L112 316 L127 378 L135 401 L150 417 L158 432 L204 479 L212 494 L228 510 L274 525 L359 525 L363 527 Z " />
<glyph glyph-name="&amp;#xf6;" unicode="&#xf6;" horiz-adv-x="671" d="M65 185 L104 108 L127 85 L139 75 L150 62 L162 52 L173 39 L197 31 L243 8 L274 0 L359 0 L413 8 L428 15 L475 31 L482 39 L505 54 L513 62 L536 77 L552 85 L575 108 L579 115 L583 131 L590 147 L606 162 L606 170 L614 185 L621 216 L621 332 L606 386 L583 432 L567 448 L544 494 L529 502 L521 509 L505 517 L490 533 L480 549 L451 563 L442 566 L429 573 L412 578 L395 579 L368 586 L323 588 L296 582 L228 571 L212 564 L189 556 L166 533 L158 517 L104 463 L96 448 L89 440 L73 409 L58 347 L50 309 L54 271 L65 185 Z M363 527 L415 513 L428 502 L456 487 L479 468 L498 455 L505 440 L529 409 L538 391 L552 378 L559 324 L559 216 L552 193 L544 185 L521 139 L513 131 L498 123 L482 108 L448 89 L390 62 L328 54 L297 54 L251 70 L235 77 L212 93 L197 100 L185 114 L174 123 L162 137 L150 147 L127 193 L112 247 L112 316 L127 378 L135 401 L150 417 L158 432 L204 479 L212 494 L228 510 L274 525 L359 525 L363 527 Z " />
<glyph glyph-name="&amp;#xf8;" unicode="&#xf8;" horiz-adv-x="671" d="M65 185 L104 108 L127 85 L139 75 L150 62 L162 52 L173 39 L197 31 L243 8 L274 0 L359 0 L413 8 L428 15 L475 31 L482 39 L505 54 L513 62 L536 77 L552 85 L575 108 L579 115 L583 131 L590 147 L606 162 L606 170 L614 185 L621 216 L621 332 L606 386 L583 432 L567 448 L544 494 L529 502 L521 509 L505 517 L490 533 L480 549 L451 563 L442 566 L429 573 L412 578 L395 579 L368 586 L323 588 L296 582 L228 571 L212 564 L189 556 L166 533 L158 517 L104 463 L96 448 L89 440 L73 409 L58 347 L50 309 L54 271 L65 185 Z M363 527 L415 513 L428 502 L456 487 L479 468 L498 455 L505 440 L529 409 L538 391 L552 378 L559 324 L559 216 L552 193 L544 185 L521 139 L513 131 L498 123 L482 108 L448 89 L390 62 L328 54 L297 54 L251 70 L235 77 L212 93 L197 100 L185 114 L174 123 L162 137 L150 147 L127 193 L112 247 L112 316 L127 378 L135 401 L150 417 L158 432 L204 479 L212 494 L228 510 L274 525 L359 525 L363 527 Z " />
<glyph glyph-name="p" unicode="p" horiz-adv-x="493" d="M59 391 L52 242 L53 211 L56 186 L52 132 L50 85 L50 46 L52 -18 L50 -65 L59 -98 L65 -107 L104 -102 L110 -100 L119 -87 L113 -31 L110 33 L119 67 L147 69 L158 71 L214 75 L223 80 L249 91 L258 97 L284 107 L293 113 L319 123 L355 147 L366 161 L384 173 L427 227 L443 302 L437 351 L433 368 L421 386 L415 403 L406 415 L399 430 L372 451 L366 461 L325 493 L304 505 L183 530 L159 531 L119 530 L104 531 L78 523 L75 514 L64 453 L59 391 Z M115 206 L114 222 L115 267 L114 277 L116 284 L116 324 L118 371 L119 449 L120 457 L170 470 L194 473 L263 459 L305 434 L332 413 L340 399 L357 384 L375 356 L378 332 L382 315 L370 255 L338 214 L328 208 L318 195 L290 177 L274 172 L255 160 L239 156 L220 144 L204 140 L185 128 L146 128 L122 125 L114 127 L115 206 Z " />
<glyph glyph-name="q" unicode="q" horiz-adv-x="551" d="M476 -166 L479 -74 L483 4 L484 143 L490 182 L497 206 L501 268 L496 368 L487 406 L476 467 L468 482 L437 481 L389 502 L381 509 L335 515 L219 509 L196 500 L121 458 L99 434 L92 418 L85 410 L71 386 L57 354 L50 331 L60 265 L68 224 L80 193 L88 178 L138 119 L153 113 L164 106 L188 100 L201 91 L224 84 L240 77 L287 64 L356 67 L410 85 L425 86 L418 -84 L422 -14 L414 -169 L415 -177 L440 -177 L477 -182 L476 -166 Z M369 447 L416 426 L413 171 L376 130 L300 126 L253 137 L237 147 L221 153 L197 168 L165 182 L157 197 L141 211 L132 226 L115 264 L105 302 L105 310 L112 334 L126 365 L140 381 L147 397 L162 413 L222 447 L330 460 L338 453 L369 447 Z " />
<glyph glyph-name="r" unicode="r" horiz-adv-x="432" d="M60 319 L59 269 L53 224 L50 143 L58 50 L65 19 L73 4 L104 4 L119 12 L127 19 L112 143 L112 158 L120 344 L129 373 L135 382 L174 459 L197 483 L220 498 L228 506 L297 514 L328 514 L344 506 L359 506 L374 514 L382 521 L367 552 L359 560 L336 575 L320 575 L220 567 L189 552 L174 537 L158 529 L135 506 L120 483 L81 405 L65 380 L60 319 Z " />
<glyph glyph-name="s" unicode="s" horiz-adv-x="530" d="M86 34 L102 27 L148 11 L179 3 L279 3 L310 11 L349 19 L379 27 L395 34 L403 42 L426 57 L449 81 L453 88 L469 104 L472 122 L480 204 L472 227 L457 258 L441 266 L430 279 L418 289 L387 305 L364 312 L333 328 L279 343 L248 359 L225 374 L202 382 L186 390 L179 405 L163 420 L156 444 L156 467 L171 482 L179 498 L194 513 L210 521 L217 529 L240 536 L248 536 L372 529 L364 529 L395 521 L418 521 L426 529 L426 559 L418 575 L387 590 L364 598 L241 598 L194 583 L179 575 L163 559 L148 552 L125 529 L117 513 L109 505 L102 490 L94 467 L94 444 L102 413 L125 367 L148 343 L256 289 L310 274 L341 258 L364 251 L392 235 L403 220 L418 212 L418 135 L372 89 L364 89 L344 77 L318 73 L287 65 L179 65 L132 81 L117 89 L94 96 L71 96 L50 81 L58 34 L86 34 Z " />
<glyph glyph-name="&amp;#xdf;" unicode="&#xdf;" horiz-adv-x="530" d="M86 34 L102 27 L148 11 L179 3 L279 3 L310 11 L349 19 L379 27 L395 34 L403 42 L426 57 L449 81 L453 88 L469 104 L472 122 L480 204 L472 227 L457 258 L441 266 L430 279 L418 289 L387 305 L364 312 L333 328 L279 343 L248 359 L225 374 L202 382 L186 390 L179 405 L163 420 L156 444 L156 467 L171 482 L179 498 L194 513 L210 521 L217 529 L240 536 L248 536 L372 529 L364 529 L395 521 L418 521 L426 529 L426 559 L418 575 L387 590 L364 598 L241 598 L194 583 L179 575 L163 559 L148 552 L125 529 L117 513 L109 505 L102 490 L94 467 L94 444 L102 413 L125 367 L148 343 L256 289 L310 274 L341 258 L364 251 L392 235 L403 220 L418 212 L418 135 L372 89 L364 89 L344 77 L318 73 L287 65 L179 65 L132 81 L117 89 L94 96 L71 96 L50 81 L58 34 L86 34 Z " />
<glyph glyph-name="t" unicode="t" horiz-adv-x="445" d="M118 96 L125 73 L128 59 L152 29 L180 7 L195 4 L233 11 L264 19 L280 27 L280 58 L272 73 L203 73 L187 81 L172 112 L164 135 L156 166 L141 467 L141 552 L326 552 L349 544 L388 544 L395 552 L380 598 L372 598 L147 620 L133 629 L118 770 L79 762 L79 644 L71 621 L56 613 L73 621 L58 613 L50 598 L58 575 L66 567 L79 559 L97 339 L94 328 L107 158 L118 96 Z " />
<glyph glyph-name="u" unicode="u" horiz-adv-x="525" d="M65 130 L72 101 L81 83 L88 60 L96 45 L107 32 L119 14 L166 -1 L212 -1 L266 14 L297 29 L305 37 L328 51 L343 63 L386 114 L407 158 L420 192 L420 199 L428 230 L436 253 L448 294 L450 312 L460 357 L466 373 L475 446 L467 493 L459 508 L421 508 L405 477 L398 385 L390 323 L382 277 L374 261 L367 223 L359 215 L328 153 L320 145 L313 130 L305 122 L289 114 L274 91 L266 84 L235 68 L204 60 L166 60 L150 76 L127 122 L112 207 L112 477 L104 493 L73 493 L58 470 L50 446 L58 199 L65 130 Z " />
<glyph glyph-name="&amp;#xf9;" unicode="&#xf9;" horiz-adv-x="525" d="M65 130 L72 101 L81 83 L88 60 L96 45 L107 32 L119 14 L166 -1 L212 -1 L266 14 L297 29 L305 37 L328 51 L343 63 L386 114 L407 158 L420 192 L420 199 L428 230 L436 253 L448 294 L450 312 L460 357 L466 373 L475 446 L467 493 L459 508 L421 508 L405 477 L398 385 L390 323 L382 277 L374 261 L367 223 L359 215 L328 153 L320 145 L313 130 L305 122 L289 114 L274 91 L266 84 L235 68 L204 60 L166 60 L150 76 L127 122 L112 207 L112 477 L104 493 L73 493 L58 470 L50 446 L58 199 L65 130 Z " />
<glyph glyph-name="&amp;#xfa;" unicode="&#xfa;" horiz-adv-x="525" d="M65 130 L72 101 L81 83 L88 60 L96 45 L107 32 L119 14 L166 -1 L212 -1 L266 14 L297 29 L305 37 L328 51 L343 63 L386 114 L407 158 L420 192 L420 199 L428 230 L436 253 L448 294 L450 312 L460 357 L466 373 L475 446 L467 493 L459 508 L421 508 L405 477 L398 385 L390 323 L382 277 L374 261 L367 223 L359 215 L328 153 L320 145 L313 130 L305 122 L289 114 L274 91 L266 84 L235 68 L204 60 L166 60 L150 76 L127 122 L112 207 L112 477 L104 493 L73 493 L58 470 L50 446 L58 199 L65 130 Z " />
<glyph glyph-name="&amp;#xfb;" unicode="&#xfb;" horiz-adv-x="525" d="M65 130 L72 101 L81 83 L88 60 L96 45 L107 32 L119 14 L166 -1 L212 -1 L266 14 L297 29 L305 37 L328 51 L343 63 L386 114 L407 158 L420 192 L420 199 L428 230 L436 253 L448 294 L450 312 L460 357 L466 373 L475 446 L467 493 L459 508 L421 508 L405 477 L398 385 L390 323 L382 277 L374 261 L367 223 L359 215 L328 153 L320 145 L313 130 L305 122 L289 114 L274 91 L266 84 L235 68 L204 60 L166 60 L150 76 L127 122 L112 207 L112 477 L104 493 L73 493 L58 470 L50 446 L58 199 L65 130 Z " />
<glyph glyph-name="&amp;#xfc;" unicode="&#xfc;" horiz-adv-x="525" d="M65 130 L72 101 L81 83 L88 60 L96 45 L107 32 L119 14 L166 -1 L212 -1 L266 14 L297 29 L305 37 L328 51 L343 63 L386 114 L407 158 L420 192 L420 199 L428 230 L436 253 L448 294 L450 312 L460 357 L466 373 L475 446 L467 493 L459 508 L421 508 L405 477 L398 385 L390 323 L382 277 L374 261 L367 223 L359 215 L328 153 L320 145 L313 130 L305 122 L289 114 L274 91 L266 84 L235 68 L204 60 L166 60 L150 76 L127 122 L112 207 L112 477 L104 493 L73 493 L58 470 L50 446 L58 199 L65 130 Z " />
<glyph glyph-name="v" unicode="v" horiz-adv-x="650" d="M61 478 L69 468 L80 437 L86 414 L92 398 L98 374 L117 326 L125 314 L162 221 L168 212 L175 196 L182 187 L188 172 L195 163 L208 132 L215 122 L228 91 L257 57 L262 41 L291 5 L315 -1 L351 2 L391 37 L394 45 L403 52 L439 111 L468 178 L477 193 L487 215 L505 244 L554 356 L565 394 L575 424 L585 447 L596 484 L600 530 L593 539 L554 535 L535 490 L514 430 L503 392 L483 347 L473 317 L463 295 L454 280 L444 258 L426 228 L416 206 L407 191 L397 161 L387 139 L360 95 L351 88 L334 66 L326 67 L309 78 L299 91 L295 107 L284 117 L278 133 L271 141 L258 173 L251 182 L239 214 L232 222 L225 238 L218 247 L193 311 L186 319 L148 416 L142 440 L136 456 L130 479 L124 495 L111 520 L105 536 L82 546 L58 540 L50 533 L54 494 L61 478 Z " />
<glyph glyph-name="w" unicode="w" horiz-adv-x="805" d="M61 393 L66 323 L67 346 L72 292 L79 246 L85 214 L92 191 L121 128 L128 105 L149 58 L158 47 L172 34 L180 23 L194 10 L240 8 L256 15 L264 23 L272 38 L285 53 L288 61 L305 91 L330 159 L339 190 L348 213 L357 243 L375 336 L393 388 L399 358 L406 334 L428 287 L441 241 L470 178 L478 168 L492 138 L500 129 L528 67 L551 32 L557 20 L580 12 L595 3 L626 2 L642 9 L650 17 L675 62 L683 85 L701 162 L710 192 L721 292 L742 399 L755 483 L740 498 L725 499 L704 494 L694 440 L690 432 L679 394 L669 341 L657 225 L640 164 L630 118 L621 87 L607 63 L590 81 L576 112 L568 120 L540 183 L532 191 L518 222 L510 230 L503 246 L489 293 L468 340 L440 434 L426 465 L419 496 L404 512 L389 513 L373 506 L357 491 L348 445 L339 414 L331 399 L322 376 L303 276 L286 215 L277 192 L269 162 L251 116 L235 86 L222 67 L204 87 L197 103 L182 126 L175 150 L154 197 L140 244 L127 321 L120 345 L108 430 L103 445 L96 484 L81 500 L66 500 L50 485 L53 401 L61 393 Z " />
<glyph glyph-name="x" unicode="x" horiz-adv-x="571" d="M65 510 L75 499 L89 479 L96 464 L106 452 L119 433 L127 417 L137 406 L150 386 L160 375 L173 355 L195 332 L202 317 L214 305 L228 286 L238 278 L228 263 L220 255 L204 232 L197 216 L189 209 L173 186 L166 178 L119 108 L112 101 L96 77 L89 70 L73 39 L73 31 L81 23 L89 8 L120 16 L143 39 L189 101 L220 147 L228 163 L274 224 L286 216 L309 193 L319 181 L332 169 L351 146 L374 108 L393 88 L407 76 L416 65 L459 23 L467 8 L475 0 L513 16 L521 23 L521 31 L513 47 L507 51 L498 70 L486 88 L428 147 L416 166 L405 178 L400 190 L313 278 L320 294 L336 309 L347 330 L390 394 L397 409 L413 425 L452 487 L459 494 L477 517 L498 548 L521 571 L513 595 L498 610 L482 610 L467 602 L444 579 L428 556 L421 541 L397 517 L390 502 L382 494 L367 471 L359 456 L351 448 L336 425 L328 417 L313 394 L305 379 L297 371 L282 340 L274 332 L251 355 L243 371 L231 385 L220 402 L208 416 L197 433 L184 447 L173 463 L158 479 L143 510 L127 533 L119 548 L104 572 L89 587 L81 587 L65 579 L50 556 L58 525 L65 510 Z " />
<glyph glyph-name="y" unicode="y" horiz-adv-x="529" d="M346 70 L381 176 L398 213 L411 266 L432 326 L444 371 L454 401 L464 424 L475 454 L479 500 L472 508 L433 504 L432 496 L413 452 L395 406 L370 324 L340 257 L333 265 L319 274 L301 298 L291 308 L276 317 L269 325 L225 353 L197 379 L183 396 L169 406 L157 421 L147 430 L119 463 L113 480 L98 489 L68 491 L50 470 L55 439 L66 427 L83 405 L112 379 L115 368 L190 302 L221 280 L248 258 L251 247 L312 198 L326 188 L317 174 L296 114 L271 8 L247 -83 L236 -121 L221 -189 L220 -205 L226 -221 L233 -229 L281 -218 L282 -203 L291 -196 L309 -81 L346 70 Z " />
<glyph glyph-name="&amp;#xfd;" unicode="&#xfd;" horiz-adv-x="529" d="M346 70 L381 176 L398 213 L411 266 L432 326 L444 371 L454 401 L464 424 L475 454 L479 500 L472 508 L433 504 L432 496 L413 452 L395 406 L370 324 L340 257 L333 265 L319 274 L301 298 L291 308 L276 317 L269 325 L225 353 L197 379 L183 396 L169 406 L157 421 L147 430 L119 463 L113 480 L98 489 L68 491 L50 470 L55 439 L66 427 L83 405 L112 379 L115 368 L190 302 L221 280 L248 258 L251 247 L312 198 L326 188 L317 174 L296 114 L271 8 L247 -83 L236 -121 L221 -189 L220 -205 L226 -221 L233 -229 L281 -218 L282 -203 L291 -196 L309 -81 L346 70 Z " />
<glyph glyph-name="&amp;#xff;" unicode="&#xff;" horiz-adv-x="529" d="M346 70 L381 176 L398 213 L411 266 L432 326 L444 371 L454 401 L464 424 L475 454 L479 500 L472 508 L433 504 L432 496 L413 452 L395 406 L370 324 L340 257 L333 265 L319 274 L301 298 L291 308 L276 317 L269 325 L225 353 L197 379 L183 396 L169 406 L157 421 L147 430 L119 463 L113 480 L98 489 L68 491 L50 470 L55 439 L66 427 L83 405 L112 379 L115 368 L190 302 L221 280 L248 258 L251 247 L312 198 L326 188 L317 174 L296 114 L271 8 L247 -83 L236 -121 L221 -189 L220 -205 L226 -221 L233 -229 L281 -218 L282 -203 L291 -196 L309 -81 L346 70 Z " />
<glyph glyph-name="z" unicode="z" horiz-adv-x="463" d="M395 565 L390 569 L343 576 L204 569 L89 561 L58 553 L50 538 L58 507 L66 499 L204 507 L305 514 L336 514 L328 491 L297 460 L282 429 L266 406 L251 391 L235 368 L228 352 L212 329 L197 314 L189 298 L186 289 L173 275 L166 259 L158 252 L112 190 L81 128 L73 105 L65 90 L58 67 L58 28 L65 12 L81 5 L104 -3 L196 -3 L266 5 L303 12 L380 20 L403 43 L395 67 L380 82 L364 82 L303 74 L274 67 L197 59 L119 59 L119 67 L127 82 L135 105 L158 151 L181 182 L193 196 L204 213 L216 227 L228 244 L235 260 L247 274 L258 290 L282 321 L289 337 L301 351 L336 399 L347 420 L359 437 L367 445 L390 491 L405 507 L413 530 L395 565 Z " />
<glyph glyph-name="braceleft" unicode="&#x7b;" horiz-adv-x="308" d="M197 601 L204 614 L227 630 L235 632 L251 648 L258 671 L256 675 L251 678 L220 686 L189 678 L173 671 L143 640 L127 617 L112 578 L112 532 L115 515 L121 428 L112 408 L58 401 L50 393 L59 349 L65 346 L81 346 L97 345 L105 340 L119 338 L127 318 L127 322 L143 69 L158 -101 L166 -148 L173 -178 L181 -202 L189 -217 L204 -225 L243 -225 L243 -194 L228 -148 L220 -117 L212 -47 L204 -9 L197 69 L189 177 L181 316 L173 339 L162 353 L162 361 L173 377 L181 393 L181 485 L173 532 L173 563 L181 586 L197 601 Z " />
<glyph glyph-name="braceright" unicode="&#x7d;" horiz-adv-x="308" d="M197 408 L188 428 L193 515 L197 532 L197 578 L181 617 L166 640 L135 671 L120 678 L89 686 L58 678 L53 675 L50 671 L58 648 L73 632 L81 630 L105 614 L112 601 L127 586 L135 563 L135 532 L127 485 L127 393 L135 377 L147 361 L147 353 L135 339 L127 316 L120 177 L112 69 L104 -9 L96 -47 L89 -117 L81 -148 L66 -194 L66 -225 L104 -225 L120 -217 L127 -202 L135 -178 L143 -148 L150 -101 L158 -9 L166 69 L181 322 L181 318 L190 338 L203 340 L212 345 L228 346 L243 346 L249 349 L258 393 L251 401 L197 408 Z " />
<glyph glyph-name="asciitilde" unicode="&#x7e;" horiz-adv-x="563" d="M475 363 L459 340 L451 286 L444 263 L436 255 L359 271 L352 275 L343 278 L330 290 L297 309 L289 317 L258 332 L251 340 L235 348 L228 355 L204 363 L150 363 L118 347 L112 340 L95 327 L89 325 L73 309 L50 263 L58 240 L81 232 L96 232 L112 240 L119 263 L127 278 L143 286 L150 294 L166 301 L204 301 L216 290 L235 278 L244 270 L305 224 L351 209 L413 193 L421 193 L451 201 L482 217 L505 240 L513 271 L513 348 L505 363 L475 363 Z " />
<glyph glyph-name="nonbreakingspace" unicode="&#xa0;" horiz-adv-x="304" d="" />
<glyph glyph-name="softhyphen" unicode="&#xad;" d="" />
<glyph glyph-name="divide" unicode="&#xf7;" horiz-adv-x="787" d="M405 347 L412 354 L412 416 L405 432 L374 432 L358 424 L343 408 L335 393 L343 354 L358 347 L405 347 Z M706 240 L575 240 L559 233 L104 248 L89 248 L58 240 L58 233 L50 225 L58 194 L65 186 L614 186 L729 202 L737 225 L729 233 L706 240 Z M398 77 L382 62 L375 46 L382 8 L398 0 L444 0 L452 8 L452 69 L444 85 L413 85 L398 77 Z " />
</font>
</svg>
