<?xml version="1.0" encoding="UTF-8"?>
<svg xmlns="http://www.w3.org/2000/svg" xmlns:xlink="http://www.w3.org/1999/xlink" version="1.2" >
<font id="Agenzada Italic">
<font-face  font-family="Agenzada" units-per-em="1000" ascent="870" descent="-223" font-style="italic" font-weight="400" font-stretch="normal" cap-height="729" x-height="610" underline-position="0" underline-thickness="0" />
<missing-glyph  horiz-adv-x="527" d="M50 0 L477 0 L477 700 L50 700 L50 0 Z M71 49 L71 650 L251 350 L71 49 Z M449 21 L79 21 L264 329 L449 21 Z M449 680 L263 371 L78 680 L449 680 Z M457 652 L457 47 L276 350 L457 652 Z " />
<glyph glyph-name=".null" d="" />
<glyph glyph-name="&amp;#x0;" d="" />
<glyph glyph-name="&amp;#xd;" unicode="&#xd;" d="" />
<glyph glyph-name="space" unicode="&#x20;" horiz-adv-x="335" d="" />
<glyph glyph-name="controlLF" unicode="&#xa;" d="" />
<glyph glyph-name="exclam" unicode="&#x21;" horiz-adv-x="292" d="M103 102 L62 95 L56 90 L50 79 L51 56 L57 48 L100 64 L110 71 L112 79 L111 102 L103 102 Z M202 581 L199 573 L185 550 L87 234 L74 164 L78 149 L121 164 L131 172 L148 234 L158 241 L242 589 L235 589 L202 581 Z " />
<glyph glyph-name="&amp;#x22;" unicode="&#x22;" horiz-adv-x="310" d="M83 542 L61 519 L60 488 L50 427 L63 419 L110 419 L118 450 L131 519 L127 535 L114 542 L83 542 Z M218 527 L196 504 L190 457 L189 427 L190 419 L194 419 L235 427 L256 473 L260 512 L256 527 L218 527 Z " />
<glyph glyph-name="&amp;#x201c;" unicode="&#x201c;" horiz-adv-x="310" d="M83 542 L61 519 L60 488 L50 427 L63 419 L110 419 L118 450 L131 519 L127 535 L114 542 L83 542 Z M218 527 L196 504 L190 457 L189 427 L190 419 L194 419 L235 427 L256 473 L260 512 L256 527 L218 527 Z " />
<glyph glyph-name="&amp;#x201d;" unicode="&#x201d;" horiz-adv-x="310" d="M83 542 L61 519 L60 488 L50 427 L63 419 L110 419 L118 450 L131 519 L127 535 L114 542 L83 542 Z M218 527 L196 504 L190 457 L189 427 L190 419 L194 419 L235 427 L256 473 L260 512 L256 527 L218 527 Z " />
<glyph glyph-name="numbersign" unicode="&#x23;" horiz-adv-x="731" d="M673 419 L554 434 L583 536 L578 543 L570 543 L537 536 L527 528 L525 520 L483 427 L286 442 L323 543 L323 547 L317 551 L310 551 L269 543 L259 536 L257 528 L208 424 L189 427 L111 427 L109 419 L101 365 L210 365 L216 366 L216 357 L154 195 L58 187 L56 180 L50 133 L58 133 L146 141 L145 110 L141 71 L143 48 L156 41 L194 41 L204 48 L210 95 L211 125 L215 141 L357 149 L426 149 L427 125 L402 10 L409 10 L443 17 L486 141 L560 149 L589 151 L654 164 L664 172 L667 180 L665 203 L668 211 L660 211 L565 203 L496 203 L545 367 L581 365 L600 375 L678 380 L680 388 L679 411 L681 419 L673 419 Z M225 203 L282 373 L488 365 L426 203 L225 203 Z " />
<glyph glyph-name="dollar" unicode="&#x24;" horiz-adv-x="537" d="M462 532 L444 538 L401 538 L402 546 L406 560 L417 578 L394 598 L386 598 L364 586 L351 538 L340 538 L297 525 L282 519 L266 506 L251 499 L226 480 L216 467 L207 460 L197 447 L185 427 L179 408 L178 382 L187 343 L201 323 L281 277 L270 240 L265 231 L244 159 L241 138 L227 89 L159 89 L124 102 L113 109 L95 115 L76 115 L55 102 L50 63 L74 63 L85 57 L120 44 L144 37 L215 37 L213 31 L210 10 L206 -4 L219 -30 L238 -26 L246 -17 L256 -1 L260 13 L263 34 L267 46 L319 57 L334 63 L342 70 L366 83 L391 102 L396 109 L413 122 L420 137 L447 206 L446 226 L440 252 L429 258 L423 269 L415 278 L393 291 L375 297 L353 310 L340 315 L340 322 L345 336 L348 356 L352 371 L358 386 L360 403 L370 423 L387 482 L434 479 L427 479 L451 473 L471 473 L479 479 L487 505 L484 519 L462 532 Z M360 245 L371 239 L380 232 L385 219 L397 213 L378 148 L328 109 L321 109 L301 99 L278 96 L296 156 L299 176 L315 236 L326 261 L343 252 L360 245 Z M255 356 L244 362 L241 375 L232 389 L231 408 L237 428 L254 441 L264 454 L281 467 L295 473 L304 480 L325 486 L338 486 L319 422 L297 354 L294 333 L273 349 L255 356 Z " />
<glyph glyph-name="percent" unicode="&#x25;" horiz-adv-x="629" d="M131 295 L220 311 L265 334 L302 380 L324 457 L314 504 L288 519 L234 519 L216 511 L196 496 L178 488 L139 457 L113 342 L114 318 L128 311 L131 295 Z M184 427 L212 447 L220 454 L231 457 L255 457 L268 450 L254 419 L242 388 L230 373 L205 365 L174 365 L182 419 L184 427 Z M375 319 L389 343 L401 358 L416 373 L427 392 L447 412 L532 520 L547 543 L559 559 L579 574 L570 611 L563 615 L536 613 L499 566 L485 543 L342 366 L327 343 L315 327 L301 304 L252 242 L242 234 L181 157 L167 134 L119 72 L104 49 L80 18 L66 -5 L53 -20 L50 -59 L70 -64 L83 -57 L101 -42 L113 -28 L127 -5 L152 26 L166 49 L227 126 L241 150 L291 214 L312 234 L348 281 L362 304 L375 319 Z M552 257 L539 264 L518 272 L479 272 L431 250 L403 230 L368 180 L354 156 L346 102 L342 64 L369 48 L461 48 L479 56 L509 79 L533 110 L548 133 L572 218 L569 234 L555 241 L552 257 Z M463 111 L402 110 L425 164 L435 172 L460 180 L490 203 L506 203 L509 187 L500 156 L463 111 Z " />
<glyph glyph-name="ampersand" unicode="&#x26;" horiz-adv-x="523" d="M459 68 L456 77 L402 129 L398 138 L387 149 L384 158 L405 187 L420 200 L441 247 L440 256 L431 256 L398 254 L377 226 L352 206 L344 207 L334 218 L316 229 L307 241 L298 258 L289 268 L283 277 L262 298 L253 310 L251 325 L255 333 L298 374 L327 418 L363 494 L363 527 L352 538 L323 543 L283 540 L246 516 L234 503 L226 488 L193 412 L179 373 L176 348 L187 338 L172 308 L100 222 L50 99 L50 92 L54 74 L64 63 L107 38 L115 37 L154 37 L186 39 L204 44 L237 62 L255 67 L330 110 L352 89 L366 70 L409 28 L416 10 L431 7 L449 12 L459 18 L473 46 L470 58 L459 68 Z M240 120 L201 103 L183 98 L143 98 L136 99 L118 111 L111 129 L143 197 L197 261 L212 258 L226 239 L237 229 L245 215 L256 202 L298 158 L273 138 L240 120 Z M265 464 L284 486 L317 486 L264 413 L244 381 L244 424 L265 464 Z " />
<glyph glyph-name="&amp;#x27;" unicode="&#x27;" horiz-adv-x="177" d="M100 540 L88 539 L78 535 L76 527 L66 519 L60 473 L50 411 L53 396 L59 388 L110 403 L112 411 L115 450 L117 457 L127 519 L124 535 L100 540 Z " />
<glyph glyph-name="&amp;#x2018;" unicode="&#x2018;" horiz-adv-x="177" d="M100 540 L88 539 L78 535 L76 527 L66 519 L60 473 L50 411 L53 396 L59 388 L110 403 L112 411 L115 450 L117 457 L127 519 L124 535 L100 540 Z " />
<glyph glyph-name="&amp;#x2019;" unicode="&#x2019;" horiz-adv-x="177" d="M100 540 L88 539 L78 535 L76 527 L66 519 L60 473 L50 411 L53 396 L59 388 L110 403 L112 411 L115 450 L117 457 L127 519 L124 535 L100 540 Z " />
<glyph glyph-name="parenleft" unicode="&#x28;" horiz-adv-x="388" d="M334 635 L295 635 L275 620 L261 605 L161 481 L142 450 L125 419 L88 342 L64 234 L50 156 L53 141 L54 118 L58 102 L59 79 L75 2 L108 -44 L129 -52 L142 -60 L158 -60 L176 -52 L184 -45 L178 -14 L173 -11 L168 -4 L157 5 L149 17 L139 28 L133 41 L119 102 L118 125 L115 141 L114 164 L115 195 L118 234 L152 349 L187 419 L204 450 L228 481 L242 504 L254 519 L289 558 L338 596 L337 620 L334 635 Z " />
<glyph glyph-name="parenright" unicode="&#x29;" horiz-adv-x="426" d="M349 596 L340 620 L329 635 L290 635 L278 620 L264 596 L291 558 L307 504 L308 481 L314 450 L313 419 L310 380 L309 349 L275 234 L257 195 L240 164 L226 141 L214 125 L199 102 L151 41 L137 28 L121 17 L107 5 L89 -4 L80 -11 L74 -14 L50 -45 L55 -52 L68 -60 L83 -60 L101 -52 L126 -44 L186 2 L247 79 L261 102 L273 118 L288 141 L300 156 L330 234 L368 342 L375 419 L376 450 L374 481 L349 596 Z " />
<glyph glyph-name="asterisk" unicode="&#x2a;" horiz-adv-x="350" d="M294 519 L272 523 L254 524 L229 535 L231 542 L235 612 L228 612 L214 620 L195 604 L157 527 L74 535 L54 519 L51 481 L72 473 L95 473 L108 465 L59 427 L50 392 L63 388 L86 388 L104 396 L144 427 L161 434 L158 396 L172 365 L193 357 L223 380 L226 419 L220 450 L222 457 L288 473 L298 481 L300 488 L299 512 L294 519 Z " />
<glyph glyph-name="plus" unicode="&#x2b;" horiz-adv-x="373" d="M298 305 L215 309 L221 372 L201 381 L176 375 L173 367 L158 344 L142 298 L63 295 L56 290 L50 280 L50 256 L55 248 L128 236 L118 202 L114 171 L135 162 L160 168 L176 191 L181 214 L186 229 L202 247 L305 257 L323 287 L318 296 L298 305 Z " />
<glyph glyph-name="comma" unicode="&#x2c;" horiz-adv-x="221" d="M147 118 L124 118 L106 110 L92 87 L67 25 L50 -60 L58 -60 L83 -52 L113 -29 L125 -13 L154 33 L171 95 L162 112 L147 118 Z " />
<glyph glyph-name="hyphen" unicode="&#x2d;" horiz-adv-x="424" d="M364 320 L326 325 L242 328 L126 328 L71 325 L50 301 L53 278 L59 271 L81 265 L96 266 L228 266 L304 263 L344 265 L361 274 L374 298 L368 305 L364 320 Z " />
<glyph glyph-name="period" unicode="&#x2e;" horiz-adv-x="187" d="M103 7 L85 -1 L66 -16 L53 -32 L50 -70 L63 -78 L110 -78 L120 -70 L137 -8 L134 7 L103 7 Z " />
<glyph glyph-name="slash" unicode="&#x2f;" horiz-adv-x="629" d="M563 615 L536 613 L499 566 L485 543 L342 366 L327 343 L315 327 L301 304 L252 242 L242 234 L181 157 L167 134 L119 72 L104 49 L80 18 L66 -5 L53 -20 L50 -59 L70 -64 L83 -57 L101 -42 L113 -28 L127 -5 L152 26 L166 49 L227 126 L241 150 L291 214 L312 234 L348 281 L362 304 L375 319 L389 343 L401 358 L416 373 L427 392 L447 412 L532 520 L547 543 L559 559 L579 574 L570 611 L563 615 Z " />
<glyph glyph-name="zero" unicode="0" horiz-adv-x="586" d="M50 193 L55 177 L55 147 L63 110 L80 73 L112 54 L119 42 L134 36 L150 26 L175 17 L286 17 L329 36 L341 45 L362 54 L433 110 L477 165 L494 193 L536 341 L533 424 L525 461 L512 480 L508 498 L494 517 L482 526 L473 538 L407 567 L387 569 L332 564 L311 554 L253 545 L210 526 L186 508 L172 489 L160 480 L116 424 L94 378 L74 341 L50 193 Z M412 489 L428 480 L440 462 L445 443 L461 369 L462 341 L423 202 L406 175 L394 165 L367 138 L331 110 L310 100 L286 82 L197 91 L165 110 L158 119 L142 128 L135 165 L124 193 L123 221 L127 267 L148 341 L170 387 L188 415 L202 433 L242 463 L308 480 L338 489 L371 497 L412 489 Z " />
<glyph glyph-name="one" unicode="1" horiz-adv-x="343" d="M223 584 L53 26 L50 20 L54 0 L97 10 L110 20 L194 276 L286 598 L293 658 L289 678 L239 678 L156 650 L152 600 L223 584 Z " />
<glyph glyph-name="two" unicode="2" horiz-adv-x="544" d="M494 536 L491 539 L488 550 L481 568 L426 600 L368 622 L217 622 L186 590 L188 551 L228 551 L252 553 L374 544 L395 535 L423 501 L428 455 L398 406 L381 391 L334 343 L321 332 L257 267 L218 236 L173 193 L132 161 L93 118 L59 75 L50 50 L57 32 L69 31 L98 20 L149 9 L418 9 L453 20 L463 30 L470 42 L461 60 L464 71 L453 71 L321 60 L145 81 L138 83 L183 127 L224 160 L269 203 L310 235 L329 255 L355 278 L372 299 L393 317 L456 386 L483 440 L494 536 Z " />
<glyph glyph-name="three" unicode="3" horiz-adv-x="561" d="M256 545 L309 547 L343 555 L454 539 L457 529 L458 509 L445 483 L414 448 L401 440 L372 415 L331 374 L306 358 L274 342 L256 330 L234 320 L195 298 L177 294 L167 253 L177 252 L226 252 L306 251 L317 248 L368 223 L380 212 L383 192 L369 162 L351 129 L326 115 L303 106 L239 86 L170 73 L64 67 L50 11 L141 10 L198 12 L258 23 L302 40 L326 52 L364 78 L379 91 L396 110 L403 121 L439 210 L437 230 L432 246 L423 261 L409 272 L386 285 L346 300 L333 312 L371 335 L391 350 L412 368 L445 402 L458 420 L510 518 L511 538 L510 557 L500 577 L473 601 L302 615 L281 608 L256 592 L249 551 L256 545 Z " />
<glyph glyph-name="four" unicode="4" horiz-adv-x="506" d="M217 -53 L238 -65 L257 -59 L269 -52 L287 -10 L297 33 L321 110 L325 118 L401 116 L440 128 L451 135 L455 143 L454 161 L450 171 L421 184 L377 181 L354 187 L363 228 L391 313 L405 364 L415 407 L439 484 L456 543 L447 563 L439 564 L412 559 L396 543 L348 381 L345 364 L317 279 L274 179 L190 182 L126 192 L117 195 L134 271 L141 288 L194 449 L194 458 L211 509 L202 528 L194 529 L166 524 L151 509 L116 407 L115 398 L81 286 L74 271 L50 194 L51 185 L51 159 L52 148 L56 139 L65 130 L153 117 L221 116 L257 119 L265 118 L223 -18 L217 -53 Z " />
<glyph glyph-name="five" unicode="5" horiz-adv-x="577" d="M315 316 L336 306 L348 297 L359 284 L365 271 L380 246 L382 233 L382 220 L372 155 L355 107 L328 75 L275 63 L224 58 L161 62 L140 72 L107 82 L72 84 L61 77 L50 20 L55 15 L85 12 L117 7 L236 -1 L286 4 L361 32 L416 95 L436 151 L442 192 L443 241 L439 275 L428 292 L422 306 L413 318 L406 332 L393 351 L380 361 L357 371 L237 380 L238 389 L262 467 L306 565 L316 572 L457 580 L465 579 L512 582 L522 590 L525 598 L526 622 L525 629 L527 641 L501 637 L395 633 L297 632 L278 625 L254 601 L231 562 L199 475 L175 400 L160 335 L162 318 L167 310 L260 320 L315 316 Z " />
<glyph glyph-name="six" unicode="6" horiz-adv-x="445" d="M206 427 L190 427 L227 529 L256 601 L267 653 L260 671 L252 671 L219 663 L217 656 L202 632 L137 459 L85 333 L52 192 L50 129 L51 106 L58 74 L63 61 L70 35 L77 19 L87 12 L132 4 L165 9 L203 25 L244 53 L290 90 L322 121 L337 145 L354 176 L390 302 L395 349 L392 364 L383 388 L380 404 L371 420 L363 427 L336 443 L320 443 L247 435 L206 427 Z M309 380 L321 372 L327 357 L326 325 L327 302 L291 176 L276 156 L244 121 L234 114 L211 90 L193 79 L175 74 L136 74 L125 90 L119 103 L113 129 L115 192 L127 262 L145 325 L158 341 L183 358 L196 364 L247 380 L309 380 Z " />
<glyph glyph-name="seven" unicode="7" horiz-adv-x="582" d="M528 423 L519 422 L493 427 L365 427 L409 543 L442 657 L438 674 L423 683 L133 683 L102 684 L75 675 L50 649 L51 623 L57 614 L151 622 L301 618 L370 622 L296 427 L286 427 L273 426 L265 427 L197 423 L174 423 L96 401 L95 393 L99 359 L108 360 L134 355 L258 355 L267 356 L243 296 L223 257 L162 111 L138 59 L136 50 L143 15 L167 6 L196 15 L212 41 L232 111 L303 297 L336 358 L353 359 L366 362 L433 364 L458 366 L531 381 L532 389 L528 423 Z " />
<glyph glyph-name="eight" unicode="8" horiz-adv-x="605" d="M50 123 L52 72 L55 62 L62 46 L75 31 L80 21 L101 2 L113 -13 L162 -22 L153 -22 L185 -30 L312 -30 L336 -23 L398 4 L433 23 L453 40 L466 63 L480 80 L496 106 L527 216 L526 242 L527 276 L513 344 L489 378 L460 395 L462 403 L475 420 L502 449 L536 514 L542 531 L555 607 L544 658 L531 675 L519 687 L496 701 L465 709 L405 709 L376 705 L333 691 L283 667 L217 616 L193 590 L177 565 L162 514 L161 480 L162 454 L166 437 L174 425 L182 403 L211 386 L178 361 L154 335 L142 326 L121 298 L96 255 L84 238 L71 204 L56 174 L50 123 Z M178 36 L147 60 L125 89 L118 123 L119 157 L124 174 L155 251 L173 285 L187 301 L222 333 L239 343 L260 353 L290 353 L300 352 L320 353 L379 353 L402 344 L432 327 L446 297 L451 276 L456 261 L459 216 L430 114 L417 97 L392 72 L366 52 L340 38 L310 28 L284 21 L210 30 L178 36 Z M305 420 L282 429 L268 437 L247 454 L237 470 L231 488 L232 513 L248 565 L267 582 L310 616 L353 638 L381 651 L430 649 L456 644 L473 630 L490 614 L492 599 L471 522 L450 480 L411 432 L390 420 L305 420 Z " />
<glyph glyph-name="nine" unicode="9" horiz-adv-x="554" d="M432 693 L415 693 L340 692 L264 677 L237 669 L215 660 L191 647 L157 620 L134 596 L83 530 L54 426 L50 359 L53 343 L61 329 L83 307 L102 285 L123 276 L132 274 L264 288 L273 291 L302 307 L312 316 L354 367 L257 0 L271 -8 L312 -8 L322 0 L380 220 L434 416 L504 652 L503 659 L495 668 L432 693 Z M373 489 L358 465 L332 432 L317 408 L278 359 L268 351 L231 334 L173 334 L146 351 L121 382 L116 392 L113 408 L114 441 L135 505 L146 522 L161 538 L173 555 L234 604 L272 620 L307 628 L334 633 L383 633 L405 628 L427 620 L433 612 L406 547 L373 489 Z " />
<glyph glyph-name="colon" unicode="&#x3a;" horiz-adv-x="318" d="M85 91 L66 75 L53 60 L50 21 L63 14 L110 14 L119 21 L137 83 L134 99 L103 99 L85 91 Z M234 525 L217 517 L197 502 L185 486 L181 447 L195 440 L241 440 L251 447 L269 509 L265 525 L234 525 Z " />
<glyph glyph-name="semicolon" unicode="&#x3b;" horiz-adv-x="344" d="M124 177 L106 170 L92 147 L67 85 L50 0 L58 0 L83 8 L113 31 L125 46 L154 93 L171 154 L162 172 L147 177 L124 177 Z M260 607 L242 599 L223 584 L210 568 L207 530 L220 522 L267 522 L276 530 L294 592 L291 607 L260 607 Z " />
<glyph glyph-name="less" unicode="&#x3c;" horiz-adv-x="343" d="M276 473 L251 465 L233 457 L176 419 L158 411 L138 396 L121 388 L107 379 L81 357 L64 347 L50 303 L53 288 L86 241 L106 203 L161 125 L210 133 L224 156 L221 172 L215 180 L202 187 L169 234 L160 257 L117 320 L136 334 L154 342 L166 350 L181 357 L219 380 L231 391 L249 403 L263 416 L278 427 L293 450 L276 473 Z " />
<glyph glyph-name="equal" unicode="&#x3d;" horiz-adv-x="477" d="M326 267 L242 270 L126 270 L71 267 L50 243 L53 220 L59 213 L81 207 L96 208 L228 208 L304 205 L344 207 L361 216 L374 240 L368 247 L364 262 L326 267 Z M416 445 L379 450 L294 453 L178 454 L123 450 L103 426 L105 403 L111 396 L133 390 L149 391 L280 391 L357 388 L396 391 L414 399 L427 423 L421 430 L416 445 Z " />
<glyph glyph-name="greater" unicode="&#x3e;" horiz-adv-x="370" d="M295 364 L286 373 L273 381 L262 396 L249 404 L243 412 L213 443 L200 450 L179 458 L150 435 L151 412 L161 401 L167 389 L178 376 L184 365 L200 351 L208 342 L219 335 L227 327 L240 319 L251 305 L171 242 L149 219 L90 172 L72 165 L62 157 L50 142 L51 118 L95 111 L194 188 L236 226 L296 273 L308 288 L319 332 L308 342 L295 364 Z " />
<glyph glyph-name="question" unicode="&#x3f;" horiz-adv-x="382" d="M103 90 L62 83 L56 78 L50 67 L51 44 L57 36 L100 52 L110 59 L112 67 L111 90 L103 90 Z M317 595 L302 613 L251 624 L199 627 L79 596 L61 567 L71 542 L103 550 L121 556 L222 575 L241 573 L271 555 L285 525 L271 485 L234 429 L226 419 L189 361 L165 332 L138 293 L112 263 L100 239 L90 225 L73 189 L71 170 L81 159 L91 161 L98 171 L116 191 L123 202 L134 214 L161 250 L187 281 L213 320 L239 350 L250 368 L265 389 L274 407 L287 423 L323 483 L332 526 L319 594 L317 595 Z " />
<glyph glyph-name="at" unicode="&#x40;" horiz-adv-x="699" d="M622 564 L613 567 L578 567 L569 571 L517 571 L492 568 L451 558 L354 531 L282 500 L216 449 L201 435 L179 418 L136 377 L127 361 L116 346 L97 315 L92 298 L72 267 L62 232 L58 208 L53 191 L54 146 L50 122 L51 77 L80 14 L93 -3 L125 -35 L145 -49 L201 -70 L235 -70 L254 -77 L279 -74 L312 -67 L304 -71 L440 -44 L462 -27 L470 -24 L469 -17 L479 18 L470 21 L452 21 L358 -19 L301 -12 L275 -15 L258 -15 L249 -11 L232 -11 L176 10 L154 31 L130 66 L115 97 L109 125 L117 173 L114 187 L126 215 L123 228 L134 256 L145 291 L159 304 L164 321 L178 335 L184 353 L198 366 L220 383 L235 397 L257 414 L271 428 L294 445 L373 479 L470 506 L496 509 L530 509 L555 512 L574 505 L591 505 L583 430 L567 350 L561 307 L539 365 L534 384 L534 395 L523 403 L512 421 L503 426 L501 434 L484 446 L467 452 L462 456 L393 439 L376 419 L354 399 L330 370 L321 364 L304 335 L295 325 L260 253 L253 225 L248 219 L241 154 L246 129 L262 101 L268 97 L279 84 L312 61 L324 59 L335 51 L346 48 L363 47 L386 48 L494 74 L528 93 L545 108 L574 126 L580 138 L593 209 L599 264 L606 297 L613 367 L619 398 L640 470 L649 560 L639 563 L622 564 Z M506 125 L495 117 L477 107 L409 91 L387 90 L370 91 L347 96 L314 119 L308 128 L297 136 L291 145 L286 160 L287 202 L293 230 L299 247 L317 283 L323 290 L328 302 L334 309 L340 321 L394 384 L408 395 L415 402 L427 411 L444 415 L461 403 L472 390 L477 386 L488 368 L521 281 L531 226 L535 143 L506 125 Z " />
<glyph glyph-name="A" unicode="A" horiz-adv-x="712" d="M53 18 L104 33 L114 41 L116 49 L214 197 L224 205 L249 267 L261 282 L287 344 L500 360 L507 360 L544 352 L547 282 L539 228 L545 220 L539 174 L536 136 L535 105 L536 82 L535 51 L538 35 L531 12 L539 12 L540 -11 L591 4 L601 12 L603 20 L602 43 L604 51 L597 82 L596 105 L599 166 L602 205 L603 236 L602 259 L603 290 L607 328 L605 352 L608 359 L643 375 L653 382 L662 413 L643 429 L604 429 L603 452 L604 483 L608 521 L604 537 L603 560 L600 576 L602 637 L589 699 L584 707 L580 722 L567 730 L531 738 L495 722 L476 707 L473 699 L454 684 L441 668 L431 661 L419 645 L405 622 L381 591 L371 583 L344 545 L330 522 L318 506 L303 483 L291 468 L275 437 L260 414 L248 398 L234 375 L225 344 L185 259 L183 251 L154 205 L152 197 L135 167 L50 33 L53 18 Z M336 437 L349 452 L377 498 L389 514 L404 537 L452 599 L467 622 L487 637 L511 668 L529 676 L531 630 L544 622 L538 576 L539 552 L543 537 L545 491 L542 452 L533 421 L525 421 L399 414 L322 414 L336 437 Z " />
<glyph glyph-name="&amp;#xc0;" unicode="&#xc0;" horiz-adv-x="712" d="M53 18 L104 33 L114 41 L116 49 L214 197 L224 205 L249 267 L261 282 L287 344 L500 360 L507 360 L544 352 L547 282 L539 228 L545 220 L539 174 L536 136 L535 105 L536 82 L535 51 L538 35 L531 12 L539 12 L540 -11 L591 4 L601 12 L603 20 L602 43 L604 51 L597 82 L596 105 L599 166 L602 205 L603 236 L602 259 L603 290 L607 328 L605 352 L608 359 L643 375 L653 382 L662 413 L643 429 L604 429 L603 452 L604 483 L608 521 L604 537 L603 560 L600 576 L602 637 L589 699 L584 707 L580 722 L567 730 L531 738 L495 722 L476 707 L473 699 L454 684 L441 668 L431 661 L419 645 L405 622 L381 591 L371 583 L344 545 L330 522 L318 506 L303 483 L291 468 L275 437 L260 414 L248 398 L234 375 L225 344 L185 259 L183 251 L154 205 L152 197 L135 167 L50 33 L53 18 Z M336 437 L349 452 L377 498 L389 514 L404 537 L452 599 L467 622 L487 637 L511 668 L529 676 L531 630 L544 622 L538 576 L539 552 L543 537 L545 491 L542 452 L533 421 L525 421 L399 414 L322 414 L336 437 Z " />
<glyph glyph-name="&amp;#xc1;" unicode="&#xc1;" horiz-adv-x="712" d="M53 18 L104 33 L114 41 L116 49 L214 197 L224 205 L249 267 L261 282 L287 344 L500 360 L507 360 L544 352 L547 282 L539 228 L545 220 L539 174 L536 136 L535 105 L536 82 L535 51 L538 35 L531 12 L539 12 L540 -11 L591 4 L601 12 L603 20 L602 43 L604 51 L597 82 L596 105 L599 166 L602 205 L603 236 L602 259 L603 290 L607 328 L605 352 L608 359 L643 375 L653 382 L662 413 L643 429 L604 429 L603 452 L604 483 L608 521 L604 537 L603 560 L600 576 L602 637 L589 699 L584 707 L580 722 L567 730 L531 738 L495 722 L476 707 L473 699 L454 684 L441 668 L431 661 L419 645 L405 622 L381 591 L371 583 L344 545 L330 522 L318 506 L303 483 L291 468 L275 437 L260 414 L248 398 L234 375 L225 344 L185 259 L183 251 L154 205 L152 197 L135 167 L50 33 L53 18 Z M336 437 L349 452 L377 498 L389 514 L404 537 L452 599 L467 622 L487 637 L511 668 L529 676 L531 630 L544 622 L538 576 L539 552 L543 537 L545 491 L542 452 L533 421 L525 421 L399 414 L322 414 L336 437 Z " />
<glyph glyph-name="&amp;#xc2;" unicode="&#xc2;" horiz-adv-x="712" d="M53 18 L104 33 L114 41 L116 49 L214 197 L224 205 L249 267 L261 282 L287 344 L500 360 L507 360 L544 352 L547 282 L539 228 L545 220 L539 174 L536 136 L535 105 L536 82 L535 51 L538 35 L531 12 L539 12 L540 -11 L591 4 L601 12 L603 20 L602 43 L604 51 L597 82 L596 105 L599 166 L602 205 L603 236 L602 259 L603 290 L607 328 L605 352 L608 359 L643 375 L653 382 L662 413 L643 429 L604 429 L603 452 L604 483 L608 521 L604 537 L603 560 L600 576 L602 637 L589 699 L584 707 L580 722 L567 730 L531 738 L495 722 L476 707 L473 699 L454 684 L441 668 L431 661 L419 645 L405 622 L381 591 L371 583 L344 545 L330 522 L318 506 L303 483 L291 468 L275 437 L260 414 L248 398 L234 375 L225 344 L185 259 L183 251 L154 205 L152 197 L135 167 L50 33 L53 18 Z M336 437 L349 452 L377 498 L389 514 L404 537 L452 599 L467 622 L487 637 L511 668 L529 676 L531 630 L544 622 L538 576 L539 552 L543 537 L545 491 L542 452 L533 421 L525 421 L399 414 L322 414 L336 437 Z " />
<glyph glyph-name="&amp;#xc3;" unicode="&#xc3;" horiz-adv-x="712" d="M53 18 L104 33 L114 41 L116 49 L214 197 L224 205 L249 267 L261 282 L287 344 L500 360 L507 360 L544 352 L547 282 L539 228 L545 220 L539 174 L536 136 L535 105 L536 82 L535 51 L538 35 L531 12 L539 12 L540 -11 L591 4 L601 12 L603 20 L602 43 L604 51 L597 82 L596 105 L599 166 L602 205 L603 236 L602 259 L603 290 L607 328 L605 352 L608 359 L643 375 L653 382 L662 413 L643 429 L604 429 L603 452 L604 483 L608 521 L604 537 L603 560 L600 576 L602 637 L589 699 L584 707 L580 722 L567 730 L531 738 L495 722 L476 707 L473 699 L454 684 L441 668 L431 661 L419 645 L405 622 L381 591 L371 583 L344 545 L330 522 L318 506 L303 483 L291 468 L275 437 L260 414 L248 398 L234 375 L225 344 L185 259 L183 251 L154 205 L152 197 L135 167 L50 33 L53 18 Z M336 437 L349 452 L377 498 L389 514 L404 537 L452 599 L467 622 L487 637 L511 668 L529 676 L531 630 L544 622 L538 576 L539 552 L543 537 L545 491 L542 452 L533 421 L525 421 L399 414 L322 414 L336 437 Z " />
<glyph glyph-name="&amp;#xc4;" unicode="&#xc4;" horiz-adv-x="712" d="M53 18 L104 33 L114 41 L116 49 L214 197 L224 205 L249 267 L261 282 L287 344 L500 360 L507 360 L544 352 L547 282 L539 228 L545 220 L539 174 L536 136 L535 105 L536 82 L535 51 L538 35 L531 12 L539 12 L540 -11 L591 4 L601 12 L603 20 L602 43 L604 51 L597 82 L596 105 L599 166 L602 205 L603 236 L602 259 L603 290 L607 328 L605 352 L608 359 L643 375 L653 382 L662 413 L643 429 L604 429 L603 452 L604 483 L608 521 L604 537 L603 560 L600 576 L602 637 L589 699 L584 707 L580 722 L567 730 L531 738 L495 722 L476 707 L473 699 L454 684 L441 668 L431 661 L419 645 L405 622 L381 591 L371 583 L344 545 L330 522 L318 506 L303 483 L291 468 L275 437 L260 414 L248 398 L234 375 L225 344 L185 259 L183 251 L154 205 L152 197 L135 167 L50 33 L53 18 Z M336 437 L349 452 L377 498 L389 514 L404 537 L452 599 L467 622 L487 637 L511 668 L529 676 L531 630 L544 622 L538 576 L539 552 L543 537 L545 491 L542 452 L533 421 L525 421 L399 414 L322 414 L336 437 Z " />
<glyph glyph-name="&amp;#xc5;" unicode="&#xc5;" horiz-adv-x="712" d="M53 18 L104 33 L114 41 L116 49 L214 197 L224 205 L249 267 L261 282 L287 344 L500 360 L507 360 L544 352 L547 282 L539 228 L545 220 L539 174 L536 136 L535 105 L536 82 L535 51 L538 35 L531 12 L539 12 L540 -11 L591 4 L601 12 L603 20 L602 43 L604 51 L597 82 L596 105 L599 166 L602 205 L603 236 L602 259 L603 290 L607 328 L605 352 L608 359 L643 375 L653 382 L662 413 L643 429 L604 429 L603 452 L604 483 L608 521 L604 537 L603 560 L600 576 L602 637 L589 699 L584 707 L580 722 L567 730 L531 738 L495 722 L476 707 L473 699 L454 684 L441 668 L431 661 L419 645 L405 622 L381 591 L371 583 L344 545 L330 522 L318 506 L303 483 L291 468 L275 437 L260 414 L248 398 L234 375 L225 344 L185 259 L183 251 L154 205 L152 197 L135 167 L50 33 L53 18 Z M336 437 L349 452 L377 498 L389 514 L404 537 L452 599 L467 622 L487 637 L511 668 L529 676 L531 630 L544 622 L538 576 L539 552 L543 537 L545 491 L542 452 L533 421 L525 421 L399 414 L322 414 L336 437 Z " />
<glyph glyph-name="B" unicode="B" horiz-adv-x="610" d="M530 262 L518 271 L517 287 L505 296 L496 313 L476 323 L442 335 L415 346 L336 362 L354 368 L490 458 L503 472 L524 486 L546 524 L560 538 L560 578 L556 611 L545 620 L543 636 L519 654 L492 665 L436 679 L357 695 L282 703 L261 689 L234 660 L206 567 L205 543 L179 458 L133 319 L123 272 L74 125 L57 47 L57 40 L50 24 L52 8 L111 2 L159 5 L225 14 L275 25 L401 68 L411 75 L439 88 L453 102 L473 116 L476 124 L497 137 L530 222 L532 246 L530 262 Z M433 152 L423 145 L399 124 L374 118 L248 75 L183 66 L122 64 L156 197 L162 212 L199 288 L206 288 L224 294 L339 290 L399 284 L452 262 L454 246 L466 237 L467 221 L447 167 L433 152 Z M282 623 L288 638 L412 618 L468 604 L488 594 L489 578 L501 568 L506 560 L483 522 L460 501 L324 411 L306 405 L285 391 L249 379 L229 365 L214 367 L229 445 L282 623 Z " />
<glyph glyph-name="C" unicode="C" horiz-adv-x="668" d="M104 425 L78 380 L73 363 L63 339 L53 304 L60 290 L50 256 L57 242 L52 225 L58 211 L53 194 L73 153 L86 136 L92 122 L130 71 L183 40 L266 13 L301 3 L324 0 L376 0 L387 4 L422 4 L433 7 L450 8 L462 11 L489 46 L493 63 L470 77 L436 66 L418 66 L396 59 L372 62 L338 62 L314 65 L232 92 L173 126 L160 143 L154 157 L141 174 L134 188 L122 205 L115 218 L120 236 L114 249 L118 267 L112 280 L122 315 L126 342 L136 356 L141 384 L152 398 L172 446 L193 474 L226 505 L271 540 L304 561 L372 582 L389 582 L401 586 L418 586 L441 583 L503 590 L574 549 L591 550 L603 553 L612 588 L618 595 L612 598 L599 615 L478 641 L484 638 L455 645 L432 648 L409 641 L375 641 L306 619 L278 605 L228 574 L206 557 L140 494 L114 449 L104 425 Z " />
<glyph glyph-name="&amp;#xc7;" unicode="&#xc7;" horiz-adv-x="668" d="M104 425 L78 380 L73 363 L63 339 L53 304 L60 290 L50 256 L57 242 L52 225 L58 211 L53 194 L73 153 L86 136 L92 122 L130 71 L183 40 L266 13 L301 3 L324 0 L376 0 L387 4 L422 4 L433 7 L450 8 L462 11 L489 46 L493 63 L470 77 L436 66 L418 66 L396 59 L372 62 L338 62 L314 65 L232 92 L173 126 L160 143 L154 157 L141 174 L134 188 L122 205 L115 218 L120 236 L114 249 L118 267 L112 280 L122 315 L126 342 L136 356 L141 384 L152 398 L172 446 L193 474 L226 505 L271 540 L304 561 L372 582 L389 582 L401 586 L418 586 L441 583 L503 590 L574 549 L591 550 L603 553 L612 588 L618 595 L612 598 L599 615 L478 641 L484 638 L455 645 L432 648 L409 641 L375 641 L306 619 L278 605 L228 574 L206 557 L140 494 L114 449 L104 425 Z " />
<glyph glyph-name="D" unicode="D" horiz-adv-x="632" d="M268 23 L375 64 L416 93 L429 108 L449 123 L462 138 L482 152 L495 167 L526 213 L539 228 L579 343 L582 375 L582 398 L580 414 L570 430 L566 462 L553 471 L543 487 L531 495 L521 512 L508 520 L503 528 L478 546 L458 555 L403 574 L277 589 L259 582 L238 567 L226 552 L185 413 L188 412 L133 217 L123 165 L86 57 L69 51 L53 28 L50 -3 L58 -4 L210 11 L235 17 L268 23 Z M268 495 L283 518 L417 502 L394 503 L429 493 L480 459 L482 443 L502 434 L504 418 L517 410 L511 394 L524 386 L519 370 L518 347 L481 239 L450 193 L440 186 L417 164 L407 157 L383 134 L353 113 L282 85 L256 79 L223 73 L198 67 L160 69 L163 100 L177 162 L241 394 L262 479 L268 495 Z " />
<glyph glyph-name="E" unicode="E" horiz-adv-x="594" d="M220 562 L174 529 L157 503 L145 494 L93 310 L70 213 L72 202 L50 72 L50 45 L56 9 L62 0 L449 1 L469 36 L466 54 L443 64 L362 58 L128 68 L139 130 L134 139 L139 210 L151 245 L425 252 L468 250 L480 258 L477 303 L468 303 L445 313 L168 324 L165 315 L171 333 L212 483 L246 508 L292 515 L382 520 L532 522 L544 531 L541 575 L532 576 L266 569 L220 562 Z " />
<glyph glyph-name="&amp;#xc8;" unicode="&#xc8;" horiz-adv-x="594" d="M220 562 L174 529 L157 503 L145 494 L93 310 L70 213 L72 202 L50 72 L50 45 L56 9 L62 0 L449 1 L469 36 L466 54 L443 64 L362 58 L128 68 L139 130 L134 139 L139 210 L151 245 L425 252 L468 250 L480 258 L477 303 L468 303 L445 313 L168 324 L165 315 L171 333 L212 483 L246 508 L292 515 L382 520 L532 522 L544 531 L541 575 L532 576 L266 569 L220 562 Z " />
<glyph glyph-name="&amp;#xc9;" unicode="&#xc9;" horiz-adv-x="594" d="M220 562 L174 529 L157 503 L145 494 L93 310 L70 213 L72 202 L50 72 L50 45 L56 9 L62 0 L449 1 L469 36 L466 54 L443 64 L362 58 L128 68 L139 130 L134 139 L139 210 L151 245 L425 252 L468 250 L480 258 L477 303 L468 303 L445 313 L168 324 L165 315 L171 333 L212 483 L246 508 L292 515 L382 520 L532 522 L544 531 L541 575 L532 576 L266 569 L220 562 Z " />
<glyph glyph-name="&amp;#xca;" unicode="&#xca;" horiz-adv-x="594" d="M220 562 L174 529 L157 503 L145 494 L93 310 L70 213 L72 202 L50 72 L50 45 L56 9 L62 0 L449 1 L469 36 L466 54 L443 64 L362 58 L128 68 L139 130 L134 139 L139 210 L151 245 L425 252 L468 250 L480 258 L477 303 L468 303 L445 313 L168 324 L165 315 L171 333 L212 483 L246 508 L292 515 L382 520 L532 522 L544 531 L541 575 L532 576 L266 569 L220 562 Z " />
<glyph glyph-name="&amp;#xcb;" unicode="&#xcb;" horiz-adv-x="594" d="M220 562 L174 529 L157 503 L145 494 L93 310 L70 213 L72 202 L50 72 L50 45 L56 9 L62 0 L449 1 L469 36 L466 54 L443 64 L362 58 L128 68 L139 130 L134 139 L139 210 L151 245 L425 252 L468 250 L480 258 L477 303 L468 303 L445 313 L168 324 L165 315 L171 333 L212 483 L246 508 L292 515 L382 520 L532 522 L544 531 L541 575 L532 576 L266 569 L220 562 Z " />
<glyph glyph-name="F" unicode="F" horiz-adv-x="632" d="M544 312 L536 312 L440 329 L273 329 L209 337 L268 571 L504 580 L520 580 L524 563 L560 571 L570 580 L582 621 L579 638 L565 646 L548 646 L354 638 L243 630 L215 621 L196 589 L194 580 L194 546 L166 421 L121 321 L110 312 L103 287 L100 265 L116 246 L61 54 L50 -13 L51 -38 L57 -47 L104 -30 L114 -21 L117 -13 L128 54 L185 254 L455 262 L460 254 L532 271 L543 279 L545 287 L542 304 L544 312 Z " />
<glyph glyph-name="G" unicode="G" horiz-adv-x="610" d="M179 86 L143 113 L124 146 L122 162 L117 170 L116 186 L111 195 L112 218 L119 281 L153 374 L191 434 L207 456 L246 501 L262 523 L355 587 L373 593 L424 605 L492 599 L494 583 L498 575 L534 588 L550 610 L546 642 L534 651 L492 663 L414 661 L421 661 L363 650 L342 636 L325 629 L232 565 L218 551 L202 528 L163 484 L147 461 L134 447 L90 371 L68 293 L55 231 L51 200 L50 176 L54 144 L60 132 L65 111 L72 100 L76 79 L102 58 L113 52 L137 34 L157 25 L182 7 L201 -3 L291 -10 L324 -5 L335 2 L370 15 L381 22 L399 29 L430 50 L456 79 L477 94 L517 162 L554 262 L560 301 L559 317 L544 318 L480 316 L350 318 L329 304 L313 281 L311 274 L312 258 L325 249 L340 247 L357 254 L468 261 L498 258 L457 166 L438 136 L425 122 L415 114 L388 85 L378 78 L342 65 L322 51 L274 47 L212 68 L199 77 L179 86 Z " />
<glyph glyph-name="H" unicode="H" horiz-adv-x="686" d="M143 453 L128 360 L92 228 L50 64 L58 16 L63 8 L106 22 L116 29 L118 37 L116 53 L119 61 L114 69 L153 225 L186 349 L201 395 L212 403 L374 403 L496 397 L434 189 L439 181 L406 57 L396 3 L401 -29 L421 -38 L439 -31 L449 -23 L459 8 L467 54 L485 132 L493 178 L521 287 L572 464 L608 596 L636 704 L634 720 L621 728 L614 729 L596 722 L586 714 L573 699 L565 676 L565 653 L527 513 L509 459 L242 472 L214 481 L215 504 L212 520 L217 559 L248 707 L238 723 L223 724 L205 717 L193 702 L159 569 L143 453 Z " />
<glyph glyph-name="I" unicode="I" horiz-adv-x="611" d="M162 14 L237 8 L249 16 L277 22 L401 30 L412 38 L425 72 L423 90 L342 95 L322 93 L275 111 L294 188 L289 198 L331 335 L382 525 L390 563 L427 564 L538 571 L549 579 L562 613 L559 631 L449 634 L314 645 L250 659 L225 661 L205 654 L187 629 L186 602 L192 593 L264 579 L289 577 L328 565 L315 531 L267 349 L225 211 L206 134 L202 99 L195 81 L122 70 L94 63 L74 56 L56 31 L50 14 L52 -4 L57 -14 L114 0 L134 7 L162 14 Z " />
<glyph glyph-name="&amp;#xcc;" unicode="&#xcc;" horiz-adv-x="611" d="M162 14 L237 8 L249 16 L277 22 L401 30 L412 38 L425 72 L423 90 L342 95 L322 93 L275 111 L294 188 L289 198 L331 335 L382 525 L390 563 L427 564 L538 571 L549 579 L562 613 L559 631 L449 634 L314 645 L250 659 L225 661 L205 654 L187 629 L186 602 L192 593 L264 579 L289 577 L328 565 L315 531 L267 349 L225 211 L206 134 L202 99 L195 81 L122 70 L94 63 L74 56 L56 31 L50 14 L52 -4 L57 -14 L114 0 L134 7 L162 14 Z " />
<glyph glyph-name="&amp;#xcd;" unicode="&#xcd;" horiz-adv-x="611" d="M162 14 L237 8 L249 16 L277 22 L401 30 L412 38 L425 72 L423 90 L342 95 L322 93 L275 111 L294 188 L289 198 L331 335 L382 525 L390 563 L427 564 L538 571 L549 579 L562 613 L559 631 L449 634 L314 645 L250 659 L225 661 L205 654 L187 629 L186 602 L192 593 L264 579 L289 577 L328 565 L315 531 L267 349 L225 211 L206 134 L202 99 L195 81 L122 70 L94 63 L74 56 L56 31 L50 14 L52 -4 L57 -14 L114 0 L134 7 L162 14 Z " />
<glyph glyph-name="&amp;#xce;" unicode="&#xce;" horiz-adv-x="611" d="M162 14 L237 8 L249 16 L277 22 L401 30 L412 38 L425 72 L423 90 L342 95 L322 93 L275 111 L294 188 L289 198 L331 335 L382 525 L390 563 L427 564 L538 571 L549 579 L562 613 L559 631 L449 634 L314 645 L250 659 L225 661 L205 654 L187 629 L186 602 L192 593 L264 579 L289 577 L328 565 L315 531 L267 349 L225 211 L206 134 L202 99 L195 81 L122 70 L94 63 L74 56 L56 31 L50 14 L52 -4 L57 -14 L114 0 L134 7 L162 14 Z " />
<glyph glyph-name="&amp;#xcf;" unicode="&#xcf;" horiz-adv-x="611" d="M162 14 L237 8 L249 16 L277 22 L401 30 L412 38 L425 72 L423 90 L342 95 L322 93 L275 111 L294 188 L289 198 L331 335 L382 525 L390 563 L427 564 L538 571 L549 579 L562 613 L559 631 L449 634 L314 645 L250 659 L225 661 L205 654 L187 629 L186 602 L192 593 L264 579 L289 577 L328 565 L315 531 L267 349 L225 211 L206 134 L202 99 L195 81 L122 70 L94 63 L74 56 L56 31 L50 14 L52 -4 L57 -14 L114 0 L134 7 L162 14 Z " />
<glyph glyph-name="J" unicode="J" horiz-adv-x="700" d="M199 642 L411 628 L397 559 L376 443 L350 334 L307 195 L280 134 L250 88 L238 73 L207 50 L179 59 L166 67 L157 75 L150 91 L135 114 L125 124 L119 138 L119 161 L113 169 L93 178 L72 170 L65 163 L50 140 L50 116 L53 101 L69 77 L80 69 L85 53 L94 43 L101 30 L126 13 L134 1 L175 -7 L206 -4 L259 18 L309 79 L343 140 L370 202 L409 325 L435 433 L449 503 L458 557 L474 635 L630 639 L640 646 L650 677 L639 693 L302 701 L215 696 L205 688 L193 673 L193 649 L199 642 Z " />
<glyph glyph-name="K" unicode="K" horiz-adv-x="745" d="M274 279 L436 266 L274 279 Z M436 266 L462 264 L436 266 Z M155 399 L118 276 L90 135 L50 3 L52 -13 L72 -23 L90 -16 L100 -9 L139 100 L154 162 L161 201 L172 232 L195 230 L260 217 L546 194 L571 200 L619 204 L629 211 L640 242 L638 258 L586 262 L560 256 L436 266 L237 289 L212 300 L208 308 L223 330 L285 373 L314 387 L355 415 L383 429 L401 435 L432 456 L450 463 L635 585 L653 591 L695 620 L691 652 L694 659 L686 660 L506 553 L485 539 L468 533 L447 519 L411 505 L380 484 L344 471 L293 436 L275 429 L223 394 L216 394 L219 426 L251 534 L308 713 L306 729 L284 730 L266 724 L250 701 L151 408 L155 399 Z " />
<glyph glyph-name="L" unicode="L" horiz-adv-x="568" d="M402 76 L259 73 L240 65 L153 69 L127 78 L116 95 L124 146 L140 221 L154 314 L175 406 L178 440 L191 507 L226 620 L207 638 L198 638 L171 631 L157 614 L114 451 L120 442 L85 283 L90 274 L61 157 L50 98 L50 73 L53 56 L53 30 L56 13 L70 4 L177 0 L229 6 L383 17 L477 22 L496 30 L507 38 L518 71 L513 80 L402 76 Z " />
<glyph glyph-name="M" unicode="M" horiz-adv-x="729" d="M72 -6 L90 5 L100 19 L156 198 L182 291 L199 338 L215 377 L238 454 L252 448 L249 433 L254 418 L257 396 L281 322 L288 277 L297 267 L306 211 L311 196 L339 184 L371 187 L399 212 L465 308 L477 332 L565 460 L593 485 L610 494 L607 479 L612 464 L616 404 L618 140 L613 79 L617 57 L614 4 L636 -2 L660 0 L669 8 L675 39 L676 85 L673 107 L679 175 L677 364 L679 410 L675 470 L672 492 L667 507 L668 552 L658 582 L644 588 L636 587 L619 578 L534 503 L514 478 L504 470 L450 390 L437 366 L383 286 L370 262 L364 269 L349 313 L346 335 L317 424 L314 446 L304 475 L301 498 L281 556 L267 563 L261 570 L236 560 L217 543 L215 536 L189 480 L152 371 L166 403 L135 325 L109 232 L86 154 L51 45 L50 -1 L72 -6 Z " />
<glyph glyph-name="N" unicode="N" horiz-adv-x="805" d="M54 6 L77 -3 L85 -3 L104 6 L120 31 L114 39 L239 445 L243 452 L264 504 L287 495 L288 470 L292 453 L299 444 L301 428 L312 419 L314 404 L321 395 L320 377 L331 326 L332 312 L341 301 L348 267 L358 257 L362 242 L368 232 L369 216 L375 207 L381 174 L394 163 L399 149 L403 132 L411 122 L412 107 L456 82 L473 82 L492 90 L505 107 L583 318 L661 504 L682 546 L714 630 L728 647 L746 681 L755 715 L752 732 L718 732 L696 715 L644 622 L614 546 L510 301 L473 200 L459 183 L452 217 L440 233 L433 267 L427 276 L423 293 L411 309 L397 377 L391 385 L376 453 L370 461 L367 478 L355 495 L351 512 L345 520 L341 537 L335 546 L332 563 L321 574 L314 588 L299 596 L265 596 L244 580 L212 529 L194 495 L146 385 L50 22 L54 6 Z " />
<glyph glyph-name="&amp;#xd1;" unicode="&#xd1;" horiz-adv-x="805" d="M54 6 L77 -3 L85 -3 L104 6 L120 31 L114 39 L239 445 L243 452 L264 504 L287 495 L288 470 L292 453 L299 444 L301 428 L312 419 L314 404 L321 395 L320 377 L331 326 L332 312 L341 301 L348 267 L358 257 L362 242 L368 232 L369 216 L375 207 L381 174 L394 163 L399 149 L403 132 L411 122 L412 107 L456 82 L473 82 L492 90 L505 107 L583 318 L661 504 L682 546 L714 630 L728 647 L746 681 L755 715 L752 732 L718 732 L696 715 L644 622 L614 546 L510 301 L473 200 L459 183 L452 217 L440 233 L433 267 L427 276 L423 293 L411 309 L397 377 L391 385 L376 453 L370 461 L367 478 L355 495 L351 512 L345 520 L341 537 L335 546 L332 563 L321 574 L314 588 L299 596 L265 596 L244 580 L212 529 L194 495 L146 385 L50 22 L54 6 Z " />
<glyph glyph-name="O" unicode="O" horiz-adv-x="815" d="M50 158 L61 104 L67 93 L72 77 L84 66 L91 50 L104 38 L115 25 L144 14 L159 5 L193 -4 L235 -13 L335 -13 L364 -4 L405 14 L435 23 L476 41 L488 50 L520 68 L532 77 L564 95 L576 104 L595 122 L601 131 L625 149 L639 168 L660 187 L665 195 L693 231 L710 258 L737 321 L763 411 L765 483 L764 510 L756 546 L746 573 L742 591 L727 600 L723 618 L708 627 L695 645 L670 654 L655 663 L573 680 L552 681 L486 672 L465 663 L418 654 L388 645 L366 631 L356 627 L335 613 L324 609 L219 528 L177 474 L165 465 L122 411 L100 366 L81 330 L59 222 L50 158 Z M205 68 L158 95 L154 113 L139 122 L131 158 L125 168 L124 195 L125 231 L153 330 L175 375 L192 402 L220 438 L244 456 L260 483 L353 555 L374 564 L385 573 L436 591 L513 609 L540 609 L559 606 L625 591 L650 582 L653 564 L669 555 L673 537 L681 528 L683 510 L687 492 L695 482 L692 447 L691 411 L665 321 L640 267 L623 240 L609 222 L598 213 L572 186 L560 177 L535 149 L523 140 L502 131 L479 113 L397 77 L367 68 L346 59 L247 59 L205 68 Z " />
<glyph glyph-name="&amp;#xd2;" unicode="&#xd2;" horiz-adv-x="815" d="M50 158 L61 104 L67 93 L72 77 L84 66 L91 50 L104 38 L115 25 L144 14 L159 5 L193 -4 L235 -13 L335 -13 L364 -4 L405 14 L435 23 L476 41 L488 50 L520 68 L532 77 L564 95 L576 104 L595 122 L601 131 L625 149 L639 168 L660 187 L665 195 L693 231 L710 258 L737 321 L763 411 L765 483 L764 510 L756 546 L746 573 L742 591 L727 600 L723 618 L708 627 L695 645 L670 654 L655 663 L573 680 L552 681 L486 672 L465 663 L418 654 L388 645 L366 631 L356 627 L335 613 L324 609 L219 528 L177 474 L165 465 L122 411 L100 366 L81 330 L59 222 L50 158 Z M205 68 L158 95 L154 113 L139 122 L131 158 L125 168 L124 195 L125 231 L153 330 L175 375 L192 402 L220 438 L244 456 L260 483 L353 555 L374 564 L385 573 L436 591 L513 609 L540 609 L559 606 L625 591 L650 582 L653 564 L669 555 L673 537 L681 528 L683 510 L687 492 L695 482 L692 447 L691 411 L665 321 L640 267 L623 240 L609 222 L598 213 L572 186 L560 177 L535 149 L523 140 L502 131 L479 113 L397 77 L367 68 L346 59 L247 59 L205 68 Z " />
<glyph glyph-name="&amp;#xd3;" unicode="&#xd3;" horiz-adv-x="815" d="M50 158 L61 104 L67 93 L72 77 L84 66 L91 50 L104 38 L115 25 L144 14 L159 5 L193 -4 L235 -13 L335 -13 L364 -4 L405 14 L435 23 L476 41 L488 50 L520 68 L532 77 L564 95 L576 104 L595 122 L601 131 L625 149 L639 168 L660 187 L665 195 L693 231 L710 258 L737 321 L763 411 L765 483 L764 510 L756 546 L746 573 L742 591 L727 600 L723 618 L708 627 L695 645 L670 654 L655 663 L573 680 L552 681 L486 672 L465 663 L418 654 L388 645 L366 631 L356 627 L335 613 L324 609 L219 528 L177 474 L165 465 L122 411 L100 366 L81 330 L59 222 L50 158 Z M205 68 L158 95 L154 113 L139 122 L131 158 L125 168 L124 195 L125 231 L153 330 L175 375 L192 402 L220 438 L244 456 L260 483 L353 555 L374 564 L385 573 L436 591 L513 609 L540 609 L559 606 L625 591 L650 582 L653 564 L669 555 L673 537 L681 528 L683 510 L687 492 L695 482 L692 447 L691 411 L665 321 L640 267 L623 240 L609 222 L598 213 L572 186 L560 177 L535 149 L523 140 L502 131 L479 113 L397 77 L367 68 L346 59 L247 59 L205 68 Z " />
<glyph glyph-name="&amp;#xd4;" unicode="&#xd4;" horiz-adv-x="815" d="M50 158 L61 104 L67 93 L72 77 L84 66 L91 50 L104 38 L115 25 L144 14 L159 5 L193 -4 L235 -13 L335 -13 L364 -4 L405 14 L435 23 L476 41 L488 50 L520 68 L532 77 L564 95 L576 104 L595 122 L601 131 L625 149 L639 168 L660 187 L665 195 L693 231 L710 258 L737 321 L763 411 L765 483 L764 510 L756 546 L746 573 L742 591 L727 600 L723 618 L708 627 L695 645 L670 654 L655 663 L573 680 L552 681 L486 672 L465 663 L418 654 L388 645 L366 631 L356 627 L335 613 L324 609 L219 528 L177 474 L165 465 L122 411 L100 366 L81 330 L59 222 L50 158 Z M205 68 L158 95 L154 113 L139 122 L131 158 L125 168 L124 195 L125 231 L153 330 L175 375 L192 402 L220 438 L244 456 L260 483 L353 555 L374 564 L385 573 L436 591 L513 609 L540 609 L559 606 L625 591 L650 582 L653 564 L669 555 L673 537 L681 528 L683 510 L687 492 L695 482 L692 447 L691 411 L665 321 L640 267 L623 240 L609 222 L598 213 L572 186 L560 177 L535 149 L523 140 L502 131 L479 113 L397 77 L367 68 L346 59 L247 59 L205 68 Z " />
<glyph glyph-name="&amp;#xd5;" unicode="&#xd5;" horiz-adv-x="815" d="M50 158 L61 104 L67 93 L72 77 L84 66 L91 50 L104 38 L115 25 L144 14 L159 5 L193 -4 L235 -13 L335 -13 L364 -4 L405 14 L435 23 L476 41 L488 50 L520 68 L532 77 L564 95 L576 104 L595 122 L601 131 L625 149 L639 168 L660 187 L665 195 L693 231 L710 258 L737 321 L763 411 L765 483 L764 510 L756 546 L746 573 L742 591 L727 600 L723 618 L708 627 L695 645 L670 654 L655 663 L573 680 L552 681 L486 672 L465 663 L418 654 L388 645 L366 631 L356 627 L335 613 L324 609 L219 528 L177 474 L165 465 L122 411 L100 366 L81 330 L59 222 L50 158 Z M205 68 L158 95 L154 113 L139 122 L131 158 L125 168 L124 195 L125 231 L153 330 L175 375 L192 402 L220 438 L244 456 L260 483 L353 555 L374 564 L385 573 L436 591 L513 609 L540 609 L559 606 L625 591 L650 582 L653 564 L669 555 L673 537 L681 528 L683 510 L687 492 L695 482 L692 447 L691 411 L665 321 L640 267 L623 240 L609 222 L598 213 L572 186 L560 177 L535 149 L523 140 L502 131 L479 113 L397 77 L367 68 L346 59 L247 59 L205 68 Z " />
<glyph glyph-name="&amp;#xd6;" unicode="&#xd6;" horiz-adv-x="815" d="M50 158 L61 104 L67 93 L72 77 L84 66 L91 50 L104 38 L115 25 L144 14 L159 5 L193 -4 L235 -13 L335 -13 L364 -4 L405 14 L435 23 L476 41 L488 50 L520 68 L532 77 L564 95 L576 104 L595 122 L601 131 L625 149 L639 168 L660 187 L665 195 L693 231 L710 258 L737 321 L763 411 L765 483 L764 510 L756 546 L746 573 L742 591 L727 600 L723 618 L708 627 L695 645 L670 654 L655 663 L573 680 L552 681 L486 672 L465 663 L418 654 L388 645 L366 631 L356 627 L335 613 L324 609 L219 528 L177 474 L165 465 L122 411 L100 366 L81 330 L59 222 L50 158 Z M205 68 L158 95 L154 113 L139 122 L131 158 L125 168 L124 195 L125 231 L153 330 L175 375 L192 402 L220 438 L244 456 L260 483 L353 555 L374 564 L385 573 L436 591 L513 609 L540 609 L559 606 L625 591 L650 582 L653 564 L669 555 L673 537 L681 528 L683 510 L687 492 L695 482 L692 447 L691 411 L665 321 L640 267 L623 240 L609 222 L598 213 L572 186 L560 177 L535 149 L523 140 L502 131 L479 113 L397 77 L367 68 L346 59 L247 59 L205 68 Z " />
<glyph glyph-name="&amp;#xd8;" unicode="&#xd8;" horiz-adv-x="815" d="M50 158 L61 104 L67 93 L72 77 L84 66 L91 50 L104 38 L115 25 L144 14 L159 5 L193 -4 L235 -13 L335 -13 L364 -4 L405 14 L435 23 L476 41 L488 50 L520 68 L532 77 L564 95 L576 104 L595 122 L601 131 L625 149 L639 168 L660 187 L665 195 L693 231 L710 258 L737 321 L763 411 L765 483 L764 510 L756 546 L746 573 L742 591 L727 600 L723 618 L708 627 L695 645 L670 654 L655 663 L573 680 L552 681 L486 672 L465 663 L418 654 L388 645 L366 631 L356 627 L335 613 L324 609 L219 528 L177 474 L165 465 L122 411 L100 366 L81 330 L59 222 L50 158 Z M205 68 L158 95 L154 113 L139 122 L131 158 L125 168 L124 195 L125 231 L153 330 L175 375 L192 402 L220 438 L244 456 L260 483 L353 555 L374 564 L385 573 L436 591 L513 609 L540 609 L559 606 L625 591 L650 582 L653 564 L669 555 L673 537 L681 528 L683 510 L687 492 L695 482 L692 447 L691 411 L665 321 L640 267 L623 240 L609 222 L598 213 L572 186 L560 177 L535 149 L523 140 L502 131 L479 113 L397 77 L367 68 L346 59 L247 59 L205 68 Z " />
<glyph glyph-name="P" unicode="P" horiz-adv-x="574" d="M50 -5 L79 -13 L96 -5 L111 18 L110 41 L113 80 L155 281 L168 327 L221 350 L247 358 L280 366 L333 389 L358 397 L368 404 L396 420 L405 427 L433 443 L463 466 L465 474 L485 489 L487 497 L501 520 L524 597 L520 613 L509 628 L506 644 L493 651 L472 659 L445 675 L409 682 L380 690 L265 690 L239 682 L222 675 L202 659 L184 651 L150 505 L137 435 L120 374 L115 328 L112 321 L112 319 L73 157 L79 150 L56 41 L50 -5 Z M190 404 L211 505 L206 513 L210 528 L247 628 L255 628 L295 636 L316 628 L363 628 L399 621 L420 613 L433 605 L454 597 L455 574 L468 567 L442 528 L418 497 L388 474 L353 458 L333 443 L300 435 L264 420 L231 412 L206 404 L190 404 Z " />
<glyph glyph-name="Q" unicode="Q" horiz-adv-x="625" d="M50 314 L52 281 L50 258 L58 247 L60 224 L68 212 L72 198 L80 187 L82 165 L102 138 L113 127 L122 111 L163 98 L197 85 L249 79 L314 86 L325 93 L379 110 L400 124 L419 113 L420 97 L439 78 L444 62 L457 36 L470 24 L477 9 L496 -1 L526 -5 L536 1 L549 32 L548 48 L527 66 L516 85 L512 95 L503 111 L492 120 L487 129 L476 138 L475 155 L470 163 L473 171 L501 200 L527 245 L565 337 L573 376 L575 400 L573 432 L568 457 L566 490 L557 507 L556 523 L543 549 L520 568 L512 585 L488 605 L454 617 L435 627 L424 637 L390 649 L346 655 L320 650 L249 627 L217 607 L193 586 L182 579 L158 558 L144 544 L124 514 L111 500 L65 369 L50 314 Z M418 566 L448 545 L472 526 L473 510 L488 498 L493 483 L501 473 L502 449 L510 440 L505 408 L510 392 L517 382 L504 320 L488 282 L462 237 L445 215 L438 216 L427 239 L410 244 L390 223 L375 168 L371 168 L361 161 L307 144 L274 140 L215 148 L181 160 L170 170 L161 187 L149 196 L132 231 L131 247 L120 257 L119 273 L114 282 L111 330 L116 362 L125 401 L153 470 L167 485 L184 507 L211 535 L232 549 L246 563 L267 576 L303 588 L328 593 L350 590 L418 566 Z " />
<glyph glyph-name="R" unicode="R" horiz-adv-x="588" d="M161 483 L154 442 L133 344 L108 238 L86 115 L51 -25 L50 -50 L52 -67 L64 -77 L96 -80 L107 -72 L119 -40 L117 -23 L153 142 L168 224 L174 240 L194 230 L207 220 L227 210 L253 191 L281 180 L301 169 L314 160 L342 149 L378 137 L403 118 L444 97 L457 87 L488 84 L499 92 L511 124 L510 141 L469 161 L444 180 L423 191 L395 202 L359 214 L346 223 L306 244 L293 254 L272 264 L247 283 L250 291 L306 311 L317 318 L336 324 L380 353 L398 360 L464 404 L478 419 L500 434 L517 457 L538 513 L535 547 L524 560 L520 574 L503 592 L483 602 L398 636 L304 645 L270 640 L243 634 L224 624 L210 612 L182 581 L161 483 Z M213 428 L219 444 L228 510 L234 526 L261 574 L270 583 L279 580 L409 559 L412 557 L438 548 L463 529 L471 520 L477 503 L462 470 L443 456 L378 412 L359 406 L304 369 L267 356 L240 350 L222 344 L200 329 L192 330 L213 428 Z " />
<glyph glyph-name="S" unicode="S" horiz-adv-x="599" d="M76 46 L91 39 L106 30 L123 23 L135 15 L165 -1 L193 1 L212 -1 L241 0 L278 4 L306 5 L362 16 L417 34 L470 70 L488 84 L496 96 L522 122 L537 161 L543 197 L537 271 L515 298 L491 319 L480 333 L462 341 L449 351 L430 357 L402 373 L383 380 L365 389 L337 401 L325 412 L305 422 L293 433 L276 438 L244 478 L240 519 L255 558 L290 587 L317 605 L362 629 L389 638 L427 643 L455 644 L474 642 L485 628 L513 630 L540 639 L549 650 L546 683 L535 697 L516 699 L496 709 L477 711 L467 716 L430 712 L383 704 L356 695 L301 668 L266 647 L231 618 L214 595 L196 581 L180 550 L173 522 L182 431 L192 418 L204 396 L217 390 L234 372 L260 353 L275 344 L292 337 L305 328 L343 316 L361 312 L376 300 L393 295 L403 285 L419 280 L445 261 L475 225 L477 200 L471 164 L463 144 L428 115 L402 97 L356 82 L300 71 L272 70 L234 66 L215 68 L196 78 L181 84 L166 93 L147 101 L136 109 L116 127 L105 141 L86 143 L68 136 L50 122 L63 75 L76 46 Z " />
<glyph glyph-name="T" unicode="T" horiz-adv-x="614" d="M65 650 L51 634 L51 608 L56 599 L237 606 L262 605 L250 545 L241 494 L183 299 L189 290 L161 187 L160 179 L128 60 L133 51 L127 9 L130 -9 L177 6 L189 14 L209 125 L221 185 L311 525 L337 601 L429 596 L434 587 L531 593 L560 612 L563 620 L561 637 L564 646 L482 654 L466 654 L84 658 L65 650 Z " />
<glyph glyph-name="U" unicode="U" horiz-adv-x="719" d="M50 264 L54 245 L58 158 L62 139 L74 128 L83 110 L94 99 L101 83 L115 70 L130 39 L144 19 L177 5 L194 -5 L261 -5 L293 5 L337 24 L374 53 L449 149 L470 187 L574 418 L628 571 L669 715 L655 735 L636 735 L611 715 L523 475 L495 408 L390 178 L330 101 L293 72 L225 72 L209 82 L202 91 L198 111 L187 123 L177 139 L165 151 L157 168 L140 178 L132 216 L129 274 L125 293 L127 331 L131 379 L149 475 L212 696 L198 715 L179 715 L142 686 L60 331 L50 264 Z " />
<glyph glyph-name="&amp;#xd9;" unicode="&#xd9;" horiz-adv-x="719" d="M50 264 L54 245 L58 158 L62 139 L74 128 L83 110 L94 99 L101 83 L115 70 L130 39 L144 19 L177 5 L194 -5 L261 -5 L293 5 L337 24 L374 53 L449 149 L470 187 L574 418 L628 571 L669 715 L655 735 L636 735 L611 715 L523 475 L495 408 L390 178 L330 101 L293 72 L225 72 L209 82 L202 91 L198 111 L187 123 L177 139 L165 151 L157 168 L140 178 L132 216 L129 274 L125 293 L127 331 L131 379 L149 475 L212 696 L198 715 L179 715 L142 686 L60 331 L50 264 Z " />
<glyph glyph-name="&amp;#xda;" unicode="&#xda;" horiz-adv-x="719" d="M50 264 L54 245 L58 158 L62 139 L74 128 L83 110 L94 99 L101 83 L115 70 L130 39 L144 19 L177 5 L194 -5 L261 -5 L293 5 L337 24 L374 53 L449 149 L470 187 L574 418 L628 571 L669 715 L655 735 L636 735 L611 715 L523 475 L495 408 L390 178 L330 101 L293 72 L225 72 L209 82 L202 91 L198 111 L187 123 L177 139 L165 151 L157 168 L140 178 L132 216 L129 274 L125 293 L127 331 L131 379 L149 475 L212 696 L198 715 L179 715 L142 686 L60 331 L50 264 Z " />
<glyph glyph-name="&amp;#xdb;" unicode="&#xdb;" horiz-adv-x="719" d="M50 264 L54 245 L58 158 L62 139 L74 128 L83 110 L94 99 L101 83 L115 70 L130 39 L144 19 L177 5 L194 -5 L261 -5 L293 5 L337 24 L374 53 L449 149 L470 187 L574 418 L628 571 L669 715 L655 735 L636 735 L611 715 L523 475 L495 408 L390 178 L330 101 L293 72 L225 72 L209 82 L202 91 L198 111 L187 123 L177 139 L165 151 L157 168 L140 178 L132 216 L129 274 L125 293 L127 331 L131 379 L149 475 L212 696 L198 715 L179 715 L142 686 L60 331 L50 264 Z " />
<glyph glyph-name="&amp;#xdc;" unicode="&#xdc;" horiz-adv-x="719" d="M50 264 L54 245 L58 158 L62 139 L74 128 L83 110 L94 99 L101 83 L115 70 L130 39 L144 19 L177 5 L194 -5 L261 -5 L293 5 L337 24 L374 53 L449 149 L470 187 L574 418 L628 571 L669 715 L655 735 L636 735 L611 715 L523 475 L495 408 L390 178 L330 101 L293 72 L225 72 L209 82 L202 91 L198 111 L187 123 L177 139 L165 151 L157 168 L140 178 L132 216 L129 274 L125 293 L127 331 L131 379 L149 475 L212 696 L198 715 L179 715 L142 686 L60 331 L50 264 Z " />
<glyph glyph-name="V" unicode="V" horiz-adv-x="652" d="M50 465 L51 438 L50 401 L54 320 L62 283 L64 229 L68 211 L69 183 L73 165 L74 138 L98 26 L111 11 L142 -7 L169 -7 L190 2 L260 56 L262 65 L305 120 L373 229 L392 265 L426 320 L440 338 L508 447 L527 483 L552 538 L602 619 L598 637 L571 637 L553 635 L530 619 L496 565 L477 529 L452 474 L384 365 L370 347 L320 265 L300 229 L249 147 L207 93 L195 84 L178 64 L168 84 L164 102 L157 111 L150 147 L148 174 L144 193 L143 220 L139 238 L137 292 L125 347 L123 401 L125 474 L121 492 L120 519 L121 556 L128 610 L124 628 L97 628 L73 610 L54 510 L50 465 Z " />
<glyph glyph-name="W" unicode="W" horiz-adv-x="899" d="M67 399 L64 367 L67 352 L64 297 L64 250 L56 203 L58 188 L58 164 L50 94 L60 31 L69 21 L72 -1 L110 -3 L138 11 L151 26 L171 41 L174 49 L187 64 L202 87 L215 102 L230 124 L243 139 L350 299 L376 329 L393 336 L396 320 L408 312 L406 280 L418 202 L424 193 L433 130 L439 118 L445 98 L461 74 L462 57 L473 42 L486 34 L495 21 L501 9 L521 1 L559 -1 L577 6 L602 36 L625 82 L661 166 L708 282 L731 327 L746 350 L787 427 L815 488 L836 526 L849 565 L846 580 L823 582 L806 575 L775 529 L772 521 L703 384 L685 353 L670 330 L639 261 L554 59 L539 78 L526 87 L522 118 L501 150 L499 166 L489 182 L479 246 L474 254 L457 364 L451 377 L442 388 L427 413 L396 414 L378 407 L356 385 L343 370 L333 362 L304 324 L289 302 L276 287 L169 127 L156 112 L141 89 L128 74 L123 82 L116 106 L113 122 L119 161 L121 192 L119 208 L127 278 L124 294 L130 356 L127 372 L130 427 L167 576 L162 607 L139 608 L122 601 L106 579 L75 445 L67 399 Z " />
<glyph glyph-name="X" unicode="X" horiz-adv-x="728" d="M73 -23 L91 -15 L101 -7 L162 70 L198 140 L210 155 L230 171 L245 194 L265 209 L267 217 L287 232 L289 240 L309 255 L311 263 L331 278 L334 286 L354 301 L361 301 L364 285 L368 273 L378 254 L381 239 L385 227 L397 216 L401 204 L414 193 L418 180 L430 169 L434 157 L446 146 L450 133 L460 115 L476 64 L488 53 L505 6 L519 -2 L522 -17 L535 -25 L566 -26 L576 -18 L585 13 L582 29 L568 36 L565 52 L554 67 L548 98 L535 106 L532 122 L523 145 L520 161 L509 176 L506 192 L501 202 L490 215 L485 225 L474 238 L469 249 L458 262 L444 269 L441 285 L436 293 L433 308 L422 324 L419 339 L406 347 L408 355 L432 386 L452 401 L465 416 L485 432 L499 455 L524 486 L544 501 L546 509 L558 524 L578 539 L580 547 L592 562 L612 578 L615 585 L635 601 L637 608 L667 631 L678 670 L667 685 L660 685 L634 678 L614 663 L590 632 L580 624 L568 609 L558 601 L545 586 L535 578 L511 547 L501 540 L440 463 L430 455 L417 440 L407 432 L385 409 L373 394 L364 445 L350 448 L356 460 L342 471 L340 492 L336 499 L322 510 L320 531 L317 538 L303 549 L301 570 L287 572 L284 588 L278 596 L275 611 L259 635 L243 635 L218 627 L206 612 L205 581 L221 558 L224 542 L229 534 L238 511 L243 503 L252 480 L268 456 L271 441 L292 410 L302 387 L315 379 L321 348 L319 340 L309 332 L286 309 L276 302 L254 279 L242 263 L232 256 L210 233 L198 217 L188 210 L163 179 L153 171 L131 148 L85 83 L69 47 L61 35 L50 -8 L73 -23 Z " />
<glyph glyph-name="Y" unicode="Y" horiz-adv-x="625" d="M63 627 L69 595 L76 587 L84 572 L95 567 L110 543 L116 524 L132 500 L142 495 L181 437 L202 428 L202 405 L223 397 L221 366 L204 288 L120 -5 L123 -21 L128 -29 L171 -14 L182 -7 L266 287 L282 364 L299 418 L349 456 L362 471 L390 486 L541 598 L566 629 L575 660 L547 668 L529 661 L509 646 L497 631 L366 533 L348 526 L318 503 L305 488 L265 458 L260 466 L247 474 L236 494 L226 506 L221 517 L210 529 L197 537 L192 545 L187 557 L176 569 L166 585 L163 601 L150 609 L134 636 L124 648 L118 680 L105 688 L75 688 L52 666 L50 635 L63 627 Z " />
<glyph glyph-name="&amp;#xdd;" unicode="&#xdd;" horiz-adv-x="625" d="M63 627 L69 595 L76 587 L84 572 L95 567 L110 543 L116 524 L132 500 L142 495 L181 437 L202 428 L202 405 L223 397 L221 366 L204 288 L120 -5 L123 -21 L128 -29 L171 -14 L182 -7 L266 287 L282 364 L299 418 L349 456 L362 471 L390 486 L541 598 L566 629 L575 660 L547 668 L529 661 L509 646 L497 631 L366 533 L348 526 L318 503 L305 488 L265 458 L260 466 L247 474 L236 494 L226 506 L221 517 L210 529 L197 537 L192 545 L187 557 L176 569 L166 585 L163 601 L150 609 L134 636 L124 648 L118 680 L105 688 L75 688 L52 666 L50 635 L63 627 Z " />
<glyph glyph-name="Z" unicode="Z" horiz-adv-x="686" d="M535 529 L521 510 L509 501 L480 465 L433 428 L419 410 L407 401 L381 373 L369 364 L343 337 L261 273 L234 245 L220 227 L149 172 L135 154 L123 144 L97 117 L83 99 L66 71 L51 53 L50 16 L81 -2 L127 -2 L212 7 L370 7 L495 16 L507 25 L517 62 L511 71 L139 71 L147 78 L180 117 L250 172 L265 190 L288 209 L303 227 L397 300 L423 327 L437 346 L461 364 L488 388 L499 401 L531 426 L548 446 L556 453 L570 471 L589 492 L591 501 L615 519 L615 529 L631 572 L636 593 L623 611 L607 620 L546 629 L466 638 L247 638 L221 611 L215 593 L219 574 L244 565 L265 574 L274 574 L491 565 L561 556 L535 529 Z " />
<glyph glyph-name="bracketleft" unicode="&#x5b;" horiz-adv-x="442" d="M311 534 L246 528 L222 523 L214 508 L116 246 L90 169 L71 90 L65 59 L53 12 L50 -12 L52 -31 L62 -39 L102 -37 L186 -42 L214 -46 L232 -41 L246 -10 L245 12 L180 16 L121 26 L124 50 L152 167 L174 254 L196 324 L259 469 L277 474 L310 477 L372 476 L382 482 L392 505 L392 522 L311 534 Z " />
<glyph glyph-name="backslash" unicode="&#x5c;" horiz-adv-x="205" d="M149 34 L145 56 L141 137 L136 159 L132 227 L135 252 L133 301 L128 323 L128 339 L123 361 L122 378 L124 395 L120 413 L123 438 L118 552 L113 574 L112 590 L119 612 L82 624 L73 622 L50 601 L52 552 L57 530 L61 432 L60 388 L62 339 L67 318 L68 301 L72 279 L75 214 L72 203 L76 121 L81 99 L84 34 L88 12 L90 -21 L95 -43 L95 -59 L122 -81 L143 -70 L150 -57 L155 -37 L155 -21 L151 1 L149 34 Z " />
<glyph glyph-name="bracketright" unicode="&#x5d;" horiz-adv-x="434" d="M301 534 L213 522 L203 505 L200 482 L207 476 L270 477 L300 474 L315 469 L295 324 L278 254 L264 214 L250 167 L210 50 L199 26 L136 16 L68 12 L54 -10 L50 -41 L65 -46 L96 -42 L183 -37 L222 -39 L236 -31 L249 -12 L260 12 L274 59 L286 90 L313 169 L331 246 L383 508 L384 523 L363 528 L301 534 Z " />
<glyph glyph-name="asciicircum" unicode="&#x5e;" horiz-adv-x="448" d="M71 0 L89 8 L98 15 L111 31 L170 77 L198 93 L278 154 L288 139 L292 123 L297 113 L300 100 L306 90 L315 69 L323 61 L331 46 L341 36 L348 23 L369 15 L398 39 L397 62 L394 77 L369 124 L365 139 L354 154 L351 170 L345 181 L329 201 L323 215 L280 216 L262 208 L202 162 L155 131 L56 54 L50 8 L71 0 Z " />
<glyph glyph-name="underscore" unicode="&#x5f;" horiz-adv-x="788" d="M712 -13 L580 -13 L563 -21 L112 -6 L96 -6 L63 -13 L61 -21 L51 -29 L50 -60 L56 -67 L604 -67 L724 -52 L738 -29 L733 -21 L712 -13 Z " />
<glyph glyph-name="a" unicode="a" horiz-adv-x="624" d="M56 262 L52 223 L72 131 L81 119 L86 100 L93 83 L103 76 L125 44 L149 22 L166 -1 L258 -1 L268 7 L296 22 L325 46 L332 58 L348 69 L372 100 L392 115 L396 131 L413 161 L470 254 L460 192 L449 100 L446 61 L446 53 L455 39 L458 23 L464 16 L488 20 L504 40 L507 50 L509 92 L520 185 L541 285 L546 331 L561 408 L566 455 L574 509 L571 524 L550 532 L537 540 L518 555 L476 571 L329 571 L296 563 L271 555 L253 547 L233 532 L216 524 L156 478 L134 455 L124 447 L88 401 L69 362 L50 269 L56 262 Z M227 53 L214 61 L206 70 L190 81 L184 92 L140 154 L137 169 L131 177 L128 192 L123 200 L113 246 L112 269 L115 308 L133 370 L147 393 L159 408 L179 424 L191 439 L251 486 L286 501 L312 509 L345 516 L437 516 L458 509 L471 501 L492 493 L506 486 L463 362 L423 277 L337 138 L312 107 L302 100 L280 77 L250 53 L227 53 Z " />
<glyph glyph-name="&amp;#xe0;" unicode="&#xe0;" horiz-adv-x="624" d="M56 262 L52 223 L72 131 L81 119 L86 100 L93 83 L103 76 L125 44 L149 22 L166 -1 L258 -1 L268 7 L296 22 L325 46 L332 58 L348 69 L372 100 L392 115 L396 131 L413 161 L470 254 L460 192 L449 100 L446 61 L446 53 L455 39 L458 23 L464 16 L488 20 L504 40 L507 50 L509 92 L520 185 L541 285 L546 331 L561 408 L566 455 L574 509 L571 524 L550 532 L537 540 L518 555 L476 571 L329 571 L296 563 L271 555 L253 547 L233 532 L216 524 L156 478 L134 455 L124 447 L88 401 L69 362 L50 269 L56 262 Z M227 53 L214 61 L206 70 L190 81 L184 92 L140 154 L137 169 L131 177 L128 192 L123 200 L113 246 L112 269 L115 308 L133 370 L147 393 L159 408 L179 424 L191 439 L251 486 L286 501 L312 509 L345 516 L437 516 L458 509 L471 501 L492 493 L506 486 L463 362 L423 277 L337 138 L312 107 L302 100 L280 77 L250 53 L227 53 Z " />
<glyph glyph-name="&amp;#xe1;" unicode="&#xe1;" horiz-adv-x="624" d="M56 262 L52 223 L72 131 L81 119 L86 100 L93 83 L103 76 L125 44 L149 22 L166 -1 L258 -1 L268 7 L296 22 L325 46 L332 58 L348 69 L372 100 L392 115 L396 131 L413 161 L470 254 L460 192 L449 100 L446 61 L446 53 L455 39 L458 23 L464 16 L488 20 L504 40 L507 50 L509 92 L520 185 L541 285 L546 331 L561 408 L566 455 L574 509 L571 524 L550 532 L537 540 L518 555 L476 571 L329 571 L296 563 L271 555 L253 547 L233 532 L216 524 L156 478 L134 455 L124 447 L88 401 L69 362 L50 269 L56 262 Z M227 53 L214 61 L206 70 L190 81 L184 92 L140 154 L137 169 L131 177 L128 192 L123 200 L113 246 L112 269 L115 308 L133 370 L147 393 L159 408 L179 424 L191 439 L251 486 L286 501 L312 509 L345 516 L437 516 L458 509 L471 501 L492 493 L506 486 L463 362 L423 277 L337 138 L312 107 L302 100 L280 77 L250 53 L227 53 Z " />
<glyph glyph-name="&amp;#xe2;" unicode="&#xe2;" horiz-adv-x="624" d="M56 262 L52 223 L72 131 L81 119 L86 100 L93 83 L103 76 L125 44 L149 22 L166 -1 L258 -1 L268 7 L296 22 L325 46 L332 58 L348 69 L372 100 L392 115 L396 131 L413 161 L470 254 L460 192 L449 100 L446 61 L446 53 L455 39 L458 23 L464 16 L488 20 L504 40 L507 50 L509 92 L520 185 L541 285 L546 331 L561 408 L566 455 L574 509 L571 524 L550 532 L537 540 L518 555 L476 571 L329 571 L296 563 L271 555 L253 547 L233 532 L216 524 L156 478 L134 455 L124 447 L88 401 L69 362 L50 269 L56 262 Z M227 53 L214 61 L206 70 L190 81 L184 92 L140 154 L137 169 L131 177 L128 192 L123 200 L113 246 L112 269 L115 308 L133 370 L147 393 L159 408 L179 424 L191 439 L251 486 L286 501 L312 509 L345 516 L437 516 L458 509 L471 501 L492 493 L506 486 L463 362 L423 277 L337 138 L312 107 L302 100 L280 77 L250 53 L227 53 Z " />
<glyph glyph-name="&amp;#xe3;" unicode="&#xe3;" horiz-adv-x="624" d="M56 262 L52 223 L72 131 L81 119 L86 100 L93 83 L103 76 L125 44 L149 22 L166 -1 L258 -1 L268 7 L296 22 L325 46 L332 58 L348 69 L372 100 L392 115 L396 131 L413 161 L470 254 L460 192 L449 100 L446 61 L446 53 L455 39 L458 23 L464 16 L488 20 L504 40 L507 50 L509 92 L520 185 L541 285 L546 331 L561 408 L566 455 L574 509 L571 524 L550 532 L537 540 L518 555 L476 571 L329 571 L296 563 L271 555 L253 547 L233 532 L216 524 L156 478 L134 455 L124 447 L88 401 L69 362 L50 269 L56 262 Z M227 53 L214 61 L206 70 L190 81 L184 92 L140 154 L137 169 L131 177 L128 192 L123 200 L113 246 L112 269 L115 308 L133 370 L147 393 L159 408 L179 424 L191 439 L251 486 L286 501 L312 509 L345 516 L437 516 L458 509 L471 501 L492 493 L506 486 L463 362 L423 277 L337 138 L312 107 L302 100 L280 77 L250 53 L227 53 Z " />
<glyph glyph-name="&amp;#xe4;" unicode="&#xe4;" horiz-adv-x="624" d="M56 262 L52 223 L72 131 L81 119 L86 100 L93 83 L103 76 L125 44 L149 22 L166 -1 L258 -1 L268 7 L296 22 L325 46 L332 58 L348 69 L372 100 L392 115 L396 131 L413 161 L470 254 L460 192 L449 100 L446 61 L446 53 L455 39 L458 23 L464 16 L488 20 L504 40 L507 50 L509 92 L520 185 L541 285 L546 331 L561 408 L566 455 L574 509 L571 524 L550 532 L537 540 L518 555 L476 571 L329 571 L296 563 L271 555 L253 547 L233 532 L216 524 L156 478 L134 455 L124 447 L88 401 L69 362 L50 269 L56 262 Z M227 53 L214 61 L206 70 L190 81 L184 92 L140 154 L137 169 L131 177 L128 192 L123 200 L113 246 L112 269 L115 308 L133 370 L147 393 L159 408 L179 424 L191 439 L251 486 L286 501 L312 509 L345 516 L437 516 L458 509 L471 501 L492 493 L506 486 L463 362 L423 277 L337 138 L312 107 L302 100 L280 77 L250 53 L227 53 Z " />
<glyph glyph-name="&amp;#xe5;" unicode="&#xe5;" horiz-adv-x="624" d="M56 262 L52 223 L72 131 L81 119 L86 100 L93 83 L103 76 L125 44 L149 22 L166 -1 L258 -1 L268 7 L296 22 L325 46 L332 58 L348 69 L372 100 L392 115 L396 131 L413 161 L470 254 L460 192 L449 100 L446 61 L446 53 L455 39 L458 23 L464 16 L488 20 L504 40 L507 50 L509 92 L520 185 L541 285 L546 331 L561 408 L566 455 L574 509 L571 524 L550 532 L537 540 L518 555 L476 571 L329 571 L296 563 L271 555 L253 547 L233 532 L216 524 L156 478 L134 455 L124 447 L88 401 L69 362 L50 269 L56 262 Z M227 53 L214 61 L206 70 L190 81 L184 92 L140 154 L137 169 L131 177 L128 192 L123 200 L113 246 L112 269 L115 308 L133 370 L147 393 L159 408 L179 424 L191 439 L251 486 L286 501 L312 509 L345 516 L437 516 L458 509 L471 501 L492 493 L506 486 L463 362 L423 277 L337 138 L312 107 L302 100 L280 77 L250 53 L227 53 Z " />
<glyph glyph-name="b" unicode="b" horiz-adv-x="657" d="M605 366 L607 373 L603 412 L548 489 L521 505 L493 512 L392 512 L359 505 L309 489 L351 636 L383 777 L347 784 L335 769 L291 644 L202 412 L172 281 L156 227 L111 95 L85 34 L69 3 L67 -5 L52 -28 L50 -36 L56 -44 L90 -59 L100 -51 L112 -36 L126 -13 L166 72 L167 49 L180 41 L186 34 L199 26 L204 18 L231 3 L308 3 L396 41 L422 49 L439 58 L455 69 L467 84 L481 95 L491 108 L503 119 L528 150 L544 180 L606 342 L605 366 Z M447 458 L475 451 L496 443 L540 381 L543 366 L544 343 L511 227 L495 196 L458 150 L436 131 L418 119 L406 103 L300 57 L277 57 L256 65 L243 72 L227 95 L225 119 L222 134 L220 180 L221 211 L273 420 L291 427 L367 451 L408 458 L447 458 Z " />
<glyph glyph-name="c" unicode="c" horiz-adv-x="559" d="M56 217 L52 200 L53 184 L50 172 L51 146 L56 132 L56 117 L60 102 L121 46 L210 6 L241 2 L265 0 L300 3 L379 33 L411 56 L434 65 L447 96 L444 117 L431 122 L414 121 L365 86 L297 61 L280 59 L250 64 L154 107 L140 122 L117 161 L114 181 L113 199 L115 218 L128 250 L213 362 L203 347 L229 373 L262 396 L318 418 L336 419 L347 423 L382 426 L406 425 L476 393 L494 403 L508 427 L509 453 L446 482 L422 483 L391 488 L374 486 L351 478 L316 475 L248 449 L167 392 L136 359 L64 241 L56 217 Z " />
<glyph glyph-name="&amp;#xe7;" unicode="&#xe7;" horiz-adv-x="559" d="M56 217 L52 200 L53 184 L50 172 L51 146 L56 132 L56 117 L60 102 L121 46 L210 6 L241 2 L265 0 L300 3 L379 33 L411 56 L434 65 L447 96 L444 117 L431 122 L414 121 L365 86 L297 61 L280 59 L250 64 L154 107 L140 122 L117 161 L114 181 L113 199 L115 218 L128 250 L213 362 L203 347 L229 373 L262 396 L318 418 L336 419 L347 423 L382 426 L406 425 L476 393 L494 403 L508 427 L509 453 L446 482 L422 483 L391 488 L374 486 L351 478 L316 475 L248 449 L167 392 L136 359 L64 241 L56 217 Z " />
<glyph glyph-name="d" unicode="d" horiz-adv-x="648" d="M50 150 L57 119 L63 108 L65 95 L73 84 L76 69 L86 58 L98 49 L119 41 L186 3 L263 3 L298 18 L308 26 L326 34 L336 41 L353 49 L368 72 L362 26 L359 -13 L360 -36 L363 -51 L369 -59 L412 -44 L422 -36 L424 -28 L423 -5 L425 3 L426 34 L436 95 L466 227 L481 281 L527 412 L570 644 L598 769 L595 784 L554 777 L506 636 L464 489 L422 505 L393 512 L293 512 L260 505 L225 489 L125 412 L99 373 L97 366 L82 343 L51 180 L50 150 Z M347 458 L383 450 L446 427 L459 420 L392 211 L375 180 L347 134 L334 118 L320 95 L290 72 L273 64 L247 57 L224 57 L145 103 L142 119 L131 131 L120 149 L110 196 L111 227 L144 342 L158 366 L170 381 L250 443 L275 451 L308 458 L347 458 Z " />
<glyph glyph-name="e" unicode="e" horiz-adv-x="543" d="M385 86 L364 73 L331 69 L296 57 L192 69 L173 79 L137 107 L120 142 L119 158 L114 166 L116 190 L115 206 L116 230 L135 276 L150 275 L169 264 L196 253 L218 251 L316 263 L352 275 L362 282 L391 295 L401 301 L415 316 L436 330 L439 337 L455 359 L486 436 L491 468 L493 492 L489 540 L476 566 L464 575 L460 584 L418 597 L389 600 L341 598 L287 580 L266 566 L248 560 L224 539 L184 496 L164 466 L139 437 L125 425 L103 387 L93 348 L60 245 L52 206 L54 190 L50 142 L51 126 L60 111 L61 92 L78 67 L94 51 L105 47 L141 19 L160 9 L279 -5 L304 0 L340 12 L365 17 L383 23 L390 55 L393 79 L391 82 L385 86 Z M274 509 L278 517 L306 529 L324 535 L372 538 L401 534 L420 524 L428 513 L438 490 L427 443 L427 435 L383 352 L362 338 L308 320 L242 312 L213 315 L193 326 L182 335 L169 361 L201 421 L214 436 L240 481 L254 495 L274 509 Z " />
<glyph glyph-name="&amp;#xe8;" unicode="&#xe8;" horiz-adv-x="543" d="M385 86 L364 73 L331 69 L296 57 L192 69 L173 79 L137 107 L120 142 L119 158 L114 166 L116 190 L115 206 L116 230 L135 276 L150 275 L169 264 L196 253 L218 251 L316 263 L352 275 L362 282 L391 295 L401 301 L415 316 L436 330 L439 337 L455 359 L486 436 L491 468 L493 492 L489 540 L476 566 L464 575 L460 584 L418 597 L389 600 L341 598 L287 580 L266 566 L248 560 L224 539 L184 496 L164 466 L139 437 L125 425 L103 387 L93 348 L60 245 L52 206 L54 190 L50 142 L51 126 L60 111 L61 92 L78 67 L94 51 L105 47 L141 19 L160 9 L279 -5 L304 0 L340 12 L365 17 L383 23 L390 55 L393 79 L391 82 L385 86 Z M274 509 L278 517 L306 529 L324 535 L372 538 L401 534 L420 524 L428 513 L438 490 L427 443 L427 435 L383 352 L362 338 L308 320 L242 312 L213 315 L193 326 L182 335 L169 361 L201 421 L214 436 L240 481 L254 495 L274 509 Z " />
<glyph glyph-name="&amp;#xe9;" unicode="&#xe9;" horiz-adv-x="543" d="M385 86 L364 73 L331 69 L296 57 L192 69 L173 79 L137 107 L120 142 L119 158 L114 166 L116 190 L115 206 L116 230 L135 276 L150 275 L169 264 L196 253 L218 251 L316 263 L352 275 L362 282 L391 295 L401 301 L415 316 L436 330 L439 337 L455 359 L486 436 L491 468 L493 492 L489 540 L476 566 L464 575 L460 584 L418 597 L389 600 L341 598 L287 580 L266 566 L248 560 L224 539 L184 496 L164 466 L139 437 L125 425 L103 387 L93 348 L60 245 L52 206 L54 190 L50 142 L51 126 L60 111 L61 92 L78 67 L94 51 L105 47 L141 19 L160 9 L279 -5 L304 0 L340 12 L365 17 L383 23 L390 55 L393 79 L391 82 L385 86 Z M274 509 L278 517 L306 529 L324 535 L372 538 L401 534 L420 524 L428 513 L438 490 L427 443 L427 435 L383 352 L362 338 L308 320 L242 312 L213 315 L193 326 L182 335 L169 361 L201 421 L214 436 L240 481 L254 495 L274 509 Z " />
<glyph glyph-name="&amp;#xea;" unicode="&#xea;" horiz-adv-x="543" d="M385 86 L364 73 L331 69 L296 57 L192 69 L173 79 L137 107 L120 142 L119 158 L114 166 L116 190 L115 206 L116 230 L135 276 L150 275 L169 264 L196 253 L218 251 L316 263 L352 275 L362 282 L391 295 L401 301 L415 316 L436 330 L439 337 L455 359 L486 436 L491 468 L493 492 L489 540 L476 566 L464 575 L460 584 L418 597 L389 600 L341 598 L287 580 L266 566 L248 560 L224 539 L184 496 L164 466 L139 437 L125 425 L103 387 L93 348 L60 245 L52 206 L54 190 L50 142 L51 126 L60 111 L61 92 L78 67 L94 51 L105 47 L141 19 L160 9 L279 -5 L304 0 L340 12 L365 17 L383 23 L390 55 L393 79 L391 82 L385 86 Z M274 509 L278 517 L306 529 L324 535 L372 538 L401 534 L420 524 L428 513 L438 490 L427 443 L427 435 L383 352 L362 338 L308 320 L242 312 L213 315 L193 326 L182 335 L169 361 L201 421 L214 436 L240 481 L254 495 L274 509 Z " />
<glyph glyph-name="&amp;#xeb;" unicode="&#xeb;" horiz-adv-x="543" d="M385 86 L364 73 L331 69 L296 57 L192 69 L173 79 L137 107 L120 142 L119 158 L114 166 L116 190 L115 206 L116 230 L135 276 L150 275 L169 264 L196 253 L218 251 L316 263 L352 275 L362 282 L391 295 L401 301 L415 316 L436 330 L439 337 L455 359 L486 436 L491 468 L493 492 L489 540 L476 566 L464 575 L460 584 L418 597 L389 600 L341 598 L287 580 L266 566 L248 560 L224 539 L184 496 L164 466 L139 437 L125 425 L103 387 L93 348 L60 245 L52 206 L54 190 L50 142 L51 126 L60 111 L61 92 L78 67 L94 51 L105 47 L141 19 L160 9 L279 -5 L304 0 L340 12 L365 17 L383 23 L390 55 L393 79 L391 82 L385 86 Z M274 509 L278 517 L306 529 L324 535 L372 538 L401 534 L420 524 L428 513 L438 490 L427 443 L427 435 L383 352 L362 338 L308 320 L242 312 L213 315 L193 326 L182 335 L169 361 L201 421 L214 436 L240 481 L254 495 L274 509 Z " />
<glyph glyph-name="f" unicode="f" horiz-adv-x="544" d="M138 395 L124 348 L62 78 L50 9 L54 -1 L93 -1 L103 7 L112 9 L122 70 L184 341 L199 395 L225 402 L448 402 L458 410 L466 441 L463 456 L459 464 L219 464 L246 557 L281 626 L318 673 L357 704 L432 696 L425 696 L431 665 L452 657 L475 657 L485 665 L494 696 L484 742 L471 750 L465 758 L375 765 L350 758 L332 750 L282 711 L221 634 L182 549 L150 456 L150 447 L143 431 L138 395 Z " />
<glyph glyph-name="g" unicode="g" horiz-adv-x="729" d="M51 264 L55 256 L50 224 L51 208 L59 194 L58 167 L66 153 L64 142 L79 128 L84 116 L100 101 L104 89 L127 74 L143 68 L247 56 L265 62 L290 67 L308 73 L318 80 L347 92 L441 154 L444 161 L465 175 L468 182 L482 197 L529 256 L570 299 L559 252 L507 122 L461 47 L407 -11 L378 -29 L367 -33 L347 -44 L329 -50 L309 -60 L300 -63 L268 -67 L250 -73 L209 -76 L154 -77 L137 -83 L123 -98 L117 -113 L118 -129 L122 -138 L206 -136 L250 -129 L268 -123 L301 -119 L337 -107 L347 -100 L376 -88 L386 -81 L415 -68 L425 -61 L439 -47 L460 -33 L463 -26 L504 18 L569 123 L618 245 L668 408 L679 455 L678 471 L656 474 L638 468 L629 485 L617 494 L609 511 L562 549 L542 559 L531 569 L511 579 L500 589 L466 601 L369 612 L344 607 L308 595 L287 582 L269 576 L248 562 L230 556 L206 535 L179 506 L168 499 L128 456 L111 434 L85 389 L65 319 L51 264 Z M152 148 L143 165 L131 174 L130 191 L118 200 L114 249 L110 257 L112 281 L117 313 L147 389 L167 419 L197 456 L218 469 L235 491 L256 505 L259 513 L288 525 L298 532 L327 545 L344 551 L448 538 L467 528 L479 519 L498 509 L569 452 L570 436 L581 424 L557 365 L527 328 L473 271 L456 248 L443 234 L426 212 L415 205 L391 184 L318 136 L300 130 L279 117 L175 129 L152 148 Z " />
<glyph glyph-name="h" unicode="h" horiz-adv-x="580" d="M196 605 L180 550 L171 511 L165 479 L156 440 L150 408 L128 338 L100 221 L94 189 L50 33 L51 17 L62 7 L91 2 L102 9 L125 62 L161 162 L174 193 L204 245 L228 282 L249 312 L344 370 L362 376 L373 382 L398 387 L449 379 L461 369 L461 353 L466 340 L463 303 L464 287 L459 239 L446 192 L441 160 L396 21 L399 13 L410 4 L439 -1 L450 6 L458 19 L496 144 L505 183 L524 245 L523 262 L529 310 L527 343 L530 367 L529 383 L525 400 L506 419 L502 428 L487 430 L374 439 L357 437 L339 430 L232 363 L207 342 L190 321 L186 329 L214 431 L221 446 L229 502 L235 533 L273 674 L302 759 L298 768 L258 766 L254 758 L244 752 L196 605 Z " />
<glyph glyph-name="i" unicode="i" horiz-adv-x="317" d="M132 357 L124 318 L112 271 L88 193 L83 162 L52 52 L50 28 L62 19 L63 2 L88 7 L98 14 L111 44 L113 68 L147 185 L155 225 L180 302 L200 388 L221 458 L236 513 L235 529 L230 538 L208 541 L190 535 L132 357 Z M215 628 L236 620 L266 643 L267 674 L264 689 L241 689 L223 682 L209 658 L210 635 L215 628 Z " />
<glyph glyph-name="&amp;#xec;" unicode="&#xec;" horiz-adv-x="317" d="M132 357 L124 318 L112 271 L88 193 L83 162 L52 52 L50 28 L62 19 L63 2 L88 7 L98 14 L111 44 L113 68 L147 185 L155 225 L180 302 L200 388 L221 458 L236 513 L235 529 L230 538 L208 541 L190 535 L132 357 Z M215 628 L236 620 L266 643 L267 674 L264 689 L241 689 L223 682 L209 658 L210 635 L215 628 Z " />
<glyph glyph-name="&amp;#xed;" unicode="&#xed;" horiz-adv-x="317" d="M132 357 L124 318 L112 271 L88 193 L83 162 L52 52 L50 28 L62 19 L63 2 L88 7 L98 14 L111 44 L113 68 L147 185 L155 225 L180 302 L200 388 L221 458 L236 513 L235 529 L230 538 L208 541 L190 535 L132 357 Z M215 628 L236 620 L266 643 L267 674 L264 689 L241 689 L223 682 L209 658 L210 635 L215 628 Z " />
<glyph glyph-name="&amp;#xee;" unicode="&#xee;" horiz-adv-x="317" d="M132 357 L124 318 L112 271 L88 193 L83 162 L52 52 L50 28 L62 19 L63 2 L88 7 L98 14 L111 44 L113 68 L147 185 L155 225 L180 302 L200 388 L221 458 L236 513 L235 529 L230 538 L208 541 L190 535 L132 357 Z M215 628 L236 620 L266 643 L267 674 L264 689 L241 689 L223 682 L209 658 L210 635 L215 628 Z " />
<glyph glyph-name="&amp;#xef;" unicode="&#xef;" horiz-adv-x="317" d="M132 357 L124 318 L112 271 L88 193 L83 162 L52 52 L50 28 L62 19 L63 2 L88 7 L98 14 L111 44 L113 68 L147 185 L155 225 L180 302 L200 388 L221 458 L236 513 L235 529 L230 538 L208 541 L190 535 L132 357 Z M215 628 L236 620 L266 643 L267 674 L264 689 L241 689 L223 682 L209 658 L210 635 L215 628 Z " />
<glyph glyph-name="j" unicode="j" horiz-adv-x="523" d="M53 -42 L68 -73 L89 -80 L155 -119 L255 -119 L280 -111 L290 -104 L318 -88 L330 -73 L359 -26 L375 4 L426 182 L436 244 L438 306 L442 344 L452 406 L448 421 L418 421 L400 414 L386 390 L381 375 L380 344 L377 305 L376 275 L377 251 L367 190 L314 4 L285 -42 L273 -57 L180 -57 L140 -34 L124 -11 L113 -3 L107 12 L101 43 L78 43 L60 35 L50 -26 L53 -42 Z M421 514 L442 506 L472 529 L473 560 L470 576 L446 576 L429 568 L414 545 L416 522 L421 514 Z " />
<glyph glyph-name="k" unicode="k" horiz-adv-x="588" d="M118 293 L106 262 L95 211 L88 192 L88 182 L60 75 L50 29 L52 12 L56 4 L94 10 L109 16 L118 23 L114 55 L117 62 L121 94 L127 109 L154 162 L376 135 L492 132 L509 139 L509 179 L501 179 L482 189 L157 234 L178 248 L191 262 L254 305 L271 311 L313 339 L341 352 L354 367 L510 473 L538 486 L538 526 L530 527 L525 535 L490 522 L334 417 L311 395 L293 389 L241 353 L223 347 L202 333 L191 329 L199 365 L200 389 L227 482 L265 605 L256 622 L248 623 L231 616 L220 609 L118 293 Z " />
<glyph glyph-name="l" unicode="l" horiz-adv-x="350" d="M257 738 L244 723 L206 584 L100 236 L100 213 L62 82 L55 51 L50 12 L78 3 L108 25 L113 64 L227 458 L300 729 L274 745 L257 738 Z " />
<glyph glyph-name="m" unicode="m" horiz-adv-x="802" d="M720 178 L726 225 L745 317 L750 364 L752 394 L748 410 L746 456 L743 472 L730 479 L724 487 L682 503 L659 503 L608 487 L591 479 L571 464 L553 456 L531 433 L507 402 L497 394 L485 379 L477 379 L457 472 L446 487 L443 503 L430 510 L424 518 L411 526 L396 526 L324 518 L306 510 L279 495 L257 472 L247 464 L225 441 L210 418 L198 402 L170 357 L169 357 L165 343 L155 330 L131 290 L118 258 L50 47 L52 1 L91 1 L101 9 L162 194 L210 310 L229 348 L272 418 L322 456 L339 464 L377 460 L389 449 L394 439 L405 426 L408 379 L411 364 L412 341 L409 302 L403 256 L345 55 L342 16 L381 16 L385 21 L391 24 L407 55 L417 63 L489 287 L493 291 L507 318 L518 333 L532 356 L552 372 L566 395 L595 418 L616 433 L624 433 L656 439 L686 433 L688 387 L691 372 L688 333 L667 233 L600 1 L606 3 L616 2 L654 2 L662 1 L720 178 Z " />
<glyph glyph-name="n" unicode="n" horiz-adv-x="628" d="M94 174 L87 163 L50 17 L55 2 L77 -4 L102 6 L115 30 L118 45 L138 107 L192 255 L243 350 L262 367 L279 389 L320 438 L352 465 L390 488 L450 487 L457 485 L478 474 L486 455 L495 445 L501 419 L506 407 L508 393 L512 379 L515 356 L515 318 L514 273 L469 19 L473 4 L495 -1 L503 -1 L521 8 L533 32 L575 270 L578 361 L577 391 L554 465 L543 487 L538 502 L532 509 L527 524 L456 556 L393 551 L368 542 L345 528 L330 517 L312 506 L291 491 L277 474 L261 459 L256 450 L241 434 L236 425 L213 393 L204 385 L182 353 L156 306 L144 287 L144 282 L109 218 L106 209 L103 204 L103 198 L94 174 Z " />
<glyph glyph-name="&amp;#xf1;" unicode="&#xf1;" horiz-adv-x="628" d="M94 174 L87 163 L50 17 L55 2 L77 -4 L102 6 L115 30 L118 45 L138 107 L192 255 L243 350 L262 367 L279 389 L320 438 L352 465 L390 488 L450 487 L457 485 L478 474 L486 455 L495 445 L501 419 L506 407 L508 393 L512 379 L515 356 L515 318 L514 273 L469 19 L473 4 L495 -1 L503 -1 L521 8 L533 32 L575 270 L578 361 L577 391 L554 465 L543 487 L538 502 L532 509 L527 524 L456 556 L393 551 L368 542 L345 528 L330 517 L312 506 L291 491 L277 474 L261 459 L256 450 L241 434 L236 425 L213 393 L204 385 L182 353 L156 306 L144 287 L144 282 L109 218 L106 209 L103 204 L103 198 L94 174 Z " />
<glyph glyph-name="o" unicode="o" horiz-adv-x="698" d="M50 188 L66 111 L75 101 L83 88 L92 78 L99 64 L108 55 L116 41 L137 34 L177 10 L205 3 L290 3 L347 10 L364 18 L415 34 L462 64 L490 80 L508 88 L537 111 L544 118 L552 134 L564 149 L584 165 L586 173 L598 188 L615 219 L648 335 L647 358 L648 389 L638 435 L627 450 L617 497 L604 505 L599 512 L585 520 L574 535 L569 551 L545 566 L536 568 L524 576 L509 581 L492 582 L467 589 L424 591 L394 585 L323 574 L305 566 L280 559 L250 535 L238 520 L168 466 L156 450 L146 443 L122 412 L89 350 L70 311 L63 274 L50 188 Z M441 527 L445 529 L494 516 L504 504 L527 490 L545 471 L560 458 L563 442 L577 412 L581 394 L592 381 L584 327 L553 219 L539 195 L529 188 L492 141 L482 134 L465 126 L445 110 L427 103 L405 91 L374 80 L339 64 L275 56 L244 56 L202 72 L189 80 L170 95 L157 103 L149 117 L140 126 L133 140 L124 149 L114 196 L113 219 L114 250 L134 319 L167 381 L181 404 L201 419 L213 435 L273 481 L285 497 L305 512 L356 528 L394 528 L441 527 Z " />
<glyph glyph-name="&amp;#xf2;" unicode="&#xf2;" horiz-adv-x="698" d="M50 188 L66 111 L75 101 L83 88 L92 78 L99 64 L108 55 L116 41 L137 34 L177 10 L205 3 L290 3 L347 10 L364 18 L415 34 L462 64 L490 80 L508 88 L537 111 L544 118 L552 134 L564 149 L584 165 L586 173 L598 188 L615 219 L648 335 L647 358 L648 389 L638 435 L627 450 L617 497 L604 505 L599 512 L585 520 L574 535 L569 551 L545 566 L536 568 L524 576 L509 581 L492 582 L467 589 L424 591 L394 585 L323 574 L305 566 L280 559 L250 535 L238 520 L168 466 L156 450 L146 443 L122 412 L89 350 L70 311 L63 274 L50 188 Z M441 527 L445 529 L494 516 L504 504 L527 490 L545 471 L560 458 L563 442 L577 412 L581 394 L592 381 L584 327 L553 219 L539 195 L529 188 L492 141 L482 134 L465 126 L445 110 L427 103 L405 91 L374 80 L339 64 L275 56 L244 56 L202 72 L189 80 L170 95 L157 103 L149 117 L140 126 L133 140 L124 149 L114 196 L113 219 L114 250 L134 319 L167 381 L181 404 L201 419 L213 435 L273 481 L285 497 L305 512 L356 528 L394 528 L441 527 Z " />
<glyph glyph-name="&amp;#xf3;" unicode="&#xf3;" horiz-adv-x="698" d="M50 188 L66 111 L75 101 L83 88 L92 78 L99 64 L108 55 L116 41 L137 34 L177 10 L205 3 L290 3 L347 10 L364 18 L415 34 L462 64 L490 80 L508 88 L537 111 L544 118 L552 134 L564 149 L584 165 L586 173 L598 188 L615 219 L648 335 L647 358 L648 389 L638 435 L627 450 L617 497 L604 505 L599 512 L585 520 L574 535 L569 551 L545 566 L536 568 L524 576 L509 581 L492 582 L467 589 L424 591 L394 585 L323 574 L305 566 L280 559 L250 535 L238 520 L168 466 L156 450 L146 443 L122 412 L89 350 L70 311 L63 274 L50 188 Z M441 527 L445 529 L494 516 L504 504 L527 490 L545 471 L560 458 L563 442 L577 412 L581 394 L592 381 L584 327 L553 219 L539 195 L529 188 L492 141 L482 134 L465 126 L445 110 L427 103 L405 91 L374 80 L339 64 L275 56 L244 56 L202 72 L189 80 L170 95 L157 103 L149 117 L140 126 L133 140 L124 149 L114 196 L113 219 L114 250 L134 319 L167 381 L181 404 L201 419 L213 435 L273 481 L285 497 L305 512 L356 528 L394 528 L441 527 Z " />
<glyph glyph-name="&amp;#xf4;" unicode="&#xf4;" horiz-adv-x="698" d="M50 188 L66 111 L75 101 L83 88 L92 78 L99 64 L108 55 L116 41 L137 34 L177 10 L205 3 L290 3 L347 10 L364 18 L415 34 L462 64 L490 80 L508 88 L537 111 L544 118 L552 134 L564 149 L584 165 L586 173 L598 188 L615 219 L648 335 L647 358 L648 389 L638 435 L627 450 L617 497 L604 505 L599 512 L585 520 L574 535 L569 551 L545 566 L536 568 L524 576 L509 581 L492 582 L467 589 L424 591 L394 585 L323 574 L305 566 L280 559 L250 535 L238 520 L168 466 L156 450 L146 443 L122 412 L89 350 L70 311 L63 274 L50 188 Z M441 527 L445 529 L494 516 L504 504 L527 490 L545 471 L560 458 L563 442 L577 412 L581 394 L592 381 L584 327 L553 219 L539 195 L529 188 L492 141 L482 134 L465 126 L445 110 L427 103 L405 91 L374 80 L339 64 L275 56 L244 56 L202 72 L189 80 L170 95 L157 103 L149 117 L140 126 L133 140 L124 149 L114 196 L113 219 L114 250 L134 319 L167 381 L181 404 L201 419 L213 435 L273 481 L285 497 L305 512 L356 528 L394 528 L441 527 Z " />
<glyph glyph-name="&amp;#xf5;" unicode="&#xf5;" horiz-adv-x="698" d="M50 188 L66 111 L75 101 L83 88 L92 78 L99 64 L108 55 L116 41 L137 34 L177 10 L205 3 L290 3 L347 10 L364 18 L415 34 L462 64 L490 80 L508 88 L537 111 L544 118 L552 134 L564 149 L584 165 L586 173 L598 188 L615 219 L648 335 L647 358 L648 389 L638 435 L627 450 L617 497 L604 505 L599 512 L585 520 L574 535 L569 551 L545 566 L536 568 L524 576 L509 581 L492 582 L467 589 L424 591 L394 585 L323 574 L305 566 L280 559 L250 535 L238 520 L168 466 L156 450 L146 443 L122 412 L89 350 L70 311 L63 274 L50 188 Z M441 527 L445 529 L494 516 L504 504 L527 490 L545 471 L560 458 L563 442 L577 412 L581 394 L592 381 L584 327 L553 219 L539 195 L529 188 L492 141 L482 134 L465 126 L445 110 L427 103 L405 91 L374 80 L339 64 L275 56 L244 56 L202 72 L189 80 L170 95 L157 103 L149 117 L140 126 L133 140 L124 149 L114 196 L113 219 L114 250 L134 319 L167 381 L181 404 L201 419 L213 435 L273 481 L285 497 L305 512 L356 528 L394 528 L441 527 Z " />
<glyph glyph-name="&amp;#xf6;" unicode="&#xf6;" horiz-adv-x="698" d="M50 188 L66 111 L75 101 L83 88 L92 78 L99 64 L108 55 L116 41 L137 34 L177 10 L205 3 L290 3 L347 10 L364 18 L415 34 L462 64 L490 80 L508 88 L537 111 L544 118 L552 134 L564 149 L584 165 L586 173 L598 188 L615 219 L648 335 L647 358 L648 389 L638 435 L627 450 L617 497 L604 505 L599 512 L585 520 L574 535 L569 551 L545 566 L536 568 L524 576 L509 581 L492 582 L467 589 L424 591 L394 585 L323 574 L305 566 L280 559 L250 535 L238 520 L168 466 L156 450 L146 443 L122 412 L89 350 L70 311 L63 274 L50 188 Z M441 527 L445 529 L494 516 L504 504 L527 490 L545 471 L560 458 L563 442 L577 412 L581 394 L592 381 L584 327 L553 219 L539 195 L529 188 L492 141 L482 134 L465 126 L445 110 L427 103 L405 91 L374 80 L339 64 L275 56 L244 56 L202 72 L189 80 L170 95 L157 103 L149 117 L140 126 L133 140 L124 149 L114 196 L113 219 L114 250 L134 319 L167 381 L181 404 L201 419 L213 435 L273 481 L285 497 L305 512 L356 528 L394 528 L441 527 Z " />
<glyph glyph-name="&amp;#xf8;" unicode="&#xf8;" horiz-adv-x="698" d="M50 188 L66 111 L75 101 L83 88 L92 78 L99 64 L108 55 L116 41 L137 34 L177 10 L205 3 L290 3 L347 10 L364 18 L415 34 L462 64 L490 80 L508 88 L537 111 L544 118 L552 134 L564 149 L584 165 L586 173 L598 188 L615 219 L648 335 L647 358 L648 389 L638 435 L627 450 L617 497 L604 505 L599 512 L585 520 L574 535 L569 551 L545 566 L536 568 L524 576 L509 581 L492 582 L467 589 L424 591 L394 585 L323 574 L305 566 L280 559 L250 535 L238 520 L168 466 L156 450 L146 443 L122 412 L89 350 L70 311 L63 274 L50 188 Z M441 527 L445 529 L494 516 L504 504 L527 490 L545 471 L560 458 L563 442 L577 412 L581 394 L592 381 L584 327 L553 219 L539 195 L529 188 L492 141 L482 134 L465 126 L445 110 L427 103 L405 91 L374 80 L339 64 L275 56 L244 56 L202 72 L189 80 L170 95 L157 103 L149 117 L140 126 L133 140 L124 149 L114 196 L113 219 L114 250 L134 319 L167 381 L181 404 L201 419 L213 435 L273 481 L285 497 L305 512 L356 528 L394 528 L441 527 Z " />
<glyph glyph-name="p" unicode="p" horiz-adv-x="607" d="M190 420 L140 271 L132 240 L128 215 L94 114 L82 75 L66 11 L51 -36 L50 -69 L53 -78 L94 -73 L101 -71 L113 -58 L123 -2 L139 62 L157 96 L186 98 L197 100 L254 104 L265 110 L294 120 L305 126 L333 136 L344 142 L373 152 L417 176 L431 190 L453 202 L511 256 L549 331 L557 380 L557 397 L551 415 L550 432 L544 444 L541 459 L520 480 L517 490 L486 522 L468 534 L354 559 L330 560 L291 559 L276 560 L247 552 L241 543 L213 482 L190 420 Z M197 251 L211 296 L213 306 L216 313 L270 486 L324 499 L349 502 L413 488 L448 463 L469 442 L474 428 L486 413 L497 385 L492 361 L492 344 L462 284 L418 243 L407 237 L393 224 L360 206 L342 201 L320 189 L303 185 L281 173 L263 169 L241 157 L202 157 L177 154 L170 156 L197 251 Z " />
<glyph glyph-name="q" unicode="q" horiz-adv-x="578" d="M346 -213 L402 -43 L443 96 L460 135 L473 159 L496 221 L520 321 L521 359 L528 420 L524 435 L493 434 L451 455 L445 462 L400 467 L283 462 L258 453 L170 411 L141 387 L130 371 L120 363 L99 339 L76 307 L63 284 L54 218 L50 177 L53 146 L57 131 L90 72 L104 66 L113 59 L135 53 L145 44 L166 37 L180 30 L223 17 L294 20 L352 38 L368 39 L312 -131 L336 -61 L282 -224 L308 -224 L342 -229 L346 -213 Z M415 400 L457 379 L380 124 L332 83 L254 79 L224 86 L211 90 L197 100 L183 106 L163 121 L136 135 L132 150 L120 164 L115 179 L109 217 L110 255 L112 263 L125 287 L148 318 L168 334 L179 350 L199 366 L268 400 L380 413 L386 406 L415 400 Z " />
<glyph glyph-name="r" unicode="r" horiz-adv-x="560" d="M130 317 L115 267 L96 222 L70 141 L51 48 L50 17 L53 2 L84 2 L102 10 L112 17 L132 141 L197 342 L215 371 L224 380 L284 457 L314 481 L342 496 L352 504 L423 511 L454 511 L467 504 L483 504 L501 511 L510 519 L504 550 L498 558 L480 573 L464 573 L362 565 L326 550 L306 535 L289 527 L259 504 L237 481 L176 403 L153 378 L130 317 Z " />
<glyph glyph-name="s" unicode="s" horiz-adv-x="640" d="M78 34 L92 27 L133 11 L162 3 L262 3 L296 11 L336 19 L369 27 L387 34 L397 42 L425 58 L454 81 L461 88 L481 104 L489 122 L521 204 L520 227 L513 258 L500 266 L492 279 L483 289 L457 305 L436 312 L409 328 L388 336 L360 343 L333 359 L315 374 L294 382 L280 390 L277 405 L266 421 L265 444 L272 467 L292 482 L304 498 L324 513 L341 521 L351 529 L377 536 L384 536 L506 529 L498 529 L527 521 L550 521 L560 529 L569 560 L565 575 L539 590 L518 598 L394 598 L344 583 L326 575 L306 560 L288 552 L259 529 L246 513 L237 506 L224 490 L210 467 L203 444 L202 413 L212 367 L229 343 L321 289 L342 282 L371 274 L397 258 L418 251 L432 243 L442 235 L448 220 L461 212 L439 135 L380 89 L372 89 L348 77 L321 73 L288 65 L180 65 L138 81 L125 89 L104 96 L81 96 L56 81 L50 34 L78 34 Z " />
<glyph glyph-name="&amp;#xdf;" unicode="&#xdf;" horiz-adv-x="640" d="M78 34 L92 27 L133 11 L162 3 L262 3 L296 11 L336 19 L369 27 L387 34 L397 42 L425 58 L454 81 L461 88 L481 104 L489 122 L521 204 L520 227 L513 258 L500 266 L492 279 L483 289 L457 305 L436 312 L409 328 L388 336 L360 343 L333 359 L315 374 L294 382 L280 390 L277 405 L266 421 L265 444 L272 467 L292 482 L304 498 L324 513 L341 521 L351 529 L377 536 L384 536 L506 529 L498 529 L527 521 L550 521 L560 529 L569 560 L565 575 L539 590 L518 598 L394 598 L344 583 L326 575 L306 560 L288 552 L259 529 L246 513 L237 506 L224 490 L210 467 L203 444 L202 413 L212 367 L229 343 L321 289 L342 282 L371 274 L397 258 L418 251 L432 243 L442 235 L448 220 L461 212 L439 135 L380 89 L372 89 L348 77 L321 73 L288 65 L180 65 L138 81 L125 89 L104 96 L81 96 L56 81 L50 34 L78 34 Z " />
<glyph glyph-name="t" unicode="t" horiz-adv-x="515" d="M51 96 L52 73 L50 59 L66 29 L87 7 L101 4 L142 11 L175 19 L193 27 L202 58 L198 73 L129 73 L116 81 L109 112 L108 135 L109 166 L148 328 L180 467 L204 552 L390 552 L411 544 L449 544 L459 552 L457 598 L449 598 L230 620 L219 629 L244 770 L203 762 L169 644 L155 621 L137 613 L157 621 L139 613 L127 598 L128 575 L134 567 L145 559 L99 339 L94 328 L58 158 L51 96 Z " />
<glyph glyph-name="u" unicode="u" horiz-adv-x="607" d="M52 166 L50 137 L54 119 L55 96 L58 81 L65 68 L72 50 L114 34 L160 34 L186 42 L219 50 L254 65 L264 73 L291 87 L310 99 L368 150 L402 194 L412 211 L424 228 L443 266 L481 330 L488 348 L521 409 L551 482 L557 529 L554 544 L515 544 L491 513 L456 421 L431 359 L410 313 L398 297 L379 259 L369 251 L321 189 L311 181 L299 166 L289 158 L271 150 L249 127 L239 120 L204 104 L171 96 L132 96 L121 112 L111 158 L114 197 L120 243 L198 513 L194 529 L163 529 L141 506 L127 482 L64 235 L52 166 Z " />
<glyph glyph-name="&amp;#xf9;" unicode="&#xf9;" horiz-adv-x="607" d="M52 166 L50 137 L54 119 L55 96 L58 81 L65 68 L72 50 L114 34 L160 34 L186 42 L219 50 L254 65 L264 73 L291 87 L310 99 L368 150 L402 194 L412 211 L424 228 L443 266 L481 330 L488 348 L521 409 L551 482 L557 529 L554 544 L515 544 L491 513 L456 421 L431 359 L410 313 L398 297 L379 259 L369 251 L321 189 L311 181 L299 166 L289 158 L271 150 L249 127 L239 120 L204 104 L171 96 L132 96 L121 112 L111 158 L114 197 L120 243 L198 513 L194 529 L163 529 L141 506 L127 482 L64 235 L52 166 Z " />
<glyph glyph-name="&amp;#xfa;" unicode="&#xfa;" horiz-adv-x="607" d="M52 166 L50 137 L54 119 L55 96 L58 81 L65 68 L72 50 L114 34 L160 34 L186 42 L219 50 L254 65 L264 73 L291 87 L310 99 L368 150 L402 194 L412 211 L424 228 L443 266 L481 330 L488 348 L521 409 L551 482 L557 529 L554 544 L515 544 L491 513 L456 421 L431 359 L410 313 L398 297 L379 259 L369 251 L321 189 L311 181 L299 166 L289 158 L271 150 L249 127 L239 120 L204 104 L171 96 L132 96 L121 112 L111 158 L114 197 L120 243 L198 513 L194 529 L163 529 L141 506 L127 482 L64 235 L52 166 Z " />
<glyph glyph-name="&amp;#xfb;" unicode="&#xfb;" horiz-adv-x="607" d="M52 166 L50 137 L54 119 L55 96 L58 81 L65 68 L72 50 L114 34 L160 34 L186 42 L219 50 L254 65 L264 73 L291 87 L310 99 L368 150 L402 194 L412 211 L424 228 L443 266 L481 330 L488 348 L521 409 L551 482 L557 529 L554 544 L515 544 L491 513 L456 421 L431 359 L410 313 L398 297 L379 259 L369 251 L321 189 L311 181 L299 166 L289 158 L271 150 L249 127 L239 120 L204 104 L171 96 L132 96 L121 112 L111 158 L114 197 L120 243 L198 513 L194 529 L163 529 L141 506 L127 482 L64 235 L52 166 Z " />
<glyph glyph-name="&amp;#xfc;" unicode="&#xfc;" horiz-adv-x="607" d="M52 166 L50 137 L54 119 L55 96 L58 81 L65 68 L72 50 L114 34 L160 34 L186 42 L219 50 L254 65 L264 73 L291 87 L310 99 L368 150 L402 194 L412 211 L424 228 L443 266 L481 330 L488 348 L521 409 L551 482 L557 529 L554 544 L515 544 L491 513 L456 421 L431 359 L410 313 L398 297 L379 259 L369 251 L321 189 L311 181 L299 166 L289 158 L271 150 L249 127 L239 120 L204 104 L171 96 L132 96 L121 112 L111 158 L114 197 L120 243 L198 513 L194 529 L163 529 L141 506 L127 482 L64 235 L52 166 Z " />
<glyph glyph-name="v" unicode="v" horiz-adv-x="656" d="M52 478 L58 468 L60 437 L59 414 L60 398 L59 374 L64 326 L69 314 L79 221 L83 212 L85 196 L89 187 L91 172 L95 163 L99 132 L103 122 L107 91 L114 82 L121 66 L127 57 L127 41 L147 5 L168 -1 L206 2 L255 37 L261 45 L271 52 L324 111 L373 178 L386 193 L402 215 L429 244 L509 356 L531 394 L550 424 L567 447 L588 484 L606 530 L601 539 L561 535 L529 490 L490 430 L469 392 L436 347 L417 317 L401 295 L388 280 L372 258 L345 228 L329 206 L316 191 L280 139 L240 95 L230 88 L206 66 L199 67 L185 78 L179 91 L179 107 L171 117 L170 133 L165 141 L162 173 L157 182 L154 214 L149 222 L147 238 L143 247 L136 311 L131 319 L121 416 L122 440 L121 456 L122 479 L120 495 L114 520 L112 536 L93 546 L67 540 L57 533 L50 494 L52 478 Z " />
<glyph glyph-name="w" unicode="w" horiz-adv-x="847" d="M77 393 L62 323 L69 346 L52 246 L50 214 L50 191 L61 128 L61 105 L69 58 L75 47 L85 34 L90 23 L100 10 L146 8 L164 15 L174 23 L186 38 L204 53 L234 91 L280 159 L297 190 L330 243 L375 336 L408 388 L405 358 L406 334 L414 287 L414 241 L425 178 L430 168 L435 138 L441 129 L451 67 L456 56 L459 44 L464 32 L467 20 L487 12 L500 3 L530 2 L548 9 L558 17 L596 62 L611 85 L651 162 L669 192 L709 292 L760 399 L797 483 L787 498 L771 499 L749 494 L724 440 L717 432 L695 394 L670 341 L625 225 L590 164 L568 118 L550 87 L528 63 L517 81 L512 112 L507 120 L496 183 L491 191 L485 222 L480 230 L477 246 L477 293 L469 340 L468 434 L463 465 L465 496 L455 512 L440 513 L422 506 L402 491 L379 445 L361 414 L349 399 L334 376 L286 276 L251 215 L218 162 L188 116 L163 86 L145 67 L132 87 L130 103 L122 126 L122 150 L114 197 L113 244 L123 321 L123 345 L135 430 L134 445 L139 484 L128 500 L113 500 L93 485 L71 401 L77 393 Z " />
<glyph glyph-name="x" unicode="x" horiz-adv-x="703" d="M180 510 L186 499 L194 479 L197 464 L204 452 L212 433 L215 417 L221 406 L229 386 L235 375 L243 355 L258 332 L261 317 L269 305 L277 286 L286 278 L271 263 L261 255 L239 232 L227 216 L217 209 L195 186 L185 178 L118 108 L109 101 L86 77 L77 70 L52 39 L50 31 L56 23 L59 8 L92 16 L122 39 L186 101 L230 147 L242 162 L306 224 L316 216 L332 193 L338 181 L349 169 L361 146 L366 127 L373 108 L386 88 L397 76 L402 65 L422 37 L434 23 L437 8 L442 0 L486 16 L495 23 L498 31 L494 47 L490 51 L486 70 L480 88 L438 147 L431 166 L424 178 L422 190 L360 278 L372 294 L392 309 L410 330 L471 394 L483 409 L503 425 L559 487 L569 494 L623 548 L653 571 L652 595 L641 610 L625 610 L608 602 L578 579 L556 556 L544 541 L514 517 L502 502 L492 494 L457 456 L425 425 L415 417 L393 394 L381 379 L371 371 L347 340 L337 332 L321 355 L317 371 L309 385 L303 402 L295 416 L289 433 L281 447 L274 463 L263 479 L257 510 L248 533 L245 548 L236 572 L225 587 L217 587 L200 579 L178 556 L176 525 L180 510 Z " />
<glyph glyph-name="y" unicode="y" horiz-adv-x="561" d="M255 61 L320 166 L348 203 L376 256 L414 316 L439 361 L458 392 L475 414 L494 444 L511 490 L507 498 L466 494 L463 487 L400 396 L352 314 L303 247 L298 255 L286 264 L275 288 L268 298 L256 307 L251 316 L215 343 L194 369 L185 386 L175 397 L167 411 L159 420 L141 454 L139 470 L127 479 L97 482 L73 460 L69 429 L78 417 L88 395 L109 369 L109 358 L165 292 L190 270 L210 248 L211 237 L257 188 L269 178 L256 164 L217 104 L162 -3 L90 -131 L56 -200 L50 -215 L52 -231 L56 -239 L107 -228 L113 -213 L123 -206 L174 -91 L255 61 Z " />
<glyph glyph-name="&amp;#xfd;" unicode="&#xfd;" horiz-adv-x="561" d="M255 61 L320 166 L348 203 L376 256 L414 316 L439 361 L458 392 L475 414 L494 444 L511 490 L507 498 L466 494 L463 487 L400 396 L352 314 L303 247 L298 255 L286 264 L275 288 L268 298 L256 307 L251 316 L215 343 L194 369 L185 386 L175 397 L167 411 L159 420 L141 454 L139 470 L127 479 L97 482 L73 460 L69 429 L78 417 L88 395 L109 369 L109 358 L165 292 L190 270 L210 248 L211 237 L257 188 L269 178 L256 164 L217 104 L162 -3 L90 -131 L56 -200 L50 -215 L52 -231 L56 -239 L107 -228 L113 -213 L123 -206 L174 -91 L255 61 Z " />
<glyph glyph-name="&amp;#xff;" unicode="&#xff;" horiz-adv-x="561" d="M255 61 L320 166 L348 203 L376 256 L414 316 L439 361 L458 392 L475 414 L494 444 L511 490 L507 498 L466 494 L463 487 L400 396 L352 314 L303 247 L298 255 L286 264 L275 288 L268 298 L256 307 L251 316 L215 343 L194 369 L185 386 L175 397 L167 411 L159 420 L141 454 L139 470 L127 479 L97 482 L73 460 L69 429 L78 417 L88 395 L109 369 L109 358 L165 292 L190 270 L210 248 L211 237 L257 188 L269 178 L256 164 L217 104 L162 -3 L90 -131 L56 -200 L50 -215 L52 -231 L56 -239 L107 -228 L113 -213 L123 -206 L174 -91 L255 61 Z " />
<glyph glyph-name="z" unicode="z" horiz-adv-x="599" d="M541 565 L537 569 L492 576 L351 569 L233 561 L200 553 L188 538 L187 507 L192 499 L334 507 L436 514 L467 514 L453 491 L413 460 L389 429 L367 406 L347 391 L334 378 L313 352 L290 329 L271 314 L258 298 L253 289 L236 275 L224 259 L214 252 L150 190 L102 128 L88 105 L75 90 L61 66 L50 28 L53 12 L66 5 L87 -3 L180 -3 L252 5 L291 12 L370 20 L400 43 L399 66 L388 82 L372 82 L308 74 L277 66 L198 59 L121 59 L123 66 L135 82 L149 105 L186 151 L282 244 L294 260 L310 274 L358 321 L370 337 L386 351 L402 368 L418 382 L468 437 L478 445 L515 491 L534 507 L549 530 L541 565 Z " />
<glyph glyph-name="braceleft" unicode="&#x7b;" horiz-adv-x="428" d="M373 680 L344 688 L311 680 L293 672 L254 641 L232 618 L205 580 L192 533 L191 517 L171 430 L156 410 L100 402 L90 394 L87 351 L92 348 L108 348 L123 346 L130 342 L143 340 L146 320 L147 323 L90 70 L57 -100 L51 -146 L50 -177 L51 -200 L54 -215 L68 -223 L106 -223 L115 -192 L113 -146 L114 -115 L126 -46 L130 -7 L144 70 L167 178 L199 317 L198 340 L191 355 L193 363 L209 379 L221 394 L248 487 L254 533 L262 564 L277 587 L297 603 L308 616 L335 632 L344 634 L364 649 L378 672 L377 676 L373 680 Z " />
<glyph glyph-name="braceright" unicode="&#x7d;" horiz-adv-x="470" d="M363 410 L360 430 L390 517 L398 533 L411 580 L407 618 L398 641 L376 672 L363 680 L334 688 L316 683 L301 680 L291 672 L292 649 L303 634 L311 632 L330 616 L333 603 L344 587 L345 564 L336 533 L315 487 L289 394 L292 379 L299 363 L297 355 L281 340 L267 317 L219 178 L180 70 L151 -7 L132 -46 L104 -115 L88 -146 L59 -192 L50 -223 L89 -223 L106 -215 L118 -200 L133 -177 L149 -146 L170 -100 L234 70 L322 323 L321 320 L336 340 L350 342 L360 346 L376 348 L391 348 L399 351 L420 394 L415 402 L363 410 Z " />
<glyph glyph-name="asciitilde" unicode="&#x7e;" horiz-adv-x="588" d="M503 365 L481 342 L458 288 L444 264 L434 257 L361 272 L356 276 L348 280 L324 303 L310 311 L305 318 L278 334 L273 342 L260 349 L254 357 L233 365 L179 365 L142 349 L134 342 L114 328 L106 326 L86 311 L50 264 L51 241 L72 234 L88 234 L105 241 L120 264 L132 280 L149 288 L159 295 L177 303 L215 303 L224 291 L240 280 L246 271 L256 263 L269 249 L280 240 L294 226 L336 210 L393 195 L401 195 L434 203 L469 218 L499 241 L515 272 L538 349 L534 365 L503 365 Z " />
<glyph glyph-name="nonbreakingspace" unicode="&#xa0;" horiz-adv-x="335" d="" />
<glyph glyph-name="softhyphen" unicode="&#xad;" d="" />
<glyph glyph-name="divide" unicode="&#xf7;" horiz-adv-x="788" d="M357 153 L337 138 L325 123 L321 84 L335 76 L381 76 L391 84 L408 146 L405 161 L374 161 L357 153 Z M712 316 L580 316 L563 309 L112 324 L96 324 L63 316 L61 309 L51 301 L50 270 L56 262 L604 262 L724 278 L738 301 L733 309 L712 316 Z M451 431 L468 492 L465 508 L434 508 L417 500 L397 485 L385 469 L381 431 L394 423 L441 423 L451 431 Z " />
</font>
</svg>
